<?xml version="1.0" encoding="UTF-8"?>
<svg id="Layer_2" data-name="Layer 2" xmlns="http://www.w3.org/2000/svg" viewBox="0 0 1050.03 192.71">
  <defs>
    <style>
      .cls-1 {
        fill: navy;
      }
    </style>
  </defs>
  <g id="Layer_1-2" data-name="Layer 1">
    <g>
      <path class="cls-1" d="M430.6,0v126.42H0V0h430.6ZM357.67,71.67v25.38c0,.23-1.9,1.33-.49,1.5,2.38.9,1.67-3.26,2.58-3.9,2.06-1.45,7.65,2.63,9.92,3.37,17.88,5.78,44.09-2.71,35.73-25.64-5.06-13.87-32.25-19.67-33.77-33.03-2.15-18.84,22.39-16.75,27.19-2.21l3.79,10.64c.02-6.16,0-12.39.14-18.52.03-1.31.99-3.24.87-3.36-2-2.05-2.21,2.98-2.93,3.55-1.78,1.42-9.62-3.55-12.83-4.28-11.33-2.57-27.72,1.14-29.96,14.39-4.33,25.72,37.56,25.74,33.67,49.49-2.11,12.88-26.42,11.23-29.1-1.75l-4.8-15.62ZM61.44,25.88c-11.98-1.34-26.23.99-38.46,0,1.23,2.1,4.28.51,6.46,3.02,1.45,1.66,1.39,3.38,1.58,5.4,1.66,18.3-1.27,39.13-.11,57.71-.18,1.15-.59,2.77-1.42,3.56-1.79,1.7-5.69.59-6.5,2.97,6.68.16,12.75-1.18,19.53-1.03,3.07.07,5.81.95,8.89,1.09,1.05.05,9.66.32,6.54-2.03-17.44,3.2-9.12-17.44-10.99-27.88,13.96.9,33.66-2.88,35.88-19.49,1.86-13.97-8.5-21.87-21.39-23.31ZM131.38,25.88c-12.29-1.37-26.91,1.02-39.46,0,1.23,2.1,4.28.51,6.46,3.02,1.45,1.66,1.39,3.38,1.58,5.4,1.66,18.3-1.27,39.13-.11,57.71-.18,1.15-.59,2.77-1.42,3.56-1.79,1.7-5.69.59-6.5,2.97,10.41-1.05,20.55-1.47,30.97,0-2.31-2.65-7.99-2.55-7.99-7.46v-27.37c30.66-6.17,6.08,39.58,36.5,35.86,2.53-.31,10.56-3.17,8.97-5.99-10.49,8.22-10.06-11.95-12.44-18.48-2.69-7.39-10.54-10.81-18.04-10.4-.31-2.39-.04-1.59,1.38-2.1,7.56-2.67,15.43-2.78,19.09-11.84,5.98-14.81-5.34-23.35-18.98-24.88ZM188.82,40.81c-2.11.79-1.54,3.54-2,4.98-1.05,2.23-1.19,2.43-2,4.98-6.29,13.64-11.04,28.1-17.55,41.74l-5.42,6.04c6.58-2,12.4-.28,18.98,0-1.21-2.75-4.81-1.69-6.97-3.5-5.28-4.42,1.7-18.61,3.93-23.91,1.26-.85,23.44-.86,24.13.13.44,4.51,8.94,21.02,6.75,24.16-.68.98-6.44.94-6.85,3.11,10.03-1.29,19.94-1.3,29.96,0l-6.17-8.27-24.95-64.22c-.72-.43-5.96-.43-6.67,0-1.29.78-4.42,12.44-5.16,14.76ZM265.75,25.88h-29.97l5.41,5.07,23.47,35.11c-8.13,8.46-13.57,20.78-22.94,27.94-2.14,1.64-6.41,1.69-5.93,4.54,8.29-2.19,16.62-.34,24.97,0-1.43-2.93-5.29-1.53-7.46-4-6.49-7.35,8.07-21.68,11.96-27.83,2.35,3.55,19.54,26.64,19.46,28.36-.06,1.36-5.71,2.11-6.96,2.5-.27,1.56,1.43,1.09,2.52,1.02,8.85-.55,17.48-2.05,26.44-.05l-29.93-42.29c-.1-3.16,17.82-24.46,21.43-27.39,1.59-1.29,4.09-1.33,4.51-2.98h-21.98c.89,2.02,5.16,1.57,6.73,3.24,3.15,3.34-.06,8.79-1.91,12.01-.87,1.52-8.57,12.43-9.33,12.62-1.37.34-2.2-1.24-2.9-2.07-2-2.35-14.15-19.84-14.42-21.53-.19-1.18-.33-2.07.82-2.82,1.84-1.21,5.61.72,6.03-1.45ZM344.68,25.88h-31.97c.81,2.13,4.91.38,6.76,2.23,1.1,1.1,1.15,3.66,1.28,5.2,1.61,19.08-1.26,40.41-.07,59.74-.33,4.3-5.39,2.41-6.97,5.49,6.52-.61,12.93-1.18,19.53-1.03,3.1.07,5.83,1.05,8.92,1.09,1.12.01,2.79.55,2.52-1.03-4.99-1.05-7.34-.75-8-6.47-2.1-18.2,1.65-40.18-.03-58.8-.04-1.73,1.04-3.58,2.49-4.49,2.27-1.42,5.04-.04,5.56-1.93Z"/>
      <path class="cls-1" d="M188.82,40.81c1.84-.69,1.68.17,2.26,1.25,3.93,7.27,6.23,19.68,9.73,27.61h-21.98c1.62-6.42,3.99-12.6,5.99-18.91,1-2.17,1.19-2.43,2-4.98,1.05-2.23,1.19-2.43,2-4.98Z"/>
      <rect class="cls-1" x="451.58" y="115.47" width="598.44" height="10.95"/>
      <path class="cls-1" d="M1050.03,0v10.95H451.58c.14-1.99-.79-10.95,1.5-10.95h596.95Z"/>
      <path class="cls-1" d="M1037.04,25.88v23.89c-5.43.62-4.11-7.46-6.43-12.01-2.01-3.93-5.71-7.19-10.14-7.81-2.47-.35-14.4-.88-14.4,2.4v29.37c6.12.54,10-1.3,12.72-6.74,1.54-3.08.93-8.31,5.27-7.2v28.37c0,.3,1.38,1.4,1,2.48-5.48,1.13-3.69-2.13-5.51-5.95-2.94-6.19-6.27-8.5-13.47-7.98v29.37c0,4.51,11.13,3.78,14.25,3.25,11.8-2,12.34-10.56,15.04-19.87.3-1.02.42-3.63,2.16-2.78,3.51,1.72-.1,21.52,2.51,25.87h-58.95c-1.54-4.98,4.58-1.81,6.48-4.99.95-1.58,1.41-7.22,1.56-9.4.91-13.35,1.06-35.5-.17-48.69-.09-.99-.84-6.17-1.03-6.44-.95-1.42-8.37-.05-6.84-5.13h55.94Z"/>
      <path class="cls-1" d="M554.49,35.34c-1.22-5.62-7.01-4.65-9-5.96-1.15-.76-1.37-3.12-.99-3.49.76-.74,8.38,1.05,10.47,1.07s10.06-1.53,10.51-1.07c.14.14.08,3.77-.06,3.91-.31.32-6.94.28-6.94,4.54v66.2c-2.73-.1-5.95.8-8.07-1.41l-42.88-54.33v45.29c0,.34,1.57,4.59,1.93,5.05,2.71,3.44,9.53.35,8.06,5.4h-20.98c-.78-4.26,1.14-2.41,3.69-3.75,4.1-2.16,4.05-7.29,4.35-11.63.83-12.44,1.4-37.85-.14-49.72-.73-5.61-2.35-6.11-7.9-5.57-1.46-6.95,4.58-2.93,9.5-2.89,3.52.03,7.23-2.26,10.06-.16,12.01,14.32,23.16,30.33,35.42,44.34.35.4,5,5.31,2.97,2.02-1.59-10.71,2.14-27.97,0-37.83Z"/>
      <path class="cls-1" d="M615.43,28.37c0-.23-1.14-.69-.58-1.5,1.88-2.74,16.26-.03,20.01.06,14.67.33,29.23-.67,43.86-.9,1.42.47,1.4,1.11,1.62,2.36,1.08,6.19-3.44,17.56.03,24.36-1.07-.13-2.44.28-3.37.06s-3.05-10.62-4.12-12.98c-3.15-6.9-8.59-11.03-16.48-9.96v63.21c0,1.08,2.6,3.61,3.93,4.04,3.89,1.27,8.18-1.53,7.06,3.42h-39.96c-1.11-4.9,3.11-2.2,7.05-3.43.92-.29,3.94-2.5,3.94-3.04V31.36c0-.21,1.5-1.13,1-1.48-8.87-.95-14.24,3.02-17.48,10.95-1.72,4.22-1.32,12.65-6.5,11.94-.02-8.12.03-16.26,0-24.39Z"/>
      <path class="cls-1" d="M794.26,28.37c0-.23-1.14-.69-.58-1.5,1.88-2.74,16.26-.03,20.01.06,14.67.33,29.24-.67,43.87-.9,3.41,1.13.66,9.03.59,12.26-.11,4.7-.53,10.15,1.05,14.47-1.06-.16-2.58.3-3.43.07-.66-.18-3.11-10.83-4.08-12.98-3.18-7.1-8.38-10.92-16.47-9.97v63.21c0,1.08,2.6,3.61,3.93,4.04,3.89,1.27,8.18-1.53,7.06,3.42h-39.96c-1.11-4.9,3.11-2.2,7.05-3.43.92-.29,3.94-2.5,3.94-3.04V31.36c0-.21,1.5-1.13,1-1.48-8.87-.95-14.24,3.02-17.48,10.95-1.72,4.22-1.32,12.65-6.5,11.94-.02-8.12.03-16.26,0-24.39Z"/>
      <path class="cls-1" d="M724.33,100.54c-1.64-1.44,8.03-6.99,7.7-9.74l25.16-64.3c.96-1.25,7.41-1.06,8.6.37l24.96,64.72c.95,4.28,7.25,4.73,6.51,8.95h-32.97c-.27-4.51,7.87-2.13,7.97-6.41.03-1.09-6.68-19.72-7.44-20.49-2.34-2.38-17.68-.19-21.9-1.03-1.81,5.14-9.1,19.62-3.56,23.41,3.32,2.27,8.17-.21,6.95,4.53h-21.98ZM763.29,69.68l-9.49-25.89-9.49,25.89h18.98Z"/>
      <path class="cls-1" d="M936.13,25.89v3.97c-3.72-.14-7.99-.82-6.81,4.23,6.49,15.78,11.73,32.34,19.3,47.53,2.39-10.72,18.2-39.14,13.96-48.75-1.77-4-9.16-2.23-8.46-5.48s10.91-.5,13.48-.42c2.29.07,8.86-2.41,9.49.42.44,1.97-5.26,4.04-5.99,5.96-9.96,21.09-16.75,43.73-25.14,65.54-1.58,2.64-8.03,2.51-9.75.08l-26.19-64.49c-1.2-5.37-7.34-2.89-5.87-8.58,10.71,1.12,21.26,1.12,31.98,0Z"/>
      <path class="cls-1" d="M574.47,100.54c-1.56-5.32,6.04-1.24,6.99-6.47l.07-61.75c-.5-4.4-9.28.47-7.06-6.43,10.89,1.19,21.6,1.03,32.46-.01,1.89,6.63-6.23.87-7.42,8.53-1.66,10.73-1.26,46.34-.07,57.69.59,5.57,2.73,5.49,8,5.46v2.98h-32.98Z"/>
      <path class="cls-1" d="M688.36,100.54c-1.56-5.32,6.04-1.24,6.99-6.47l.07-61.75c-.5-4.4-9.28.47-7.06-6.43,10.89,1.19,21.6,1.03,32.46-.01,1.89,6.63-6.23.87-7.42,8.53-1.66,10.73-1.26,46.34-.07,57.69.59,5.57,2.73,5.49,8,5.46v2.98h-32.98Z"/>
      <path class="cls-1" d="M867.2,100.54c.12-.8-.2-2.78,0-2.98.87-.9,6.74,1.84,7.43-5.83l-.43-59.38c-.45-4.36-9.05-.59-6.49-6.47,10.84,1.28,21.59,1.08,32.46.01.43,6.84-6.74.87-7.92,8.52-1.82,11.75-.93,41.98-.11,54.72.42,6.52.42,8.93,8.05,8.42v2.98h-32.98Z"/>
      <path class="cls-1" d="M454.58,100.54v-2.98c7.62.51,7.62-1.9,8.04-8.42.82-12.75,1.7-42.98-.11-54.72-1.18-7.65-8.35-1.68-7.92-8.52,11.04,1.16,21.97,1.14,32.97,0v3.97c-7.1-1-7.2,1.45-7.87,7.6-1.36,12.47-1.25,38.05-.16,50.68.3,3.52.41,7.64,4.02,8.97,2.9,1.07,4.76-.96,4.01,3.44h-32.97Z"/>
      <path class="cls-1" d="M479.56,174.2c2.66-1.25,8.58-10.88,7.55-12.92-1.23-2.44-6.44-3.43-1.62-7.55,2.75-2.35,6.08-.82,6.91,2.28,1.55,5.83-17.98,32.17-23.45,34.98-11.2,5.77-11.65-9.39-3.08-6.67,1.35.43,4.03,4.7,5.69,1.08,1.84-3.98.05-7.37,0-10.72-.05-4.19,1.52-15.72-2.63-17.28-4.45-1.67-.74,6.61-6.73,4.86-.86-.25-.27-3.36-2.64-1.52-1.57,1.22-4.56,8.22-5.47,10.48-2.79,6.94-.13,11.15-10.52,8.44.78-3.44,7.38-21.64,5.93-23.33-.13-.15-5.3.19-2.92-2.03.44-.41,10.26-1.85,11.98-1.99l-2.5,8.93c1.7-1.49,2.1-3.73,3.51-5.45,6.15-7.54,6.54-.55,7.57-.46,1.73.16,7.83-2.95,8.94-2.8s3.46,6.3,3.46,7.24v14.43Z"/>
      <path class="cls-1" d="M87.42,140.36c8,1.41,10.58,9.51,6.03,15.97-4.97,7.06-11.72,6.05-19.48,5.98.59,5.91-8.21,16.19,1.96,15.9.32.31-1.29,1.98-1.5,1.98h-18.48c-.78-3.42,3.5-1.38,5.07-3.66.89-1.29,8.46-27.49,8.71-29.96.63-6.26-3.7-1.98-3.79-6.2,6.47.8,15.35-1.08,21.48,0ZM74.93,159.26c6.45,1.62,11.82-5.6,11.02-11.39-.36-2.58-4.53-6.31-6.51-3.53s-2.13,11.6-4.5,14.91Z"/>
      <path class="cls-1" d="M236.78,154.3c1.56,1.61-.49,5.64-4,3.99,2.87,5.17-2.54,11.68-7.72,12.71-3.51.7-7.64-.97-10.26,1.72,5.93,3.05,15.48,2.06,15.08,10.97-.41,9.11-12.61,9.43-19.51,8.38-9.98-1.52-9.26-11.15.44-11.89-4.35-4.31-2.37-8.24,3-9.96-6.61-5.89-5.17-13.11,3.02-16.38,7.2-2.88,7.43-.6,13.54.4,1.48.24,6.2-.15,6.42.08ZM217.8,168.23c5.58,2.6,9.67-10.72,7.05-12.5-5.35-3.63-7.55,9-7.05,12.5ZM210.06,187.88c3.28,3.25,12.29,3.37,13.69-2.13-.45-2.16-8.33-4.52-10.32-4.31-2.84.3-5.68,4.15-3.37,6.44Z"/>
      <path class="cls-1" d="M286.73,139.37l-6.97,22.4,8.27-7.67c16.07-6.48,4.52,13.88,3.71,21.1,1.52.01,1.69-2.75,2.49-3.01,6.09-2.01-1.27,6.98-5.22,7.81-11.74,2.46-2.63-13.34-1.47-18.44,1.27-5.55-4.72.81-5.8,2.19s-2.6,3.97-3.38,5.59c-3.54,7.32-.72,12.8-11.6,10.83.7-4.71,11.34-35.21,9.96-36.8-.13-.15-4.97.45-2.97-2,.41-.51,12.49-2.43,12.98-2Z"/>
      <path class="cls-1" d="M375.65,139.37l-6.98,23.88,7.65-8.78c16.86-7.65,5.51,13.02,4.34,20.73,9.49-7.97,2.97,2.96-1.95,4.54-12.08,3.88-3.44-13.08-2.25-18.18.3-1.27.62-3.06-1.29-2.28-1.79.73-5.6,6.34-6.67,8.29-1.64,2.99-3.52,10.69-4.31,11.63-1.49,1.76-8.6,1.75-8.12-1.08,1.37-4.41,11.02-32.97,9.52-34.73-.13-.15-4.88.37-2.91-2.02.42-.51,12.49-2.43,12.98-2Z"/>
      <path class="cls-1" d="M772.28,152.31l-2.98,9.95c3.19-3.08,8.1-10.51,13.24-9.79,8.7,1.23-.31,17.22-1.27,22.22,1.16.98,2.61-2.08,3.52-2.47,3.85-1.63-1.31,6.82-5.27,7.75-12.04,2.85-3.38-13.44-2.01-19,.23-.94,1.87-2.31-.73-1.72-8.47,1.91-11.58,20.08-12.61,20.79-1.09.75-6.03-.24-7.86.12-1.19-1.12,7.33-22.26,5.96-23.86-.13-.15-5.37.27-2.97-2.01.58-.55,11.03-1.68,12.98-1.99Z"/>
      <path class="cls-1" d="M981.09,152.31l-2.5,9.93c1.86-3.92,12.31-14.07,16-7.95,2.32,3.85-3.07,16.04-4.48,20.43,1.41.68,2.46-2.06,3.49-2.49,3.83-1.63-1.26,6.75-5.27,7.74-11.27,2.79-3.22-13.83-2.03-18.99.21-.9,1.91-2.3-.72-1.71-2.9.65-8.05,7.95-9.32,10.63-3.42,7.19.02,12.12-11.15,10.29-1.09-1.03,7.68-21.77,5.91-23.84-.13-.15-5.29.2-2.92-2.03.59-.55,11.02-1.68,12.98-1.99Z"/>
      <path class="cls-1" d="M190.82,152.31l-2.98,9.95c3.19-3.08,8.1-10.51,13.24-9.79,8.7,1.23-.31,17.22-1.27,22.22,1.16.98,2.61-2.08,3.52-2.47,3.85-1.63-1.31,6.82-5.27,7.75-11.84,2.8-3.4-13.34-2.01-19,.23-.94,1.87-2.31-.73-1.72-8.47,1.91-11.58,20.08-12.61,20.79-1.09.75-6.03-.24-7.86.12-1.05-1,7.44-22.17,5.96-23.86-.13-.15-5.38.27-2.97-2,.58-.55,11.03-1.68,12.98-1.99Z"/>
      <path class="cls-1" d="M560.47,141.35c-3.05.45-8.42,10.53-6.99,11.94.31.31,4.61-1.03,2.99,2.48-.93,2.02-4.08,1.06-4.82,1.66-.62.5-3.3,12.85-4.14,15.29-2.62,7.61-8.42,24.41-20,18.88-6.75-3.22,5.46-11.37,5.48-1.49,1.46-1.14,1.93-2.81,2.54-4.44,2.5-6.59,6.36-20.09,7.85-27.03.6-2.8-3.12-.71-3.9-1.39.81-5.51,2.54-3.06,4.97-4.46.95-.55,4.11-7.36,6.47-9.51,3.03-2.76,9.47-5.61,13.11-3.02,7.18,5.13-7.24,12.73-3.58,1.07Z"/>
      <path class="cls-1" d="M110.89,152.31l-6.99,21.88c4.84-1.3,8.05-7.27,10.02-11.41,3.3-6.94.02-11.18,10.96-9.48l-5.98,21.89c10.4-8.92,1.35,6.9-5.11,5.49-5.34-1.16-3.48-5.85-2.38-9.45-2.49,3.84-9.13,12.06-14.35,8.79-4.2-2.63,3.84-18.21,3.94-22.31.05-1.84-3.93-1.58-2.09-3.42.43-.43,10.25-1.83,11.98-1.99Z"/>
      <path class="cls-1" d="M603.44,152.31l-6.99,21.88c1.76,1.74,8.39-8.17,9.02-9.42,3.72-7.36.72-13.43,11.95-11.47.85.76-7.13,18.81-5.5,21.89l3.49-2.98c-1.48,10.02-17.4,12.82-11.47-.98-3.37,3.45-5.48,8.74-11.02,9-10.97.51,1.29-18.14.53-23.44l-3.01-1c1.18-1.98,12.44-3.98,12.98-3.48Z"/>
      <path class="cls-1" d="M869.18,155.28c.08-.06-.3-1.74.66-1.99,1.74-.46,4.41.29,6.35.02l-5.98,21.41,4.98-2.5c-.25,7.62-14.97,13.8-12.47,2.01-6.24,9.96-15.11,8.69-13.41-4.42.78-6.04,9.21-19.25,16.18-17.36,1.31.35,3.11,3.27,3.7,2.84ZM866.19,155.29c-5.52-.48-10.71,17.12-8.98,18.9,3.67,3.8,11.73-15.37,8.98-18.9Z"/>
      <path class="cls-1" d="M523.28,152.5c18.39-2.54,11.65,26.52-5.92,28.01-17.72,1.5-9.19-25.92,5.92-28.01ZM523.16,155.42c-4.09,1.11-10.67,21.51-6.13,22.76,3.52.97,7.24-9.26,8-11.92s3.54-12.31-1.87-10.84Z"/>
      <path class="cls-1" d="M952.88,152.5c10.8-1.51,11.91,8.82,8.72,16.72-6.19,15.38-31.21,16.07-23.66-3.66,2.32-6.05,8.23-12.12,14.94-13.06ZM955.11,155.28c-.32-.3-3.14-.02-4,.49-2.84,1.69-8.5,20.64-5.97,22.41,5.58,3.9,12.48-20.5,9.98-22.9Z"/>
      <path class="cls-1" d="M431.36,152.5c15.62-2.18,12,20.76-.52,26.43-11.38,5.15-18.88-1.59-14.41-13.37,2.29-6.05,8.25-12.12,14.93-13.06ZM433.59,155.28c-.32-.3-3.14-.02-4,.49-3,1.79-8.3,20.87-5.97,22.4,5.71,3.77,12.43-20.55,9.98-22.9Z"/>
      <path class="cls-1" d="M822,152.5c15.39-2.2,11.77,20.41-1.37,26.57-21.63,10.14-18.88-23.68,1.37-26.57ZM824.23,155.28c-2.83-2.78-6.56,3.95-7.47,5.99-1.2,2.68-5.59,15.94-1.98,16.9,3.77.33,5.8-5.03,6.95-7.97.97-2.46,3.93-13.53,2.51-14.92Z"/>
      <path class="cls-1" d="M308.74,169.25c-1.9,2,.47,8.16,6.79,6.28.81-.24,9.71-5.97,6.69-1.31-3.93,6.07-18.21,10.02-21.74,1.71-4.79-11.28,14.78-29.12,23.18-22.1,5.03,4.21-1.97,10.85-5.91,12.95-2.66,1.42-8.7,2.13-9.02,2.47ZM317.7,155.29c-3.43-.58-9.37,9.51-7.98,10.94,5.31-.76,8.79-5.69,7.98-10.94Z"/>
      <path class="cls-1" d="M397.66,169.25c-.3.31-.09,3.38.18,4.24,2.2,7.08,12.7-2.31,13.78-1.28-1.99,7.69-16.96,12-21.39,4.89-6.04-9.69,9.92-27.43,20.42-24.4,8.75,2.53,1.13,12.1-4.5,14.54-2.18.95-8.19,1.68-8.49,2ZM406.62,155.29c-2.35-2.79-13.53,16.66-3.94,9.5,3.01-2.25,4.47-5.76,3.94-9.5Z"/>
      <path class="cls-1" d="M708.38,169.26c-1.26,1.34.19,5.73,2.95,6.53,4.43,1.29,6.87-2.49,9.52-3.57,4.32-1.75-1.78,5.28-5.12,6.85-18.73,8.78-19.94-14.08-6.32-23.22,16.33-10.96,22.01,6,6.92,11.87-1.93.75-7.67,1.24-7.95,1.54ZM714.99,163.9c1.25-1.28,4.64-8.06,1.83-8.61-2.3-.45-6.91,7.63-7.46,9.47-.98,3.3,4.52.27,5.63-.87Z"/>
      <path class="cls-1" d="M585.45,152.31c-2.73,8.7-8.75,46.61-23.97,39.3-7.65-3.67,7.75-10.87,4.01-1.97,1.46.82,2-1.78,2.28-2.69,1.14-3.71,8.64-29.41,7.61-30.62-.13-.15-5.29.2-2.92-2.03.59-.55,11.02-1.68,12.98-1.99Z"/>
      <path class="cls-1" d="M640.4,152.3l-1,9.95c-3.51.57-1.78-3.95-4.57-5.89-1.52-1.05-3.61-1.17-5.41-1.07-.63,8.94,12.58,10.98,6.44,20.85-4.72,7.59-9.9,3.03-14.99,3.5-.91.08-3.17,3.12-3.22-.71-.02-1.47.9-8.05,2.29-8.71,2.21-1.04,1.52,5.11,4.06,6.87,1.66,1.15,5.5,2.02,6.33-.55,2.04-6.35-13.28-11.35-7.36-20.23,4.56-6.83,11.31-1.72,17.43-4.02Z"/>
      <path class="cls-1" d="M691.5,162.12c-1.25-1.96.61-5.18,1.86-6.82-6.69-5.43-19.85,26.93-1.3,19.09.55-.23,5.82-4.28,4.29-.7s-9.58,7.24-13.32,7.13c-18.24-.55-4.15-33.16,12.17-27.87,9.95,3.22-.42,14.3-3.7,9.17Z"/>
      <path class="cls-1" d="M898.17,155.3c-8.85-2.85-14.08,15.3-10.01,19.42,3.63,3.68,7.97-1.46,10.52-2.5,4.19-1.7-1.83,5.39-3.55,6.42-4.65,2.79-12.86,3.24-15.73-2.17-4.98-9.39,7.03-24.5,17.18-24.1,11.11.44,5.51,14.36.01,9.96-4.05-3.24,2.2-6.52,1.57-7.04Z"/>
      <path class="cls-1" d="M806.25,145.34c.68.62-2.39,6.71-3,7.95,3.51-1.7,3.63,3.61,3.01,3.99s-3.19-.49-3.9.09c-.76.62-4.83,16.42-5.09,18.82l4.49-3.98c1.43,5.49-8,11.39-11.98,6.9-3.03-3.41,3.51-16.74,4.5-21.32-.07-1.16-2.65-.13-3.01-.52-2.46-2.6,4.24-4.29,5.93-5.54s7.09-8.19,9.05-6.4Z"/>
      <path class="cls-1" d="M357.66,145.34c.68.62-2.39,6.71-3,7.95,3.51-1.7,3.63,3.61,3.01,3.99-.68.42-3.17-.78-4.13.58-2.03,2.88-2.84,14.21-5.86,17.85,2.09,1.54,3.99-2.56,5.49-3.49,1.7,3.73-6.03,9.51-9.53,8.54-8.25-2.28,1.23-17.52,2.05-22.96-.07-1.16-2.65-.13-3.01-.52-2.46-2.6,4.24-4.29,5.93-5.54s7.09-8.19,9.05-6.4Z"/>
      <path class="cls-1" d="M921.14,145.34c.69.63-2.32,5.44-2.04,7.34.09.65,1.83.56,2.04,1.26,1.55,5.22-2.78,2.52-3.89,3.43-.76.63-5.08,16.73-4.6,18.82l4.49-3.98c1.33,5.37-9.69,11.6-12.49,6.98-2.46-4.08,3.4-16.6,4.52-21.4-.07-1.16-2.65-.13-3.01-.52-2.44-2.58,3.77-4.07,5.32-5.15,2.71-1.9,4.17-3.98,6.24-5.73.94-.8,2.59-1.82,3.43-1.05Z"/>
      <path class="cls-1" d="M159.85,145.34l-1.99,7.94c5.46,1.76,10.46-.79,15.98-.98l-6.98,22.4c1.92,1.63,3.88-1.87,4.01-3.48,5.95.21-3.41,8.1-4.78,8.76-12.92,6.13-3.46-17.53-1.28-22.22l-4.94-3.46c1.09,4.96-2.68,2.11-3.9,3.07-.77.61-4.84,16.72-4.6,18.82,6.7-7.92,6.31-.69.88,2.86-2.76,1.8-8.58,2.85-9.4-1.37-1-5.14,4.08-14.46,5.04-19.89-.08-1.16-2.65-.13-3.01-.52-2.4-2.53,3.69-4.1,5.3-5.17,1.35-.9,9.07-7.42,9.68-6.77Z"/>
      <path class="cls-1" d="M267.75,145.34l-2,7.95c8.43.55-.65,4.09-1.07,4.64-2.56,3.32-2.87,13.8-5.9,17.77,2.09,1.54,3.99-2.56,5.49-3.49,1.17,5.21-8.59,11.91-12.57,6.53-2.5-3.37,4.18-16.86,5.08-21.46l-3.99-.5c.99-3.37,4.19-2.94,6.33-4.64,1.32-1.05,7.64-7.91,8.64-6.8Z"/>
      <path class="cls-1" d="M140.86,153.29c8.42.55-.63,4.07-1.07,4.64-2.33,2.98-2.84,14.01-5.91,17.77,2.09,1.54,3.99-2.56,5.49-3.49,1.7,3.73-6.03,9.51-9.53,8.54-8.43-2.33,1.65-17.9,2.04-23.47l-3.99-.5c1.15-3.43,4.44-3.11,6.93-5.05,1.43-1.11,5.98-6.27,6.57-6.4,4.12-.9.68,6.04-.52,7.95Z"/>
      <path class="cls-1" d="M658.38,145.34c.74,1.78-2.68,7.26-2,7.95.57.58,3.41-1.29,2.98,1.48-.46,2.98-3.56,2.12-4.82,4.14-.7,1.13-4.59,13.72-5.09,15.85-1.19,5.05,4.09-2.52,4.44-2.54,5.16-.2-4.69,11.31-10.72,7.97-5.18-2.87,3.52-17.62,3.25-22.41l-3.01-1.99,14.97-10.46Z"/>
      <path class="cls-1" d="M935.13,152.31l-6.98,22.4c1.92,1.63,3.88-1.87,4.01-3.48,5.81,0-2.88,7.67-4.11,8.39-4.53,2.65-8.35.74-7.87-4.8.3-3.45,6.7-16.37,4.89-18.48-.13-.15-5.29.2-2.92-2.03.59-.55,11.02-1.68,12.98-1.99Z"/>
      <path class="cls-1" d="M666.39,175.19l4.98-3.98c1.23,6.58-11.95,13.78-13.84,6.28-.7-2.76,7.01-19.95,5.86-21.21-.13-.15-5.01.51-2.99-1.98.44-.54,13.15-3.35,12.59.06-1.04,6.33-6.16,14.01-6.59,20.83Z"/>
      <path class="cls-1" d="M755.29,152.31l-6.98,22.4c1.92,1.63,3.88-1.87,4.01-3.48,2.14-.47,2.58.48,1.84,2.34-.86,2.16-6.28,6.68-8.71,7.08-11.78,1.96,1.13-20.12.8-22.88-.22-1.88-4.88-.26-3.94-3.46l12.98-1.99Z"/>
      <path class="cls-1" d="M581.18,139.51c4.16-1.15,7.85,4.24,4.74,7.76-5.54,6.27-12.55-5.6-4.74-7.76Z"/>
      <path class="cls-1" d="M669.1,139.51c5.79-1.6,9.06,8.44,1.39,9.34-5.2.61-6.96-7.8-1.39-9.34Z"/>
      <path class="cls-1" d="M170.57,139.53c7.44-1.07,6.38,9.44.77,9.44-4.65,0-7.09-8.54-.77-9.44Z"/>
      <path class="cls-1" d="M752.04,139.53c7.44-1.07,6.38,9.44.77,9.44-4.65,0-7.09-8.54-.77-9.44Z"/>
      <path class="cls-1" d="M935.88,140.6c4.38,4.41-2.88,11.75-6.82,6.3-3.94-5.46,3.5-9.64,6.82-6.3Z"/>
      <path class="cls-1" d="M114.89,61.72v-28.37c0-7.59,8.88-7.87,14.26-5.25,9.75,4.75,9.12,31.69-2.82,33.56-3.55.56-7.78-.27-11.43.06Z"/>
      <path class="cls-1" d="M46.96,67.69V29.37c0-3.69,14.79-5.07,18.48,5.48,4.88,14,1.15,36.78-18.48,32.84Z"/>
    </g>
  </g>
</svg>