<?xml version="1.0" encoding="UTF-8"?>
<svg id="Layer_2" data-name="Layer 2" xmlns="http://www.w3.org/2000/svg" viewBox="0 0 723.73 162.19">
  <defs>
    <style>
      .cls-1, .cls-2 {
        fill: #0063b5;
      }

      .cls-2 {
        fill-rule: evenodd;
      }
    </style>
  </defs>
  <g id="Layer_1-2" data-name="Layer 1">
    <g>
      <g>
        <path class="cls-1" d="M32.28,50.08l-2.52-6.9H11.88l-2.52,6.9H0L15.48,10.06h10.68l15.42,40.02h-9.3ZM20.82,17.44l-6.66,18.36h13.26s-6.6-18.36-6.6-18.36Z"/>
        <path class="cls-1" d="M44.69,50.08V10.06h8.52v32.52h16.92v7.5s-25.44,0-25.44,0Z"/>
        <path class="cls-1" d="M74.22,50.08V10.06h8.52v32.52h16.92v7.5h-25.44Z"/>
        <path class="cls-1" d="M103.76,50.08V10.06h8.52v40.02s-8.52,0-8.52,0Z"/>
        <path class="cls-1" d="M147.57,50.08l-2.52-6.9h-17.88l-2.52,6.9h-9.36l15.48-40.02h10.68l15.42,40.02h-9.3ZM136.11,17.44l-6.66,18.36h13.26l-6.6-18.36h0Z"/>
        <path class="cls-1" d="M187.58,50.08l-19.08-26.88v26.88h-8.52V10.06h8.76l18.54,25.92V10.06h8.52v40.02h-8.22Z"/>
        <path class="cls-1" d="M201.2,30.1c0-12.3,9.3-20.7,21-20.7,9.12,0,14.22,4.8,17.04,9.78l-7.32,3.6c-1.68-3.24-5.28-5.82-9.72-5.82-6.96,0-12.24,5.58-12.24,13.14s5.28,13.14,12.24,13.14c4.44,0,8.04-2.52,9.72-5.82l7.32,3.54c-2.88,4.98-7.92,9.84-17.04,9.84-11.7,0-21-8.4-21-20.7h0Z"/>
        <path class="cls-1" d="M243.66,50.08V10.06h28.32v7.32h-19.8v8.7h19.38v7.32h-19.38v9.3h19.8v7.38h-28.32,0Z"/>
        <path class="cls-1" d="M310.62,50.08V10.06h25.38v3.12h-21.96v14.82h21.54v3.12h-21.54v18.96s-3.42,0-3.42,0Z"/>
        <path class="cls-1" d="M360.52,9.4c11.7,0,19.44,9,19.44,20.7s-7.74,20.7-19.44,20.7-19.44-9-19.44-20.7,7.68-20.7,19.44-20.7ZM360.52,12.52c-9.72,0-15.84,7.38-15.84,17.58s6.12,17.58,15.84,17.58,15.84-7.5,15.84-17.58-6.24-17.58-15.84-17.58Z"/>
        <path class="cls-1" d="M411.26,50.08l-11.22-16.56h-8.82v16.56h-3.42V10.06h14.94c6.9,0,12.18,4.38,12.18,11.7s-5.16,11.28-11.1,11.52l11.58,16.8h-4.14,0ZM402.44,13.18h-11.22v17.22h11.22c5.28,0,8.88-3.6,8.88-8.64s-3.6-8.58-8.88-8.58Z"/>
        <path class="cls-1" d="M6.48,88.7c2.88,2.88,7.32,5.28,12.78,5.28,3.54,0,5.7-1.5,5.7-3.42,0-2.28-2.58-3.18-6.84-4.08-6.6-1.32-15.84-3-15.84-12.48,0-6.72,5.7-12.54,15.96-12.54,6.42,0,12,1.92,16.26,5.58l-5.64,7.38c-3.36-2.76-7.74-4.14-11.28-4.14s-4.74,1.38-4.74,3.12c0,2.1,2.46,2.82,6.9,3.66,6.6,1.38,15.72,3.3,15.72,12.36,0,8.04-5.94,13.38-16.68,13.38-8.1,0-13.74-2.52-17.76-6.36,0,0,5.46-7.74,5.46-7.74Z"/>
        <path class="cls-1" d="M66.8,102.08l-2.04-6.06h-16.62l-2.04,6.06h-11.22l15.06-40.02h12.96l15.12,40.02s-11.22,0-11.22,0ZM56.42,71.06l-5.58,16.26h11.22s-5.64-16.26-5.64-16.26Z"/>
        <path class="cls-1" d="M80.4,102.08v-40.02h29.34v8.7h-19.02v6.66h18.6v8.76h-18.6v15.9h-10.32Z"/>
        <path class="cls-1" d="M114.75,102.08v-40.02h29.34v8.7h-19.02v6.66h18.6v8.76h-18.6v7.2h19.02v8.7s-29.34,0-29.34,0Z"/>
        <path class="cls-1" d="M157.98,102.08v-31.02h-11.22v-9h32.7v9h-11.16v31.02h-10.32,0Z"/>
        <path class="cls-1" d="M195.96,102.08v-16.14l-15.18-23.88h11.64l8.7,14.76,8.58-14.76h11.7l-15.12,23.88v16.14h-10.32,0Z"/>
        <path class="cls-1" d="M270.3,102.08l-4.02-9.84h-21.3l-4.02,9.84h-3.84l16.38-40.02h4.26l16.38,40.02h-3.84ZM255.6,65.42l-9.54,23.7h19.14l-9.6-23.7h0Z"/>
        <path class="cls-1" d="M308.22,102.08l-25.2-34.56v34.56h-3.42v-40.02h3.48l25.08,34.08v-34.08h3.42v40.02h-3.36Z"/>
        <path class="cls-1" d="M321.28,102.08v-40.02h12.78c12.42,0,20.22,9.06,20.22,20.04s-7.8,19.98-20.22,19.98h-12.78ZM324.7,98.96h9.36c10.56,0,16.62-7.5,16.62-16.86s-6-16.92-16.62-16.92h-9.36v33.78Z"/>
        <path class="cls-1" d="M377.8,91.34c1.44,1.2,3.36,2.34,5.76,2.34,3.24,0,5.34-2.1,5.34-5.46v-26.16h10.32v26.28c0,9.9-6,14.46-14.76,14.46-4.02,0-7.98-.96-10.98-3.6l4.32-7.86Z"/>
        <path class="cls-1" d="M405.77,62.06h10.5v23.46c0,4.74,2.52,8.16,8.1,8.16s8.04-3.42,8.04-8.16v-23.46h10.5v23.76c0,9.96-5.7,16.98-18.54,16.98s-18.6-7.08-18.6-16.92v-23.82Z"/>
        <path class="cls-1" d="M451.86,88.7c2.88,2.88,7.32,5.28,12.78,5.28,3.54,0,5.7-1.5,5.7-3.42,0-2.28-2.58-3.18-6.84-4.08-6.6-1.32-15.84-3-15.84-12.48,0-6.72,5.7-12.54,15.96-12.54,6.42,0,12,1.92,16.26,5.58l-5.64,7.38c-3.36-2.76-7.74-4.14-11.28-4.14s-4.74,1.38-4.74,3.12c0,2.1,2.46,2.82,6.9,3.66,6.6,1.38,15.72,3.3,15.72,12.36,0,8.04-5.94,13.38-16.68,13.38-8.1,0-13.74-2.52-17.76-6.36,0,0,5.46-7.74,5.46-7.74Z"/>
        <path class="cls-1" d="M493.7,102.08v-31.02h-11.22v-9h32.7v9h-11.16v31.02h-10.32,0Z"/>
        <path class="cls-1" d="M518.43,102.08v-40.02h10.32v40.02h-10.32Z"/>
        <path class="cls-1" d="M533.35,82.1c0-12.36,9.36-20.7,21.36-20.7,9.96,0,15.12,5.46,17.76,10.74l-8.88,4.2c-1.32-3.18-4.74-5.82-8.88-5.82-6.24,0-10.86,5.04-10.86,11.58s4.62,11.58,10.86,11.58c4.14,0,7.56-2.64,8.88-5.82l8.88,4.2c-2.58,5.16-7.8,10.74-17.76,10.74-12,0-21.36-8.4-21.36-20.7Z"/>
        <path class="cls-1" d="M576.33,102.08v-40.02h29.34v8.7h-19.02v6.66h18.6v8.76h-18.6v7.2h19.02v8.7s-29.34,0-29.34,0Z"/>
      </g>
      <g>
        <path class="cls-2" d="M602.94,6.48c1.32,0,2.39,1.07,2.39,2.39s-1.07,2.39-2.39,2.39-2.39-1.07-2.39-2.39,1.07-2.39,2.39-2.39h0Z"/>
        <path class="cls-2" d="M609.28,6.48c1.32,0,2.39,1.07,2.39,2.39s-1.07,2.39-2.39,2.39-2.39-1.07-2.39-2.39,1.07-2.39,2.39-2.39h0Z"/>
        <path class="cls-2" d="M599.58,0c1.32,0,2.39,1.07,2.39,2.39s-1.07,2.39-2.39,2.39-2.39-1.07-2.39-2.39,1.07-2.39,2.39-2.39h0Z"/>
        <path class="cls-2" d="M605.92,0c1.32,0,2.39,1.07,2.39,2.39s-1.07,2.39-2.39,2.39-2.39-1.07-2.39-2.39,1.07-2.39,2.39-2.39h0Z"/>
        <path class="cls-2" d="M612.22,0c1.32,0,2.39,1.07,2.39,2.39s-1.07,2.39-2.39,2.39-2.39-1.07-2.39-2.39,1.07-2.39,2.39-2.39h0Z"/>
        <path class="cls-2" d="M618.55,0c1.32,0,2.39,1.07,2.39,2.39s-1.07,2.39-2.39,2.39-2.39-1.07-2.39-2.39,1.07-2.39,2.39-2.39h0Z"/>
        <path class="cls-2" d="M624.89,0c1.32,0,2.39,1.07,2.39,2.39s-1.07,2.39-2.39,2.39-2.39-1.07-2.39-2.39,1.07-2.39,2.39-2.39h0Z"/>
        <path class="cls-2" d="M631.22,0c1.32,0,2.39,1.07,2.39,2.39s-1.07,2.39-2.39,2.39-2.39-1.07-2.39-2.39,1.07-2.39,2.39-2.39h0Z"/>
        <path class="cls-2" d="M615.66,6.48c1.32,0,2.39,1.07,2.39,2.39s-1.07,2.39-2.39,2.39-2.39-1.07-2.39-2.39,1.07-2.39,2.39-2.39h0Z"/>
        <path class="cls-2" d="M621.99,6.48c1.32,0,2.39,1.07,2.39,2.39s-1.07,2.39-2.39,2.39-2.39-1.07-2.39-2.39,1.07-2.39,2.39-2.39h0Z"/>
        <path class="cls-2" d="M628.33,6.48c1.32,0,2.39,1.07,2.39,2.39s-1.07,2.39-2.39,2.39-2.39-1.07-2.39-2.39,1.07-2.39,2.39-2.39h0Z"/>
        <path class="cls-2" d="M634.73,6.48c1.32,0,2.39,1.07,2.39,2.39s-1.07,2.39-2.39,2.39-2.39-1.07-2.39-2.39,1.07-2.39,2.39-2.39h0Z"/>
        <g>
          <path class="cls-2" d="M606.81,13.03c1.32,0,2.39,1.07,2.39,2.39s-1.07,2.39-2.39,2.39-2.39-1.07-2.39-2.39,1.07-2.39,2.39-2.39h0Z"/>
          <path class="cls-2" d="M613.15,13.03c1.32,0,2.39,1.07,2.39,2.39s-1.07,2.39-2.39,2.39-2.39-1.07-2.39-2.39,1.07-2.39,2.39-2.39h0Z"/>
          <path class="cls-2" d="M619.53,13.03c1.32,0,2.39,1.07,2.39,2.39s-1.07,2.39-2.39,2.39-2.39-1.07-2.39-2.39,1.07-2.39,2.39-2.39h0Z"/>
          <path class="cls-2" d="M625.86,13.03c1.32,0,2.39,1.07,2.39,2.39s-1.07,2.39-2.39,2.39-2.39-1.07-2.39-2.39,1.07-2.39,2.39-2.39h0Z"/>
          <path class="cls-2" d="M632.2,13.03c1.32,0,2.39,1.07,2.39,2.39s-1.07,2.39-2.39,2.39-2.39-1.07-2.39-2.39,1.07-2.39,2.39-2.39h0Z"/>
          <path class="cls-2" d="M638.6,13.03c1.32,0,2.39,1.07,2.39,2.39s-1.07,2.39-2.39,2.39-2.39-1.07-2.39-2.39,1.07-2.39,2.39-2.39h0Z"/>
        </g>
      </g>
      <g>
        <path class="cls-2" d="M611.28,19.58c1.32,0,2.39,1.07,2.39,2.39s-1.07,2.39-2.39,2.39-2.39-1.07-2.39-2.39,1.07-2.39,2.39-2.39h0Z"/>
        <path class="cls-2" d="M617.61,19.58c1.32,0,2.39,1.07,2.39,2.39s-1.07,2.39-2.39,2.39-2.39-1.07-2.39-2.39,1.07-2.39,2.39-2.39h0Z"/>
        <path class="cls-2" d="M623.99,19.58c1.32,0,2.39,1.07,2.39,2.39s-1.07,2.39-2.39,2.39-2.39-1.07-2.39-2.39,1.07-2.39,2.39-2.39h0Z"/>
        <path class="cls-2" d="M630.33,19.58c1.32,0,2.39,1.07,2.39,2.39s-1.07,2.39-2.39,2.39-2.39-1.07-2.39-2.39,1.07-2.39,2.39-2.39h0Z"/>
        <path class="cls-2" d="M636.66,19.58c1.32,0,2.39,1.07,2.39,2.39s-1.07,2.39-2.39,2.39-2.39-1.07-2.39-2.39,1.07-2.39,2.39-2.39h0Z"/>
        <path class="cls-2" d="M643.06,19.58c1.32,0,2.39,1.07,2.39,2.39s-1.07,2.39-2.39,2.39-2.39-1.07-2.39-2.39,1.07-2.39,2.39-2.39h0Z"/>
        <g>
          <path class="cls-2" d="M615.3,26.12c1.32,0,2.39,1.07,2.39,2.39s-1.07,2.39-2.39,2.39-2.39-1.07-2.39-2.39,1.07-2.39,2.39-2.39h0Z"/>
          <path class="cls-2" d="M621.63,26.12c1.32,0,2.39,1.07,2.39,2.39s-1.07,2.39-2.39,2.39-2.39-1.07-2.39-2.39,1.07-2.39,2.39-2.39h0Z"/>
          <path class="cls-2" d="M628.01,26.12c1.32,0,2.39,1.07,2.39,2.39s-1.07,2.39-2.39,2.39-2.39-1.07-2.39-2.39,1.07-2.39,2.39-2.39h0Z"/>
          <path class="cls-2" d="M634.35,26.12c1.32,0,2.39,1.07,2.39,2.39s-1.07,2.39-2.39,2.39-2.39-1.07-2.39-2.39,1.07-2.39,2.39-2.39h0Z"/>
          <path class="cls-2" d="M640.68,26.12c1.32,0,2.39,1.07,2.39,2.39s-1.07,2.39-2.39,2.39-2.39-1.07-2.39-2.39,1.07-2.39,2.39-2.39h0Z"/>
          <path class="cls-2" d="M647.08,26.12c1.32,0,2.39,1.07,2.39,2.39s-1.07,2.39-2.39,2.39-2.39-1.07-2.39-2.39,1.07-2.39,2.39-2.39h0Z"/>
        </g>
      </g>
      <g>
        <path class="cls-2" d="M619.76,32.67c1.32,0,2.39,1.07,2.39,2.39s-1.07,2.39-2.39,2.39-2.39-1.07-2.39-2.39,1.07-2.39,2.39-2.39h0Z"/>
        <path class="cls-2" d="M626.1,32.67c1.32,0,2.39,1.07,2.39,2.39s-1.07,2.39-2.39,2.39-2.39-1.07-2.39-2.39,1.07-2.39,2.39-2.39h0Z"/>
        <path class="cls-2" d="M632.48,32.67c1.32,0,2.39,1.07,2.39,2.39s-1.07,2.39-2.39,2.39-2.39-1.07-2.39-2.39,1.07-2.39,2.39-2.39h0Z"/>
        <path class="cls-2" d="M638.81,32.67c1.32,0,2.39,1.07,2.39,2.39s-1.07,2.39-2.39,2.39-2.39-1.07-2.39-2.39,1.07-2.39,2.39-2.39h0Z"/>
        <path class="cls-2" d="M645.15,32.67c1.32,0,2.39,1.07,2.39,2.39s-1.07,2.39-2.39,2.39-2.39-1.07-2.39-2.39,1.07-2.39,2.39-2.39h0Z"/>
        <path class="cls-2" d="M651.55,32.67c1.32,0,2.39,1.07,2.39,2.39s-1.07,2.39-2.39,2.39-2.39-1.07-2.39-2.39,1.07-2.39,2.39-2.39h0Z"/>
        <g>
          <path class="cls-2" d="M623.93,39.22c1.32,0,2.39,1.07,2.39,2.39s-1.07,2.39-2.39,2.39-2.39-1.07-2.39-2.39,1.07-2.39,2.39-2.39h0Z"/>
          <path class="cls-2" d="M630.26,39.22c1.32,0,2.39,1.07,2.39,2.39s-1.07,2.39-2.39,2.39-2.39-1.07-2.39-2.39,1.07-2.39,2.39-2.39h0Z"/>
          <path class="cls-2" d="M636.65,39.22c1.32,0,2.39,1.07,2.39,2.39s-1.07,2.39-2.39,2.39-2.39-1.07-2.39-2.39,1.07-2.39,2.39-2.39h0Z"/>
          <path class="cls-2" d="M642.98,39.22c1.32,0,2.39,1.07,2.39,2.39s-1.07,2.39-2.39,2.39-2.39-1.07-2.39-2.39,1.07-2.39,2.39-2.39h0Z"/>
          <path class="cls-2" d="M649.32,39.22c1.32,0,2.39,1.07,2.39,2.39s-1.07,2.39-2.39,2.39-2.39-1.07-2.39-2.39,1.07-2.39,2.39-2.39h0Z"/>
          <path class="cls-2" d="M655.72,39.22c1.32,0,2.39,1.07,2.39,2.39s-1.07,2.39-2.39,2.39-2.39-1.07-2.39-2.39,1.07-2.39,2.39-2.39h0Z"/>
        </g>
      </g>
      <g>
        <path class="cls-2" d="M628.54,45.77c1.32,0,2.39,1.07,2.39,2.39s-1.07,2.39-2.39,2.39-2.39-1.07-2.39-2.39,1.07-2.39,2.39-2.39h0Z"/>
        <path class="cls-2" d="M634.88,45.77c1.32,0,2.39,1.07,2.39,2.39s-1.07,2.39-2.39,2.39-2.39-1.07-2.39-2.39,1.07-2.39,2.39-2.39h0Z"/>
        <path class="cls-2" d="M641.26,45.77c1.32,0,2.39,1.07,2.39,2.39s-1.07,2.39-2.39,2.39-2.39-1.07-2.39-2.39,1.07-2.39,2.39-2.39h0Z"/>
        <path class="cls-2" d="M647.6,45.77c1.32,0,2.39,1.07,2.39,2.39s-1.07,2.39-2.39,2.39-2.39-1.07-2.39-2.39,1.07-2.39,2.39-2.39h0Z"/>
        <path class="cls-2" d="M653.93,45.77c1.32,0,2.39,1.07,2.39,2.39s-1.07,2.39-2.39,2.39-2.39-1.07-2.39-2.39,1.07-2.39,2.39-2.39h0Z"/>
        <path class="cls-2" d="M660.33,45.77c1.32,0,2.39,1.07,2.39,2.39s-1.07,2.39-2.39,2.39-2.39-1.07-2.39-2.39,1.07-2.39,2.39-2.39h0Z"/>
        <g>
          <path class="cls-2" d="M632.56,52.32c1.32,0,2.39,1.07,2.39,2.39s-1.07,2.39-2.39,2.39-2.39-1.07-2.39-2.39,1.07-2.39,2.39-2.39h0Z"/>
          <path class="cls-2" d="M638.9,52.32c1.32,0,2.39,1.07,2.39,2.39s-1.07,2.39-2.39,2.39-2.39-1.07-2.39-2.39,1.07-2.39,2.39-2.39h0Z"/>
          <path class="cls-2" d="M645.28,52.32c1.32,0,2.39,1.07,2.39,2.39s-1.07,2.39-2.39,2.39-2.39-1.07-2.39-2.39,1.07-2.39,2.39-2.39h0Z"/>
          <path class="cls-2" d="M651.61,52.32c1.32,0,2.39,1.07,2.39,2.39s-1.07,2.39-2.39,2.39-2.39-1.07-2.39-2.39,1.07-2.39,2.39-2.39h0Z"/>
          <path class="cls-2" d="M657.95,52.32c1.32,0,2.39,1.07,2.39,2.39s-1.07,2.39-2.39,2.39-2.39-1.07-2.39-2.39,1.07-2.39,2.39-2.39h0Z"/>
          <path class="cls-2" d="M664.35,52.32c1.32,0,2.39,1.07,2.39,2.39s-1.07,2.39-2.39,2.39-2.39-1.07-2.39-2.39,1.07-2.39,2.39-2.39h0Z"/>
        </g>
      </g>
      <g>
        <path class="cls-2" d="M636.73,59.02c1.32,0,2.39,1.07,2.39,2.39s-1.07,2.39-2.39,2.39-2.39-1.07-2.39-2.39,1.07-2.39,2.39-2.39h0Z"/>
        <path class="cls-2" d="M643.06,59.02c1.32,0,2.39,1.07,2.39,2.39s-1.07,2.39-2.39,2.39-2.39-1.07-2.39-2.39,1.07-2.39,2.39-2.39h0Z"/>
        <path class="cls-2" d="M649.45,59.02c1.32,0,2.39,1.07,2.39,2.39s-1.07,2.39-2.39,2.39-2.39-1.07-2.39-2.39,1.07-2.39,2.39-2.39h0Z"/>
        <path class="cls-2" d="M655.78,59.02c1.32,0,2.39,1.07,2.39,2.39s-1.07,2.39-2.39,2.39-2.39-1.07-2.39-2.39,1.07-2.39,2.39-2.39h0Z"/>
        <path class="cls-2" d="M662.12,59.02c1.32,0,2.39,1.07,2.39,2.39s-1.07,2.39-2.39,2.39-2.39-1.07-2.39-2.39,1.07-2.39,2.39-2.39h0Z"/>
        <path class="cls-2" d="M668.52,59.02c1.32,0,2.39,1.07,2.39,2.39s-1.07,2.39-2.39,2.39-2.39-1.07-2.39-2.39,1.07-2.39,2.39-2.39h0Z"/>
      </g>
      <g>
        <path class="cls-2" d="M641.34,65.57c1.32,0,2.39,1.07,2.39,2.39s-1.07,2.39-2.39,2.39-2.39-1.07-2.39-2.39,1.07-2.39,2.39-2.39h0Z"/>
        <path class="cls-2" d="M647.68,65.57c1.32,0,2.39,1.07,2.39,2.39s-1.07,2.39-2.39,2.39-2.39-1.07-2.39-2.39,1.07-2.39,2.39-2.39h0Z"/>
        <path class="cls-2" d="M654.06,65.57c1.32,0,2.39,1.07,2.39,2.39s-1.07,2.39-2.39,2.39-2.39-1.07-2.39-2.39,1.07-2.39,2.39-2.39h0Z"/>
        <path class="cls-2" d="M660.4,65.57c1.32,0,2.39,1.07,2.39,2.39s-1.07,2.39-2.39,2.39-2.39-1.07-2.39-2.39,1.07-2.39,2.39-2.39h0Z"/>
        <path class="cls-2" d="M666.73,65.57c1.32,0,2.39,1.07,2.39,2.39s-1.07,2.39-2.39,2.39-2.39-1.07-2.39-2.39,1.07-2.39,2.39-2.39h0Z"/>
        <path class="cls-2" d="M673.13,65.57c1.32,0,2.39,1.07,2.39,2.39s-1.07,2.39-2.39,2.39-2.39-1.07-2.39-2.39,1.07-2.39,2.39-2.39h0Z"/>
        <g>
          <path class="cls-2" d="M645.36,72.12c1.32,0,2.39,1.07,2.39,2.39s-1.07,2.39-2.39,2.39-2.39-1.07-2.39-2.39,1.07-2.39,2.39-2.39h0Z"/>
          <path class="cls-2" d="M651.7,72.12c1.32,0,2.39,1.07,2.39,2.39s-1.07,2.39-2.39,2.39-2.39-1.07-2.39-2.39,1.07-2.39,2.39-2.39h0Z"/>
          <path class="cls-2" d="M658.08,72.12c1.32,0,2.39,1.07,2.39,2.39s-1.07,2.39-2.39,2.39-2.39-1.07-2.39-2.39,1.07-2.39,2.39-2.39h0Z"/>
          <path class="cls-2" d="M664.42,72.12c1.32,0,2.39,1.07,2.39,2.39s-1.07,2.39-2.39,2.39-2.39-1.07-2.39-2.39,1.07-2.39,2.39-2.39h0Z"/>
          <path class="cls-2" d="M670.75,72.12c1.32,0,2.39,1.07,2.39,2.39s-1.07,2.39-2.39,2.39-2.39-1.07-2.39-2.39,1.07-2.39,2.39-2.39h0Z"/>
          <path class="cls-2" d="M677.15,72.12c1.32,0,2.39,1.07,2.39,2.39s-1.07,2.39-2.39,2.39-2.39-1.07-2.39-2.39,1.07-2.39,2.39-2.39h0Z"/>
        </g>
      </g>
      <g>
        <path class="cls-2" d="M649.38,78.67c1.32,0,2.39,1.07,2.39,2.39s-1.07,2.39-2.39,2.39-2.39-1.07-2.39-2.39,1.07-2.39,2.39-2.39h0Z"/>
        <path class="cls-2" d="M655.72,78.67c1.32,0,2.39,1.07,2.39,2.39s-1.07,2.39-2.39,2.39-2.39-1.07-2.39-2.39,1.07-2.39,2.39-2.39h0Z"/>
        <path class="cls-2" d="M662.1,78.67c1.32,0,2.39,1.07,2.39,2.39s-1.07,2.39-2.39,2.39-2.39-1.07-2.39-2.39,1.07-2.39,2.39-2.39h0Z"/>
        <path class="cls-2" d="M668.43,78.67c1.32,0,2.39,1.07,2.39,2.39s-1.07,2.39-2.39,2.39-2.39-1.07-2.39-2.39,1.07-2.39,2.39-2.39h0Z"/>
        <path class="cls-2" d="M674.77,78.67c1.32,0,2.39,1.07,2.39,2.39s-1.07,2.39-2.39,2.39-2.39-1.07-2.39-2.39,1.07-2.39,2.39-2.39h0Z"/>
        <path class="cls-2" d="M681.17,78.67c1.32,0,2.39,1.07,2.39,2.39s-1.07,2.39-2.39,2.39-2.39-1.07-2.39-2.39,1.07-2.39,2.39-2.39h0Z"/>
      </g>
      <g>
        <path class="cls-2" d="M647,85.22c1.32,0,2.39,1.07,2.39,2.39s-1.07,2.39-2.39,2.39-2.39-1.07-2.39-2.39,1.07-2.39,2.39-2.39h0Z"/>
        <path class="cls-2" d="M653.34,85.22c1.32,0,2.39,1.07,2.39,2.39s-1.07,2.39-2.39,2.39-2.39-1.07-2.39-2.39,1.07-2.39,2.39-2.39h0Z"/>
        <path class="cls-2" d="M659.72,85.22c1.32,0,2.39,1.07,2.39,2.39s-1.07,2.39-2.39,2.39-2.39-1.07-2.39-2.39,1.07-2.39,2.39-2.39h0Z"/>
        <path class="cls-2" d="M666.05,85.22c1.32,0,2.39,1.07,2.39,2.39s-1.07,2.39-2.39,2.39-2.39-1.07-2.39-2.39,1.07-2.39,2.39-2.39h0Z"/>
        <path class="cls-2" d="M672.39,85.22c1.32,0,2.39,1.07,2.39,2.39s-1.07,2.39-2.39,2.39-2.39-1.07-2.39-2.39,1.07-2.39,2.39-2.39h0Z"/>
        <path class="cls-2" d="M678.79,85.22c1.32,0,2.39,1.07,2.39,2.39s-1.07,2.39-2.39,2.39-2.39-1.07-2.39-2.39,1.07-2.39,2.39-2.39h0Z"/>
        <g>
          <path class="cls-2" d="M642.68,91.77c1.32,0,2.39,1.07,2.39,2.39s-1.07,2.39-2.39,2.39-2.39-1.07-2.39-2.39,1.07-2.39,2.39-2.39h0Z"/>
          <path class="cls-2" d="M649.02,91.77c1.32,0,2.39,1.07,2.39,2.39s-1.07,2.39-2.39,2.39-2.39-1.07-2.39-2.39,1.07-2.39,2.39-2.39h0Z"/>
          <path class="cls-2" d="M655.4,91.77c1.32,0,2.39,1.07,2.39,2.39s-1.07,2.39-2.39,2.39-2.39-1.07-2.39-2.39,1.07-2.39,2.39-2.39h0Z"/>
          <path class="cls-2" d="M661.74,91.77c1.32,0,2.39,1.07,2.39,2.39s-1.07,2.39-2.39,2.39-2.39-1.07-2.39-2.39,1.07-2.39,2.39-2.39h0Z"/>
          <path class="cls-2" d="M668.07,91.77c1.32,0,2.39,1.07,2.39,2.39s-1.07,2.39-2.39,2.39-2.39-1.07-2.39-2.39,1.07-2.39,2.39-2.39h0Z"/>
          <path class="cls-2" d="M674.47,91.77c1.32,0,2.39,1.07,2.39,2.39s-1.07,2.39-2.39,2.39-2.39-1.07-2.39-2.39,1.07-2.39,2.39-2.39h0Z"/>
        </g>
      </g>
      <g>
        <path class="cls-2" d="M638.37,98.32c1.32,0,2.39,1.07,2.39,2.39s-1.07,2.39-2.39,2.39-2.39-1.07-2.39-2.39,1.07-2.39,2.39-2.39h0Z"/>
        <path class="cls-2" d="M644.7,98.32c1.32,0,2.39,1.07,2.39,2.39s-1.07,2.39-2.39,2.39-2.39-1.07-2.39-2.39,1.07-2.39,2.39-2.39h0Z"/>
        <path class="cls-2" d="M651.08,98.32c1.32,0,2.39,1.07,2.39,2.39s-1.07,2.39-2.39,2.39-2.39-1.07-2.39-2.39,1.07-2.39,2.39-2.39h0Z"/>
        <path class="cls-2" d="M657.42,98.32c1.32,0,2.39,1.07,2.39,2.39s-1.07,2.39-2.39,2.39-2.39-1.07-2.39-2.39,1.07-2.39,2.39-2.39h0Z"/>
        <path class="cls-2" d="M663.75,98.32c1.32,0,2.39,1.07,2.39,2.39s-1.07,2.39-2.39,2.39-2.39-1.07-2.39-2.39,1.07-2.39,2.39-2.39h0Z"/>
        <path class="cls-2" d="M670.16,98.32c1.32,0,2.39,1.07,2.39,2.39s-1.07,2.39-2.39,2.39-2.39-1.07-2.39-2.39,1.07-2.39,2.39-2.39h0Z"/>
        <g>
          <path class="cls-2" d="M634.2,104.87c1.32,0,2.39,1.07,2.39,2.39s-1.07,2.39-2.39,2.39-2.39-1.07-2.39-2.39,1.07-2.39,2.39-2.39h0Z"/>
          <path class="cls-2" d="M640.53,104.87c1.32,0,2.39,1.07,2.39,2.39s-1.07,2.39-2.39,2.39-2.39-1.07-2.39-2.39,1.07-2.39,2.39-2.39h0Z"/>
          <path class="cls-2" d="M646.92,104.87c1.32,0,2.39,1.07,2.39,2.39s-1.07,2.39-2.39,2.39-2.39-1.07-2.39-2.39,1.07-2.39,2.39-2.39h0Z"/>
          <path class="cls-2" d="M653.25,104.87c1.32,0,2.39,1.07,2.39,2.39s-1.07,2.39-2.39,2.39-2.39-1.07-2.39-2.39,1.07-2.39,2.39-2.39h0Z"/>
          <path class="cls-2" d="M659.59,104.87c1.32,0,2.39,1.07,2.39,2.39s-1.07,2.39-2.39,2.39-2.39-1.07-2.39-2.39,1.07-2.39,2.39-2.39h0Z"/>
          <path class="cls-2" d="M665.99,104.87c1.32,0,2.39,1.07,2.39,2.39s-1.07,2.39-2.39,2.39-2.39-1.07-2.39-2.39,1.07-2.39,2.39-2.39h0Z"/>
        </g>
      </g>
      <g>
        <path class="cls-2" d="M629.88,111.41c1.32,0,2.39,1.07,2.39,2.39s-1.07,2.39-2.39,2.39-2.39-1.07-2.39-2.39,1.07-2.39,2.39-2.39h0Z"/>
        <path class="cls-2" d="M636.22,111.41c1.32,0,2.39,1.07,2.39,2.39s-1.07,2.39-2.39,2.39-2.39-1.07-2.39-2.39,1.07-2.39,2.39-2.39h0Z"/>
        <path class="cls-2" d="M642.6,111.41c1.32,0,2.39,1.07,2.39,2.39s-1.07,2.39-2.39,2.39-2.39-1.07-2.39-2.39,1.07-2.39,2.39-2.39h0Z"/>
        <path class="cls-2" d="M648.94,111.41c1.32,0,2.39,1.07,2.39,2.39s-1.07,2.39-2.39,2.39-2.39-1.07-2.39-2.39,1.07-2.39,2.39-2.39h0Z"/>
        <path class="cls-2" d="M655.27,111.41c1.32,0,2.39,1.07,2.39,2.39s-1.07,2.39-2.39,2.39-2.39-1.07-2.39-2.39,1.07-2.39,2.39-2.39h0Z"/>
        <path class="cls-2" d="M661.67,111.41c1.32,0,2.39,1.07,2.39,2.39s-1.07,2.39-2.39,2.39-2.39-1.07-2.39-2.39,1.07-2.39,2.39-2.39h0Z"/>
        <g>
          <path class="cls-2" d="M625.57,117.96c1.32,0,2.39,1.07,2.39,2.39s-1.07,2.39-2.39,2.39-2.39-1.07-2.39-2.39,1.07-2.39,2.39-2.39h0Z"/>
          <path class="cls-2" d="M631.9,117.96c1.32,0,2.39,1.07,2.39,2.39s-1.07,2.39-2.39,2.39-2.39-1.07-2.39-2.39,1.07-2.39,2.39-2.39h0Z"/>
          <path class="cls-2" d="M638.28,117.96c1.32,0,2.39,1.07,2.39,2.39s-1.07,2.39-2.39,2.39-2.39-1.07-2.39-2.39,1.07-2.39,2.39-2.39h0Z"/>
          <path class="cls-2" d="M644.62,117.96c1.32,0,2.39,1.07,2.39,2.39s-1.07,2.39-2.39,2.39-2.39-1.07-2.39-2.39,1.07-2.39,2.39-2.39h0Z"/>
          <path class="cls-2" d="M650.95,117.96c1.32,0,2.39,1.07,2.39,2.39s-1.07,2.39-2.39,2.39-2.39-1.07-2.39-2.39,1.07-2.39,2.39-2.39h0Z"/>
          <path class="cls-2" d="M657.35,117.96c1.32,0,2.39,1.07,2.39,2.39s-1.07,2.39-2.39,2.39-2.39-1.07-2.39-2.39,1.07-2.39,2.39-2.39h0Z"/>
        </g>
      </g>
      <g>
        <path class="cls-2" d="M621.4,124.51c1.32,0,2.39,1.07,2.39,2.39s-1.07,2.39-2.39,2.39-2.39-1.07-2.39-2.39,1.07-2.39,2.39-2.39h0Z"/>
        <path class="cls-2" d="M627.73,124.51c1.32,0,2.39,1.07,2.39,2.39s-1.07,2.39-2.39,2.39-2.39-1.07-2.39-2.39,1.07-2.39,2.39-2.39h0Z"/>
        <path class="cls-2" d="M634.12,124.51c1.32,0,2.39,1.07,2.39,2.39s-1.07,2.39-2.39,2.39-2.39-1.07-2.39-2.39,1.07-2.39,2.39-2.39h0Z"/>
        <path class="cls-2" d="M640.45,124.51c1.32,0,2.39,1.07,2.39,2.39s-1.07,2.39-2.39,2.39-2.39-1.07-2.39-2.39,1.07-2.39,2.39-2.39h0Z"/>
        <path class="cls-2" d="M646.79,124.51c1.32,0,2.39,1.07,2.39,2.39s-1.07,2.39-2.39,2.39-2.39-1.07-2.39-2.39,1.07-2.39,2.39-2.39h0Z"/>
        <path class="cls-2" d="M653.19,124.51c1.32,0,2.39,1.07,2.39,2.39s-1.07,2.39-2.39,2.39-2.39-1.07-2.39-2.39,1.07-2.39,2.39-2.39h0Z"/>
        <g>
          <path class="cls-2" d="M617.23,131.06c1.32,0,2.39,1.07,2.39,2.39s-1.07,2.39-2.39,2.39-2.39-1.07-2.39-2.39,1.07-2.39,2.39-2.39h0Z"/>
          <path class="cls-2" d="M623.57,131.06c1.32,0,2.39,1.07,2.39,2.39s-1.07,2.39-2.39,2.39-2.39-1.07-2.39-2.39,1.07-2.39,2.39-2.39h0Z"/>
          <path class="cls-2" d="M629.95,131.06c1.32,0,2.39,1.07,2.39,2.39s-1.07,2.39-2.39,2.39-2.39-1.07-2.39-2.39,1.07-2.39,2.39-2.39h0Z"/>
          <path class="cls-2" d="M636.28,131.06c1.32,0,2.39,1.07,2.39,2.39s-1.07,2.39-2.39,2.39-2.39-1.07-2.39-2.39,1.07-2.39,2.39-2.39h0Z"/>
          <path class="cls-2" d="M642.62,131.06c1.32,0,2.39,1.07,2.39,2.39s-1.07,2.39-2.39,2.39-2.39-1.07-2.39-2.39,1.07-2.39,2.39-2.39h0Z"/>
          <path class="cls-2" d="M649.02,131.06c1.32,0,2.39,1.07,2.39,2.39s-1.07,2.39-2.39,2.39-2.39-1.07-2.39-2.39,1.07-2.39,2.39-2.39h0Z"/>
        </g>
      </g>
      <g>
        <path class="cls-2" d="M612.91,137.76c1.32,0,2.39,1.07,2.39,2.39s-1.07,2.39-2.39,2.39-2.39-1.07-2.39-2.39,1.07-2.39,2.39-2.39h0Z"/>
        <path class="cls-2" d="M619.25,137.76c1.32,0,2.39,1.07,2.39,2.39s-1.07,2.39-2.39,2.39-2.39-1.07-2.39-2.39,1.07-2.39,2.39-2.39h0Z"/>
        <path class="cls-2" d="M625.63,137.76c1.32,0,2.39,1.07,2.39,2.39s-1.07,2.39-2.39,2.39-2.39-1.07-2.39-2.39,1.07-2.39,2.39-2.39h0Z"/>
        <path class="cls-2" d="M631.97,137.76c1.32,0,2.39,1.07,2.39,2.39s-1.07,2.39-2.39,2.39-2.39-1.07-2.39-2.39,1.07-2.39,2.39-2.39h0Z"/>
        <path class="cls-2" d="M638.3,137.76c1.32,0,2.39,1.07,2.39,2.39s-1.07,2.39-2.39,2.39-2.39-1.07-2.39-2.39,1.07-2.39,2.39-2.39h0Z"/>
        <path class="cls-2" d="M644.7,137.76c1.32,0,2.39,1.07,2.39,2.39s-1.07,2.39-2.39,2.39-2.39-1.07-2.39-2.39,1.07-2.39,2.39-2.39h0Z"/>
      </g>
      <g>
        <path class="cls-2" d="M608.6,144.31c1.32,0,2.39,1.07,2.39,2.39s-1.07,2.39-2.39,2.39-2.39-1.07-2.39-2.39,1.07-2.39,2.39-2.39h0Z"/>
        <path class="cls-2" d="M614.93,144.31c1.32,0,2.39,1.07,2.39,2.39s-1.07,2.39-2.39,2.39-2.39-1.07-2.39-2.39,1.07-2.39,2.39-2.39h0Z"/>
        <path class="cls-2" d="M621.31,144.31c1.32,0,2.39,1.07,2.39,2.39s-1.07,2.39-2.39,2.39-2.39-1.07-2.39-2.39,1.07-2.39,2.39-2.39h0Z"/>
        <path class="cls-2" d="M627.65,144.31c1.32,0,2.39,1.07,2.39,2.39s-1.07,2.39-2.39,2.39-2.39-1.07-2.39-2.39,1.07-2.39,2.39-2.39h0Z"/>
        <path class="cls-2" d="M633.99,144.31c1.32,0,2.39,1.07,2.39,2.39s-1.07,2.39-2.39,2.39-2.39-1.07-2.39-2.39,1.07-2.39,2.39-2.39h0Z"/>
        <path class="cls-2" d="M640.39,144.31c1.32,0,2.39,1.07,2.39,2.39s-1.07,2.39-2.39,2.39-2.39-1.07-2.39-2.39,1.07-2.39,2.39-2.39h0Z"/>
        <g>
          <path class="cls-2" d="M604.28,150.86c1.32,0,2.39,1.07,2.39,2.39s-1.07,2.39-2.39,2.39-2.39-1.07-2.39-2.39,1.07-2.39,2.39-2.39h0Z"/>
          <path class="cls-2" d="M610.62,150.86c1.32,0,2.39,1.07,2.39,2.39s-1.07,2.39-2.39,2.39-2.39-1.07-2.39-2.39,1.07-2.39,2.39-2.39h0Z"/>
          <path class="cls-2" d="M617,150.86c1.32,0,2.39,1.07,2.39,2.39s-1.07,2.39-2.39,2.39-2.39-1.07-2.39-2.39,1.07-2.39,2.39-2.39h0Z"/>
          <path class="cls-2" d="M623.33,150.86c1.32,0,2.39,1.07,2.39,2.39s-1.07,2.39-2.39,2.39-2.39-1.07-2.39-2.39,1.07-2.39,2.39-2.39h0Z"/>
          <path class="cls-2" d="M629.67,150.86c1.32,0,2.39,1.07,2.39,2.39s-1.07,2.39-2.39,2.39-2.39-1.07-2.39-2.39,1.07-2.39,2.39-2.39h0Z"/>
          <path class="cls-2" d="M636.07,150.86c1.32,0,2.39,1.07,2.39,2.39s-1.07,2.39-2.39,2.39-2.39-1.07-2.39-2.39,1.07-2.39,2.39-2.39h0Z"/>
        </g>
      </g>
      <g>
        <path class="cls-2" d="M600.11,157.41c1.32,0,2.39,1.07,2.39,2.39s-1.07,2.39-2.39,2.39-2.39-1.07-2.39-2.39,1.07-2.39,2.39-2.39h0Z"/>
        <path class="cls-2" d="M606.45,157.41c1.32,0,2.39,1.07,2.39,2.39s-1.07,2.39-2.39,2.39-2.39-1.07-2.39-2.39,1.07-2.39,2.39-2.39h0Z"/>
        <path class="cls-2" d="M612.83,157.41c1.32,0,2.39,1.07,2.39,2.39s-1.07,2.39-2.39,2.39-2.39-1.07-2.39-2.39,1.07-2.39,2.39-2.39h0Z"/>
        <path class="cls-2" d="M619.17,157.41c1.32,0,2.39,1.07,2.39,2.39s-1.07,2.39-2.39,2.39-2.39-1.07-2.39-2.39,1.07-2.39,2.39-2.39h0Z"/>
        <path class="cls-2" d="M625.5,157.41c1.32,0,2.39,1.07,2.39,2.39s-1.07,2.39-2.39,2.39-2.39-1.07-2.39-2.39,1.07-2.39,2.39-2.39h0Z"/>
        <path class="cls-2" d="M631.9,157.41c1.32,0,2.39,1.07,2.39,2.39s-1.07,2.39-2.39,2.39-2.39-1.07-2.39-2.39,1.07-2.39,2.39-2.39h0Z"/>
      </g>
      <g>
        <path class="cls-2" d="M643.18,6.48c1.32,0,2.39,1.07,2.39,2.39s-1.07,2.39-2.39,2.39-2.39-1.07-2.39-2.39,1.07-2.39,2.39-2.39h0Z"/>
        <path class="cls-2" d="M649.51,6.48c1.32,0,2.39,1.07,2.39,2.39s-1.07,2.39-2.39,2.39-2.39-1.07-2.39-2.39,1.07-2.39,2.39-2.39h0Z"/>
        <path class="cls-2" d="M655.85,6.48c1.32,0,2.39,1.07,2.39,2.39s-1.07,2.39-2.39,2.39-2.39-1.07-2.39-2.39,1.07-2.39,2.39-2.39h0Z"/>
        <path class="cls-2" d="M662.18,6.48c1.32,0,2.39,1.07,2.39,2.39s-1.07,2.39-2.39,2.39-2.39-1.07-2.39-2.39,1.07-2.39,2.39-2.39h0Z"/>
        <path class="cls-2" d="M668.52,6.48c1.32,0,2.39,1.07,2.39,2.39s-1.07,2.39-2.39,2.39-2.39-1.07-2.39-2.39,1.07-2.39,2.39-2.39h0Z"/>
        <path class="cls-2" d="M646.15,0c1.32,0,2.39,1.07,2.39,2.39s-1.07,2.39-2.39,2.39-2.39-1.07-2.39-2.39,1.07-2.39,2.39-2.39h0Z"/>
        <path class="cls-2" d="M652.49,0c1.32,0,2.39,1.07,2.39,2.39s-1.07,2.39-2.39,2.39-2.39-1.07-2.39-2.39,1.07-2.39,2.39-2.39h0Z"/>
        <path class="cls-2" d="M658.82,0c1.32,0,2.39,1.07,2.39,2.39s-1.07,2.39-2.39,2.39-2.39-1.07-2.39-2.39,1.07-2.39,2.39-2.39h0Z"/>
        <path class="cls-2" d="M665.16,0c1.32,0,2.39,1.07,2.39,2.39s-1.07,2.39-2.39,2.39-2.39-1.07-2.39-2.39,1.07-2.39,2.39-2.39h0Z"/>
        <path class="cls-2" d="M639.93,0c1.32,0,2.39,1.07,2.39,2.39s-1.07,2.39-2.39,2.39-2.39-1.07-2.39-2.39,1.07-2.39,2.39-2.39h0Z"/>
        <path class="cls-2" d="M671.46,0c1.32,0,2.39,1.07,2.39,2.39s-1.07,2.39-2.39,2.39-2.39-1.07-2.39-2.39,1.07-2.39,2.39-2.39h0Z"/>
        <path class="cls-2" d="M674.9,6.48c1.32,0,2.39,1.07,2.39,2.39s-1.07,2.39-2.39,2.39-2.39-1.07-2.39-2.39,1.07-2.39,2.39-2.39h0Z"/>
        <g>
          <path class="cls-2" d="M647.05,13.03c1.32,0,2.39,1.07,2.39,2.39s-1.07,2.39-2.39,2.39-2.39-1.07-2.39-2.39,1.07-2.39,2.39-2.39h0Z"/>
          <path class="cls-2" d="M653.38,13.03c1.32,0,2.39,1.07,2.39,2.39s-1.07,2.39-2.39,2.39-2.39-1.07-2.39-2.39,1.07-2.39,2.39-2.39h0Z"/>
          <path class="cls-2" d="M659.72,13.03c1.32,0,2.39,1.07,2.39,2.39s-1.07,2.39-2.39,2.39-2.39-1.07-2.39-2.39,1.07-2.39,2.39-2.39h0Z"/>
          <path class="cls-2" d="M666.05,13.03c1.32,0,2.39,1.07,2.39,2.39s-1.07,2.39-2.39,2.39-2.39-1.07-2.39-2.39,1.07-2.39,2.39-2.39h0Z"/>
          <path class="cls-2" d="M672.39,13.03c1.32,0,2.39,1.07,2.39,2.39s-1.07,2.39-2.39,2.39-2.39-1.07-2.39-2.39,1.07-2.39,2.39-2.39h0Z"/>
          <path class="cls-2" d="M678.77,13.03c1.32,0,2.39,1.07,2.39,2.39s-1.07,2.39-2.39,2.39-2.39-1.07-2.39-2.39,1.07-2.39,2.39-2.39h0Z"/>
        </g>
      </g>
      <g>
        <path class="cls-2" d="M651.51,19.58c1.32,0,2.39,1.07,2.39,2.39s-1.07,2.39-2.39,2.39-2.39-1.07-2.39-2.39,1.07-2.39,2.39-2.39h0Z"/>
        <path class="cls-2" d="M657.85,19.58c1.32,0,2.39,1.07,2.39,2.39s-1.07,2.39-2.39,2.39-2.39-1.07-2.39-2.39,1.07-2.39,2.39-2.39h0Z"/>
        <path class="cls-2" d="M664.18,19.58c1.32,0,2.39,1.07,2.39,2.39s-1.07,2.39-2.39,2.39-2.39-1.07-2.39-2.39,1.07-2.39,2.39-2.39h0Z"/>
        <path class="cls-2" d="M670.52,19.58c1.32,0,2.39,1.07,2.39,2.39s-1.07,2.39-2.39,2.39-2.39-1.07-2.39-2.39,1.07-2.39,2.39-2.39h0Z"/>
        <path class="cls-2" d="M676.85,19.58c1.32,0,2.39,1.07,2.39,2.39s-1.07,2.39-2.39,2.39-2.39-1.07-2.39-2.39,1.07-2.39,2.39-2.39h0Z"/>
        <path class="cls-2" d="M683.24,19.58c1.32,0,2.39,1.07,2.39,2.39s-1.07,2.39-2.39,2.39-2.39-1.07-2.39-2.39,1.07-2.39,2.39-2.39h0Z"/>
        <g>
          <path class="cls-2" d="M655.53,26.12c1.32,0,2.39,1.07,2.39,2.39s-1.07,2.39-2.39,2.39-2.39-1.07-2.39-2.39,1.07-2.39,2.39-2.39h0Z"/>
          <path class="cls-2" d="M661.87,26.12c1.32,0,2.39,1.07,2.39,2.39s-1.07,2.39-2.39,2.39-2.39-1.07-2.39-2.39,1.07-2.39,2.39-2.39h0Z"/>
          <path class="cls-2" d="M668.2,26.12c1.32,0,2.39,1.07,2.39,2.39s-1.07,2.39-2.39,2.39-2.39-1.07-2.39-2.39,1.07-2.39,2.39-2.39h0Z"/>
          <path class="cls-2" d="M674.54,26.12c1.32,0,2.39,1.07,2.39,2.39s-1.07,2.39-2.39,2.39-2.39-1.07-2.39-2.39,1.07-2.39,2.39-2.39h0Z"/>
          <path class="cls-2" d="M680.87,26.12c1.32,0,2.39,1.07,2.39,2.39s-1.07,2.39-2.39,2.39-2.39-1.07-2.39-2.39,1.07-2.39,2.39-2.39h0Z"/>
          <path class="cls-2" d="M687.25,26.12c1.32,0,2.39,1.07,2.39,2.39s-1.07,2.39-2.39,2.39-2.39-1.07-2.39-2.39,1.07-2.39,2.39-2.39h0Z"/>
        </g>
      </g>
      <g>
        <path class="cls-2" d="M660,32.67c1.32,0,2.39,1.07,2.39,2.39s-1.07,2.39-2.39,2.39-2.39-1.07-2.39-2.39,1.07-2.39,2.39-2.39h0Z"/>
        <path class="cls-2" d="M666.33,32.67c1.32,0,2.39,1.07,2.39,2.39s-1.07,2.39-2.39,2.39-2.39-1.07-2.39-2.39,1.07-2.39,2.39-2.39h0Z"/>
        <path class="cls-2" d="M672.67,32.67c1.32,0,2.39,1.07,2.39,2.39s-1.07,2.39-2.39,2.39-2.39-1.07-2.39-2.39,1.07-2.39,2.39-2.39h0Z"/>
        <path class="cls-2" d="M679,32.67c1.32,0,2.39,1.07,2.39,2.39s-1.07,2.39-2.39,2.39-2.39-1.07-2.39-2.39,1.07-2.39,2.39-2.39h0Z"/>
        <path class="cls-2" d="M685.34,32.67c1.32,0,2.39,1.07,2.39,2.39s-1.07,2.39-2.39,2.39-2.39-1.07-2.39-2.39,1.07-2.39,2.39-2.39h0Z"/>
        <path class="cls-2" d="M691.72,32.67c1.32,0,2.39,1.07,2.39,2.39s-1.07,2.39-2.39,2.39-2.39-1.07-2.39-2.39,1.07-2.39,2.39-2.39h0Z"/>
        <g>
          <path class="cls-2" d="M664.16,39.22c1.32,0,2.39,1.07,2.39,2.39s-1.07,2.39-2.39,2.39-2.39-1.07-2.39-2.39,1.07-2.39,2.39-2.39h0Z"/>
          <path class="cls-2" d="M670.5,39.22c1.32,0,2.39,1.07,2.39,2.39s-1.07,2.39-2.39,2.39-2.39-1.07-2.39-2.39,1.07-2.39,2.39-2.39h0Z"/>
          <path class="cls-2" d="M676.83,39.22c1.32,0,2.39,1.07,2.39,2.39s-1.07,2.39-2.39,2.39-2.39-1.07-2.39-2.39,1.07-2.39,2.39-2.39h0Z"/>
          <path class="cls-2" d="M683.17,39.22c1.32,0,2.39,1.07,2.39,2.39s-1.07,2.39-2.39,2.39-2.39-1.07-2.39-2.39,1.07-2.39,2.39-2.39h0Z"/>
          <path class="cls-2" d="M689.51,39.22c1.32,0,2.39,1.07,2.39,2.39s-1.07,2.39-2.39,2.39-2.39-1.07-2.39-2.39,1.07-2.39,2.39-2.39h0Z"/>
          <path class="cls-2" d="M695.89,39.22c1.32,0,2.39,1.07,2.39,2.39s-1.07,2.39-2.39,2.39-2.39-1.07-2.39-2.39,1.07-2.39,2.39-2.39h0Z"/>
        </g>
      </g>
      <g>
        <path class="cls-2" d="M668.78,45.77c1.32,0,2.39,1.07,2.39,2.39s-1.07,2.39-2.39,2.39-2.39-1.07-2.39-2.39,1.07-2.39,2.39-2.39h0Z"/>
        <path class="cls-2" d="M675.11,45.77c1.32,0,2.39,1.07,2.39,2.39s-1.07,2.39-2.39,2.39-2.39-1.07-2.39-2.39,1.07-2.39,2.39-2.39h0Z"/>
        <path class="cls-2" d="M681.45,45.77c1.32,0,2.39,1.07,2.39,2.39s-1.07,2.39-2.39,2.39-2.39-1.07-2.39-2.39,1.07-2.39,2.39-2.39h0Z"/>
        <path class="cls-2" d="M687.79,45.77c1.32,0,2.39,1.07,2.39,2.39s-1.07,2.39-2.39,2.39-2.39-1.07-2.39-2.39,1.07-2.39,2.39-2.39h0Z"/>
        <path class="cls-2" d="M694.12,45.77c1.32,0,2.39,1.07,2.39,2.39s-1.07,2.39-2.39,2.39-2.39-1.07-2.39-2.39,1.07-2.39,2.39-2.39h0Z"/>
        <path class="cls-2" d="M700.5,45.77c1.32,0,2.39,1.07,2.39,2.39s-1.07,2.39-2.39,2.39-2.39-1.07-2.39-2.39,1.07-2.39,2.39-2.39h0Z"/>
        <g>
          <path class="cls-2" d="M672.8,52.32c1.32,0,2.39,1.07,2.39,2.39s-1.07,2.39-2.39,2.39-2.39-1.07-2.39-2.39,1.07-2.39,2.39-2.39h0Z"/>
          <path class="cls-2" d="M679.13,52.32c1.32,0,2.39,1.07,2.39,2.39s-1.07,2.39-2.39,2.39-2.39-1.07-2.39-2.39,1.07-2.39,2.39-2.39h0Z"/>
          <path class="cls-2" d="M685.47,52.32c1.32,0,2.39,1.07,2.39,2.39s-1.07,2.39-2.39,2.39-2.39-1.07-2.39-2.39,1.07-2.39,2.39-2.39h0Z"/>
          <path class="cls-2" d="M691.8,52.32c1.32,0,2.39,1.07,2.39,2.39s-1.07,2.39-2.39,2.39-2.39-1.07-2.39-2.39,1.07-2.39,2.39-2.39h0Z"/>
          <path class="cls-2" d="M698.14,52.32c1.32,0,2.39,1.07,2.39,2.39s-1.07,2.39-2.39,2.39-2.39-1.07-2.39-2.39,1.07-2.39,2.39-2.39h0Z"/>
          <path class="cls-2" d="M704.52,52.32c1.32,0,2.39,1.07,2.39,2.39s-1.07,2.39-2.39,2.39-2.39-1.07-2.39-2.39,1.07-2.39,2.39-2.39h0Z"/>
        </g>
      </g>
      <g>
        <path class="cls-2" d="M676.96,59.02c1.32,0,2.39,1.07,2.39,2.39s-1.07,2.39-2.39,2.39-2.39-1.07-2.39-2.39,1.07-2.39,2.39-2.39h0Z"/>
        <path class="cls-2" d="M683.3,59.02c1.32,0,2.39,1.07,2.39,2.39s-1.07,2.39-2.39,2.39-2.39-1.07-2.39-2.39,1.07-2.39,2.39-2.39h0Z"/>
        <path class="cls-2" d="M689.64,59.02c1.32,0,2.39,1.07,2.39,2.39s-1.07,2.39-2.39,2.39-2.39-1.07-2.39-2.39,1.07-2.39,2.39-2.39h0Z"/>
        <path class="cls-2" d="M695.97,59.02c1.32,0,2.39,1.07,2.39,2.39s-1.07,2.39-2.39,2.39-2.39-1.07-2.39-2.39,1.07-2.39,2.39-2.39h0Z"/>
        <path class="cls-2" d="M702.31,59.02c1.32,0,2.39,1.07,2.39,2.39s-1.07,2.39-2.39,2.39-2.39-1.07-2.39-2.39,1.07-2.39,2.39-2.39h0Z"/>
        <path class="cls-2" d="M708.69,59.02c1.32,0,2.39,1.07,2.39,2.39s-1.07,2.39-2.39,2.39-2.39-1.07-2.39-2.39,1.07-2.39,2.39-2.39h0Z"/>
      </g>
      <g>
        <path class="cls-2" d="M681.58,65.57c1.32,0,2.39,1.07,2.39,2.39s-1.07,2.39-2.39,2.39-2.39-1.07-2.39-2.39,1.07-2.39,2.39-2.39h0Z"/>
        <path class="cls-2" d="M687.91,65.57c1.32,0,2.39,1.07,2.39,2.39s-1.07,2.39-2.39,2.39-2.39-1.07-2.39-2.39,1.07-2.39,2.39-2.39h0Z"/>
        <path class="cls-2" d="M694.25,65.57c1.32,0,2.39,1.07,2.39,2.39s-1.07,2.39-2.39,2.39-2.39-1.07-2.39-2.39,1.07-2.39,2.39-2.39h0Z"/>
        <path class="cls-2" d="M700.59,65.57c1.32,0,2.39,1.07,2.39,2.39s-1.07,2.39-2.39,2.39-2.39-1.07-2.39-2.39,1.07-2.39,2.39-2.39h0Z"/>
        <path class="cls-2" d="M706.92,65.57c1.32,0,2.39,1.07,2.39,2.39s-1.07,2.39-2.39,2.39-2.39-1.07-2.39-2.39,1.07-2.39,2.39-2.39h0Z"/>
        <path class="cls-2" d="M713.3,65.57c1.32,0,2.39,1.07,2.39,2.39s-1.07,2.39-2.39,2.39-2.39-1.07-2.39-2.39,1.07-2.39,2.39-2.39h0Z"/>
        <g>
          <path class="cls-2" d="M685.6,72.12c1.32,0,2.39,1.07,2.39,2.39s-1.07,2.39-2.39,2.39-2.39-1.07-2.39-2.39,1.07-2.39,2.39-2.39h0Z"/>
          <path class="cls-2" d="M691.93,72.12c1.32,0,2.39,1.07,2.39,2.39s-1.07,2.39-2.39,2.39-2.39-1.07-2.39-2.39,1.07-2.39,2.39-2.39h0Z"/>
          <path class="cls-2" d="M698.27,72.12c1.32,0,2.39,1.07,2.39,2.39s-1.07,2.39-2.39,2.39-2.39-1.07-2.39-2.39,1.07-2.39,2.39-2.39h0Z"/>
          <path class="cls-2" d="M704.61,72.12c1.32,0,2.39,1.07,2.39,2.39s-1.07,2.39-2.39,2.39-2.39-1.07-2.39-2.39,1.07-2.39,2.39-2.39h0Z"/>
          <path class="cls-2" d="M710.94,72.12c1.32,0,2.39,1.07,2.39,2.39s-1.07,2.39-2.39,2.39-2.39-1.07-2.39-2.39,1.07-2.39,2.39-2.39h0Z"/>
          <path class="cls-2" d="M717.32,72.12c1.32,0,2.39,1.07,2.39,2.39s-1.07,2.39-2.39,2.39-2.39-1.07-2.39-2.39,1.07-2.39,2.39-2.39h0Z"/>
        </g>
      </g>
      <g>
        <path class="cls-2" d="M689.62,78.67c1.32,0,2.39,1.07,2.39,2.39s-1.07,2.39-2.39,2.39-2.39-1.07-2.39-2.39,1.07-2.39,2.39-2.39h0Z"/>
        <path class="cls-2" d="M695.95,78.67c1.32,0,2.39,1.07,2.39,2.39s-1.07,2.39-2.39,2.39-2.39-1.07-2.39-2.39,1.07-2.39,2.39-2.39h0Z"/>
        <path class="cls-2" d="M702.29,78.67c1.32,0,2.39,1.07,2.39,2.39s-1.07,2.39-2.39,2.39-2.39-1.07-2.39-2.39,1.07-2.39,2.39-2.39h0Z"/>
        <path class="cls-2" d="M708.62,78.67c1.32,0,2.39,1.07,2.39,2.39s-1.07,2.39-2.39,2.39-2.39-1.07-2.39-2.39,1.07-2.39,2.39-2.39h0Z"/>
        <path class="cls-2" d="M714.96,78.67c1.32,0,2.39,1.07,2.39,2.39s-1.07,2.39-2.39,2.39-2.39-1.07-2.39-2.39,1.07-2.39,2.39-2.39h0Z"/>
        <path class="cls-2" d="M721.34,78.67c1.32,0,2.39,1.07,2.39,2.39s-1.07,2.39-2.39,2.39-2.39-1.07-2.39-2.39,1.07-2.39,2.39-2.39h0Z"/>
      </g>
      <g>
        <path class="cls-2" d="M687.23,85.22c1.32,0,2.39,1.07,2.39,2.39s-1.07,2.39-2.39,2.39-2.39-1.07-2.39-2.39,1.07-2.39,2.39-2.39h0Z"/>
        <path class="cls-2" d="M693.57,85.22c1.32,0,2.39,1.07,2.39,2.39s-1.07,2.39-2.39,2.39-2.39-1.07-2.39-2.39,1.07-2.39,2.39-2.39h0Z"/>
        <path class="cls-2" d="M699.91,85.22c1.32,0,2.39,1.07,2.39,2.39s-1.07,2.39-2.39,2.39-2.39-1.07-2.39-2.39,1.07-2.39,2.39-2.39h0Z"/>
        <path class="cls-2" d="M706.24,85.22c1.32,0,2.39,1.07,2.39,2.39s-1.07,2.39-2.39,2.39-2.39-1.07-2.39-2.39,1.07-2.39,2.39-2.39h0Z"/>
        <path class="cls-2" d="M712.58,85.22c1.32,0,2.39,1.07,2.39,2.39s-1.07,2.39-2.39,2.39-2.39-1.07-2.39-2.39,1.07-2.39,2.39-2.39h0Z"/>
        <path class="cls-2" d="M718.96,85.22c1.32,0,2.39,1.07,2.39,2.39s-1.07,2.39-2.39,2.39-2.39-1.07-2.39-2.39,1.07-2.39,2.39-2.39h0Z"/>
        <g>
          <path class="cls-2" d="M682.92,91.77c1.32,0,2.39,1.07,2.39,2.39s-1.07,2.39-2.39,2.39-2.39-1.07-2.39-2.39,1.07-2.39,2.39-2.39h0Z"/>
          <path class="cls-2" d="M689.25,91.77c1.32,0,2.39,1.07,2.39,2.39s-1.07,2.39-2.39,2.39-2.39-1.07-2.39-2.39,1.07-2.39,2.39-2.39h0Z"/>
          <path class="cls-2" d="M695.59,91.77c1.32,0,2.39,1.07,2.39,2.39s-1.07,2.39-2.39,2.39-2.39-1.07-2.39-2.39,1.07-2.39,2.39-2.39h0Z"/>
          <path class="cls-2" d="M701.93,91.77c1.32,0,2.39,1.07,2.39,2.39s-1.07,2.39-2.39,2.39-2.39-1.07-2.39-2.39,1.07-2.39,2.39-2.39h0Z"/>
          <path class="cls-2" d="M708.26,91.77c1.32,0,2.39,1.07,2.39,2.39s-1.07,2.39-2.39,2.39-2.39-1.07-2.39-2.39,1.07-2.39,2.39-2.39h0Z"/>
          <path class="cls-2" d="M714.64,91.77c1.32,0,2.39,1.07,2.39,2.39s-1.07,2.39-2.39,2.39-2.39-1.07-2.39-2.39,1.07-2.39,2.39-2.39h0Z"/>
        </g>
      </g>
      <g>
        <path class="cls-2" d="M678.6,98.32c1.32,0,2.39,1.07,2.39,2.39s-1.07,2.39-2.39,2.39-2.39-1.07-2.39-2.39,1.07-2.39,2.39-2.39h0Z"/>
        <path class="cls-2" d="M684.94,98.32c1.32,0,2.39,1.07,2.39,2.39s-1.07,2.39-2.39,2.39-2.39-1.07-2.39-2.39,1.07-2.39,2.39-2.39h0Z"/>
        <path class="cls-2" d="M691.27,98.32c1.32,0,2.39,1.07,2.39,2.39s-1.07,2.39-2.39,2.39-2.39-1.07-2.39-2.39,1.07-2.39,2.39-2.39h0Z"/>
        <path class="cls-2" d="M697.61,98.32c1.32,0,2.39,1.07,2.39,2.39s-1.07,2.39-2.39,2.39-2.39-1.07-2.39-2.39,1.07-2.39,2.39-2.39h0Z"/>
        <path class="cls-2" d="M703.94,98.32c1.32,0,2.39,1.07,2.39,2.39s-1.07,2.39-2.39,2.39-2.39-1.07-2.39-2.39,1.07-2.39,2.39-2.39h0Z"/>
        <path class="cls-2" d="M710.33,98.32c1.32,0,2.39,1.07,2.39,2.39s-1.07,2.39-2.39,2.39-2.39-1.07-2.39-2.39,1.07-2.39,2.39-2.39h0Z"/>
        <g>
          <path class="cls-2" d="M674.43,104.87c1.32,0,2.39,1.07,2.39,2.39s-1.07,2.39-2.39,2.39-2.39-1.07-2.39-2.39,1.07-2.39,2.39-2.39h0Z"/>
          <path class="cls-2" d="M680.77,104.87c1.32,0,2.39,1.07,2.39,2.39s-1.07,2.39-2.39,2.39-2.39-1.07-2.39-2.39,1.07-2.39,2.39-2.39h0Z"/>
          <path class="cls-2" d="M687.11,104.87c1.32,0,2.39,1.07,2.39,2.39s-1.07,2.39-2.39,2.39-2.39-1.07-2.39-2.39,1.07-2.39,2.39-2.39h0Z"/>
          <path class="cls-2" d="M693.44,104.87c1.32,0,2.39,1.07,2.39,2.39s-1.07,2.39-2.39,2.39-2.39-1.07-2.39-2.39,1.07-2.39,2.39-2.39h0Z"/>
          <path class="cls-2" d="M699.78,104.87c1.32,0,2.39,1.07,2.39,2.39s-1.07,2.39-2.39,2.39-2.39-1.07-2.39-2.39,1.07-2.39,2.39-2.39h0Z"/>
          <path class="cls-2" d="M706.16,104.87c1.32,0,2.39,1.07,2.39,2.39s-1.07,2.39-2.39,2.39-2.39-1.07-2.39-2.39,1.07-2.39,2.39-2.39h0Z"/>
        </g>
      </g>
      <g>
        <path class="cls-2" d="M670.12,111.41c1.32,0,2.39,1.07,2.39,2.39s-1.07,2.39-2.39,2.39-2.39-1.07-2.39-2.39,1.07-2.39,2.39-2.39h0Z"/>
        <path class="cls-2" d="M676.45,111.41c1.32,0,2.39,1.07,2.39,2.39s-1.07,2.39-2.39,2.39-2.39-1.07-2.39-2.39,1.07-2.39,2.39-2.39h0Z"/>
        <path class="cls-2" d="M682.79,111.41c1.32,0,2.39,1.07,2.39,2.39s-1.07,2.39-2.39,2.39-2.39-1.07-2.39-2.39,1.07-2.39,2.39-2.39h0Z"/>
        <path class="cls-2" d="M689.12,111.41c1.32,0,2.39,1.07,2.39,2.39s-1.07,2.39-2.39,2.39-2.39-1.07-2.39-2.39,1.07-2.39,2.39-2.39h0Z"/>
        <path class="cls-2" d="M695.46,111.41c1.32,0,2.39,1.07,2.39,2.39s-1.07,2.39-2.39,2.39-2.39-1.07-2.39-2.39,1.07-2.39,2.39-2.39h0Z"/>
        <path class="cls-2" d="M701.84,111.41c1.32,0,2.39,1.07,2.39,2.39s-1.07,2.39-2.39,2.39-2.39-1.07-2.39-2.39,1.07-2.39,2.39-2.39h0Z"/>
        <g>
          <path class="cls-2" d="M665.8,117.96c1.32,0,2.39,1.07,2.39,2.39s-1.07,2.39-2.39,2.39-2.39-1.07-2.39-2.39,1.07-2.39,2.39-2.39h0Z"/>
          <path class="cls-2" d="M672.14,117.96c1.32,0,2.39,1.07,2.39,2.39s-1.07,2.39-2.39,2.39-2.39-1.07-2.39-2.39,1.07-2.39,2.39-2.39h0Z"/>
          <path class="cls-2" d="M678.47,117.96c1.32,0,2.39,1.07,2.39,2.39s-1.07,2.39-2.39,2.39-2.39-1.07-2.39-2.39,1.07-2.39,2.39-2.39h0Z"/>
          <path class="cls-2" d="M684.81,117.96c1.32,0,2.39,1.07,2.39,2.39s-1.07,2.39-2.39,2.39-2.39-1.07-2.39-2.39,1.07-2.39,2.39-2.39h0Z"/>
          <path class="cls-2" d="M691.14,117.96c1.32,0,2.39,1.07,2.39,2.39s-1.07,2.39-2.39,2.39-2.39-1.07-2.39-2.39,1.07-2.39,2.39-2.39h0Z"/>
          <path class="cls-2" d="M697.52,117.96c1.32,0,2.39,1.07,2.39,2.39s-1.07,2.39-2.39,2.39-2.39-1.07-2.39-2.39,1.07-2.39,2.39-2.39h0Z"/>
        </g>
      </g>
      <g>
        <path class="cls-2" d="M661.63,124.51c1.32,0,2.39,1.07,2.39,2.39s-1.07,2.39-2.39,2.39-2.39-1.07-2.39-2.39,1.07-2.39,2.39-2.39h0Z"/>
        <path class="cls-2" d="M667.97,124.51c1.32,0,2.39,1.07,2.39,2.39s-1.07,2.39-2.39,2.39-2.39-1.07-2.39-2.39,1.07-2.39,2.39-2.39h0Z"/>
        <path class="cls-2" d="M674.3,124.51c1.32,0,2.39,1.07,2.39,2.39s-1.07,2.39-2.39,2.39-2.39-1.07-2.39-2.39,1.07-2.39,2.39-2.39h0Z"/>
        <path class="cls-2" d="M680.64,124.51c1.32,0,2.39,1.07,2.39,2.39s-1.07,2.39-2.39,2.39-2.39-1.07-2.39-2.39,1.07-2.39,2.39-2.39h0Z"/>
        <path class="cls-2" d="M686.98,124.51c1.32,0,2.39,1.07,2.39,2.39s-1.07,2.39-2.39,2.39-2.39-1.07-2.39-2.39,1.07-2.39,2.39-2.39h0Z"/>
        <path class="cls-2" d="M693.36,124.51c1.32,0,2.39,1.07,2.39,2.39s-1.07,2.39-2.39,2.39-2.39-1.07-2.39-2.39,1.07-2.39,2.39-2.39h0Z"/>
        <g>
          <path class="cls-2" d="M657.47,131.06c1.32,0,2.39,1.07,2.39,2.39s-1.07,2.39-2.39,2.39-2.39-1.07-2.39-2.39,1.07-2.39,2.39-2.39h0Z"/>
          <path class="cls-2" d="M663.8,131.06c1.32,0,2.39,1.07,2.39,2.39s-1.07,2.39-2.39,2.39-2.39-1.07-2.39-2.39,1.07-2.39,2.39-2.39h0Z"/>
          <path class="cls-2" d="M670.14,131.06c1.32,0,2.39,1.07,2.39,2.39s-1.07,2.39-2.39,2.39-2.39-1.07-2.39-2.39,1.07-2.39,2.39-2.39h0Z"/>
          <path class="cls-2" d="M676.47,131.06c1.32,0,2.39,1.07,2.39,2.39s-1.07,2.39-2.39,2.39-2.39-1.07-2.39-2.39,1.07-2.39,2.39-2.39h0Z"/>
          <path class="cls-2" d="M682.81,131.06c1.32,0,2.39,1.07,2.39,2.39s-1.07,2.39-2.39,2.39-2.39-1.07-2.39-2.39,1.07-2.39,2.39-2.39h0Z"/>
          <path class="cls-2" d="M689.19,131.06c1.32,0,2.39,1.07,2.39,2.39s-1.07,2.39-2.39,2.39-2.39-1.07-2.39-2.39,1.07-2.39,2.39-2.39h0Z"/>
        </g>
      </g>
      <g>
        <path class="cls-2" d="M653.15,137.76c1.32,0,2.39,1.07,2.39,2.39s-1.07,2.39-2.39,2.39-2.39-1.07-2.39-2.39,1.07-2.39,2.39-2.39h0Z"/>
        <path class="cls-2" d="M659.48,137.76c1.32,0,2.39,1.07,2.39,2.39s-1.07,2.39-2.39,2.39-2.39-1.07-2.39-2.39,1.07-2.39,2.39-2.39h0Z"/>
        <path class="cls-2" d="M665.82,137.76c1.32,0,2.39,1.07,2.39,2.39s-1.07,2.39-2.39,2.39-2.39-1.07-2.39-2.39,1.07-2.39,2.39-2.39h0Z"/>
        <path class="cls-2" d="M672.16,137.76c1.32,0,2.39,1.07,2.39,2.39s-1.07,2.39-2.39,2.39-2.39-1.07-2.39-2.39,1.07-2.39,2.39-2.39h0Z"/>
        <path class="cls-2" d="M678.49,137.76c1.32,0,2.39,1.07,2.39,2.39s-1.07,2.39-2.39,2.39-2.39-1.07-2.39-2.39,1.07-2.39,2.39-2.39h0Z"/>
        <path class="cls-2" d="M684.87,137.76c1.32,0,2.39,1.07,2.39,2.39s-1.07,2.39-2.39,2.39-2.39-1.07-2.39-2.39,1.07-2.39,2.39-2.39h0Z"/>
      </g>
      <g>
        <path class="cls-2" d="M648.83,144.31c1.32,0,2.39,1.07,2.39,2.39s-1.07,2.39-2.39,2.39-2.39-1.07-2.39-2.39,1.07-2.39,2.39-2.39h0Z"/>
        <path class="cls-2" d="M655.17,144.31c1.32,0,2.39,1.07,2.39,2.39s-1.07,2.39-2.39,2.39-2.39-1.07-2.39-2.39,1.07-2.39,2.39-2.39h0Z"/>
        <path class="cls-2" d="M661.5,144.31c1.32,0,2.39,1.07,2.39,2.39s-1.07,2.39-2.39,2.39-2.39-1.07-2.39-2.39,1.07-2.39,2.39-2.39h0Z"/>
        <path class="cls-2" d="M667.84,144.31c1.32,0,2.39,1.07,2.39,2.39s-1.07,2.39-2.39,2.39-2.39-1.07-2.39-2.39,1.07-2.39,2.39-2.39h0Z"/>
        <path class="cls-2" d="M674.17,144.31c1.32,0,2.39,1.07,2.39,2.39s-1.07,2.39-2.39,2.39-2.39-1.07-2.39-2.39,1.07-2.39,2.39-2.39h0Z"/>
        <path class="cls-2" d="M680.56,144.31c1.32,0,2.39,1.07,2.39,2.39s-1.07,2.39-2.39,2.39-2.39-1.07-2.39-2.39,1.07-2.39,2.39-2.39h0Z"/>
        <g>
          <path class="cls-2" d="M644.52,150.86c1.32,0,2.39,1.07,2.39,2.39s-1.07,2.39-2.39,2.39-2.39-1.07-2.39-2.39,1.07-2.39,2.39-2.39h0Z"/>
          <path class="cls-2" d="M650.85,150.86c1.32,0,2.39,1.07,2.39,2.39s-1.07,2.39-2.39,2.39-2.39-1.07-2.39-2.39,1.07-2.39,2.39-2.39h0Z"/>
          <path class="cls-2" d="M657.19,150.86c1.32,0,2.39,1.07,2.39,2.39s-1.07,2.39-2.39,2.39-2.39-1.07-2.39-2.39,1.07-2.39,2.39-2.39h0Z"/>
          <path class="cls-2" d="M663.52,150.86c1.32,0,2.39,1.07,2.39,2.39s-1.07,2.39-2.39,2.39-2.39-1.07-2.39-2.39,1.07-2.39,2.39-2.39h0Z"/>
          <path class="cls-2" d="M669.86,150.86c1.32,0,2.39,1.07,2.39,2.39s-1.07,2.39-2.39,2.39-2.39-1.07-2.39-2.39,1.07-2.39,2.39-2.39h0Z"/>
          <path class="cls-2" d="M676.24,150.86c1.32,0,2.39,1.07,2.39,2.39s-1.07,2.39-2.39,2.39-2.39-1.07-2.39-2.39,1.07-2.39,2.39-2.39h0Z"/>
        </g>
      </g>
      <g>
        <path class="cls-2" d="M640.35,157.41c1.32,0,2.39,1.07,2.39,2.39s-1.07,2.39-2.39,2.39-2.39-1.07-2.39-2.39,1.07-2.39,2.39-2.39h0Z"/>
        <path class="cls-2" d="M646.68,157.41c1.32,0,2.39,1.07,2.39,2.39s-1.07,2.39-2.39,2.39-2.39-1.07-2.39-2.39,1.07-2.39,2.39-2.39h0Z"/>
        <path class="cls-2" d="M653.02,157.41c1.32,0,2.39,1.07,2.39,2.39s-1.07,2.39-2.39,2.39-2.39-1.07-2.39-2.39,1.07-2.39,2.39-2.39h0Z"/>
        <path class="cls-2" d="M659.36,157.41c1.32,0,2.39,1.07,2.39,2.39s-1.07,2.39-2.39,2.39-2.39-1.07-2.39-2.39,1.07-2.39,2.39-2.39h0Z"/>
        <path class="cls-2" d="M665.69,157.41c1.32,0,2.39,1.07,2.39,2.39s-1.07,2.39-2.39,2.39-2.39-1.07-2.39-2.39,1.07-2.39,2.39-2.39h0Z"/>
        <path class="cls-2" d="M672.07,157.41c1.32,0,2.39,1.07,2.39,2.39s-1.07,2.39-2.39,2.39-2.39-1.07-2.39-2.39,1.07-2.39,2.39-2.39h0Z"/>
      </g>
    </g>
  </g>
</svg>