<?xml version="1.0" encoding="UTF-8"?>
<svg id="Layer_2" data-name="Layer 2" xmlns="http://www.w3.org/2000/svg" viewBox="0 0 266.01 117.58">
  <defs>
    <style>
      .cls-1 {
        fill: #dadb3c;
      }

      .cls-2 {
        fill: #327f6d;
      }
    </style>
  </defs>
  <g id="Layer_1-2" data-name="Layer 1">
    <g>
      <polygon class="cls-2" points="143 80.41 156.02 80.89 166 98.41 166 80.41 176 80.41 176 115.41 163.99 114.92 153 95.41 153 115.41 143 115.41 143 80.41"/>
      <path class="cls-2" d="M2,35.41V1.41c8.6,1.46,25.05-4.5,30.42,5.08,3.3,5.89,3.45,20.46-1.5,25.35-.78.77-5.72,3.58-6.42,3.58H2ZM13,26.41c14.93,3.9,15.08-21.03,0-17v17Z"/>
      <path class="cls-2" d="M46.73,40.63c17.63-3.57,26.52,6.94,23.05,24.05-3.19,15.74-31.94,16.88-33.81-2.74-.86-8.97.41-19.22,10.76-21.31ZM50.7,49.59c-5.83,1.79-5.85,19.84,4.6,16.63,5.83-1.79,5.85-19.84-4.6-16.63Z"/>
      <path class="cls-2" d="M57.5.41c13.16,1.6,16,14.56,5.5,21.99,6.3-.09,6.79,8.05,7,13.01-16.39,2.5-9.56-4.32-13.93-9.58-1.27-1.53-6.47-2.03-7.08-1.43-.4.39.3,9.22,0,11.01h-11.01V.41c6.19.54,13.46-.74,19.5,0ZM49,17.41c13.12,2.77,12.13-11.19,0-9.01v9.01Z"/>
      <path class="cls-2" d="M140,16.41c1.14,12.62-3.03,20.11-16.5,20.08s-18.02-11.29-16.52-23.61c2.07-17.05,33.87-17.49,33.03.52-2.34-.48-9.5.76-10.87-.13-.92-.6-.06-5.89-6.39-4.7-5.79,1.09-5.73,11.84-3.52,16.12,3.12,6.03,12.64,1.58,9.78-1.27-1.51-1.51-8.11,4.02-6-7.01h17Z"/>
      <path class="cls-2" d="M84,.41v23.5c0,3.26,10,3.26,10,0V.41h11v25.5c0,1.28-2.69,5.87-4.04,6.96-6.39,5.17-21.77,5.05-26.41-2.5-3.54-5.75-1.53-10.92-1.5-16.42.07-12.16-4.78-14.81,10.96-13.54Z"/>
      <path class="cls-2" d="M26.87,80.54l9.13,34.86c-3.28-.52-8.4.74-11.33.05-1.78-.42-1.34-5.63-1.71-5.99s-9.18-.31-10.38-.11-.57,5.19-1.71,5.93c-1.38.89-8.54-.35-10.86.13l8.46-34.04c1.43-2.05,15.07-.58,18.41-.83ZM21,101.4l-3.99-14.99-3.01,14.99h7Z"/>
      <path class="cls-2" d="M130.91,80.51l9.09,34.9c-3.28-.52-8.4.74-11.33.05-1.78-.42-1.34-5.63-1.71-5.99s-9.18-.31-10.38-.11-.57,5.19-1.71,5.93c-1.38.89-8.54-.35-10.86.13l8.48-34.02c1.6-2.14,14.97-.52,18.43-.88ZM125,101.4l-3.99-14.99-3.01,14.99h7Z"/>
      <path class="cls-2" d="M212.01,95.41c-2.42-.42-8.38.81-10.07-.44-1.49-1.1.03-5.72-4.67-6.4-8.76-1.26-8.79,18.9,0,17.65,4.85-.69,3.29-5.27,3.77-5.78s10.03.28,11.96-.04c.35,13.48-11.75,18.11-23.23,14.73-10.16-2.99-11.96-16.06-9.52-24.99,4.27-15.59,36.38-14.27,31.76,5.26Z"/>
      <path class="cls-2" d="M146.01,55.41c-2.42-.41-8.38.81-10.07-.44-1.49-1.1.03-5.72-4.67-6.4-8.76-1.26-8.79,18.9,0,17.65,4.85-.69,3.29-5.27,3.77-5.78s10.03.28,11.96-.04c.62,14.35-14.12,18.79-25.57,14.07-8.37-3.45-9.2-17.63-6.95-25.11,4.23-14.11,36.04-12.83,31.53,6.04Z"/>
      <path class="cls-2" d="M244,80.41v9h-16c-.2,0-.2,4,0,4h14.5c1.93,0,1.59,6.38,1.5,8h-16v5h16v9h-27v-35h27Z"/>
      <path class="cls-2" d="M21.5,40.41c11.3,1.37,15.05,13.53,9.37,22.37-4.67,7.26-16.93,3.69-17.87,4.63-.42.42.43,7.59.01,8.01-.4.4-9.21-.3-11.01,0v-35c6.2.54,13.45-.73,19.5,0ZM13,59.41c12.57,2.35,12.72-12.68,0-11.01v11.01Z"/>
      <path class="cls-2" d="M156.87,40.54c.69.45,3.71,13.84,4.63,15.88,1.17.03,3.54-14.27,5.46-15.55s7.48-.04,10.04-.45c-2.47,12.06-11.6,21.57-9,35h-13.01c1.91-12.88-6.69-23.24-9.99-35,2.45.51,10.44-.8,11.86.12Z"/>
      <path class="cls-2" d="M51,80.41v24c11.23-.85,11.85-.22,11,11h-23v-35h12Z"/>
      <path class="cls-2" d="M76,80.41v24c11.23-.85,11.85-.22,11,11h-23v-35h12Z"/>
      <polygon class="cls-2" points="85 40.41 85 65.41 96.01 65.4 96 75.41 74 75.41 74 40.41 85 40.41"/>
      <rect class="cls-2" x="89" y="80.41" width="12" height="35"/>
      <rect class="cls-2" x="99" y="40.41" width="11" height="35"/>
      <path class="cls-1" d="M256.73,100.58c10.41-2.21,15,19.45-2.17,16.77-11.06-1.73-5.55-15.13,2.17-16.77Z"/>
      <path class="cls-2" d="M49,17.41v-9.01"/>
    </g>
  </g>
</svg>