<?xml version="1.0" encoding="UTF-8"?>
<svg id="Layer_2" data-name="Layer 2" xmlns="http://www.w3.org/2000/svg" viewBox="0 0 424 463">
  <defs>
    <style>
      .cls-1 {
        fill: #fdfaf7;
      }

      .cls-2 {
        fill: #f05b28;
      }
    </style>
  </defs>
  <g id="Layer_1-2" data-name="Layer 1">
    <g>
      <path class="cls-2" d="M19,463H0V0h424v463h-20v-96h-36.5c-.64,0-2.72,4.06-3.02,4.98-4.44,13.93-6.31,30.17-10.96,44.04-.71,2.11-1.71,4.22-3.04,5.98l-14.49-55.01h-39v96h-5c-2.08-6.91,3.3-96-1.5-96h-37l-15.99,57.01-14.51-57.01h-39v96h-5l-34.47-95.03c-2.11-2.17-27.68-.73-32.55-.49l-1.74,2.26c-11.21,31.15-24.11,61.75-34.24,93.26h-27l-.04-38.31c.2-.66,2.26-1.69,2.54-1.69h34.5v-18h-35.5c-.11,0-1.5-1.39-1.5-1.5v-15c0-.11,1.39-1.5,1.5-1.5h41.5c1.59-2.81.53-20-1.5-20H20l-1,96Z"/>
      <path class="cls-1" d="M184,463v-96h39l14.51,57.01,15.99-57.01h37c4.8,0-.58,89.09,1.5,96h-25l-.5-69.01-16.5,69.01h-24l-17.5-71.01-.5,71.01h-24Z"/>
      <path class="cls-1" d="M297,463v-96h39l14.49,55.01c1.32-1.77,2.33-3.87,3.04-5.98,4.65-13.87,6.51-30.11,10.96-44.04.29-.92,2.37-4.98,3.02-4.98h36.5v96h-24l-.51-64.01c-2.43-.05-2.07,2-2.54,3.46-6.21,19.37-9.46,40.87-14.95,60.55h-23l-17.5-71.01-.5,71.01h-24Z"/>
      <path class="cls-1" d="M179,463h-30c-1.31-2.94-3.18-15.03-5.64-15.86-1.96-.66-31.05-.57-32.4.32l-3.96,15.54h-31c10.13-31.51,23.03-62.11,34.24-93.26l1.74-2.26c4.87-.25,30.43-1.69,32.55.49l34.47,95.03ZM118.5,427c2.92.82,13.94,0,18,0,.3,0,1.78-1.49,1.35-2.3l-10.35-32.71-10.35,32.72c-.36.81.84,2.15,1.35,2.3Z"/>
      <path class="cls-1" d="M19,463l1-96h70.5c2.03,0,3.09,17.19,1.5,20h-41.5c-.11,0-1.5,1.39-1.5,1.5v15c0,.11,1.39,1.5,1.5,1.5h35.5v18h-34.5c-.28,0-2.33,1.03-2.54,1.69l.04,38.31h-30Z"/>
      <polygon class="cls-2" points="226 463 208 463 208.5 391.99 226 463"/>
      <polygon class="cls-2" points="339 463 321 463 321.5 391.99 339 463"/>
      <path class="cls-2" d="M362,463c5.49-19.68,8.74-41.18,14.95-60.55.47-1.46.11-3.51,2.54-3.46l.51,64.01h-18Z"/>
      <polygon class="cls-2" points="267 463 250 463 266.5 393.99 267 463"/>
      <path class="cls-2" d="M149,463h-42l3.96-15.54c1.35-.9,30.44-.99,32.4-.32,2.46.83,4.33,12.92,5.64,15.86Z"/>
      <path class="cls-2" d="M118.5,427c-.51-.14-1.72-1.48-1.35-2.3l10.35-32.72,10.35,32.71c.43.81-1.05,2.3-1.35,2.3-4.06,0-15.08.82-18,0Z"/>
    </g>
  </g>
</svg>