<?xml version="1.0" encoding="UTF-8"?>
<svg id="Layer_2" data-name="Layer 2" xmlns="http://www.w3.org/2000/svg" viewBox="0 0 546.48 106.23">
  <defs>
    <style>
      .cls-1 {
        fill: #3476b0;
      }
    </style>
  </defs>
  <g id="Layer_1-2" data-name="Layer 1">
    <g>
      <path class="cls-1" d="M153.24.44c29.39,3.96,65.44,33.98,53.05,66.44-11.52,30.18-53.88,41.58-83.13,38.28-39.76-4.48-83.64-41.04-50.92-80.47,3.79-4.56,16.81-12.63,16.86-13.72.19-4.37-21.4-3.03-25.34-2.41-48.84,7.7-56.65,70.67-6.78,86.23,5.58,1.74,27.76,4.63,30.23,7.11,2.74,2.74-.18,3.47-2.83,3.8-24.15,3.05-59.43-7.03-74.71-26.75C-15.84,46.02,13.48,12.1,47.03,3.3,113.07-14.01,189.86,40.22,119.76,96.1c63.55,14.11,97.53-66.67,26.89-87.15-7.8-2.26-20.63-.91-26.89-8.51,10.55,1.01,23.26-1.38,33.49,0ZM96.25,18.06c-21.88,5.03-18.49,63.11,6.25,69.53,35.54,9.23,31.92-78.31-6.25-69.53Z"/>
      <polygon class="cls-1" points="435.5 4.27 435.5 19.58 383.83 19.58 383.83 44.45 429.76 44.45 429.76 59.76 383.83 59.76 383.83 86.55 437.41 86.55 437.41 101.86 364.7 101.86 364.7 4.27 435.5 4.27"/>
      <path class="cls-1" d="M504.13,4.53l42.35,97.32c-4.89-.8-15.48,1.64-19.2-.87s-5.22-19.88-10.76-21.78c-3.96-1.36-45.36-1-46.77.88-8.91,11.82-1.42,26.61-26.59,21.77L483.5,7.3c3.85-5.39,14.46-2.67,20.63-2.77ZM510.13,63.59c-3.02-13.99-10.3-27.2-16.27-40.21l-16.27,40.21h32.53Z"/>
      <path class="cls-1" d="M306.82,2.86c8.82-1.16,15.41-.62,23.85,1.95,7.26,2.21,23.83,9.23,18.81,17.73-8.12,13.75-15.04-.58-24.45-2.52-29.99-6.2-49.26,16.61-41.72,45.55,3.48,13.34,21.44,22,34.46,21.05,12.97-.95,24.63-17.66,32.68-1.94,3.56,6.95-18.02,15.87-23.54,16.74-77.48,12.25-84.45-90.11-20.1-98.54Z"/>
      <rect class="cls-1" x="230.75" y="4.27" width="19.14" height="97.59"/>
    </g>
  </g>
</svg>