<?xml version="1.0" encoding="UTF-8"?>
<svg id="Layer_2" data-name="Layer 2" xmlns="http://www.w3.org/2000/svg" viewBox="0 0 461 136.52">
  <g id="Layer_1-2" data-name="Layer 1">
    <g>
      <path d="M169.82.03c37.57-1.42,40.01,55.62,3.67,58.75C133.85,62.19,130.72,1.5,169.82.03ZM167.73,16.03c-14.13,2.57-13.83,24.02,0,26.53,21.72,3.95,21.72-30.48,0-26.53Z"/>
      <path d="M310,1.79c3.44.61,11.34-1.09,13.99.51,3.85,2.32,13.82,25.41,19.01,29.49V1.79h15v54.5c0,2.25-11.76,1.78-14.01,1.01l-18.99-29.51v30h-15V1.79Z"/>
      <path d="M35,1.79c3.84.6,11.62-1.25,14.58.92l18.42,29.08V1.79h15v54.5c0,2.33-11.52,1.54-13.8,1.29l-19.2-29.79v30h-15V1.79Z"/>
      <path d="M104,1.79l18,29V1.79h15v56c-3.73-.55-10.62,1.2-13.57-.93l-19.43-30.07v31c-2.44-.33-15,1.06-15-1.5V1.79h15Z"/>
      <path d="M135.76,78.05c33.81-4.42,46.82,43.13,14.92,55.91-21.81,8.74-43.04-9.54-39.43-32.43,1.78-11.31,13.2-22,24.52-23.48ZM149.65,97.14c-10.93-11.61-31.08,3.61-20.65,18.16s34.59-3.34,20.65-18.16Z"/>
      <path d="M109,134.79h-15.5c-1.91,0-7.47-16.17-8.99-18.01s-5.32-.72-7.51-.99v17.5c0,2.56-12.56,1.17-15,1.5v-56h25.5c1.89,0,9.96,2.89,11.84,4.16,7.59,5.1,8.51,17.39,4.08,24.76-1,1.67-5.06,4.47-5.15,5.56-.17,2.12,9.77,17.83,10.72,21.51ZM76,103.79c19.03,3.53,21.26-15.06.99-12l-.99,12Z"/>
      <path d="M242.66,39.45c1.14-.87,1.31-3.71,3.65-3.51.73.06,12.6,6.61,12.66,7.34-12.11,24.49-51.88,17.85-54.98-8.99-3.83-33.23,37.2-47.13,53.92-19.13-.26,1.54-11.59,7.94-13.23,7.51-1.75-.46-2.64-3.74-4.96-5.11-15.47-9.15-28.29,15.16-13.25,23.25,5.75,3.09,10.97,2.65,16.19-1.36Z"/>
      <path d="M323.99,93.77c-3.14.32-11.34,7.22-13.44,7.08-.84-.05-4.27-9.24-13.79-7.87-3.27.47-9.36,5.66-10.32,8.75-3.69,11.9,5.86,20.63,17.58,17.58,5.55-1.44,6-6.53,6.48-6.54,2.35-.06,9.85,7.21,13.49,7.03-9.57,22.27-42.16,21.38-51.87-.64-15.38-34.87,34.92-59.18,51.86-25.39Z"/>
      <polygon points="303 1.79 303 14.79 279 14.79 279 22.79 303 22.79 303 35.79 279 35.79 279 44.79 303 44.79 303 57.79 264 57.79 264 1.79 303 1.79"/>
      <polygon points="461 1.79 461 14.79 437 14.79 437 22.79 461 22.79 461 35.79 437 35.79 437 44.79 461 44.79 461 57.79 422 57.79 422 1.79 461 1.79"/>
      <path d="M390.77.07c9.94-.27,22.18,5.65,26.22,15.16-.18.83-12.28,7.77-13.39,7.49-2.35-.59-4.33-8.51-14.86-6.7-16.79,2.89-13.03,30.8,6.33,26.34,4.26-.98,8.15-6.54,9.24-6.45s12.52,6.73,12.68,7.45c-8.71,16.89-31.52,20.42-45.52,7.46-19.01-17.61-5.92-50.08,19.3-50.75Z"/>
      <polygon points="265 78.79 265 91.79 241 91.79 241 99.79 265 99.79 265 112.79 241 112.79 241 121.79 265 121.79 265 134.79 226 134.79 226 78.79 265 78.79"/>
      <path d="M29,116.79v18h-15v-56h24.5c1.36,0,8.21,2.32,9.87,3.13,12.05,5.84,11.4,26.44-.11,32.64-5.8,3.12-12.92,2.1-19.27,2.23ZM29,104.8c17.63,3.03,18.64-16.6,0-13.01v13.01Z"/>
      <polygon points="375 78.79 375 92.79 359 92.79 359 134.79 344 134.79 344 92.79 328 92.79 328 78.79 375 78.79"/>
      <path d="M219,78.79v37.5c0,4.15-6.03,12.96-9.5,15.5-13.89,10.16-29.19,2.74-37.38-10.5,0-1.04,12.62-8.44,13.41-8.37.99.09,9,14.49,15.95,4.86,3.89-5.4.05-28.41,1.52-36.48.15-.83.8-2.5,1.5-2.5h14.5Z"/>
      <path d="M14,1.79v14c3.05.61,13.82-1.55,14.86,1.64-.79,5.95,1.7,36.57-.3,39.42-1.42,2.03-11.57.44-14.56.94V16.79H0V1.79h14Z"/>
    </g>
  </g>
</svg>