<?xml version="1.0" encoding="UTF-8"?>
<svg id="Layer_2" data-name="Layer 2" xmlns="http://www.w3.org/2000/svg" viewBox="0 0 849.01 112.2">
  <defs>
    <style>
      .cls-1 {
        fill: #111;
      }
    </style>
  </defs>
  <g id="Layer_1-2" data-name="Layer 1">
    <g>
      <path class="cls-1" d="M279,1.11l12.12.58,15.38,78.43L322.05,1.16l11.95-.05v97h-8.01s.99-80.99.99-80.99l-16.18,79.3c-1.18,2.63-7.44,2.63-8.62,0l-16.19-79.31v80h-7V1.11Z"/>
      <path class="cls-1" d="M181,28.11c5.45-4.78,16.98-7.86,22.56-2.06.88.91,3.44,5.73,3.44,6.56v65.5h-8v-62.5c0-7.81-18-3.86-18,0v61c0,2.14-9,2.14-9,0V1.61c0-2.14,9-2.14,9,0v26.5Z"/>
      <path class="cls-1" d="M614,60.11v37h-8V1.11h21.5c.35,0,5.78,2.18,6.42,2.58,2.51,1.53,5.06,5.34,5.83,8.17,2.09,7.66,2.02,30.69-.23,38.29-1.11,3.74-7.24,9.97-11.03,9.97h-14.5ZM614,52.11c5.35-.45,14.56,2.06,17.25-4.25,1.32-3.09,1.33-31.39,0-34.49-2.47-5.77-12.17-4.03-17.25-4.25v43Z"/>
      <path class="cls-1" d="M468,.11v28c6.3-4.49,16.9-8.42,23.06-1.56.85.95,2.94,4.1,2.94,5.06v65.5h-8v-62.5c0-7.68-18-2.43-18,1v62.5h-8V.11h8Z"/>
      <path class="cls-1" d="M505,33.61c1.78-10.7,15.12-12.22,23.56-9.56,7.38,2.33,8.93,8.52,9.48,15.52.5,6.36,1.18,55.24-.47,57.6-.88,1.27-7.28,1.23-7.57.94-.45-.45.73-5.04-.51-5.01-7.8,6.93-23.58,8.28-25.4-4.58-.61-4.31-.61-15.51,0-19.82,1.6-11.37,16.11-12.8,24.78-16.72-.96-8.37,4.59-21.2-7.52-21.52-11.07-.29-8.1,10.07-8.34,17.66h-8.01c.51-4.47-.71-10.25,0-14.51ZM530,59.11c-4.8,2.05-15.19,4.17-17.24,9.26-1.2,2.98-1.21,13.75-.69,17.17,1.46,9.57,17.93,2.58,17.93.07v-26.5Z"/>
      <path class="cls-1" d="M379,98.11c-5.81-.37-9.21,2.36-8.01-5-22.41,13.29-27.59.71-26.03-20.54,1.24-16.94,13.41-15.12,26.11-21.07-.04-9.84,2.17-23.58-12.35-20.17-7.1,1.67-4.15,11.59-4.71,16.79h-8.01c-1.96-16.45,3.72-28.56,22.28-24.78,4.68.95,10.73,7.51,10.73,12.27v62.5ZM371,60.11c-15.42,3.11-19.54,6.29-18.05,22.55.68,7.35,4.18,8.75,11.33,7.23.4-.09,6.72-2.41,6.72-2.77v-27Z"/>
      <path class="cls-1" d="M776,64.11h-26v20.5c0,5.99,9.69,6.48,14.06,5.06,5.86-1.91,3.52-10.84,3.94-15.56h8.01c.1,8.16,1.22,16.94-6.68,21.84s-23.77,3.09-26.66-7c-1.94-6.77-1.48-43.74-.71-52.37,1.19-13.41,11.79-15.19,23.48-13.4,4.09.63,10.56,6.52,10.56,10.44v30.5ZM768,56.11v-19.5c0-8.24-18-7.69-18-1v20.5h18Z"/>
      <path class="cls-1" d="M251,88.61c-2.46,12.23-28.37,14.07-32.79.78-2.46-7.38-1.95-40.51-1.25-49.83.99-13.32,8.14-18.18,21.46-16.36,4.56.62,12.59,5.35,12.59,10.41v30.5h-26v19.5c0,9.46,15.97,9.27,17.57,3.59,1.13-4.03.1-8.93.43-13.1h8.01c-.59,4.32.81,10.49,0,14.51ZM243,56.11v-20.5c0-5.04-13.21-5.89-15.77-3.27-.2.2-2.23,4.98-2.23,5.27v18.5h18Z"/>
      <path class="cls-1" d="M686.73,23.34c11.72-2.39,23.57-.05,25.16,13.38,1.21,10.21,1.31,38.63-.15,48.63-1.78,12.14-12.41,14.15-23.15,12.67-5.59-.77-10.63-4.68-11.52-10.48-1.39-8.98-1.26-44.69.03-53.84.67-4.77,4.9-9.4,9.64-10.36ZM701.77,32.33c-3.26-3.36-15.65-2.87-16.75,3.3,1.43,15.27-2,34.23-.08,49.02.34,2.63,1.78,4.9,4.58,5.42,7.77,1.45,12.93.46,14.21-7.74,1.4-9.03,1.07-31.25.3-40.77-.16-1.96-1.14-8.08-2.26-9.24Z"/>
      <path class="cls-1" d="M449,49.11h-8v-14.5c0-.81-4.32-3.98-5.71-4.29-11.3-2.57-12.61,7.51-11.23,16.23s19.35,11.69,23.5,20.5c3.95,8.37,3.87,27.11-6.72,30.4-5.76,1.79-16.88,1.27-21.34-3.33-1-1.03-3.49-5.52-3.49-6.51v-15.5h8v14.5c0,4.81,15.62,7,16.98-.02.46-2.36.35-10.42-.04-12.92-1.51-9.72-23.46-10.1-24.98-27.02-1.49-16.58,3.26-25.97,21.45-23.45,4.8.66,11.59,5.3,11.59,10.41v15.5Z"/>
      <path class="cls-1" d="M820,50.11h-8v-14.5c0-5.03-16.88-10.23-18.05,2.95-1.33,14.97.72,32.41.49,47.61,1.62,6.35,17.56,4.82,17.56-.56v-17.5h8v19.5c0,4.85-6.98,9.75-11.59,10.41-10.2,1.46-21.06-.49-22.41-12.41-1.04-9.16-1.29-44.31.45-52.56,2.27-10.8,16.43-12.06,25.29-9.18,3.3,1.07,8.27,6.43,8.27,9.73v16.5Z"/>
      <polygon class="cls-1" points="165 2.11 165 9.11 150 9.11 150 98.11 142 98.11 142 9.11 127 9.11 127 2.11 165 2.11"/>
      <path class="cls-1" d="M833,31.11c-.32-.31-4.77.23-6,0-2.17-10.62,4.86-6.93,6.01-8,.44-.41-.33-10.11,0-12.01h7.43c1.51.21-.07,11.37.57,12.01.36.36,6.53-.27,8.01-.01v8.01s-8.01,0-8.01,0v66h-8V31.11Z"/>
      <rect class="cls-1" x="569" y=".11" width="8" height="97"/>
      <rect class="cls-1" x="549" y=".11" width="8" height="97"/>
      <path class="cls-1" d="M731,23.11v81.5c0,.29-2.47,4.48-2.98,5.02-3.02,3.23-6.97,2.5-11.03,2.48.25-1.41-.4-6.55.05-6.96.28-.26,5.96.23,5.96-3.54V23.11h8Z"/>
      <path class="cls-1" d="M390,24.11c6.25.35,8.48-2.35,8.5,5,2.97-3.34,6.74-6.36,11.5-6-.41,2.03.68,7.63-.12,8.87-.36.56-11.87,2.75-11.87,5.63v60.5h-8V24.11Z"/>
      <path class="cls-1" d="M650,24.11c7.42.13,8.27-2.15,8.5,6,2.78-4.26,7.08-7.67,12.5-7-.3,1.66.46,8.45-.04,8.96s-12.96,2-12.96,5.54v59.5h-8V24.11Z"/>
      <path class="cls-1" d="M96,98.11h-7V8.61c0-.48,5.79-5.8,7-6.5v96Z"/>
      <path class="cls-1" d="M6,98.11H0V2.11c1.11.55,6,5.09,6,5.5v90.5Z"/>
      <path class="cls-1" d="M19,98.11h-6V15.11c1.11.55,6,5.09,6,5.5v77.5Z"/>
      <path class="cls-1" d="M83,98.11h-6V20.61c0-.41,4.89-4.95,6-5.5v83Z"/>
      <path class="cls-1" d="M32,98.11h-7V28.11c1.33-.66,7,5.04,7,5.5v64.5Z"/>
      <path class="cls-1" d="M70,98.11h-6V33.61c0-.41,4.89-4.95,6-5.5v70Z"/>
      <path class="cls-1" d="M45,98.11h-7v-57c1.33-.66,7,5.04,7,5.5v51.5Z"/>
      <path class="cls-1" d="M51,46.61c.11-.37,5.14-5.33,5.51-5.49l1.52,1.51-1.03,55.49h-6.01v-51.51Z"/>
      <rect class="cls-1" x="722.99" y="4.1" width="8.01" height="11.01"/>
    </g>
  </g>
</svg>