<?xml version="1.0" encoding="UTF-8"?>
<svg id="Layer_2" data-name="Layer 2" xmlns="http://www.w3.org/2000/svg" viewBox="0 0 331.22 138">
  <g id="Layer_1-2" data-name="Layer 1">
    <g>
      <path d="M.19,89.33c-.21-.21-.3-5.96,0-5.96h329.54c1.98,0,1.98,5.96,0,5.96H.19Z"/>
      <path d="M195.62,33.7c.29.28.5,6.65-1.6,6.85l-191.36.13c-3.51-.43-2.36-4.15-2.47-6.98h195.43Z"/>
      <path d="M.19,138c-.21-.21-.3-5.96,0-5.96h206.9c1.98,0,1.98,5.96,0,5.96H.19Z"/>
      <path d="M94.92,49.59c.27-.27,5.86-.12,7.01.47,1.9.98,3.51,5.96,5.46,7.47,2.55-2.96,2.58-7.62,6.94-7.99,3.61-.3,5.27-.33,5.56,3.48.26,3.33.56,16.36-.15,18.81-.6,2.08-5.4,2.02-7.26,1.49-2.42-.69-1.48-4.74-1.61-6.84-3.19,1.84-5.33,1.24-7.97-.99-.26,1.45.35,7.6,0,7.95-.32.32-7.98.36-7.98-1.49,0-3.13-.79-21.56,0-22.35Z"/>
      <path d="M138.79,7.87c1.64.26.95-1.34.99-2.47.04-1.04-.17-4.31,0-4.48.31-.31,7.65-.38,8.53.94.78,1.16.81,19.76,0,20.96-1.1,1.63-7.37,1.51-8.56-.52l-3.96-5.49c-.25,1.34.33,6.62,0,6.95-.36.36-8.52,1.1-9-2.46-.32-2.34-.23-18.4.47-19.45,1-1.49,6.02-1.26,7.56-.47,1.33.69,3.62,4.77,3.97,6.48Z"/>
      <path d="M20.13,49.59c.28-.28,7.07-.2,8.03.44,1.98,1.32.39,6.91.95,7.5.14.15,3.85.15,3.98,0,.56-.6-1.03-6.19.95-7.5,1.73-1.15,5.83-.11,8.03-.44v22.35c0,1.75-6.49,2.06-8.03,1.05-1.98-1.31-.39-6.91-.95-7.5-.14-.15-3.85-.15-3.98,0-.64.69,1.37,6.99-1.61,7.84-1.61.46-7.37.35-7.37-1.38,0-3.13-.79-21.56,0-22.35Z"/>
      <path d="M330.23,71.94c-.51,1.95-5.3,1.9-7.01,1.02-1.33-.69-3.62-4.77-3.97-6.48l-2.07,6.87c-2.24.02-7.08.95-7.79-1.52-.59-2.05-.5-17.07-.13-19.78.42-3.13,6.6-3.24,7.87-2.33,1.1.79,2.72,7.26,5.11,7.82.26-1.45-.35-7.6,0-7.95.28-.28,7.98-.39,7.98,0v22.35Z"/>
      <path d="M177.28,49.7c1.67-.48,9.81-.38,11.84-.09,3.64.53,7.92,3.65,8.47,7.45.8,5.46.81,12.53-4.94,14.9-2.84,1.18-15.03,2.76-16.53.52-.82-1.22-.77-20.81,0-21.96.26-.39.71-.71,1.16-.83ZM188.64,57.54c-.13-.15-3.85-.15-3.98,0-.27.29-.27,7.66,0,7.95.13.15,3.85.15,3.98,0,.27-.29.27-7.66,0-7.95Z"/>
      <path d="M139.78,66.48c-2,.06-.62,3.69-1.1,5.35-.66,2.3-7.36,2.23-8.42.66-.79-1.17-.69-16.75-.49-19.46.08-1.1-.09-2.28.99-2.99,1.13-.75,10.57-.71,12.5-.43,5.65.83,8.27,4.85,7.48,10.39-.33,2.32-2.7,4.4-2.73,4.97-.06,1.11,3.75,6.41,3.74,6.97-.03,1.83-6.76,1.84-8.35,1.37s-3.28-5.06-3.61-6.83ZM138.79,59.52c.99.98,4.53-1.76,1.49-2.97-2.1-.84-1.78,2.68-1.49,2.97Z"/>
      <path d="M70.99,49.59c6.23.46,16.1-2.08,19.8,4.61s-1.91,8.08-1.91,10.79c0,1.35,4.94,6.67,3.05,8.44-.29.28-6.81.14-8-.47-1.8-.92-3.12-4.46-2.97-6.48-2,.06-.62,3.69-1.1,5.35-.8,2.78-8.87,1.86-8.87.11v-22.35ZM79.96,59.52c.99.98,4.53-1.76,1.49-2.97-2.1-.84-1.78,2.68-1.49,2.97Z"/>
      <path d="M20.13.92c.28-.28,7.06-.2,8.02.46,1.61,1.11,2.48,5.71,4.94,6.5.25-1.34-.33-6.62,0-6.96.28-.28,7.98-.39,7.98,0v22.85c-2.18-.33-6.32.71-8.02-.46s-2.48-5.71-4.94-6.5c-.25,1.34.33,6.62,0,6.96-.28.28-7.98.39-7.98,0,0-3.18-.81-22.04,0-22.85Z"/>
      <path d="M186.65,99.26c.28-.28,7.05-.2,8.02.45,1.26.84,2.91,6.14,4.44,7.5,1.26-.04,0-7.46.5-7.95.28-.28,7.98-.39,7.98,0v22.85c-2.2-.33-6.29.71-8.02-.45-1.49-.99-2.07-5.96-4.94-6.5-.25,1.34.33,6.62,0,6.96-.28.28-7.98.39-7.98,0,0-3.18-.81-22.04,0-22.85Z"/>
      <path d="M172.69,49.59c.27.27.37,6.63-.94,7.5-1.83,1.22-6.65.05-9.02.45-.24,1.73,2.28.96,3.48.99,1.31.03,6.26-.23,6.49,0,.21.21.21,5.75,0,5.97-.39.39-8.3-.29-9.97,0-.23,1.75,2.26.94,3.48.99,1.57.07,3.34-.29,4.84.15,3.79,1.1,3.05,7.8,1.15,7.8h-16.95c-.11,0-1.5-1.38-1.5-1.49v-20.86c0-.11,1.39-1.49,1.5-1.49,2.54,0,16.83-.62,17.45,0Z"/>
      <path d="M110.59.14c4.12-.7,11.3,1.23,13.04,5.46,2.28,5.56,1.67,16.42-5.46,17.99-4.98,1.1-11.14.97-14.29-3.28-4.8-6.48-2.24-18.63,6.71-20.16ZM114.86,7.88c-.59-.59-3.41.06-3.88,1.59-.44,1.44.1,6.33.94,7.32.09.11,2.85.14,2.94.03.3-.33.32-8.62,0-8.94Z"/>
      <path d="M167.39,99.44c4.76-1.04,13.23-.96,15.5,4.06,1.14,2.52,1.21,10.16.59,12.96-1.8,8.16-20.64,9.28-21.79-1.77-.55-5.24-.74-13.84,5.7-15.25ZM170.7,115.15c.26.26,2.21.07,3.02-.47,1.62-1.08,1.56-7.87-.53-8.47-.6-.17-2.39-.35-2.49.49-.15,1.25-.29,8.14,0,8.44Z"/>
      <path d="M221.55,49.59v18.38c0,.57-1.85,2.77-2.61,3.36-4.05,3.08-12.46,3.01-16.32-.39-.45-.4-2.01-2.79-2.01-2.97v-18.38c0-.32,5.59-.14,6.51-.02,5.46.73-.05,13.52,3.96,16.9,1.92-1.27,1.41-2.58,1.51-4.45.46-8.78-3.26-14.02,8.96-12.43Z"/>
      <path d="M291.03,49.77c5.3-1.16,12.9-.14,14.83,5.72.77,2.35.8,8.86.26,11.3-1.54,6.93-12.35,8.31-17.73,5.11-.87-.51-3.62-3.24-3.87-4.09-.46-1.54-.46-11.07,0-12.62s4.79-5.05,6.51-5.43ZM294.84,56.55c-2.51.79-2.29,10.96.99,9.93,2.51-.79,2.29-10.96-.99-9.93Z"/>
      <path d="M46.33,101.51c2.71-2.7,8.53-2.68,12.23-2.29,8.2.86,8.18,8.78,7.48,15.47-.88,8.37-10.4,9.19-17.03,6.96s-6.65-16.19-2.68-20.14ZM57.02,106.22c-.26-.26-2.21-.07-3.02.47-1.62,1.08-1.56,7.87.53,8.47.6.17,2.39.35,2.49-.49.15-1.25.29-8.14,0-8.44Z"/>
      <path d="M59.89,70.59c-.43-.31-5.24-.35-6.25-.19-.95.15-.74,2-1.53,2.58-1.36,1-7.47.95-8.02-1.11-.28-1.03,5.45-17.13,6.44-19.3.49-1.07.86-2.48,2.12-2.85,1.82-.54,7.58-.5,8.88.85,2.6,2.71,4.5,15.64,7.29,19.6,1.15,3.7-4.61,3.99-7.23,3.18-1.49-.46-1.32-2.46-1.72-2.75ZM57.02,63.5c.13-.15.13-3.82,0-3.97-1.36-1.64-1.36,5.6,0,3.97Z"/>
      <path d="M234.51,56.55c-1.25,1.42-1.25,8.49,0,9.93.94,1.08,3.64-2.68,5.47-2.99,12.01-2.02,7.1,8.22-.17,9.76-5.34,1.13-13.73-.31-15.09-6.45-.5-2.26-.5-8.31,0-10.56,2.03-9.17,19.38-8.81,22.31-.73,1.69,4.64-3.56,4.63-7.05,4.04-1.83-.31-4.52-4.07-5.47-2.99Z"/>
      <path d="M60.97.96l7.02,22.8c-2.27-.26-5.22.49-7.33-.14-2.35-.7-2.2-3.83-8.02-2.88-.98.16-.64,2.45-2.19,2.93-1.99.62-5.17-.22-7.38.09.65-3.12,5.92-21.71,7.06-22.77.61-.57,8.97.21,10.85-.04ZM56.03,13.83c.19-.19-.11-2.17,0-2.98-2.17-.03-2.29,5.25,0,2.98Z"/>
      <path d="M165.58,20.93c-.54-.39-4.36-.32-5.26-.04-1.54.47-1.2,2.78-2.19,2.93-2.46.39-5.76-.37-8.37-.05l7.14-21.19c1.27-2.6,10.66-2.55,11.64,0,1.49,5.59,3.51,11.03,5.37,16.5.78,2.29,3.15,4.18-.69,4.72-1.45.21-5.62.24-6.59-.48-.74-.55-.71-2.13-1.05-2.39ZM163.71,13.83c.83-.82-1.53-3.54-1.99-2.98-.88,1.09.37,4.58,1.99,2.98Z"/>
      <path d="M42.07,108.2c-2.39-.24-5.19.37-7.49.01-1.94-.3-3.02-2.71-5.47-2v8.94c2.45.71,3.53-1.69,5.47-2,2.3-.36,5.1.25,7.49.01,1.05,11.12-17.56,12.57-21.73,4.26-1.94-3.87-1.82-11.15.75-14.73,4.51-6.27,22.56-5.04,20.98,5.5Z"/>
      <path d="M91.92,122.1c-2.61-.32-5.91.44-8.37.05-.99-.16-.64-2.46-2.19-2.93-.99-.3-3.7-.32-4.79-.15-.98.16-.66,2.46-2.19,2.93-1.98.62-5.17-.21-7.39.09-1.56-1.48,6.58-19.36,7.06-22.77,2.47.2,9.14-1,10.42.89l7.45,21.88ZM79.96,110.19c-1.09-1.09-3.08.9-1.99,1.98s3.08-.9,1.99-1.98Z"/>
      <path d="M87.94.92c.25.25.25,6.71,0,6.96-.3.3-4.75-.21-5.99,0v14.4c0,2.16-9.97,2.16-9.97,0V7.87c-1.23-.21-5.68.3-5.99,0-.25-.25-.35-6.96,0-6.96,3.07,0,21.16-.77,21.94,0Z"/>
      <path d="M269.41,49.59c.28.28.28,7.67,0,7.95-.3.3-4.75-.21-5.99,0v14.4c0,2.13-8.97,2.13-8.97,0v-14.4c-1.23-.21-5.68.3-5.99,0-.28-.28-.4-7.95,0-7.95,2.95,0,20.2-.74,20.94,0Z"/>
      <path d="M146.76,99.26c.28.28.28,7.67,0,7.95-.3.3-4.75-.21-5.99,0v14.9c0,.45-8.97.45-8.97,0v-14.9c0-.29-4.37.79-5.54-.94-1.08-1.61-.18-5.01-.45-7.01,2.9.55,20.2-.74,20.94,0Z"/>
      <path d="M102.89,115.15c.43.43,8.54-.43,8.98,0,.25.25.35,6.96,0,6.96h-17.45c-.11,0-1.5-1.38-1.5-1.49v-19.87c0-2.16,9.97-2.16,9.97,0s-.51,13.89,0,14.4Z"/>
      <path d="M185.65.92v14.9c0,1.2,9.62.63,9.97.99.25.25.35,6.96,0,6.96h-18.94V.92c0-.45,7.76.32,8.97,0Z"/>
      <path d="M123.83,99.26v22.85c-2.55-.36-9.06,1.18-9.86-1.6-.45-1.54-.45-18.1,0-19.65.8-2.78,7.31-1.23,9.86-1.6Z"/>
      <path d="M272.4,73.43v-23.84c2.42.29,8.09-1.08,8.87,1.6.45,1.56.45,19.08,0,20.65-.78,2.68-6.45,1.3-8.87,1.6Z"/>
      <path d="M158.73,99.26v22.85c0,.45-8.97.45-8.97,0v-22.85c0-.45,7.76.32,8.97,0Z"/>
      <path d="M98.9.92v22.85c0,.45-8.97.45-8.97,0V.92c0-.45,7.76.32,8.97,0Z"/>
    </g>
  </g>
</svg>