<?xml version="1.0" encoding="UTF-8"?>
<svg id="Layer_2" data-name="Layer 2" xmlns="http://www.w3.org/2000/svg" viewBox="0 0 781 781">
  <defs>
    <style>
      .cls-1 {
        fill: #754fa5;
      }

      .cls-2 {
        fill: #595959;
      }
    </style>
  </defs>
  <g id="Layer_1-2" data-name="Layer 1">
    <g>
      <path class="cls-2" d="M0,406c11.99-1.89,18.5,11.48,27.51,16.99,1.86-4.62,2.7-25.15,7.02-26.96.44-.18,2.48-.4,2.48.48.98,7.46-3.59,14.92-3,22.49,4.23-4.24,12.18-14.67,19.02-12.59,10.57,3.22,2.04,11.57-2.51,15.62-5.4,4.8-11.55,7.6-17.39,11.64.79,14.19,3.74,28.8,12.35,40.33,4.05-6.34,5.9-14.93,12.57-19.43,4.25-2.86,9.82-4.23,12.42,1.46,3.61,7.88-13.71,22.03-18.33,27.62l11.34,31.36,1.49.99c1.8-5.88,10.83-21.42,17.44-20.99s6.37,6.6,4.47,11.39c-1.46,3.69-9.37,13.79-12.41,16.59-5.21,4.81-9.06,2.62-8.36,10.38,1.11,12.4,7.78,27.13,17.86,34.63,1.05-6.01.18-30.72,11.76-25.27,8.77,4.13-1.4,26.76-3.62,33.56,7.81,8.05,14.56,17.28,18.88,27.7,1.43.3,1.05-1.13,1.3-2.16,1.53-6.24,2.01-18.86,11.18-18.88,12.82-.03,3.57,22.63.97,29.02-.94,2.3-4.33,7.16-4.48,8.59-.71,7.1,19.39,24.23,26,27.44-2.94-6.31-3.08-33.85,10.02-27.5,7.72,3.74,2.01,26.83.42,33.51,6.09,4,13.17,6.24,19.62,9.45,2.57,1.28,6.44,4.71,8.47,5.53,1.44.58,1.6-.19,1.45-1.43-.88-7.32-4.62-14.06.69-21.3,7.45-10.15,12.8,4.54,13.38,11.21.54,6.21-2.08,18.64-.83,22.83.73,2.44,12.05,10.6,9.79,13.7-6.64,3.07-8.36-8.33-14.36-9.92-6.54,5.97-20.75,20.05-29.18,10.97-9.63-10.38,13.9-15.83,20.55-17.53,1.67-1.21.47-1.49-.53-2.49-1.86-1.88-7.83-5.12-10.46-6.54-3.13-1.69-19.62-9.99-21.76-10.31-2.54-.38-14.41,6.81-20.02,7.57-7.25.98-17.17,1.82-21.3-5.19-2.41-4.09,1.71-9.55,5.56-9.55h22.5c-9.11-7.95-19.1-15.45-24.02-27-8.76,4.69-18.41,7.91-28.52,7.04-5.92-.51-16.29-5.36-11.91-11.98,5.47-8.27,24.93-1.89,33.97-3.06,1.16-.15,2,.41,1.45-1.46-2.04-6.84-15.86-32.35-22.01-35.08-1.08-.48-18.7.9-23.2.28-7.67-1.05-16.28-5.91-13.55-15.04,2.19-7.32,18.8,1.71,23.77,1.81-8.38-10.23-12.9-22.84-14.95-35.82-8.21-1.97-33.64-8.73-33.92-19.17-.04-1.64,1.04-4.47,2.46-5.45,7.9-5.47,23.08,9.97,29.93,13.9-.83-7.05-6.94-30.79-12.57-34.42-2.65-1.71-13.17-3.58-17.99-6.01-5.8-2.93-14.09-8.13-11.75-15.85,2.38-7.85,15.09,1.85,18.77,3.81-4.16-10.83-7.69-22.15-7.92-33.9-7.67-2.88-14.78-6.86-21.07-12.11l-6.99-7.51v-8ZM53,411.01c-7.23-.47-11.42,7.27-14.97,12.51,2.78-.05,5.34-1.92,7.45-3.54,1.04-.8,8.68-7.94,7.52-8.97ZM17.99,422.99c1.33-1.26-9.43-11.48-11.99-10.99-1.45,1.38,10.63,12.29,11.99,10.99ZM19.5,423v1c.65-.33.65-.67,0-1ZM66,457.01c-8.88-.44-12.72,11.78-13.98,18.99,5.87-5.08,12.89-10.85,13.98-18.99ZM38,476.99c-1.16-2.61-14.36-12.54-16-10.98,1.13,6.65,10.09,10.18,16,10.98ZM82.99,500c-2.7-2.94-14.86,16.38-13.5,19.98,5.95-5.33,13.24-11.33,13.5-19.98ZM54,522.99c-3.15-4.07-8.72-7.8-13.33-10.16-1.26-.65-6.99-4.52-7.67-1.31-.88,4.2,16.82,12.59,21,11.47ZM93.99,548.01c-2.29-.44-1.6.14-2.23,1.28-2.15,3.84-2.78,12.38-1.75,16.71l3.75-8.73.23-9.25ZM64.5,575c4.55.75,10.73-.55,15.5,0l-9.73-4.77-13.75-4.25c-1.98,4.27,4.51,8.44,7.99,9.01ZM118,595.5c-.8,4.83.58,11.43,0,16.5l5.45-11.05c1.26-2.31,3.28-13.84-.94-12.95-1.31.28-4.29,6.12-4.51,7.5ZM105.99,621.01c-8.1-.02-16.82-2.57-24.81-.3-.94.27-3.06.03-2.18,1.78,3.14,6.27,20.6,3.95,25.72.77,1.04-.65,1.75.04,1.27-2.25ZM153.93,625.05c-3.04-1.9-4.81,4.29-4.99,6.45-.34,4.13,1.12,12.08,3.56,15.49,2.29-3.14,3.77-20.47,1.43-21.94ZM195,671v-16.5c0-.64-2.82-6.49-3.5-6.48-3.52,3.2-2.79,8.71-2.05,13.04.19,1.09,3.46,12.47,5.55,9.94ZM141,656h-19.5c-.65,0-5.37,1.55-5.5,2.99,6.89,3.13,17.06,2.87,23.72-.75,1.18-.64,1.67.03,1.28-2.24ZM186.99,683.01c-.87-.81-16.26,3.7-18.01,5.51-1.08,1.12-.98,1.08-.59,2.52,1.24,4.6,5.12,2.56,8.29,1.15,1.53-.68,11.98-7.62,10.31-9.17Z"/>
      <path class="cls-2" d="M432,781c-6.67-13.1,9.69-24.36,14-35.99-14.89-1.73-29.12-2.62-43.81,1.17-1.29,9.68-17.87,36.57-29.44,25.87-6.9-6.38,8.81-15.52,12.26-20.04h-15.5c-2.17,0-9.78-1.86-12.51-2.49-3.89-.91-7.3-3.34-11.31-3.57-4.27,6.73-21.3,21.85-29.09,21.07-2.11-.21-5.79-2.67-6.4-4.71-3.46-11.53,21.24-14.99,26.8-21.28-11.36-2.86-22.68-5.39-34.44-6.03-5.78,4.49-21.33,19.49-28.98,19.01-7.24-.46-10.88-8.31-3.51-12.42l9.93-5.56c-11.49-1.03-22.59-4.14-32.66-9.79-6.42,3.38-11.01,7.83-18.07,10.54-4.49,1.73-18.68,6.15-20.1-1.41-1.29-6.88,22.95-12.12,27.83-13.36.46-1.91-.7-1.92-1.68-2.81-2.52-2.29-22.1-15.39-18.32-19.17,2.77-2.77,13.7,9.74,15.99,11.5,1,.77,1.27,1.94,3,1.49-.53-7.21-6.3-15.6-.54-22.03,9.55-10.68,12.87,12.64,13.53,18.56.46,4.11-.72,8.44.5,12.5.95,1.57,22.54,8.98,25.02,8.98h15.5c-3.75-7.13-15.53-19.52-9.02-27.52,8.55-10.51,15.54,8.78,17.74,15.31.77,2.29,2.09,10.98,3.23,11.77,11.62.17,22.72,3.39,34.06,5.43-3.37-4.91-16.73-25.82-6.27-28.81,11.14-3.19,19.27,26.48,18.41,34.69,14.06,5.76,27.92,7.61,42.86,4.13,1.77-1.67-10.17-7.97-11.47-9.02-4.78-3.85-13.06-14.49-1.93-15.98,6.83-.92,20.02,15.57,24.06,20.89,11.45-2.95,22.55-3.3,34.35-2.9-3.07-3.63-11.72-9.1-12.78-13.7-.82-3.53-.53-8.9,3.5-10.1,9.31-2.75,24.17,17.83,27.42,25.66,12.75-.29,24.96-2.33,35.84-9.35,0-1.64-18.12-6.38-19.71-13.24-4.37-18.84,15.18-6.73,22.21-1.24,2.15,1.68,6.82,7.91,9,7.97l27.52-17c-5.21-4.55-12.18-3.34-16.99-9.49-9.04-11.57,3.3-13.84,12.99-9.99,4.47,1.77,17.92,12.25,19.55,12.52,4.66.75,12.01-3.68,17.45-2.01,2.77,7.37-13.38,5.2-14.97,7.03.77,8.62,5.83,24.4-2.09,30.4-3.71,2.81-6.21,3.27-9.49-.4-6.21-6.94.61-17.19,1.54-24.56.27-2.14-.55-1.62-2.12-1.11-10.52,3.43-21.72,14.08-31.38,19.62-.72,10.15-4.22,37.12-18.02,37.03-16.97-.11,6.01-27.57,4.51-29.03-11.38,5.06-22.47,7.58-34.99,8,.26,8.56-2.54,19.91-7.57,26.93-2.21,3.09-6.34,4.69-7.44,8.06h-8ZM536,701.99c-1.39-3.9-19.88-12.96-22-10.98,1.82,9.25,14.25,10.52,22,10.98ZM240.99,694c-2.96-2.22-3.01,5.06-2.89,6.38s3.62,14.35,5.89,11.62c.31-2.49-2.1-17.32-3.01-17.99ZM294.99,726c.3-3.42-6.23-24.71-10.98-20-2.58,2.55,6.47,18.92,10.98,20ZM341.99,734c1.14-2.73-7.81-25.63-10.98-21.99-.48,8.25,5.62,16.22,10.98,21.99ZM493,724.99c-1.05-3.6-16.88-14.01-19-11.98.5,8.1,12.08,11.66,19,11.98ZM538,733c10.79,1.48,6.08-13.47,4.99-20-3.55,1.56-6.23,18.8-4.99,20ZM437.65,725.35c-2.79-2.68-6.81-6.38-10.65-4.34,2.16,8.4,10.42,12.21,17.51,15.97-.23-4.03-4.03-8.9-6.86-11.63ZM390.99,737.99c1.69-1.64-10.48-13-13.97-11.51.59,2.79,12.35,13.08,13.97,11.51ZM233.5,728v1c.65-.33.65-.67,0-1ZM232,729.01c-5.29.12-12.4,1.88-16,5.98,5.27.09,12.88-1.26,16-5.98ZM392.5,738v1c.65-.33.65-.67,0-1ZM271,747.99c3.15,3.38,15.8-5.03,17.98-8.5-5.63.69-11.16,3.16-16.01,6.02-.67.4-3.59.74-1.97,2.47ZM485.01,762c9.33-2.5,11.41-14.56,11.98-23-3.69,2.19-14.04,20.27-11.98,23ZM315.01,762c9.19-1.41,16.08-6.62,21.97-13.51-3.17-.71-25.52,9.9-21.97,13.51ZM435.01,775.99c10.22-1.05,13.85-15.24,13.98-23.99-3.46,2.2-16.66,21.29-13.98,23.99ZM393.99,753.01c-1.18-1.16-16,10.83-17.05,12.44-2.16,3.34-.17,4.9,3.33,4.38,3.94-.58,15.44-15.13,13.72-16.83Z"/>
      <path class="cls-2" d="M781,374c-1.98.04-3.77,1.91-5.59,2.02-4.96.3-18.18-14.77-22.92-18.01-2.97,9.05-.98,20.53-8,27.98-5.36-.09,2.77-19.65,1.49-22.98-6.01,4.12-10.66,13.7-19.26,11.8s-3.61-9.45.24-13.34,17.83-11.12,19.11-12.89c2.88-3.99-2.3-23.62-4.31-28.84-1.06-2.73-4.77-10.75-7.28-11.73l-7.05,12.93c-4.94,8.17-19.76,13.1-17.38-1.38.9-5.49,13.04-17.75,18.03-21.19l-11.57-31.38c-1.14-1.65-1.61-.55-2.38.65-2.81,4.36-10.89,22.14-18.1,18.9-1.06-.48-4.32-4.32-4.64-5.5-1.47-5.36,12.78-21.21,17.13-25,1.77-1.54,5.35-2.48,5.58-4.52-.98-14.98-7.18-30.12-19.1-39.51v16.5c0,1.91-3.43,9.61-5.7,10.32-3.64,1.13-7.14-.7-8.56-4.09-2.4-5.72,4.61-22.91,7.09-29.08-7.08-8.94-15.09-17.58-18.85-28.64-1.42-.3-1.07,1.12-1.31,2.15-1.58,6.86-2.35,20.95-13.15,18.83-7.4-1.45-3.93-14.34-2.47-19.43,1.21-4.21,7.87-15.97,7.87-18.06,0-4.28-8.61-13.99-11.91-17.01-1.4-1.28-13.06-10.43-14.01-9.48,1.26,7.59,4.49,21.15-3.03,26.46-12.82,9.06-10.67-17.57-9.72-23.72.41-2.65,2.48-6.61,2.59-8.46.17-2.77-14.38-7.53-17.52-9.12-1.37-.69-11.88-7.74-12.31-7.18,1.5,6.78,5.15,23.92-4.75,25.85s-9.43-20.57-9.3-26.39c.07-2.99,1.61-5.86,1.04-8.92-.74-3.99-10.83-10.8-10-14.02,1.81-7.03,12.59,9.47,13.5,9.46,5.09-5.54,25.52-22.83,30.74-10.73s-14.7,14.1-22.24,16.76c-.37.47,1.92,2.45,2.52,2.96,2.95,2.54,28.26,15.84,31.05,16.02,3.56.22,16-6.89,22.18-7.73s18.74-1.02,20.08,7.46c.34,2.15-3.15,7.28-4.34,7.28h-25.5c10.56,7.75,18.76,15.61,25.6,26.92,10.03-4.52,22.4-9.41,33.37-5.39,4.61,1.69,9.01,4.98,6.51,10.46-3.97,8.7-26.57,2.09-33.99,3.01-1.38.17-1.8-.52-1.38,1.38,1.19,5.35,7.84,18.15,11.08,22.93,1.71,2.52,8.58,11.15,10.83,12.19,1.63.75,15.72-.73,20.2-.22,6.84.78,18.17,4.24,17.5,13.07-.96,12.76-21.9-1.03-23.72.66,1.42,4.41,5.15,8.18,7.17,12.32,3.75,7.68,5.56,16.19,6.92,24.57,8.22-1.16,34.5,9.08,33.89,18.53-.24,3.83-4.45,7.06-8.24,6.41-4.64-.8-23.74-15.87-24.75-14.83,2.07,7.62,6.85,29.09,13.01,33.48,2.86,2.04,11.83,3.54,16.34,5.66,6.56,3.08,14.24,7.15,13.59,15.27-.88,11.05-15.4-1.34-19.93-2.92,5.51,10.37,8.51,22.01,7.94,33.84,8.64,4.2,20.09,9.29,26.05,17.16,1.71,2.26,1.13,5.82,3.99,5.51v4ZM593,97.99c3.09.49,19.62-3.36,18.95-7.37-1.27-7.59-17.55,3.01-18.95,7.37ZM586.01,110.01c-1.5,7.19-2.59,16.87,2.49,22.97,4.38-4.3,2.36-10.76.96-15.94-.46-1.71-1.91-6.06-3.44-7.04ZM662.87,121.12c-2.08-2.56-15.32-.52-18.83.42-1.71.46-6.06,1.92-7.04,3.45,8.67,2,17.29.56,26,0-.19-1.09.38-3.25-.13-3.88ZM626.01,157c8.76-2.51,4.33-17.01,1.49-22.99-2.67,7.35-3.38,15.32-1.49,22.99ZM679.5,161h19c.15,0,2.63-1.2,2.5-1.49-7.04-8.34-19.38-3.76-27.99-.49l6.49,1.99ZM661.5,170.02c-2.71.11-9.98,24.07-5,23.96.28,0,3.53-3.32,3.92-4.06,1.14-2.16,4.33-20.03,1.08-19.9ZM714.5,206c-4.33-.67-9.99.48-14.5,0,3.55,2.96,9.38,5.29,13.74,6.76,1.75.59,10.74,4.1,10.27.74-.57-4.15-5.84-6.93-9.51-7.5ZM687.99,234c2.13-2.09,2.16-15.55,2-18.99-1.5,0-1.87,3.02-2.25,4.23-1.01,3.2-3.22,10.67-2.02,13.49.45,1.06,1.04,2.47,2.26,1.27ZM748,270.99c1.88-1.65-7.3-7.58-8.33-8.16-4.32-2.45-9.68-4.64-14.67-4.82,2.54,3.12,19.82,15.76,23,12.98ZM710.5,261v1c.65-.33.65-.67,0-1ZM709.99,263c-1.1-1.2-7.61,6.02-8.41,7.08-2.33,3.1-4.94,6.9-4.58,10.91,3.17,3.25,14.61-16.21,12.99-17.99ZM758,314.99c2.62-2.44-14.76-12.99-17.98-11.5,1.98,2.31,15.77,13.56,17.98,11.5ZM714.01,324.99c8.98-.76,12.22-11.46,13.51-18.97-3.77,1.04-16.26,16.14-13.51,18.97ZM742.99,356.01c-1.16-1.17-16,10.65-15.99,13.98,2.17.21,3.6.17,5.55-.94,1.46-.83,11.49-11.99,10.44-13.05ZM760.49,357.02c2.22,3.43,6.33,8,9.48,10.51.93.74,2.78,2.4,4.01,1.98-2.34-6.04-7.64-9.99-13.49-12.49Z"/>
      <path class="cls-2" d="M347,0c8.83,11.92-7.6,23.89-13.04,34.48-.5.97-1.63.75.02,2.04,9.89.88,35.18,3.83,43.36-1.43.88-.57,6.84-14.94,9.68-18.56,4.34-5.52,12.22-13.03,19.49-7.54,4.95,3.74,1.8,7.9-1.47,11.56l-11.04,9.46h21.5c4.47,0,15.36,5.86,18.8,5.05,3.81-6.61,22.13-21.38,29.25-20.99,1.92.1,7.69,5.74,7.07,7.97-2.27,8.1-20.38,13.81-27.61,17l8.78,3.7c6.68,1.85,21.16,4.97,27.51,3.08,1.75-.52,9.75-9.52,13.18-11.82,2.13-1.43,8.28-4.9,10.5-5.51,7.33-2,15.62,3.82,8.38,10.38-3.73,3.37-9.41,3.45-12.35,7.14,11.68,0,23.37,3.66,33.74,8.88,2.31.33,6.33-4.17,8.96-5.67,6.82-3.88,17.34-9.28,25.25-6.64,3.73,1.24,5.5,4.33,2.31,7.49-5.23,5.18-20.3,6.95-27.25,9.97l16.03,12.45c2.42,1.26,7.99,11.67,1.96,9.06-5.2-2.26-11.03-11.47-16.51-14.5.65,6.3,4.75,12.99,3.49,19.46-.47,2.39-4.95,6.81-7.42,6.57-8.47-.82-8.59-27.49-8.72-33.89-3.96-1.27-7.7-3.52-11.57-4.93-2.23-.81-12.35-4.24-13.76-4.24h-16.5c5.63,4.99,19.59,31.17,4.47,30.89-8.06-.15-13.8-23.2-14.52-29.84-11.7-.62-23.09-3.42-34.46-6.03,2.01,7.04,12.99,19.19,8.58,26.55-6.62,11.02-15.21-7.66-17.24-12.89-2.46-6.34-3.9-12.71-3.92-19.59-14.4-4.78-28.99-7.36-43.9-3.08-1.96,1.9,23.77,11,19.28,20.72-4.79,10.37-17.91-4.51-21.79-8.72-1.69-1.84-5.06-7.8-6.5-8.57-2.5-1.33-9.82,2.56-12.49,2.56h-23.5c4.77,5.25,16.25,11.37,13.56,20.04-3.85,12.45-19.9-5.03-23.54-9.56-1.54-1.92-6.37-10.6-7.01-10.99-6.37-3.91-30.15,3.36-36.01,9.02,7.74.44,31.42,16.91,16.69,22.77-6.42,2.56-23.55-12.53-28.34-17.17-1.54-.26-13.34,9.28-15.83,10.92-1.25.83-13.37,7.3-12.53,7.96,7.1-1.04,26.6,9.92,19.46,17.97-4.86,5.48-16.64-1.14-21.76-4.16-2.77-1.63-10.68-8.36-12.4-8.62-3.05-.47-9.46,2.78-12.94,2.78-2.06,0-7.65-2.23-4.08-4.2,2.98-1.64,13.68-2.82,14.31-3.7-.05-7.77-4.88-22.59,1.03-28.96,3.42-3.69,7.99-4.46,11.4-.34,5.28,6.38-1.53,18.75-2,26.23,12.39-4.91,22.23-13.89,33.83-20.15.06-8.88,3.4-32.06,12.43-36.08,1.22-.54,7.86-2.06,8.57-1.64.31.18,3.11,5.59,3.17,6.44.36,5.13-10,17.79-11.51,23.41,11.04-5.54,23.1-8.64,35.52-7.97-.42-8.82,2.32-20.72,7.56-27.94,2.32-3.19,6.34-4.43,7.44-8.06h7ZM345,6.01c-10.72-.22-13.78,15.54-13.99,23.99,3.26-1.85,15.98-22.09,13.99-23.99ZM398.72,12.19c-4.87,1.06-12.32,12.74-13.23,17.79,2.91-2.77,17.86-12.58,18.5-15.5.57-2.61-3.37-2.71-5.28-2.29ZM294.99,20.01c-4.64-4.56-13.84,18.02-11.98,21.99,3.66-1.53,13.62-20.39,11.98-21.99ZM463.99,20.01c-8.65.23-15.84,6.58-20.99,12.98,3.38.55,24.71-9.33,20.99-12.98ZM509,34.99c-5.39-5.72-14.99,3.13-18.98,7.52,7.03-.58,12.87-4.5,18.98-7.52ZM403,54.99c1.51-1.16-13.78-14.35-16.98-13.5,1.25,3.26,14.13,15.69,16.98,13.5ZM351.99,61c4.1-4.15-14.24-18.13-18.97-17.5,5.41,6.25,9.61,17.15,18.97,17.5ZM563.99,46c-6.9.69-13.74,2.77-18.97,7.51,5.44-.79,12.2-2.38,17.03-5,1.39-.76,2.46.09,1.95-2.5ZM448.99,68.99c2.35-2.42-7-20.4-10.98-21.99-1.9,3.54,7.03,26.06,10.98,21.99ZM242,48c-10.7-.15-6.12,13.32-4.98,20,3.62-1.71,6.38-18.64,4.98-20ZM496,75c.66-8.01-5.16-15.19-10.99-20,1.6,6.38,2.66,20.37,10.99,20ZM306,67.99c-1.48-7.8-12.12-10.92-18.99-11.98,4.48,6.1,11.22,11.49,18.99,11.98ZM540.99,88c3.04-2.85-.93-17.69-4.98-20,.32,5.64.54,13.51,2.9,18.59.41.87.35,3.02,2.08,1.4ZM266,89.99c-1.96-9.16-14.35-9.83-21.98-10.5,5.82,5.86,13.32,10.76,21.98,10.5Z"/>
      <path class="cls-1" d="M249.01,433c1.74.23.94-2.27.99-3.48.64-15.63-.38-31.41-.04-47.05.31-14.45,1.87-29.45,2.09-43.91.62-40.3-1.16-80.32-2.04-120.55-4.49-.66-11.46,2.11-13.74-2.76-3.83-8.16,3.96-12.73,11.19-13.27,6.08-.45,23.8.95,29.81,2.27,5.42,1.19,7.56,4.62,6.7,10.19-1.19,7.72-10.26,5.26-15.96,5.56,1.23,30.75,1.16,61.66.96,92.55-.07,10.3-.78,20.55-1,30.92-.91,42.88,4.35,85.77,1.04,128.54,5.18,0,13.93-.08,14.96,6.58,1.74,11.33-8.61,9.69-16.45,9.42-3.37-.12-11.63-.73-14.58-1.42-1.15-.27-2.56-.78-3.47-1.53-2.86-2.35-8.94-24.51-10.39-29.61-17.57-62.25-30.78-128.33-44.39-191.61l-3.68-13.8c-.41,18.81.5,37.72.03,56.54-.18,7.42-1.92,16.51-2.08,23.92-1.02,46.75-.2,93.27,1.04,140.04.88,4.75,8.28,1.22,12,3,4.04,1.93,3.55,10,.28,12.55-7.76,6.05-29.84-.24-39.57.74-5.69-1.98-6.42-5.64-5.61-11.24,1.2-8.23,16-4.42,15.92-6.07l-2.01-250.49c-4.54.42-12.92.01-13.98-5.52-1.87-9.81,2.9-11.08,11.43-11.51,3.62-.18,21.24,1.15,23.52,2.55,3.31,2.03,13.19,41.39,14.94,48.06,8.9,34,17.18,68.42,25.4,102.6,6.19,25.75,12.85,51.64,16.69,77.81Z"/>
      <path class="cls-1" d="M620.99,470c.44.42,6.7-1.27,10.03,2.47,9.25,20.45-21.44,12.98-32.52,16.6-6.53-.88-13.59-1.18-13.6-9.58,0-9.88,12.02-6.57,19.09-7.51l-9.99-79-39.01,1c-5.87,40.57-19.39,112.11-65.24,125.26-24.79,7.11-52.03-4.43-64.93-26.59-33.16-56.97,61.59-82.69,74.69-32.69,2.09,7.96,4.77,27.39-8.77,24.83-9.61-1.82-6.15-12.8-8.44-20.63-8.15-27.91-55.1-21.66-47.02,13.02,5.57,23.9,33.74,40.13,56.38,27.98,24.77-13.29,35.44-61.13,41.01-86.99,13.33-61.94,23.48-134.54,30.3-197.7.62-5.72-2.29-15.45,5.72-17.27,13.57-3.09,14.84,9.34,16.99,19.58,7.3,34.71,8.63,72.41,14.46,107.54,6.81,41,14.52,81.94,19.71,123.29.34,2.68.53,15.81,1.12,16.38ZM592,380.99l-9.83-54.66-9.16-76.33c-.86,19.49-1.52,39.02-4.14,58.37-3.24,23.99-10.28,47.36-11.88,71.63l35,.99Z"/>
      <path class="cls-1" d="M370,348.99c.36.5,8.37,3.59,10.91,5.6,21.2,16.79,21.48,63.7,14.58,87.41-13.31,45.74-46.69,50.14-88.88,44.89-6.38-.79-8.74-2.7-8.69-9.39.06-9.37,9.53-6.42,16.09-8.01l-1.97-249.92c-.27-1.62-15.37,1.1-14.97-9.98.19-5.13,2.91-6.23,7.39-6.64,15.59-1.43,52.77,1.16,66.9,7.19,34.44,14.69,32.07,63.15,25.15,93.87-4.72,20.94-10.99,28.16-25.45,42.55-.64.64-1.79,1.42-1.06,2.42ZM329.99,343.01c53.54,6.29,63.05-68.34,47.19-104.69-8.33-19.07-27.06-16.94-45.13-18.26l-2.06,122.95ZM330,357c.49,13.9-.52,27.67-1.04,41.54,3.45,22.29-.7,48.99,1.99,71.01.63,5.14,8.8,3.89,13.44,3.34,27.08-3.18,38.25-33.75,39.6-57.4.94-16.46-3.67-49.07-21.31-55.67-3.01-1.13-11.27-2.82-14.18-2.82h-18.5Z"/>
      <path class="cls-1" d="M428.01,219c-.55-.54-11.98,1.46-13.79-4.7-2.06-7.02.71-11.01,7.55-12.02,12.24-1.81,33.39,4.22,46.73,2.74,22.92,3.02,36.72,15.04,44.53,36.47,12.38,33.97,7.54,124.58-10.85,156.19-16.29,28.01-52.95,28.21-81.62,23.28-9.22-1.59-8.2-14.75-2.03-15.93,2.68-.51,10.67,1.24,11.36-1.6l-1.88-184.43ZM446.99,407.01c16.15,2.81,32.41-.31,40.83-15.68,5.11-9.33,8.8-31.21,10.7-42.3,5.25-30.69,10.5-83.49-4.7-111.35-8.9-16.32-28.39-22.28-45.7-16.54.57,3.49-1.05,7.05-1.11,10.38-.5,24.78,1.48,50.07,1.03,75.03-.16,8.79-1.86,19.08-2.09,27.91-.64,24.15,2.21,48.37,1.04,72.55Z"/>
      <path class="cls-2" d="M181.01,93c1.19,1.25,22.79-9.93,26.05-7.57,1.03.74,1.37,3.96.9,4.53-.67.8-17.41,4.17-19.95,6.06.17,1.56,1.48,1.54,2.59,1.9,5.56,1.77,16.37,1.9,17.38,9.68,2.42,18.52-29.19-3.53-33.48-3.52-6.98,0-27.49,23.24-29.49,30.92,8.02-.73,23.22-3.89,28.45,4.05,1.33,2.02,2.14,3.55,1.06,5.93-4.71,10.31-25.52,1.15-33.8.16l-21.7,25.37c6.98,1.39,29.58-1.55,26.79,10.77-1.77,7.83-20.51,4.67-26.58,3-8.41-2.31-9.27-7.2-17.23-.79-9.11,7.34-17.43,19.72-18.99,31.5,4.17-.65,7.16-3.91,11.01-5.48,4.5-1.83,15.45-5.7,16.8,1.23,2.25,11.53-22.71,13.68-30.72,14.35-2.22,11.46-8.37,21.45-14.07,31.41,6.71-2.02,20.26-8.67,24.46.51s-13.17,12.87-19.1,13.86c-4.28.71-12.36.33-15.69,1.31-5.71,1.68-11.39,28.6-10.68,34.81,8.82-3.49,13.81-12.8,24.96-9.42,16.23,4.92-17.84,24.84-24.97,21.42l2.02,34c4.19-4.49,18.57-15.5,24.09-8.6,6.67,8.32-11.42,18.2-17.06,21.15-2.36,1.23-8.78,2.67-9.81,3.69-3.07,3.05-1.51,16.5-9.23,15.76-.76-5.76,2.37-10.68,3.58-16.03-7.99-3.13-30.28-9.19-24.34-21.23,6.11-12.38,21.27,6.99,26.75,11.27,2.63-13.45-1.47-26.83-.95-40.33-7.71-4.43-17.48-11.45-21.89-19.32-9.14-16.31,6.69-24.49,14.26-7.26l7.57,12.92c-.09-12.7,4.63-23.56,9.89-34.72l.03-1.13c-9.13-4.5-26.32-22.31-20.32-33.07,8.48-15.19,21.76,20.07,24.55,24.29.41.62,1.09,2.13,1.87,1.15,5.49-7.32,20.46-28.32,19.92-37.09-.06-.99-6.78-9.37-8.1-11.76-2.29-4.16-6.01-12.51-5.87-17.14.12-3.9,3.76-9.74,7.76-10.37,7.67-1.21,8.33,14.05,9.79,18.85.29.95.17,2.28,1.48,1.99,2.47-7.43,7.79-14.72,12.99-20.52,1.87-2.08,9.01-7.61,9.55-8.48,1.37-2.19-2.67-12.24-3.27-15.75-1.02-5.96-2.56-27.16,8-25.1,11.22,2.19,4.01,25.16,4.75,32.85,1.73.45,2-.72,3-1.49,4.35-3.34,19.01-20.37,19.82-25.26.64-3.9-3.79-15.9-3.9-21.74-.3-16.65,14.85-21.98,15.1-6.96.05,3.08-2.1,6.53-.54,9.44,7.01-9.74,15.96-17.44,25.29-24.6-2.95-6.19-.65-39.51,10.56-36.31,7.62,2.18-2.97,29.18-1.34,30.91ZM176.99,87c1.17-1.27,3.56-16.26,3-19-1.5.42-2.6,4.07-3.04,5.45-1,3.15-2.35,8.88-1.98,12.04.16,1.37.66,2.98,2.01,1.51ZM201.71,106.28c-2.65-2.71-11.94-3.61-15.71-3.27,1.22,3.04,15.81,8.09,16.99,6.98.12-1.26-.42-2.83-1.28-3.71ZM141.99,110c-7.38,1.92-5.54,14.71-2.49,19.99l2.49-19.99ZM170,143.99c.25-7.71-20.18-5.76-22-3.98-1.58,1.55.36,1.71,1.4,2.09,6.33,2.33,14.02,3.78,20.6,1.89ZM109,142c-1.47-.02-2.51-.4-3.49,1.01-2.89,4.16-1.07,19.48,2,23.99,1.86-8.28,3.19-16.59,1.49-25ZM140.97,178.05c-1.57-2.48-19.37-1.89-22.97-1.04,2.2,4.22,21.39,5.95,23,3.97.09-.11.12-2.71-.02-2.93ZM74.99,213c.21-4.96-.31-10.22-1.46-15.03-.43-1.79-1.48-8.56-4.02-7.96-6.27,1.47.56,20.95,5.48,23ZM106,212.01c-6.05.14-13.64,2.55-18,6.98,6.18-.1,14.52-1.14,18-6.98ZM36.71,238.32c-1.29-1.13-2.98-1.76-3.57.32-2.12,7.43,7.79,20.06,14.86,22.36.92-.97-9.07-20.74-11.29-22.68ZM85,257c-7.95-.31-16.44,3.53-22,8.99,4.95.22,17.52-1.09,21.41-3.88,1.37-.98.34-3.73.6-5.12ZM21.01,288c-1.18,10.02,7.55,16.45,14.5,21.98.1-1.66-.96-3.81-1.65-5.34-.74-1.65-10.5-19.35-12.86-16.63ZM69,302.01c-8.46-1.18-15.27,4.6-19.99,10.98,3.51-.03,7.55-1.32,10.68-2.81,1.2-.57,11.09-6.65,9.31-8.18ZM66.99,347c-8.26.56-14.89,6.69-17.99,13.99,1.75,1.59,20.37-7.86,17.99-13.99ZM34.99,362c.43-1.88-1.06-2.37-1.99-3.5-3.5-4.24-9.13-10.55-15-9.5-1.34,8.44,10.61,11.05,16.99,12.99Z"/>
      <path class="cls-2" d="M644.5,610c-5.35-.65-12.3-3.64-10.3-10.29,2.38-7.91,21.79-3.99,27.82-2.23,3.08.9,8.88,4.71,11.01,4.12,1.85-.51,11.75-10.48,13.48-12.59,5.3-6.46,9.59-14.56,10.48-23.01-5.05,2.6-27.43,16.11-28.09,3.5-.55-10.51,23.46-12.11,30.92-13.68,2.58-11.01,8.03-20.97,14.18-30.33-4.28-.68-8.27,2.94-12.59,3.43-12.04,1.37-17.5-8.44-6.46-14.47,8.47-4.63,20.02-4.43,29.39-4.61,7.76-10.31,10.11-24.17,10.65-36.84-4.61,3.13-10.95,10.04-16.55,10.93-4.22.67-12.56.41-12.54-5.43.03-7.33,22.09-16.73,29.06-16.54l-.96-33.95c-4.55,1.57-6.67,6.04-11.06,8.43-3.47,1.89-7.94,3.73-11.92,2.04-13.1-5.55,9.15-19.3,13.96-21.99,2.63-1.47,9.69-3.54,11.02-4.98,1.76-1.92,4.25-20.26,9.08-14.02,2.22,2.87-3.98,11.65-4.08,15.51,8.09.92,33.6,11.07,23.54,22.05-9.26,10.11-23.2-14.79-25.54-12.04-1.75,13.12.94,26.12,1.15,39.34,8.55,4.4,32.31,24.76,21.9,35.21-8.58,8.6-17.58-16.5-22.05-20.55-.42,12.2-4.02,23.13-9.89,33.69l.32,1.31c9.22,5.06,27.04,23.54,19.45,34.38-.98,1.39-2.64,2.55-4.38,2.54-8.82-.04-15.3-21.74-19.64-28.28-.52-.78-.87-1.9-1.87-1.15-1.77,1.32-10.61,15.03-12.17,17.84-1.94,3.51-7.9,15.9-7.76,19.2.05,1.21,10.29,15.98,11.97,20.93s2.99,16.25-3.73,18.36c-10.13,3.18-10.18-12.75-11.79-18.85-.25-.93-.25-2.25-1.5-1.96-4.32,12.19-13.31,22.33-23.58,29.99l-.31,1.31c4.74,7.9,11.74,39.64-3.53,38.66-9.99-.64-4.16-26.03-4.6-32.97-6.38,4.32-23.47,22.08-22.96,29.38.23,3.31,2.62,7.7,3.01,12.08.55,6.25,1.37,23.09-7.63,23.55-8.29.42-5.6-12.05-5.37-16.49.06-1.09.54-2.79-1.03-2.52-5.66,10-14.97,17.89-24.56,24.01.25,9.57,2.42,22.69-2.6,31.34-1.56,2.68-5.49,6.88-8.86,5.17-5.98-3.02,2.58-24.75,2-30.52-1.29-1.42-26.84,14.84-27.99,4.01,5.42-1.86,11.13-3.02,16.51-4.99,1.51-.55,5-1.39,5.48-3.01-6.26-.87-15.37-1.79-19.43-7.07-2.37-3.09-3.25-8.27,1.1-9.77,7.76-2.69,23.86,6.65,30.68,10.66,13.01-7.1,23.24-18,29.64-31.34-7.12,2.07-31.61,3.16-30.02-8.92,1.41-10.69,27.82-3.43,34.44-.69l21.6-26.87c-5.25-.46-11.38.63-16.5,0ZM730.99,420c-7.58,1.83-15.89,6.58-18.99,13.99,8.29.64,16.16-6.65,18.99-13.99ZM761.99,433c.23-.24.08-3.43-.21-4.28-1.36-4.1-11.48-8.57-15.78-8.71-.36,4.28,13.51,15.54,15.99,12.99ZM711,478.99c8.31,3.22,14.66-5.25,19.98-10.5-7.71.55-15.5,4.12-19.98,10.5ZM758.99,493c.87-8.79-7.04-16.65-13.98-20.99-1.25,1.62,8.9,21.34,13.98,20.99ZM717,515.01c-3.76-.99-24.02,2.61-22.99,7.48,1.12,5.32,21.39-2.77,22.99-7.48ZM732.49,520.02c0,3.93,9.42,24.68,12.99,23.97,7.31-1.44-7.98-23.55-12.99-23.97ZM692,562.01c-1.97-.99-21.3,4.9-17.99,7.99,6.45-1.18,13.52-2.69,17.99-7.99ZM705.01,568c.03,2.15-.15,4.33,0,6.48.19,2.57,2.04,17.24,5.45,16.5,6.53-1.41-.8-20.62-5.46-22.99ZM661.99,603.01c-7.58-2.89-14.9-3.5-22.99-3.01-.72,6.22,12.11,5.3,16.48,4.98,1.33-.1,6.05-.49,6.51-1.97ZM673.99,640c3.24-3.17,1.61-17.31.3-21.78-.34-1.16-.82-4.23-2.27-4.21-.95,6.86-1.61,14.57-1.02,21.51.06.65.91,6.53,2.99,4.49ZM631.99,640.01c-7.32-2.95-14.1-3.53-21.99-3.01.24,6.72,10.16,6.32,15.24,5.73,1.5-.17,6.18-1.02,6.75-2.73ZM642,653c-1.34-1.76-1.74.38-2.11,1.39-.76,2.08-2.72,16.65-1.88,17.61,5.95.31,5.3-17.28,3.99-19ZM595,678.99c-1.43-3.69-16.07-8.65-18-6.98,1.78,6.78,12.31,6.15,18,6.98ZM600.01,713c4.75-4.54,4.04-12.08,3.98-17.99-1.5.84-2.32,5.11-2.7,6.79-.81,3.69-1.62,7.38-1.28,11.2Z"/>
      <path class="cls-2" d="M649,528.5c.47-1.51,4.71-2.13,5.88-1.37s.95,8.06,3.11,8.87v-9c1.46.02,3.64-.4,4.57.94.68.98.79,19.11.49,21.61-.43,3.51-1.34,3.88-4.97,3.36l-4.07-12.91c-.46,2.69,1.23,12.11-1.53,12.98-1.22.38-3.48-.64-3.48-1.48,0-4.61-.94-20.01,0-23Z"/>
      <path class="cls-2" d="M109,528.5c.47-1.51,4.71-2.13,5.88-1.37s.95,8.06,3.11,8.87v-9c1.46.02,3.64-.4,4.57.94.68.98.79,19.11.49,21.61-.43,3.51-1.34,3.88-4.97,3.36l-4.07-12.91c-.46,2.69,1.23,12.11-1.53,12.98-1.22.38-3.48-.64-3.48-1.48,0-4.61-.94-20.01,0-23Z"/>
      <path class="cls-2" d="M194,527c7.54-1.73,6.67,6.17,8.5,11.01,2.07-4.76-2.77-12.74,4.5-11.01v25l-4.9-.1-4.1-13.9v14c0,.2-4,.2-4,0v-25Z"/>
      <path class="cls-2" d="M178.69,527.2c11.46-3.5,10.56,13.88,8.87,20.87s-11.4,6.43-12.5-.63c-.67-4.27-1.25-18.75,3.63-20.24ZM183,531h-3v17h3v-17Z"/>
      <path class="cls-2" d="M404,527v21h3v-21c1.28.06,2.94-.33,4.06.44,1.93,1.32,1,19.73-.28,22.84-2.08,5.04-11.78,2.18-11.78-1.78v-21.5h5Z"/>
      <path class="cls-2" d="M383.69,527.19c4.68-1.44,8.45.46,9.25,5.36.62,3.78.79,16.52-1.97,18.91-12.03,10.38-14.5-22.04-7.28-24.27ZM385,531v18c1.13-.14,2.23.58,3.09-.59,1.46-1.98,1.1-16.43-.11-17.41-.28-.23-2.16.13-2.98,0Z"/>
      <path class="cls-2" d="M260,552v-25c3.55.05,8.66-.87,10.89,2.6,2.46,3.82-.03,5.82.1,8.9.46,10.87,4.66,14.68-10.99,13.5ZM264.01,537.99c1.96,2.23,7.66-8.99-.01-6.49v6.49ZM267.84,542.16c-.21-.34-3.51-1.51-3.84-1.15.33,4.74-2.02,8.11,3.99,7-.24-1.6.55-4.68-.15-5.85Z"/>
      <path class="cls-2" d="M308,553c-5.01.64-3.59-.44-4.88-3.59-.41-1,.51-1.78-1.62-1.43-3.24.54-3.2,6.23-7.49,5.01,1.08-3.3,3.1-25.03,4.05-25.94.51-.48,5.63-.32,6.49.9.73,1.03,4.38,24.18,3.45,25.05ZM302,536c-3.82-.78-1.36,5.81-1.99,8.01,5.72,1.13,1.21-4.08,1.99-8.01Z"/>
      <path class="cls-2" d="M443.9,527.11c.94.79,4.32,23.06,4.02,24.25-.35,1.37-2.11,2-3.4,1.63-2.54-.73.39-6.73-4.83-5.01-1.2.4-2.67,5.81-5.67,5.01-.84-.95,2.72-24.01,3.43-25.06.79-1.16,5.75-1.42,6.46-.83ZM441.99,544c.23-1.76-.11-3.47-.29-5.21-.11-1.04-.29-4.9-1.69-4.79,1.12,4.09-4.06,11.28,1.99,10Z"/>
      <path class="cls-2" d="M142,553.01c-5.29.72-3.37-.69-4.75-3.73-2.37-5.19-5.53,5.6-9.24,3.71,1.47-3.3,3.1-25.03,4.05-25.93.51-.48,5.63-.32,6.49.9.79,1.11,4.37,24.18,3.45,25.05ZM137,543.99l-1.98-9.99-1.01,10c.81-.13,2.76.2,2.99-.01Z"/>
      <path class="cls-2" d="M222.86,527.14c1.05.64,4.39,23.02,4.05,24.2-.41,1.44-2.05,2.04-3.4,1.65-2.54-.73.39-6.73-4.83-5.01-1.2.4-2.67,5.81-5.67,5.01-.86-.96,3.14-24.37,3.88-25.42.67-.96,5.19-.92,5.98-.44ZM221,544.01c.16-2.1,0-4.14-.28-6.23-.14-.99-.29-3.99-1.71-3.77,1.34,4.17-3.93,11.35,1.99,10Z"/>
      <path class="cls-2" d="M490.9,527.11c1.18.98,3.23,22.53,4.1,25.88-4.34,1.16-4.3-4.52-7.48-5.02-2.71-.43-1.94,6.67-6.51,5.03,1.07-4.3,1.84-22.73,3.43-25.06.79-1.16,5.75-1.42,6.46-.83ZM489,544.01c.16-2.1,0-4.14-.28-6.23-.14-.99-.29-3.99-1.71-3.77,1.12,4.09-4.06,11.27,1.99,10Z"/>
      <path class="cls-2" d="M362,552v-25c3.28-.16,9.85-.48,11.5,3,.9,1.88.92,18.11,0,20.01-1.61,3.32-8.37,1.64-11.5,2ZM370,532l-4-1v17c0,.2,4,.2,4,0v-16Z"/>
      <path class="cls-2" d="M593.89,527.11c.94.79,4.32,23.06,4.02,24.25-.35,1.38-2.1,2-3.4,1.63-2.73-.78.49-5.86-4.03-5.01-3.16.59-2.87,5.26-6.48,5.02-.81-.97,2.72-24.01,3.43-25.06.79-1.16,5.74-1.42,6.45-.82ZM591.99,544c.23-1.76-.11-3.47-.29-5.21-.11-1.04-.29-4.9-1.69-4.79.74,4-4.04,11.25,1.98,10Z"/>
      <path class="cls-2" d="M632.24,528.24c2.59-2.58,9.42-1.46,10.55,2.47.66,2.3.58,15.07,0,17.57-1.37,5.91-10.04,6.35-11.57,1-.77-2.68-.63-19.4,1.03-21.05ZM635,532.5c-.7,2.45,0,11.56,0,15,0,.53,2.18,2.06,2.99,1.5,1.46-1.03,1.43-16.98,0-17.99-.75-.53-2.77.73-2.99,1.5Z"/>
      <path class="cls-2" d="M539.7,527.18c1.99-.6,5.88-.16,7.32,1.3,1.86,1.88,1.87,20.72-1.04,23-12.34,9.7-12.86-22.31-6.28-24.3ZM544,531c-1.14.14-2.22-.58-3.09.59-1.45,1.97-1.27,16.43.1,17.41.8.57,2.99-.96,2.99-1.5v-16.5Z"/>
      <path class="cls-2" d="M333,527c6.97-1.48,2.62,4.38,4.5,9.01,1.98-3.61,1.97-10.55,7.49-9.01.06,4.45-4.14,7.92-3.94,12.41.17,3.74,4.01,8.01,3.96,12.07-5.97,3.06-4.17-5.31-8-7.49-.53,4.79,2.3,9.31-4.01,8v-25Z"/>
      <path class="cls-2" d="M529.99,534.99c-2,2.15-5.29-5.37-7.99-3.99-.23,4.8,5.93,8.07,7.24,11.25,5.2,12.62-12.73,15.64-11.24,1.75,5.34-1.22,3.22,2.39,6.5,5,2.6-8.07-9.4-10.18-5.75-18.74s14.76.94,11.23,4.74Z"/>
      <path class="cls-2" d="M510.76,528.24c1.36,1.36,1.26,4.88,1.23,6.76l-6.5-3.99c-2.58,5.28,4.78,7.9,6.05,11.94,4.02,12.7-13.09,13.85-11.54,1.06,5.42-1.69,4.11,3.29,5.01,4,.81.65,3.15-.7,2.9-2.38-.31-2.11-6.13-6.5-7.16-8.87-3.42-7.85,5.6-12.91,10.01-8.51Z"/>
      <path class="cls-2" d="M463.76,528.24c2.31,2.3,1.99,8.07-2.56,5.53-.27-.15-3.09-5.76-3.19-.32-.08,4.75,9.33,7.12,6.78,15.83-1.22,4.17-7.67,5.07-10.23,1.66-3.46-4.62.36-8.53,2.43-6.95.48.37-.5,3.29,3.01,4.5,1.23.42,1.4,1.08,1.01-1-1.24-6.61-9.24-8.98-7.83-15.76.93-4.49,7.66-6.41,10.58-3.49Z"/>
      <path class="cls-2" d="M325.99,536c-5.25.71-3.39-.63-4.75-3.73-2.19-4.99-3.23,3.85-3.3,6.18s.8,15.33,3.3,9.3c1.49-3.59-.97-5.6,4.74-4.76,2.44,7.31-6.57,13.91-11.07,7.58-1.44-2.02-1.27-14.83-.93-18.09,1.06-9.94,14.07-5.96,11.99,3.52Z"/>
      <path class="cls-2" d="M559,548c5.96,1.1,1.14-6.86,7.99-5,2.17,10.52-10.98,14.36-12.05,3.56-.64-6.48-2.06-24.41,9.06-19.06,2.2,1.06,5.05,8.29,1.5,8.5-4.54.27-2.04-3.49-3.51-5-1.27-1.31-2.99,1.84-2.99,2.5v14.5Z"/>
      <path class="cls-2" d="M605,532c-.31-.33-6.38.2-3.44-5.01l12.44.02c1.68,5.58-4,4.61-4,5v19.5c0,1.88-5,1.88-5,0,0-2.79.67-18.79,0-19.5Z"/>
      <path class="cls-2" d="M283,527v21c0,.3,4.48-.57,6.03.48,6.7,4.54-11.03,6.41-11.03,3.02v-23c0-1.31,3.69-1.83,5-1.5Z"/>
      <path class="cls-2" d="M238,548c.32.31,4.77-.23,6,0,1.17,7.36-6,4.56-11,5v-26c1.31-.33,5,.19,5,1.5,0,2.79-.69,18.82,0,19.5Z"/>
      <path class="cls-2" d="M423,548c.32.31,4.77-.23,6,0,2.75,7.18-11,5.56-11,3.5v-24.5c1.31-.33,5,.19,5,1.5,0,2.79-.69,18.82,0,19.5Z"/>
      <path class="cls-2" d="M150,531c-.34-.31-3.66.34-4.01,0-.14-.14-.13-3.85,0-3.99.41-.43,10.11.3,12.01,0,2.1,4.72-4.01,4.22-4.01,5.5v19.5c0,.2-4,.2-4,0,0-2.87.77-20.28,0-21Z"/>
      <path class="cls-2" d="M169,527v24.5c0,1.31-3.69,1.83-5,1.5v-26h5Z"/>
      <path class="cls-2" d="M578,527v24.5c0,1.88-5,1.88-5,0v-24.5h5Z"/>
      <path class="cls-2" d="M624,527v25c0,.2-4,.2-4,0v-25c0-.2,3.28.13,4,0Z"/>
    </g>
  </g>
</svg>