<?xml version="1.0" encoding="UTF-8" standalone="no"?>
<!DOCTYPE svg PUBLIC "-//W3C//DTD SVG 1.1//EN" "http://www.w3.org/Graphics/SVG/1.1/DTD/svg11.dtd">
<svg xmlns="http://www.w3.org/2000/svg" version="1.1" viewBox="0.00 0.00 780.00 120.00">
<path fill="#616265" d="
  M 132.13 0.00
  L 164.79 59.58
  Q 165.03 60.02 164.79 60.46
  L 132.09 120.00
  L 9.24 120.00
  Q 1.86 118.25 0.00 110.83
  L 0.00 9.12
  Q 1.85 1.90 9.00 0.00
  L 132.13 0.00
  Z
  M 36.61 62.21
  Q 50.30 84.55 51.48 86.34
  Q 51.88 86.93 52.25 86.93
  L 61.06 86.93
  Q 61.55 86.93 61.55 86.44
  L 61.55 33.69
  Q 61.55 33.33 61.19 33.33
  L 53.11 33.33
  Q 52.78 33.33 52.78 33.65
  L 52.78 72.25
  Q 52.78 73.15 52.30 72.39
  Q 47.89 65.34 43.42 58.05
  Q 29.74 35.71 28.55 33.92
  Q 28.16 33.33 27.79 33.33
  L 18.98 33.33
  Q 18.49 33.33 18.49 33.82
  L 18.49 86.57
  Q 18.49 86.93 18.85 86.93
  L 26.93 86.93
  Q 27.26 86.93 27.26 86.61
  L 27.26 48.01
  Q 27.26 47.11 27.73 47.87
  Q 32.15 54.92 36.61 62.21
  Z
  M 80.06 33.63
  A 0.31 0.31 0.0 0 0 79.75 33.32
  L 71.13 33.32
  A 0.31 0.31 0.0 0 0 70.82 33.63
  L 70.82 86.63
  A 0.31 0.31 0.0 0 0 71.13 86.94
  L 79.75 86.94
  A 0.31 0.31 0.0 0 0 80.06 86.63
  L 80.06 33.63
  Z
  M 110.80 62.75
  Q 120.10 62.75 122.36 62.88
  Q 122.93 62.91 122.93 63.48
  L 122.93 86.56
  Q 122.93 86.93 123.30 86.93
  L 131.96 86.93
  Q 132.17 86.93 132.17 86.71
  L 132.17 33.54
  Q 132.17 33.32 131.95 33.32
  L 123.17 33.32
  Q 122.93 33.32 122.93 33.57
  L 122.93 54.07
  A 0.62 0.62 0.0 0 1 122.31 54.69
  Q 119.52 54.68 110.80 54.68
  Q 102.09 54.68 99.30 54.69
  A 0.62 0.62 0.0 0 1 98.67 54.07
  L 98.67 33.57
  Q 98.67 33.32 98.43 33.32
  L 89.65 33.32
  Q 89.43 33.32 89.43 33.54
  L 89.44 86.71
  Q 89.44 86.93 89.65 86.93
  L 98.31 86.93
  Q 98.68 86.93 98.68 86.56
  L 98.68 63.48
  Q 98.68 62.91 99.24 62.88
  Q 101.50 62.75 110.80 62.75
  Z"
/>
<path fill="#20558a" d="
  M 150.25 0.00
  Q 157.80 1.66 161.17 7.83
  Q 175.36 33.81 189.55 59.68
  A 0.69 0.69 0.0 0 1 189.55 60.34
  Q 175.91 85.16 162.22 110.04
  C 159.12 115.68 156.20 118.56 150.21 120.00
  L 140.23 120.00
  L 173.00 60.38
  A 0.78 0.76 45.7 0 0 173.00 59.63
  L 140.36 0.00
  L 150.25 0.00
  Z"
/>
<path fill="#616265" d="
  M 217.60 60.39
  Q 213.39 53.62 212.19 51.83
  Q 211.82 51.28 211.82 51.95
  L 211.82 75.61
  A 0.38 0.37 -90.0 0 1 211.45 75.99
  L 206.48 75.99
  Q 206.12 75.99 206.12 75.63
  L 206.12 42.80
  Q 206.12 42.25 206.67 42.25
  L 211.96 42.25
  A 0.87 0.85 73.5 0 1 212.69 42.65
  Q 214.42 45.43 222.14 57.84
  Q 226.36 64.61 227.56 66.40
  Q 227.93 66.96 227.93 66.29
  L 227.93 42.63
  A 0.38 0.37 90.0 0 1 228.30 42.25
  L 233.27 42.25
  Q 233.63 42.25 233.63 42.61
  L 233.63 75.44
  Q 233.63 75.99 233.08 75.99
  L 227.79 75.99
  A 0.87 0.85 73.5 0 1 227.06 75.59
  Q 225.33 72.80 217.60 60.39
  Z"
/>
<path fill="#616265" d="
  M 284.6761 47.0847
  A 0.35 0.35 0.0 0 1 284.3255 47.4341
  L 279.5855 47.4259
  A 0.35 0.35 0.0 0 1 279.2361 47.0752
  L 279.2439 42.5953
  A 0.35 0.35 0.0 0 1 279.5945 42.2459
  L 284.3345 42.2541
  A 0.35 0.35 0.0 0 1 284.6839 42.6048
  L 284.6761 47.0847
  Z"
/>
<path fill="#616265" d="
  M 373.99 75.63
  A 0.37 0.37 0.0 0 1 373.62 76.00
  L 368.94 76.00
  A 0.37 0.37 0.0 0 1 368.57 75.63
  L 368.57 42.61
  A 0.37 0.37 0.0 0 1 368.94 42.24
  L 373.62 42.24
  A 0.37 0.37 0.0 0 1 373.99 42.61
  L 373.99 75.63
  Z"
/>
<path fill="#616265" d="
  M 397.83 75.63
  A 0.37 0.37 0.0 0 1 397.46 76.00
  L 392.24 76.00
  A 0.37 0.37 0.0 0 1 391.87 75.63
  L 391.87 42.63
  A 0.37 0.37 0.0 0 1 392.24 42.26
  L 397.46 42.26
  A 0.37 0.37 0.0 0 1 397.83 42.63
  L 397.83 75.63
  Z"
/>
<path fill="#616265" d="
  M 473.6861 47.0648
  A 0.37 0.37 0.0 0 1 473.3155 47.4342
  L 468.5355 47.4258
  A 0.37 0.37 0.0 0 1 468.1661 47.0552
  L 468.1739 42.6152
  A 0.37 0.37 0.0 0 1 468.5445 42.2458
  L 473.3245 42.2542
  A 0.37 0.37 0.0 0 1 473.6939 42.6248
  L 473.6861 47.0648
  Z"
/>
<path fill="#616265" d="
  M 630.47 51.57
  L 634.08 51.57
  A 0.50 0.49 0.0 0 1 634.58 52.06
  L 634.58 55.04
  Q 634.58 55.62 633.99 55.62
  L 630.49 55.62
  A 0.56 0.56 0.0 0 0 629.93 56.18
  L 629.93 75.53
  Q 629.93 75.99 629.47 75.99
  L 624.75 75.99
  Q 624.50 75.99 624.50 75.75
  L 624.50 56.26
  Q 624.50 55.63 623.87 55.63
  L 621.00 55.63
  Q 620.42 55.63 620.42 55.04
  L 620.42 52.18
  Q 620.42 51.56 621.04 51.56
  L 623.98 51.56
  Q 624.53 51.56 624.51 51.01
  C 624.15 43.19 627.72 41.39 634.82 42.54
  Q 635.12 42.58 635.12 42.88
  L 635.12 46.58
  A 0.26 0.26 0.0 0 1 634.79 46.83
  Q 632.80 46.27 630.96 46.91
  Q 630.45 47.10 630.28 47.62
  Q 629.80 49.09 629.92 51.05
  A 0.55 0.55 0.0 0 0 630.47 51.57
  Z"
/>
<path fill="#616265" d="
  M 663.34 55.63
  Q 667.04 55.63 670.63 55.62
  A 0.37 0.36 -89.7 0 0 671.00 55.25
  L 671.00 42.49
  Q 671.00 42.25 671.24 42.25
  L 676.62 42.25
  Q 677.00 42.25 677.00 42.63
  L 677.00 75.53
  Q 677.00 76.00 676.53 76.00
  L 671.37 76.00
  Q 671.00 76.00 671.00 75.63
  L 671.00 61.49
  Q 671.00 60.92 670.43 60.90
  Q 666.83 60.82 663.34 60.82
  Q 659.84 60.82 656.25 60.90
  Q 655.68 60.92 655.68 61.49
  L 655.67 75.63
  Q 655.67 76.00 655.30 76.00
  L 650.14 75.99
  Q 649.67 75.99 649.67 75.52
  L 649.68 42.62
  Q 649.68 42.24 650.06 42.24
  L 655.44 42.25
  Q 655.68 42.25 655.68 42.49
  L 655.68 55.25
  A 0.37 0.36 89.8 0 0 656.05 55.61
  Q 659.64 55.63 663.34 55.63
  Z"
/>
<path fill="#616265" d="
  M 738.76 75.61
  A 0.38 0.38 0.0 0 1 738.38 75.99
  L 733.70 75.99
  A 0.38 0.38 0.0 0 1 733.32 75.61
  L 733.32 42.63
  A 0.38 0.38 0.0 0 1 733.70 42.25
  L 738.38 42.25
  A 0.38 0.38 0.0 0 1 738.76 42.63
  L 738.76 75.61
  Z"
/>
<path fill="#616265" d="
  M 780.00 57.08
  L 780.00 75.92
  L 775.11 75.92
  Q 774.59 75.92 774.59 75.40
  Q 774.58 61.86 774.61 60.51
  C 774.75 53.96 766.85 53.66 764.67 58.45
  Q 763.91 60.11 763.92 64.16
  Q 763.94 70.06 763.94 75.76
  Q 763.94 75.99 763.72 75.99
  L 758.71 75.99
  Q 758.42 75.99 758.42 75.70
  L 758.42 42.66
  Q 758.42 42.25 758.84 42.25
  L 763.47 42.25
  Q 763.93 42.25 763.93 42.71
  L 763.93 53.95
  Q 763.93 54.45 764.32 54.14
  Q 774.71 45.95 780.00 57.08
  Z"
/>
<path fill="#616265" d="
  M 265.89 50.99
  L 265.89 44.71
  Q 265.89 44.24 266.36 44.24
  L 270.93 44.24
  A 0.44 0.44 0.0 0 1 271.37 44.68
  L 271.37 50.95
  Q 271.37 51.57 271.99 51.57
  L 275.78 51.57
  Q 276.25 51.57 276.25 52.04
  L 276.25 55.19
  A 0.43 0.43 0.0 0 1 275.82 55.62
  L 271.96 55.62
  Q 271.43 55.62 271.42 56.16
  Q 271.31 62.47 271.39 68.87
  Q 271.42 70.74 271.86 71.26
  Q 272.20 71.67 272.69 71.77
  Q 274.34 72.10 275.94 71.81
  Q 276.25 71.75 276.25 72.07
  L 276.25 75.54
  Q 276.25 75.92 275.87 75.98
  C 271.61 76.67 265.97 76.73 265.92 70.76
  Q 265.89 66.69 265.87 56.18
  A 0.57 0.56 0.0 0 0 265.30 55.62
  L 262.33 55.62
  Q 261.79 55.62 261.79 55.08
  L 261.79 52.00
  Q 261.79 51.57 262.23 51.57
  L 265.31 51.57
  Q 265.89 51.57 265.89 50.99
  Z"
/>
<path fill="#616265" d="
  M 454.25 51.57
  Q 454.83 51.57 454.83 50.99
  L 454.83 44.71
  Q 454.83 44.24 455.30 44.24
  L 459.87 44.24
  A 0.44 0.44 0.0 0 1 460.31 44.68
  L 460.31 50.95
  Q 460.31 51.57 460.93 51.57
  L 464.72 51.57
  Q 465.19 51.57 465.19 52.04
  L 465.19 55.19
  A 0.43 0.43 0.0 0 1 464.76 55.62
  L 460.90 55.62
  Q 460.37 55.62 460.36 56.16
  Q 460.25 62.47 460.33 68.87
  Q 460.36 70.74 460.80 71.26
  Q 461.15 71.67 461.64 71.77
  Q 463.29 72.10 464.89 71.81
  Q 465.20 71.75 465.20 72.07
  L 465.20 75.54
  Q 465.20 75.92 464.82 75.98
  C 460.56 76.67 454.92 76.73 454.86 70.76
  Q 454.83 66.69 454.81 56.18
  A 0.57 0.56 -0.0 0 0 454.24 55.62
  L 451.27 55.62
  Q 450.73 55.62 450.73 55.08
  L 450.73 52.00
  Q 450.73 51.57 451.17 51.57
  L 454.25 51.57
  Z"
/>
<path fill="#616265" d="
  M 479.56 51.57
  Q 480.14 51.57 480.14 50.99
  L 480.14 44.71
  Q 480.14 44.24 480.61 44.24
  L 485.18 44.24
  A 0.44 0.44 0.0 0 1 485.62 44.68
  L 485.62 50.95
  Q 485.62 51.57 486.24 51.57
  L 490.02 51.57
  Q 490.49 51.57 490.49 52.04
  L 490.49 55.19
  A 0.43 0.43 0.0 0 1 490.06 55.62
  L 486.21 55.62
  Q 485.68 55.62 485.67 56.16
  Q 485.56 62.46 485.64 68.86
  Q 485.67 70.73 486.11 71.25
  Q 486.45 71.66 486.94 71.76
  Q 488.59 72.09 490.19 71.80
  Q 490.50 71.74 490.50 72.06
  L 490.50 75.53
  Q 490.50 75.91 490.12 75.97
  C 485.86 76.66 480.22 76.72 480.17 70.75
  Q 480.14 66.68 480.12 56.18
  A 0.57 0.56 -0.0 0 0 479.55 55.62
  L 476.58 55.62
  Q 476.04 55.62 476.04 55.08
  L 476.04 52.00
  Q 476.04 51.57 476.48 51.57
  L 479.56 51.57
  Z"
/>
<path fill="#616265" d="
  M 520.64 51.58
  Q 521.22 51.58 521.22 51.00
  L 521.22 44.73
  Q 521.22 44.26 521.69 44.26
  L 526.25 44.26
  A 0.44 0.44 0.0 0 1 526.69 44.70
  L 526.70 50.96
  Q 526.70 51.58 527.32 51.58
  L 531.10 51.58
  Q 531.57 51.58 531.57 52.05
  L 531.57 55.19
  A 0.43 0.43 0.0 0 1 531.14 55.62
  L 527.29 55.62
  Q 526.76 55.62 526.75 56.16
  Q 526.64 62.46 526.72 68.86
  Q 526.75 70.72 527.19 71.24
  Q 527.53 71.65 528.02 71.75
  Q 529.67 72.08 531.27 71.79
  Q 531.58 71.73 531.58 72.05
  L 531.58 75.52
  Q 531.58 75.90 531.20 75.96
  C 526.95 76.65 521.31 76.71 521.26 70.75
  Q 521.23 66.68 521.21 56.18
  A 0.57 0.56 -0.0 0 0 520.64 55.63
  L 517.67 55.63
  Q 517.13 55.63 517.13 55.09
  L 517.13 52.01
  Q 517.13 51.58 517.57 51.58
  L 520.64 51.58
  Z"
/>
<path fill="#616265" d="
  M 744.64 51.58
  Q 745.22 51.58 745.22 51.00
  L 745.22 44.72
  Q 745.22 44.26 745.69 44.25
  L 750.25 44.25
  A 0.44 0.44 0.0 0 1 750.69 44.69
  L 750.70 50.96
  Q 750.70 51.58 751.32 51.57
  L 755.10 51.57
  Q 755.57 51.57 755.57 52.04
  L 755.58 55.19
  A 0.43 0.43 0.0 0 1 755.15 55.62
  L 751.29 55.62
  Q 750.76 55.62 750.75 56.16
  Q 750.64 62.46 750.73 68.86
  Q 750.76 70.73 751.20 71.25
  Q 751.54 71.66 752.03 71.76
  Q 753.68 72.08 755.27 71.79
  Q 755.58 71.73 755.58 72.05
  L 755.59 75.52
  Q 755.59 75.90 755.21 75.96
  C 750.95 76.65 745.32 76.71 745.26 70.75
  Q 745.23 66.68 745.21 56.18
  A 0.57 0.56 -0.0 0 0 744.64 55.62
  L 741.67 55.63
  Q 741.13 55.63 741.13 55.09
  L 741.13 52.01
  Q 741.13 51.58 741.57 51.58
  L 744.64 51.58
  Z"
/>
<path fill="#616265" d="
  M 254.69 74.49
  Q 254.53 73.82 253.96 74.21
  C 249.84 77.00 242.66 78.09 239.04 73.83
  Q 237.24 71.72 237.60 68.55
  Q 238.22 63.19 244.43 62.27
  Q 249.98 61.47 252.28 61.05
  A 2.39 2.39 0.0 0 0 254.26 58.72
  C 254.32 55.28 250.59 55.04 248.07 55.29
  Q 244.82 55.62 243.90 58.73
  Q 243.80 59.07 243.44 59.07
  L 238.70 59.06
  Q 238.46 59.06 238.48 58.82
  C 239.25 49.95 251.29 49.25 257.00 52.95
  C 258.86 54.17 259.42 56.30 259.43 58.61
  Q 259.44 64.98 259.48 71.33
  Q 259.49 72.62 261.74 72.26
  Q 262.05 72.20 262.05 72.53
  L 262.04 75.73
  Q 262.04 76.01 261.79 76.09
  C 259.81 76.75 255.39 77.31 254.69 74.49
  Z
  M 253.28 64.12
  C 251.27 65.19 242.59 64.29 243.13 69.51
  C 243.58 73.82 252.61 73.02 253.84 68.62
  Q 254.19 67.39 253.91 64.46
  Q 253.85 63.81 253.28 64.12
  Z"
/>
<path fill="#616265" d="
  M 313.11 65.37
  A 11.18 11.18 0.0 0 1 301.93 76.55
  L 299.75 76.55
  A 11.18 11.18 0.0 0 1 288.57 65.37
  L 288.57 62.19
  A 11.18 11.18 0.0 0 1 299.75 51.01
  L 301.93 51.01
  A 11.18 11.18 0.0 0 1 313.11 62.19
  L 313.11 65.37
  Z
  M 300.8400 72.4600
  A 8.68 6.98 90.0 0 0 307.8200 63.7800
  A 8.68 6.98 90.0 0 0 300.8400 55.1000
  A 8.68 6.98 90.0 0 0 293.8600 63.7800
  A 8.68 6.98 90.0 0 0 300.8400 72.4600
  Z"
/>
<path fill="#616265" d="
  M 321.99 54.19
  A 0.29 0.28 65.4 0 0 322.49 54.38
  Q 326.54 49.51 333.09 51.42
  C 337.29 52.66 338.27 56.12 338.31 60.35
  Q 338.38 68.13 338.28 75.62
  Q 338.28 76.02 337.87 76.02
  L 333.23 76.01
  Q 332.85 76.01 332.85 75.63
  Q 332.88 63.03 332.89 61.60
  C 332.94 57.50 331.23 54.10 326.48 55.47
  Q 322.29 56.68 322.25 61.62
  Q 322.19 68.62 322.22 75.67
  Q 322.23 76.02 321.88 76.02
  L 317.15 76.01
  A 0.44 0.44 0.0 0 1 316.71 75.57
  L 316.75 52.27
  Q 316.75 51.54 317.47 51.55
  L 321.33 51.55
  Q 321.99 51.55 321.99 52.21
  L 321.99 54.19
  Z"
/>
<path fill="#616265" d="
  M 358.09 74.22
  C 353.96 77.02 346.78 78.11 343.15 73.85
  Q 341.35 71.74 341.71 68.57
  Q 342.32 63.20 348.54 62.28
  Q 354.09 61.47 356.40 61.05
  A 2.39 2.39 0.0 0 0 358.38 58.72
  C 358.43 55.27 354.70 55.04 352.18 55.29
  Q 348.92 55.62 348.01 58.73
  Q 347.91 59.07 347.55 59.07
  L 342.80 59.07
  Q 342.56 59.07 342.58 58.83
  C 343.35 49.95 355.40 49.24 361.11 52.94
  C 362.98 54.16 363.54 56.29 363.55 58.60
  Q 363.57 64.98 363.61 71.34
  Q 363.62 72.63 365.87 72.26
  Q 366.18 72.20 366.18 72.53
  L 366.18 75.74
  Q 366.18 76.02 365.93 76.10
  C 363.94 76.76 359.52 77.32 358.82 74.50
  Q 358.66 73.83 358.09 74.22
  Z
  M 357.43 64.12
  C 355.42 65.19 346.73 64.28 347.26 69.50
  C 347.71 73.82 356.75 73.03 357.99 68.63
  Q 358.34 67.40 358.06 64.46
  Q 358.00 63.81 357.43 64.12
  Z"
/>
<path fill="#616265" d="
  M 408.58 54.20
  A 0.29 0.28 65.4 0 0 409.08 54.39
  Q 413.12 49.53 419.67 51.43
  C 423.86 52.67 424.85 56.12 424.89 60.35
  Q 424.96 68.12 424.87 75.61
  Q 424.86 76.01 424.45 76.01
  L 419.82 76.00
  Q 419.44 76.00 419.44 75.62
  Q 419.46 63.03 419.48 61.60
  C 419.52 57.51 417.81 54.11 413.07 55.48
  Q 408.88 56.70 408.85 61.63
  Q 408.79 68.63 408.82 75.66
  Q 408.83 76.01 408.48 76.01
  L 403.76 76.01
  A 0.44 0.44 0.0 0 1 403.32 75.56
  L 403.34 52.29
  Q 403.34 51.57 404.07 51.57
  L 407.92 51.57
  Q 408.58 51.57 408.58 52.23
  L 408.58 54.20
  Z"
/>
<path fill="#616265" d="
  M 435.34 55.92
  C 433.24 57.20 434.57 59.68 436.39 60.15
  Q 444.20 62.16 444.90 62.36
  C 451.73 64.22 451.79 72.65 445.60 75.32
  C 439.54 77.95 429.07 77.29 428.26 68.65
  Q 428.21 68.10 428.76 68.10
  L 433.03 68.11
  Q 433.61 68.11 433.76 68.68
  Q 434.84 72.89 440.56 72.27
  Q 442.48 72.07 443.42 71.42
  C 445.71 69.87 444.50 67.34 442.20 66.54
  Q 441.90 66.44 434.08 64.45
  C 429.71 63.34 427.09 58.55 429.76 54.54
  C 432.12 51.00 438.17 50.49 442.04 51.20
  Q 448.17 52.31 449.32 58.15
  Q 449.38 58.43 449.09 58.43
  L 443.96 58.43
  Q 443.64 58.43 443.56 58.13
  C 442.75 55.30 438.11 54.24 435.34 55.92
  Z"
/>
<path fill="#616265" d="
  M 540.92 65.17
  Q 537.69 65.17 539.19 68.03
  L 539.77 69.14
  Q 541.40 72.27 544.91 72.32
  Q 549.74 72.40 551.09 68.59
  Q 551.18 68.32 551.46 68.32
  L 556.08 68.32
  Q 556.40 68.32 556.32 68.64
  C 554.33 76.07 546.16 78.34 539.77 75.51
  C 528.89 70.67 531.99 50.96 545.10 50.93
  C 552.73 50.90 557.40 57.50 556.76 64.70
  Q 556.72 65.17 556.25 65.17
  L 540.92 65.17
  Z
  M 539.08 61.61
  L 550.90 61.63
  A 0.21 0.21 0.0 0 0 551.11 61.42
  L 551.12 61.30
  A 6.05 6.03 0.1 0 0 545.08 55.26
  L 544.94 55.26
  A 6.05 6.03 0.1 0 0 538.88 61.28
  L 538.87 61.40
  A 0.21 0.21 0.0 0 0 539.08 61.61
  Z"
/>
<path fill="#616265" d="
  M 565.60 55.92
  C 563.50 57.20 564.83 59.68 566.65 60.15
  Q 574.47 62.16 575.17 62.35
  C 582.00 64.21 582.06 72.64 575.87 75.32
  C 569.81 77.95 559.34 77.30 558.53 68.66
  Q 558.48 68.11 559.03 68.11
  L 563.30 68.11
  Q 563.88 68.11 564.03 68.68
  Q 565.11 72.89 570.83 72.27
  Q 572.75 72.07 573.69 71.42
  C 575.98 69.87 574.77 67.34 572.47 66.54
  Q 572.17 66.44 564.34 64.45
  C 559.97 63.34 557.35 58.56 560.02 54.54
  C 562.38 51.00 568.43 50.49 572.30 51.19
  Q 578.43 52.30 579.58 58.14
  Q 579.64 58.42 579.35 58.42
  L 574.22 58.42
  Q 573.90 58.42 573.82 58.12
  C 573.01 55.29 568.37 54.24 565.60 55.92
  Z"
/>
<path fill="#616265" d="
  M 619.2444 65.3928
  A 11.20 11.20 0.0 0 1 608.0054 76.5537
  L 605.8654 76.5462
  A 11.20 11.20 0.0 0 1 594.7046 65.3072
  L 594.7156 62.1672
  A 11.20 11.20 0.0 0 1 605.9546 51.0063
  L 608.0946 51.0138
  A 11.20 11.20 0.0 0 1 619.2554 62.2528
  L 619.2444 65.3928
  Z
  M 606.9800 72.4600
  A 8.68 6.98 90.0 0 0 613.9600 63.7800
  A 8.68 6.98 90.0 0 0 606.9800 55.1000
  A 8.68 6.98 90.0 0 0 600.0000 63.7800
  A 8.68 6.98 90.0 0 0 606.9800 72.4600
  Z"
/>
<path fill="#616265" d="
  M 688.82 65.17
  Q 685.59 65.17 687.09 68.03
  L 687.67 69.14
  Q 689.30 72.27 692.82 72.32
  Q 697.65 72.40 699.00 68.59
  Q 699.09 68.32 699.37 68.32
  L 703.99 68.32
  Q 704.31 68.32 704.23 68.64
  C 702.24 76.07 694.07 78.35 687.68 75.52
  C 676.79 70.68 679.88 50.96 693.00 50.92
  C 700.63 50.89 705.30 57.49 704.67 64.70
  Q 704.63 65.17 704.16 65.17
  L 688.82 65.17
  Z
  M 687.00 61.63
  L 698.82 61.61
  A 0.21 0.21 0.0 0 0 699.03 61.40
  L 699.02 61.28
  A 6.06 6.03 -0.1 0 0 692.95 55.26
  L 692.83 55.26
  A 6.06 6.03 -0.1 0 0 686.78 61.30
  L 686.79 61.42
  A 0.21 0.21 0.0 0 0 687.00 61.63
  Z"
/>
<path fill="#616265" d="
  M 723.57 74.50
  Q 723.41 73.83 722.84 74.22
  C 718.71 77.01 711.53 78.10 707.91 73.84
  Q 706.11 71.73 706.47 68.56
  Q 707.08 63.19 713.30 62.28
  Q 718.85 61.47 721.16 61.05
  A 2.39 2.39 0.0 0 0 723.14 58.72
  C 723.19 55.27 719.46 55.04 716.94 55.29
  Q 713.68 55.62 712.77 58.73
  Q 712.67 59.07 712.31 59.07
  L 707.56 59.07
  Q 707.32 59.07 707.34 58.83
  C 708.11 49.95 720.16 49.24 725.87 52.94
  C 727.74 54.16 728.30 56.29 728.30 58.60
  Q 728.32 64.98 728.36 71.34
  Q 728.37 72.63 730.62 72.26
  Q 730.93 72.20 730.93 72.53
  L 730.93 75.74
  Q 730.93 76.02 730.68 76.10
  C 728.69 76.76 724.27 77.32 723.57 74.50
  Z
  M 722.16 64.13
  C 720.15 65.20 711.48 64.28 712.00 69.49
  C 712.45 73.81 721.47 73.03 722.71 68.63
  Q 723.06 67.41 722.79 64.47
  Q 722.73 63.82 722.16 64.13
  Z"
/>
<path fill="#616265" d="
  M 284.68 75.63
  A 0.36 0.36 0.0 0 1 284.32 75.99
  L 279.60 75.99
  A 0.36 0.36 0.0 0 1 279.24 75.63
  L 279.24 51.93
  A 0.36 0.36 0.0 0 1 279.60 51.57
  L 284.32 51.57
  A 0.36 0.36 0.0 0 1 284.68 51.93
  L 284.68 75.63
  Z"
/>
<path fill="#616265" d="
  M 473.69 75.67
  A 0.33 0.33 0.0 0 1 473.36 76.00
  L 468.50 76.00
  A 0.33 0.33 0.0 0 1 468.17 75.67
  L 468.17 51.91
  A 0.33 0.33 0.0 0 1 468.50 51.58
  L 473.36 51.58
  A 0.33 0.33 0.0 0 1 473.69 51.91
  L 473.69 75.67
  Z"
/>
<path fill="#616265" d="
  M 509.71 73.39
  A 0.29 0.28 65.3 0 0 509.21 73.20
  Q 505.17 78.07 498.63 76.17
  C 494.44 74.94 493.45 71.49 493.40 67.27
  Q 493.32 59.50 493.41 52.02
  Q 493.41 51.62 493.82 51.62
  L 498.45 51.62
  Q 498.83 51.62 498.83 52.00
  Q 498.82 64.58 498.81 66.01
  C 498.77 70.10 500.48 73.49 505.22 72.12
  Q 509.40 70.90 509.43 65.97
  Q 509.48 58.98 509.44 51.95
  Q 509.43 51.60 509.78 51.60
  L 514.50 51.60
  A 0.44 0.44 0.0 0 1 514.94 52.04
  L 514.94 75.30
  Q 514.94 76.02 514.22 76.02
  L 510.37 76.02
  Q 509.71 76.02 509.71 75.36
  L 509.71 73.39
  Z"
/>
<path fill="#20558a" d="
  M 206.13 96.06
  L 206.59 93.81
  A 0.34 0.34 0.0 0 1 206.93 93.54
  L 222.28 93.54
  A 0.34 0.34 0.0 0 1 222.62 93.95
  L 222.16 96.18
  A 0.34 0.34 0.0 0 1 221.82 96.45
  L 216.14 96.45
  A 0.34 0.34 0.0 0 0 215.80 96.72
  L 212.50 112.71
  A 0.34 0.34 0.0 0 1 212.16 112.98
  L 209.45 112.98
  A 0.34 0.34 0.0 0 1 209.11 112.57
  L 212.36 96.88
  A 0.34 0.34 0.0 0 0 212.02 96.47
  L 206.46 96.47
  A 0.34 0.34 0.0 0 1 206.13 96.06
  Z"
/>
<path fill="#20558a" d="
  M 266.53 93.56
  Q 266.63 93.67 266.59 93.84
  Q 266.33 95.04 266.22 96.27
  Q 266.22 96.31 266.19 96.35
  Q 266.16 96.38 266.13 96.41
  Q 266.10 96.44 266.06 96.46
  Q 266.02 96.48 265.98 96.48
  Q 264.75 96.42 263.53 96.52
  Q 263.35 96.54 263.25 96.42
  Q 263.15 96.31 263.19 96.14
  Q 263.45 94.94 263.56 93.71
  Q 263.56 93.67 263.59 93.63
  Q 263.62 93.60 263.65 93.57
  Q 263.68 93.54 263.72 93.52
  Q 263.76 93.50 263.80 93.50
  Q 265.03 93.56 266.26 93.45
  Q 266.43 93.44 266.53 93.56
  Z"
/>
<path fill="#20558a" d="
  M 310.34 93.51
  Q 316.95 93.54 317.98 93.58
  C 325.36 93.86 326.17 101.74 323.70 106.99
  Q 320.96 112.78 314.02 112.96
  Q 308.88 113.10 306.69 112.90
  Q 306.14 112.84 306.25 112.30
  L 310.09 93.72
  A 0.26 0.25 -84.5 0 1 310.34 93.51
  Z
  M 312.89 96.63
  L 310.20 109.69
  Q 310.10 110.16 310.57 110.22
  Q 320.77 111.62 321.53 101.51
  Q 321.72 98.93 319.83 97.17
  C 318.43 95.87 314.68 96.25 313.26 96.32
  A 0.39 0.39 0.0 0 0 312.89 96.63
  Z"
/>
<path fill="#20558a" d="
  M 329.25 96.42
  Q 329.15 96.30 329.19 96.14
  Q 329.46 94.94 329.56 93.71
  Q 329.56 93.68 329.59 93.64
  Q 329.62 93.60 329.65 93.57
  Q 329.68 93.55 329.72 93.53
  Q 329.76 93.50 329.80 93.50
  Q 331.03 93.56 332.25 93.46
  Q 332.42 93.44 332.52 93.56
  Q 332.63 93.67 332.59 93.84
  Q 332.32 95.04 332.22 96.26
  Q 332.21 96.30 332.18 96.34
  Q 332.16 96.38 332.13 96.40
  Q 332.09 96.43 332.06 96.45
  Q 332.01 96.48 331.97 96.48
  Q 330.75 96.42 329.53 96.52
  Q 329.35 96.54 329.25 96.42
  Z"
/>
<path fill="#20558a" d="
  M 442.84 93.51
  L 445.54 93.51
  A 0.34 0.34 0.0 0 1 445.88 93.92
  L 442.00 112.71
  A 0.34 0.34 0.0 0 1 441.66 112.98
  L 438.96 112.98
  A 0.34 0.34 0.0 0 1 438.62 112.57
  L 442.50 93.78
  A 0.34 0.34 0.0 0 1 442.84 93.51
  Z"
/>
<path fill="#20558a" d="
  M 508.77 101.03
  L 510.28 93.75
  A 0.31 0.31 0.0 0 1 510.58 93.50
  L 513.34 93.50
  A 0.31 0.31 0.0 0 1 513.64 93.87
  L 509.75 112.71
  A 0.31 0.31 0.0 0 1 509.45 112.96
  L 506.66 112.96
  A 0.31 0.31 0.0 0 1 506.36 112.59
  L 508.00 104.64
  A 0.31 0.31 0.0 0 0 507.70 104.27
  L 499.23 104.27
  A 0.31 0.31 0.0 0 0 498.93 104.52
  L 497.23 112.74
  A 0.31 0.31 0.0 0 1 496.93 112.99
  L 494.15 112.99
  A 0.31 0.31 0.0 0 1 493.85 112.62
  L 497.74 93.79
  A 0.31 0.31 0.0 0 1 498.04 93.54
  L 500.82 93.54
  A 0.31 0.31 0.0 0 1 501.12 93.91
  L 499.68 100.91
  A 0.31 0.31 0.0 0 0 499.98 101.28
  L 508.47 101.28
  A 0.31 0.31 0.0 0 0 508.77 101.03
  Z"
/>
<path fill="#20558a" d="
  M 548.34 93.52
  L 550.80 93.52
  A 0.32 0.32 0.0 0 1 551.11 93.90
  L 547.22 112.71
  A 0.32 0.32 0.0 0 1 546.91 112.97
  L 544.45 112.97
  A 0.32 0.32 0.0 0 1 544.14 112.59
  L 548.03 93.78
  A 0.32 0.32 0.0 0 1 548.34 93.52
  Z"
/>
<path fill="#20558a" d="
  M 566.48 100.28
  C 568.24 99.09 569.06 98.19 571.34 98.56
  Q 574.86 99.14 574.45 103.11
  Q 574.29 104.61 572.66 112.48
  Q 572.55 112.98 572.04 112.98
  L 569.97 112.98
  Q 569.49 112.98 569.59 112.51
  L 571.44 103.53
  Q 572.04 100.64 569.12 101.09
  L 568.68 101.16
  A 4.36 4.36 0.0 0 0 565.07 104.59
  L 563.39 112.72
  Q 563.33 112.99 563.06 112.99
  L 560.47 112.99
  A 0.21 0.21 0.0 0 1 560.26 112.73
  L 564.15 93.86
  Q 564.22 93.56 564.52 93.56
  L 566.94 93.56
  Q 567.33 93.56 567.25 93.94
  L 566.00 99.96
  Q 565.85 100.72 566.48 100.28
  Z"
/>
<path fill="#20558a" d="
  M 468.55 98.86
  L 470.03 98.66
  A 0.55 0.55 0.0 0 1 470.65 99.32
  L 470.46 100.26
  Q 470.31 100.99 469.56 100.99
  L 467.98 100.99
  Q 467.47 100.99 467.36 101.50
  L 465.67 109.66
  Q 465.57 110.17 466.01 110.45
  Q 466.72 110.89 467.93 110.69
  Q 468.53 110.59 468.41 111.19
  L 468.18 112.29
  Q 468.07 112.81 467.57 112.98
  C 464.59 113.97 462.24 112.93 462.89 109.39
  Q 463.50 106.07 464.40 101.65
  Q 464.48 101.23 464.06 101.14
  L 462.49 100.82
  Q 462.16 100.75 462.23 100.42
  L 462.50 99.10
  A 0.62 0.62 0.0 0 1 463.24 98.62
  L 464.17 98.81
  Q 464.92 98.96 465.07 98.21
  L 465.76 94.86
  Q 465.83 94.53 466.16 94.53
  L 468.45 94.53
  Q 468.85 94.53 468.77 94.92
  L 468.06 98.34
  A 0.44 0.43 1.8 0 0 468.55 98.86
  Z"
/>
<path fill="#20558a" d="
  M 558.06 98.34
  A 0.44 0.43 1.8 0 0 558.55 98.86
  L 560.03 98.66
  A 0.55 0.55 0.0 0 1 560.65 99.32
  L 560.46 100.26
  Q 560.31 100.99 559.56 100.99
  L 557.98 100.99
  Q 557.47 100.99 557.36 101.50
  L 555.67 109.66
  Q 555.57 110.17 556.01 110.45
  Q 556.73 110.89 557.94 110.69
  Q 558.54 110.59 558.42 111.19
  L 558.19 112.29
  Q 558.08 112.81 557.58 112.98
  C 554.60 113.97 552.25 112.93 552.89 109.39
  Q 553.50 106.07 554.40 101.65
  Q 554.48 101.23 554.06 101.14
  L 552.49 100.82
  Q 552.16 100.75 552.23 100.42
  L 552.50 99.10
  A 0.62 0.62 0.0 0 1 553.24 98.62
  L 554.17 98.81
  Q 554.92 98.96 555.07 98.21
  L 555.76 94.86
  Q 555.83 94.53 556.16 94.53
  L 558.45 94.53
  Q 558.85 94.53 558.77 94.92
  L 558.06 98.34
  Z"
/>
<path fill="#20558a" d="
  M 239.79 100.79
  Q 241.42 98.29 244.65 98.47
  A 0.27 0.26 -82.4 0 1 244.89 98.79
  L 244.38 101.27
  Q 244.33 101.51 244.08 101.49
  C 238.31 100.90 237.87 107.61 236.97 112.59
  Q 236.90 112.99 236.50 112.99
  L 234.12 112.99
  Q 233.73 112.99 233.81 112.61
  L 236.59 99.17
  A 0.74 0.74 0.0 0 1 237.47 98.59
  L 239.15 98.93
  A 0.43 0.42 8.5 0 1 239.49 99.38
  L 239.39 100.65
  Q 239.32 101.51 239.79 100.79
  Z"
/>
<path fill="#20558a" d="
  M 250.18 100.32
  C 253.40 97.64 259.06 97.49 258.42 103.10
  Q 258.14 105.52 256.68 112.47
  Q 256.57 112.99 256.04 112.99
  L 253.98 112.99
  Q 253.49 112.99 253.59 112.51
  L 255.45 103.51
  Q 256.05 100.59 253.11 101.08
  Q 252.83 101.12 252.68 101.15
  Q 249.75 101.73 249.10 104.64
  L 247.33 112.61
  Q 247.24 112.98 246.86 112.98
  L 244.58 112.98
  Q 244.19 112.98 244.27 112.60
  L 247.03 99.24
  A 0.64 0.64 0.0 0 1 247.66 98.72
  L 249.42 98.72
  Q 250.03 98.72 249.95 99.32
  Q 249.89 99.88 249.76 100.19
  Q 249.48 100.91 250.18 100.32
  Z"
/>
<path fill="#20558a" d="
  M 271.76 100.19
  Q 271.48 100.91 272.18 100.32
  C 275.40 97.64 281.06 97.49 280.42 103.10
  Q 280.14 105.52 278.68 112.47
  Q 278.57 112.99 278.04 112.99
  L 275.98 112.99
  Q 275.49 112.99 275.59 112.51
  L 277.45 103.51
  Q 278.05 100.59 275.11 101.08
  Q 274.83 101.12 274.68 101.15
  Q 271.75 101.73 271.10 104.64
  L 269.33 112.60
  Q 269.24 112.97 268.86 112.97
  L 266.58 112.97
  Q 266.19 112.97 266.27 112.59
  L 269.03 99.24
  A 0.64 0.64 0.0 0 1 269.66 98.72
  L 271.42 98.72
  Q 272.03 98.72 271.95 99.32
  Q 271.89 99.88 271.76 100.19
  Z"
/>
<path fill="#20558a" d="
  M 291.88 111.63
  C 291.21 111.86 290.67 112.48 290.02 112.68
  Q 285.79 113.97 283.68 110.28
  Q 282.39 108.01 283.51 104.10
  C 284.90 99.27 290.75 96.04 294.44 100.64
  Q 294.83 101.13 294.83 100.50
  L 294.83 99.39
  Q 294.83 98.70 295.52 98.70
  L 297.31 98.70
  Q 297.92 98.70 297.80 99.30
  Q 296.36 106.60 295.15 111.95
  C 294.55 114.62 293.87 117.13 291.21 117.97
  C 287.95 119.00 282.96 118.76 282.08 114.68
  Q 281.96 114.13 282.50 114.01
  Q 284.77 113.52 285.29 114.99
  Q 285.47 115.48 285.93 115.72
  C 289.45 117.52 291.31 115.49 292.26 111.99
  Q 292.40 111.45 291.88 111.63
  Z
  M 287.9502 110.4435
  A 5.03 3.64 111.7 0 0 293.1920 107.1159
  A 5.03 3.64 111.7 0 0 291.6698 101.0965
  A 5.03 3.64 111.7 0 0 286.4280 104.4241
  A 5.03 3.64 111.7 0 0 287.9502 110.4435
  Z"
/>
<path fill="#20558a" d="
  M 336.74 102.49
  A 1.23 1.22 -77.5 0 0 337.60 103.85
  C 340.68 104.78 345.98 105.68 343.78 110.49
  C 341.82 114.77 332.35 114.34 332.34 108.47
  Q 332.34 108.27 332.54 108.27
  L 334.93 108.27
  Q 335.18 108.27 335.21 108.52
  C 335.51 111.00 337.92 110.97 339.87 110.58
  Q 340.93 110.37 341.23 109.26
  A 1.55 1.54 16.6 0 0 340.22 107.40
  C 337.50 106.51 332.66 105.99 333.94 101.74
  C 334.96 98.34 339.41 98.10 342.27 98.85
  Q 344.86 99.53 345.30 102.48
  A 0.45 0.44 86.1 0 1 344.86 102.99
  L 343.00 102.99
  Q 342.43 102.99 342.18 102.48
  Q 341.10 100.31 338.01 101.25
  Q 336.88 101.60 336.74 102.49
  Z"
/>
<path fill="#20558a" d="
  M 357.22 102.46
  Q 356.44 100.57 353.86 101.05
  C 350.66 101.64 349.58 106.12 350.21 108.82
  A 2.42 2.41 86.9 0 0 352.28 110.68
  Q 355.57 111.09 356.48 108.59
  Q 356.68 108.03 357.28 108.03
  L 359.22 108.03
  Q 359.83 108.03 359.63 108.60
  Q 358.39 112.35 354.36 113.10
  C 343.48 115.12 345.03 97.33 356.23 98.65
  Q 359.58 99.05 360.50 102.57
  A 0.82 0.82 0.0 0 1 359.78 103.60
  Q 357.77 103.78 357.22 102.46
  Z"
/>
<path fill="#20558a" d="
  M 364.6020 112.3666
  A 7.84 6.69 124.3 0 1 363.4934 102.1200
  A 7.84 6.69 124.3 0 1 373.4380 99.4134
  A 7.84 6.69 124.3 0 1 374.5466 109.6600
  A 7.84 6.69 124.3 0 1 364.6020 112.3666
  Z
  M 367.0617 110.6297
  A 5.13 3.85 112.2 0 0 372.5646 107.3347
  A 5.13 3.85 112.2 0 0 370.9383 101.1303
  A 5.13 3.85 112.2 0 0 365.4354 104.4253
  A 5.13 3.85 112.2 0 0 367.0617 110.6297
  Z"
/>
<path fill="#20558a" d="
  M 393.78 107.32
  Q 393.53 109.57 395.18 110.30
  Q 398.52 111.77 400.57 108.89
  Q 400.84 108.52 401.30 108.52
  L 403.16 108.52
  Q 403.69 108.52 403.49 109.01
  C 400.30 116.76 387.95 113.67 391.37 103.80
  Q 393.31 98.20 399.60 98.58
  Q 402.80 98.77 403.79 101.82
  L 404.51 104.02
  Q 405.39 106.73 402.54 106.73
  L 394.45 106.73
  Q 393.85 106.73 393.78 107.32
  Z
  M 394.63 104.76
  L 401.59 104.64
  A 0.18 0.18 0.0 0 0 401.77 104.46
  L 401.77 104.37
  A 3.55 3.43 -1.0 0 0 398.16 101.00
  L 397.94 101.00
  A 3.55 3.43 -1.0 0 0 394.45 104.49
  L 394.45 104.58
  A 0.18 0.18 0.0 0 0 394.63 104.76
  Z"
/>
<path fill="#20558a" d="
  M 411.39 100.65
  Q 411.32 101.51 411.79 100.79
  Q 413.42 98.29 416.65 98.47
  A 0.27 0.26 -82.4 0 1 416.89 98.79
  L 416.38 101.27
  Q 416.33 101.51 416.08 101.49
  C 410.31 100.90 409.87 107.61 408.97 112.59
  Q 408.90 112.99 408.50 112.99
  L 406.12 112.99
  Q 405.73 112.99 405.81 112.61
  L 408.59 99.17
  A 0.74 0.74 0.0 0 1 409.47 98.59
  L 411.15 98.93
  A 0.43 0.42 8.5 0 1 411.49 99.38
  L 411.39 100.65
  Z"
/>
<path fill="#20558a" d="
  M 451.29 100.20
  Q 451.01 100.92 451.71 100.34
  C 454.94 97.67 460.60 97.54 459.94 103.15
  Q 459.65 105.57 458.16 112.51
  Q 458.04 113.03 457.51 113.03
  L 455.45 113.02
  Q 454.96 113.02 455.07 112.54
  L 456.97 103.55
  Q 457.58 100.63 454.64 101.11
  Q 454.36 101.15 454.21 101.18
  Q 451.27 101.74 450.61 104.65
  L 448.80 112.61
  Q 448.71 112.98 448.33 112.98
  L 446.05 112.97
  Q 445.66 112.97 445.74 112.59
  L 448.56 99.24
  A 0.64 0.64 0.0 0 1 449.20 98.72
  L 450.96 98.73
  Q 451.57 98.73 451.48 99.33
  Q 451.42 99.89 451.29 100.20
  Z"
/>
<path fill="#20558a" d="
  M 473.6133 112.3743
  A 7.84 6.69 124.2 0 1 472.4868 102.1297
  A 7.84 6.69 124.2 0 1 482.4267 99.4057
  A 7.84 6.69 124.2 0 1 483.5532 109.6503
  A 7.84 6.69 124.2 0 1 473.6133 112.3743
  Z
  M 476.0617 110.6297
  A 5.13 3.85 112.2 0 0 481.5646 107.3347
  A 5.13 3.85 112.2 0 0 479.9383 101.1303
  A 5.13 3.85 112.2 0 0 474.4354 104.4253
  A 5.13 3.85 112.2 0 0 476.0617 110.6297
  Z"
/>
<path fill="#20558a" d="
  M 517.96 106.76
  Q 517.36 106.76 517.29 107.35
  Q 517.06 109.60 518.71 110.32
  Q 522.05 111.77 524.08 108.88
  Q 524.35 108.51 524.81 108.51
  L 526.67 108.50
  Q 527.20 108.49 527.00 108.98
  C 523.86 116.74 511.50 113.73 514.87 103.85
  Q 516.77 98.24 523.06 98.59
  Q 526.26 98.76 527.26 101.80
  L 527.99 103.99
  Q 528.89 106.69 526.04 106.71
  L 517.96 106.76
  Z
  M 518.15 104.78
  L 525.03 104.64
  A 0.19 0.19 0.0 0 0 525.21 104.45
  L 525.21 104.38
  A 3.51 3.46 -1.1 0 0 521.63 100.99
  L 521.39 100.99
  A 3.51 3.46 -1.1 0 0 517.95 104.52
  L 517.95 104.59
  A 0.19 0.19 0.0 0 0 518.15 104.78
  Z"
/>
<path fill="#20558a" d="
  M 541.56 110.80
  L 542.04 110.74
  Q 542.69 110.65 542.56 111.30
  L 542.38 112.18
  Q 542.27 112.69 541.79 112.91
  Q 539.55 113.93 537.86 112.05
  Q 537.52 111.68 537.11 111.96
  C 533.49 114.45 526.88 113.17 529.21 107.52
  C 530.45 104.50 535.80 104.75 538.37 104.45
  Q 538.88 104.39 539.17 103.96
  C 539.89 102.84 539.68 101.59 538.31 101.20
  Q 535.02 100.28 533.52 102.83
  Q 533.26 103.28 532.74 103.28
  L 531.04 103.28
  Q 530.44 103.28 530.60 102.70
  C 531.88 98.21 537.51 97.72 541.03 99.29
  Q 542.71 100.03 542.46 102.06
  Q 542.12 104.90 540.96 110.15
  A 0.54 0.54 0.0 0 0 541.56 110.80
  Z
  M 537.97 106.45
  Q 533.82 106.75 532.24 107.80
  A 1.22 1.22 0.0 0 0 531.69 108.82
  Q 531.69 111.22 535.73 110.56
  Q 536.98 110.36 537.62 109.26
  L 538.63 107.50
  Q 539.29 106.35 537.97 106.45
  Z"
/>
<path fill="#20558a" d="
  M 227.74 111.53
  Q 228.02 110.81 227.32 111.40
  C 224.11 114.08 218.45 114.23 219.09 108.62
  Q 219.36 106.21 220.82 99.26
  Q 220.93 98.74 221.46 98.74
  L 223.52 98.74
  Q 224.01 98.74 223.91 99.22
  L 222.05 108.21
  Q 221.46 111.13 224.39 110.64
  Q 224.67 110.60 224.82 110.57
  Q 227.75 109.99 228.40 107.08
  L 230.16 99.11
  Q 230.25 98.74 230.63 98.74
  L 232.91 98.74
  Q 233.30 98.74 233.22 99.12
  L 230.47 112.48
  A 0.64 0.64 0.0 0 1 229.84 113.00
  L 228.08 113.00
  Q 227.47 113.00 227.55 112.40
  Q 227.61 111.84 227.74 111.53
  Z"
/>
<path fill="#20558a" d="
  M 262.92 98.73
  L 265.35 98.73
  A 0.30 0.30 0.0 0 1 265.65 99.09
  L 262.83 112.76
  A 0.30 0.30 0.0 0 1 262.54 113.00
  L 260.10 113.00
  A 0.30 0.30 0.0 0 1 259.80 112.64
  L 262.63 98.97
  A 0.30 0.30 0.0 0 1 262.92 98.73
  Z"
/>
<path fill="#20558a" d="
  M 328.92 98.73
  L 331.35 98.73
  A 0.30 0.30 0.0 0 1 331.65 99.09
  L 328.83 112.76
  A 0.30 0.30 0.0 0 1 328.54 113.00
  L 326.10 113.00
  A 0.30 0.30 0.0 0 1 325.80 112.64
  L 328.63 98.97
  A 0.30 0.30 0.0 0 1 328.92 98.73
  Z"
/>
<path fill="#20558a" d="
  M 382.82 108.43
  Q 382.87 108.89 383.10 108.49
  L 388.43 99.25
  Q 388.62 98.92 388.99 98.87
  L 391.26 98.56
  A 0.42 0.42 0.0 0 1 391.67 99.19
  L 383.92 112.62
  Q 383.70 113.00 383.27 113.00
  L 380.99 113.00
  Q 380.47 113.00 380.39 112.48
  L 378.58 99.21
  Q 378.52 98.73 379.01 98.73
  L 381.24 98.73
  Q 381.77 98.73 381.83 99.26
  L 382.82 108.43
  Z"
/>
<path fill="#20558a" d="
  M 422.30 107.77
  Q 422.52 109.37 423.25 107.93
  L 427.78 99.02
  Q 427.93 98.73 428.25 98.73
  L 430.96 98.73
  A 0.16 0.16 0.0 0 1 431.10 98.96
  Q 425.01 110.17 421.69 115.92
  Q 420.01 118.81 415.91 118.38
  Q 415.29 118.32 415.41 117.70
  L 415.69 116.38
  Q 415.78 115.92 416.25 115.92
  L 417.52 115.92
  A 1.05 1.04 20.6 0 0 418.30 115.57
  Q 420.41 113.24 420.17 111.99
  Q 420.06 111.44 417.88 99.17
  Q 417.80 98.72 418.26 98.72
  L 420.57 98.72
  Q 421.07 98.72 421.13 99.21
  L 422.30 107.77
  Z"
/>
</svg>
