<?xml version="1.0" encoding="UTF-8"?>
<svg id="Layer_2" data-name="Layer 2" xmlns="http://www.w3.org/2000/svg" viewBox="0 0 841.33 150.34">
  <defs>
    <style>
      .cls-1 {
        fill: #005ea2;
      }
    </style>
  </defs>
  <g id="Layer_1-2" data-name="Layer 1">
    <g>
      <path class="cls-1" d="M14.03,95.28c4.97-1.04,13.05-.66,17.25,2.35,10.71,7.68,10.81,29.38,0,36.9-8.94,6.23-20.95,4.04-26.8-5.11-6.35-9.93-3.54-31.4,9.54-34.15ZM17,103.25c-8.62,2.6-8.06,27.29,3.67,26.58,12.5-.75,12.01-31.31-3.67-26.58Z"/>
      <path class="cls-1" d="M807.33,105.09c.25.25.25,6.76,0,7-.34.34-4.64-.35-5,0-.53.52,1,3.71.83,5.26-.15,1.44-1.77,5.14-2.8,6.28-4.59,5.1-14.47,2.9-15.03,3.47-.25.25-.08,2.24.46,3.03,1.81,2.67,18.52-1.9,21.09,5.91s-4.69,13.52-12.01,14.1c-6.45.51-19.53.91-18.55-8.48.42-4.07,2.42-3.39,3.99-4.59.89-.68-1.54-2.82-1.8-3.66-1.85-5.9,2.72-8.32,2.71-8.81-.01-.46-3.3-3.75-3.7-5.2-1.06-3.84-.24-7.39,2.28-10.33.79-.92,4.24-3.98,5.02-3.98,3.15,0,21.7-.8,22.5,0ZM788.99,111.21c-4.57,1.32-3.52,11.54,2.69,9.75,4.57-1.32,3.52-11.54-2.69-9.75ZM798.33,139.09c-1.22-1.09-10.59-1.45-12.38-.89s-2.21,4.16-1.56,4.82c.24.24,5.73,1.97,6.43,1.97,1.48,0,5.63-1.22,6.58-2.34.76-.89,1.47-3.08.93-3.56Z"/>
      <path class="cls-1" d="M165.33,92.09v45c-1.46-.22-7.7.33-7.97-.03-.39-.53.24-2.59-.04-2.97-.25-.34-4.96,3.66-7.55,4-19.25,2.5-20.49-37.78,2.86-32.8,1.07.23,3.5,2.02,3.68,1.81.49-.58-2.31-13.69-1-15,.39-.39,8.32.28,10,0ZM155.33,113.09c-3.04-.11-4.47-1.83-7.38.12-4.93,3.3-3.79,19.32,4.72,16.72.67-.21,2.66-2.09,2.66-2.34v-14.5Z"/>
      <path class="cls-1" d="M293.33,123.09v14c0,.5-10,.5-10,0v-40.5c0-.11,1.39-1.5,1.5-1.5h17c.91,0,6.66,2.39,7.84,3.16,2.23,1.45,4.22,3.67,4.62,6.38,2.21,15-7.61,19.51-20.97,18.47ZM293.33,115.09c.27.27,6.44.18,7.51,0,5.73-.96,6.68-10.3-.2-11.81-1.2-.26-7.05-.45-7.31-.19-.43.42-.43,11.58,0,12.01Z"/>
      <path class="cls-1" d="M632.32,106.08c-.45.56-7.89-5.06-13-2.5-8.7,4.35,8.71,9.27,10.71,10.3,14.07,7.25,6.68,23.88-8.18,24.27-5.64.15-10.56-2.91-15.52-5.08-.73-.54,3.3-6.54,4.64-6.91,2.09-.58,3.4,1.7,5.33,2.45,2.93,1.13,10.7,2.43,11.09-2.03.46-5.21-10.58-7.06-14.41-9.65-6.19-4.19-7.3-12.36-2.19-17.89,4.81-5.22,16.12-5.3,21.91-1.83,5.23,3.14,3.14,3.38.59,6.36-.84.98-.84,2.34-.97,2.5Z"/>
      <path class="cls-1" d="M444.33,105.09c.28-.28,7.74-.31,8,0,.42.48-.7,4.04.5,4.01,1.95-.04,3.47-3.21,6.19-3.81,1.91-.42,6.87-.55,8.64-.02,2.01.59,5.67,6.68,5.67,8.33v23.5c0,.5-10,.5-10,0v-22.5c0-2.57-9-1.74-9,1v21.5c0,.5-8.83-.36-10,0,.86-4.15-1.13-30.87,0-32Z"/>
      <path class="cls-1" d="M558.33,105.09c4.71.35,8.79-2.03,9.01,4,3.61-3.98,13.74-6.27,17.47-1.98.36.41,2.52,4.22,2.52,4.48v25.5c0,.45-9,.45-9,0v-19.5c0-.19-1.26-3.18-1.48-3.52-1.73-2.61-8.52.22-8.52,1.52v21.5c0,.5-10,.5-10,0v-32Z"/>
      <path class="cls-1" d="M532.03,105.28c6.62-1.39,14.51.3,18.17,6.44,7.07,11.87-1.71,28.58-16.15,26.14-16.7-2.81-16.24-29.6-2.02-32.58ZM536.05,112.23c-6.71,1.17-5.75,16.32-1.06,17.71,9.98,2.94,10-19.26,1.06-17.71Z"/>
      <path class="cls-1" d="M182.03,105.28c7.81-1.73,16.97.73,19.86,8.76,5,13.93-5.62,28.39-20.53,22.53-8.5-3.34-10.92-13.15-8.55-21.53.89-3.14,6.04-9.06,9.23-9.77ZM191.12,113.31c-.5-.5-2.58-1.19-3.35-1.24-7.48-.52-8.19,15.93-1.77,17.86,8.31,2.51,9.15-12.56,5.12-16.62Z"/>
      <path class="cls-1" d="M715.33,137.09c-.23.23-5.54.17-6.4-.1-1.59-.5-1.47-3.32-2.09-2.9-1.96,1.33-3.72,3.28-6.2,3.8-8.59,1.8-15.41-7.01-10.75-14.75,2.73-4.54,11.48-6.37,16.44-6.06-.24-10.12-13.43-1.32-13.99-2-.19-.23-2.04-5.23-2.04-5.52-.06-4.78,14.72-5.08,18.34-4.28,2.41.53,6.69,5.43,6.69,7.31,0,3.39.87,23.63,0,24.5ZM698.4,130.03c.79.73,5.79.15,7.01-1.38.98-1.22,1.47-5.93.93-6.57-.24-.28-6.27,1.91-6.98,2.51-1.44,1.2-2.25,4.24-.95,5.43Z"/>
      <path class="cls-1" d="M825.34,127.08c1.53.29.96-1.16,1.25-2.23,1.49-5.47,3.15-11.04,4.51-16.53.25-.99.1-3.04.25-3.23.32-.39,8.32.24,9.98-.01-4.41,10.27-7,22.04-11.23,32.27-2.53,6.12-4.98,11.14-12.23,11.77-1.12.1-6.3.18-6.54-.04s1.16-5.61,1.45-6.04c1-1.5,8.55-.67,8.53-6.46-.75-4.03-13.2-30.34-11.98-31.49.36-.33,8.57-.4,9.53.97l6.48,21.02Z"/>
      <path class="cls-1" d="M87.33,124.09c-2.25,2.19,4.57,6.92,7.5,6.92,2.3,0,5.43-2.94,7.53-1.49,1.04.72,2.15,3.67,2.02,4.99-.16,1.72-10.11,3.74-12.48,3.5-19.63-1.97-18.94-31.57-1.12-32.97,7.29-.57,11.42.95,14.05,8.04.7,1.89,2.98,11,0,11-2.55,0-16.87-.61-17.5,0ZM97.34,118.08c1.2-1.1-.68-5.67-3.53-6.04-4.28-.56-6.21,1.89-7.47,5.55,1.57.61,10.59.87,11,.49Z"/>
      <path class="cls-1" d="M438.33,124.09h-19c-.69,4.25,4.82,7,8.35,6.75,1.98-.14,4.67-2.72,6.69-1.31,2.44,1.7,2.91,5.21-.47,6.62-15.1,6.3-28.84-5.88-23.32-21.32,2.7-7.53,8.56-10.39,16.3-9.78,10,.78,12,10.54,11.45,19.04ZM430.33,118.08c.41-.4-.91-5.67-3.49-6.04-3.79-.53-7.02.52-7.53,4.53-.24,1.89.03,1.44,1.5,1.51,1.57.07,9.17.33,9.51,0Z"/>
      <path class="cls-1" d="M372.33,124.09h-19c.04,3.86,3.57,5.97,6.98,6.58,2.41.43,8.21-2.31,8.97-1.54.22.22,2.3,5.75,2.05,5.95-.72.6-8.2,2.8-9.58,2.94-8.55.86-16.55-4.61-17.45-13.41-.5-4.88-.26-9.4,2.57-13.48,3.73-5.39,7.6-6.59,14-6.09,10.74.85,12.17,9.78,11.45,19.04ZM364.33,118.08c.34-.34-.16-2.27-.44-3.06-2.77-7.65-13.12.48-10.56,3.06.39.39,10.61.39,11,0Z"/>
      <path class="cls-1" d="M772.33,124.09h-19c.04,3.86,3.57,5.97,6.98,6.58,2.41.43,8.21-2.31,8.97-1.54.22.22,2.3,5.75,2.05,5.95-.72.6-8.2,2.8-9.58,2.94-8.55.86-16.55-4.61-17.45-13.41-.5-4.88-.26-9.4,2.57-13.48,3.73-5.39,7.6-6.59,14-6.09,10.74.85,12.17,9.78,11.45,19.04ZM764.33,118.08c.34-.34-.16-2.27-.44-3.06-2.77-7.65-13.12.48-10.56,3.06.39.39,10.61.39,11,0Z"/>
      <path class="cls-1" d="M263.33,124.09h-19c.58,3.91,3.29,5.91,6.98,6.59,2.41.44,8.2-2.32,8.97-1.54.22.22,2.3,5.75,2.05,5.95-.72.6-8.2,2.8-9.58,2.94-22.85,2.29-24.71-35.9,1.13-32.98,8.86,1,10.26,11.74,9.45,19.05ZM255.34,118.08c.33-.31-.04-3.08-.49-4.01-2.02-4.13-9.09-2.15-10.5,2.52-.53,1.76.25,1.43,1.48,1.49,1.58.07,9.16.32,9.51,0Z"/>
      <path class="cls-1" d="M390.34,128.09c2.47.18,1.69.22,1.99-1.49.61-3.41,4.07-18.54,5.48-20.54s7.11-.61,9.53-.97l-10.06,31.94-11.37.11-10.57-32.05c2.42.37,8.16-.97,9.52.97,2.32,3.3,4.25,17.4,5.48,22.03Z"/>
      <path class="cls-1" d="M58.34,129.08c1.41.24,1.41-1.74,1.71-2.78,1.7-5.81,3.61-12.15,5.05-17.98.25-.99.1-3.04.25-3.23.32-.39,8.32.24,9.98-.01l-10.47,31.02c-1.41,2.01-8.31.51-10.92,1.02-1.33-3.86-11.82-30.88-10.6-32.05.35-.34,8.67-.4,9.54.96,1.48,7.76,4.79,15.15,5.46,23.04Z"/>
      <path class="cls-1" d="M723.33,113.09c-.4-.33-3.6.34-4.01,0-.25-.21-.18-5.4-.04-6.4.19-1.34,4.48-1.23,4.94-1.72.43-.46.86-7.54,1.13-7.87.25-.31,7.7-.3,7.98-.02.42.42-.42,7.59,0,8.01s7.59-.42,8.01,0c.27.28.36,6.69-.95,7.56-1.72,1.15-6.62,0-7.06.44-.6.6-.07,16.09,1.1,16.91,2.21,1.55,7.07-3.36,6.95,5.61-.03,2.01-.07,1.18-1.46,1.56-5.08,1.41-11.58,1.58-14.47-3.71-.4-.73-2.13-5.56-2.13-5.87,0-2.13.56-14.04,0-14.5Z"/>
      <path class="cls-1" d="M482.33,113.09c-.4-.33-3.6.34-4.01,0-.25-.21-.18-5.4-.04-6.4.19-1.36,4.53-1.26,4.99-1.67.31-.28-.32-7.7,1.67-7.99,1.06-.15,7.13-.22,7.39.05.42.42-.42,7.59,0,8.01.4.4,6.61-.4,7.01,0,.28.28.28,7.72,0,8.01-.33.33-5.64-.24-7,0v15.5c0,2.26,6.14,1.06,6.91,1.59.63.44,1.6,6.42,1.05,6.86-.26.21-5.52,1.13-6.45,1.13-3.74.02-7.41-1.47-9.37-4.72-.37-.62-2.13-4.6-2.13-4.87,0-2.24.6-15.01,0-15.5Z"/>
      <path class="cls-1" d="M231.34,108.09c-.97,1.31-3.29,5.69-4.6,5.96-.9.18-2.51-1.81-4.85-2.03-4.26-.4-8.04,1.21-3.26,4.27,4.13,2.64,11.78,3.1,12.67,9.33,1.2,8.37-5.93,12.72-13.48,12.53-2.5-.06-9.66-2.17-11.03-4.04-1.05-1.43,0-1.59.51-2.56,3.82-7.19,5.46-.69,10.61-.47,3.7.16,6.59-2.23,2.97-5.05-3.17-2.46-9.35-2.65-11.99-7-3.08-5.08-.3-11.88,5.4-13.49s11.92-.47,17.04,2.55Z"/>
      <path class="cls-1" d="M652.34,97.08c.42.42-.42,7.59,0,8.01s7.59-.42,8.01,0c.28.28.28,7.72,0,8.01-.42.42-7.59-.42-8.01,0-.5.5-.08,12.37.46,14.05,1.57,4.94,6.93,2.25,7.55,2.95.22.24-.16,5.16,1.02,6.47.02.58-4.59,1.5-5.5,1.57-5.97.44-11.56-2.2-12.49-8.56-.41-2.8.6-15.94-.04-16.45-.75-.59-4.46,1.3-5-2.5-1.06-7.37,3.53-3.84,5.09-6.13,1.38-2.03.66-7.12.92-7.39.28-.29,7.72-.28,8.01,0Z"/>
      <path class="cls-1" d="M666.33,105.09c.28-.28,7.72-.29,8,0,.36.36-.39,4.52,0,5,.28.35,4.36-4.04,5.94-4.56,1.28-.42,6.65-.82,7.06-.44.38.35-.69,7.51-1.06,7.94-.26.29-4.94-.41-7.33,1.17-.9.59-3.61,4.94-3.61,5.39v17.5c0,.45-7.77-.32-9,0,.86-4.15-1.13-30.87,0-32Z"/>
      <path class="cls-1" d="M112.33,105.09c.28-.28,7.72-.29,8,0,.36.36-.39,4.52,0,5,.28.35,4.36-4.04,5.94-4.56,1.28-.42,6.65-.82,7.06-.44.38.35-.69,7.51-1.06,7.94-.26.29-4.94-.41-7.33,1.17-.9.59-3.61,4.94-3.61,5.39v17.5c0,.45-7.77-.32-9,0,.86-4.15-1.13-30.87,0-32Z"/>
      <path class="cls-1" d="M321.33,105.09c1.21-1.21,10.58-.21,8.01,5,2.14-.66,3.74-4.27,5.66-4.84,1.05-.31,7.07-.41,7.34-.16.29.28-.76,7.67-1.02,7.98-.31.37-5.74-1-9.01,2.49-.41.44-1.97,2.85-1.97,3.03v18.5c0,.45-7.77-.32-9,0,.86-4.15-1.13-30.87,0-32Z"/>
      <path class="cls-1" d="M515.33,105.09v32c0,.5-10,.5-10,0v-32c0-.5,8.83.36,10,0Z"/>
      <path class="cls-1" d="M26.33,50.09c-2.16,1.96-3.27,1.54-3.07,5.53.11,2.32,3.06,1.95,3.06,2.97,0,1.96-8.91,3.19-6.82-3.83.65-2.18,4.91-3.29,3.81-6.64-6.21-2.28-11.91-5.8-18.54-6.97-1.19-.21-4.22.15-4.44-.06-1.64-1.51,3.23-3.8,3.72-4.28.68-.67.85-2.07,1.69-2.79,2.57-2.18,7.45.11,9.65-1.37,1.36-.92.85-4.57,1.38-6.62,1.94-7.46,14.77-14.85,20.6-20.4,1.96-.58,2.46-6.42,4.45-5.53,4.36,1.92-3.47,8.58-4.99,9.99-4.53,4.18-11.5,7.89-14.96,13.04-3.72,5.52-.46,12.19-9.26,13.74-2.42.43-4.85.2-7.27.23-.23,1.44,1.74,1.37,2.78,1.71,3.62,1.16,17.96,5.09,19.1,7.94.24.59.24,1.7.12,2.35-.6.46-.75.77-1,1Z"/>
      <path class="cls-1" d="M27.33,49.09c1.8-1.4,4.87-1.63,4-4.49-.78-2.54-6.49-1.04-6.94-1.56-.29-.33-.51-4.11-1.07-5.27-.53-1.09-2.04-.37-2.01-1.18.07-1.64,1.59-2.11,1.65-2.94.12-1.45-.86-3.12-.42-5.83.3-1.83,1.13-3.3,2.24-4.77,3.57-4.71,13.59-11.02,18.49-15.51.87-.8,3.03-5.51,4.05-1.94,1.15,4-2.42,4.62-4.5,6.5-5.25,4.74-10.52,9.48-15.75,14.25-.41.86-1.71,9.63-1.6,10.13.2.97,1.76,1.67,2.33,2.68s.34,2.52.6,2.85c.46.59,6.41-.38,6.92.09.13.11.15,2.66.04,3.39-.09.63-4.29,2.05-4.94,4.23-1.17,3.91,4.61,2.48,1.9,4.89-3.82,2.1-6.91-.57-6.01-4.51.02-.07.83-.1,1-1Z"/>
      <path class="cls-1" d="M34.38,39.04c.93,1,5.37-2.03,7.44-2.03,2.28,0,5.44,1.54,7.51,2.57-3.99,4.79-6.48.7-10.48.44-1.91-.12-7.11,1.4-7.47,1.03-.17-.17-.3-1.82-.8-2.66-.59-.99-1.8-2.04-2-2.96-.12-.55.51-6.04.76-6.79,1.64-4.83,12.19-10.56,15.99-14.56.67,8.94-14.27,10.53-12.98,19.46.1.66,1.83,5.28,2.03,5.5Z"/>
      <path class="cls-1" d="M225.33,41.09c-.1.11-2.9.11-3,0-.38-.44.24-8.53,0-10.46-.14-1.14-4.24-.99-4.89,1.08-.57,1.81.85,10.37-1.62,10.37s-1.25-9.51-1.49-11.45c-.14-1.14-4.24-.99-4.89,1.08-.55,1.74-.03,4.82-.12,6.89-.06,1.55.94,3.96-1.49,3.49-2.1-1.28-2.01-13.49-1.51-13.99.47-.47,2.75.71,3.53.63.92-.1,1.78-1.94,3.94-1.7,1.46.16,2.38,1.75,3.03,1.8,1.32.09,4.09-3.61,7.53-.25,1.31,1.29,1.4,12.04.98,12.52Z"/>
      <path class="cls-1" d="M129.33,41.09v-19c7.48-.19,14.57-.74,15.05,8.46.57,10.93-5.86,11.26-15.05,10.54ZM132.33,39.09c13.63,2.79,13.62-16.79,0-14v14Z"/>
      <path class="cls-1" d="M407.33,23.09c.1-.11,2.9-.12,3,0,.6.68-.87,7.82.55,8.01,1.2.17,8.16.29,8.46,0,.44-.44-.46-7.49,0-8.01.1-.11,3-.15,3,0v19c0,.15-2.9.12-3,0-.62-.7.89-8.81-.55-9.01-1.2-.17-8.16-.29-8.46,0-.46.46.48,8.46,0,9.01-.1.11-3,.15-3,0,0-2.72-.62-18.28,0-19Z"/>
      <path class="cls-1" d="M392.12,24.29c3.87,3.91-5.3,7.57.72,10.79.18.09.8-3.4,3.5-1.99.21.2-1.77,3.36-1.66,4.52.07.81,3.13,4.07,2.66,4.47-1.3,1.14-3.9-1.68-4.5-1.72-1.24-.08-7.12,4.2-10.04-.24s2.1-7.23,2.39-8.65c.24-1.21-1.44-3.21-.71-5.72.89-3.05,5.68-3.44,7.64-1.46ZM387.34,30.08c1.87,1.83,4.8-4.29,1.49-4.99-2.75-.59-2.64,3.86-1.49,4.99ZM385.85,34.09c-3.59.91-1.13,8.97,4.51,5.52,2.67-1.63-2.07-6.14-4.51-5.52Z"/>
      <path class="cls-1" d="M511.33,28.08c-2.06,2.08-3.67-2.59-4.59-2.89-1.42-.46-4.99-.47-5.94.87-.68.96.3,3.6.68,3.88.73.54,6.14.71,8.82,2.66,7.15,5.2-4.1,13.33-10.51,7.51-.85-.77-3.2-4.34-2.46-5.03.11-.1,2.89-.51,3.01.64.31,2.94-.69,3.95,3.56,4.35,4.72.45,8-4.09,3-6.06-4.57-1.8-9.65-.35-8.58-7.43.53-3.47,5.19-5.01,8.31-4.33,1.97.43,6.45,4.06,4.69,5.83Z"/>
      <path class="cls-1" d="M111.33,28.08c-2.18,2.2-3.94-3.34-5.65-3.85-4.49-1.34-7.46,2.24-3.91,4.91,2.22,1.67,7.35.53,9.08,3.92,5.05,9.87-14.97,11.77-13.51,1.02l4.66,4.83c1.8.39,5.67.69,6.27-1.4,1.56-5.44-4.7-4.13-7.88-5.98-7.37-4.3.63-12.59,7.95-8.95,1.31.65,4.14,4.35,2.99,5.5Z"/>
      <path class="cls-1" d="M300.33,23.09c.1-.11,2.9-.12,3,0,.46.52-.44,7.57,0,8.01.34.34,8.68.37,9.56-.95,1.56-2.34-1.51-7.85,2.44-7.06v19c-2.12.08-1.9.46-2-1.49-.07-1.48.27-7.25,0-7.52-.33-.33-8.17-.18-9.46,0-1.44.2.07,8.31-.55,9.01-.1.11-3,.15-3,0,0-2.72-.62-18.28,0-19Z"/>
      <path class="cls-1" d="M440.33,28.09c.29-.3,2.26.75,3.31.72,2.31-.07,4.22.01,6.37,0,2.51-.02,6.07-2.25,7.83,1.27.64,1.28.88,11.55.49,12.01-1.13,1.33-1.92.15-2-1.48-.15-2.89,1.33-10.61-2.51-10.55-5.68.08-2.57,10.96-3.49,12.04-1.12,1.32-1.92.15-2-1.48-.18-3.59,1.61-10.06-3.51-9.56-3.83.38-2.34,6.52-2.49,9.56-.1,1.95.12,1.57-2,1.49.36-2.1-.48-13.49,0-14Z"/>
      <path class="cls-1" d="M360.33,23.09c.1-.11,2.9-.12,3,0,.41.46-.4,5.58,0,6,.3.31,5.23-2.32,7.79.21,1.39,1.38,1.68,12.26,1.21,12.79-.1.11-2.9.11-3,0-.91-1.04,1.64-11.02-1.57-11.94-7.56-2.17-3.11,10.43-4.43,11.94-.1.11-3,.15-3,0,0-2.72-.62-18.28,0-19Z"/>
      <path class="cls-1" d="M162.33,28.09c.26-.2,5.91-1.04,6.45-1.01,7.85.47,6.75,14.88-.97,14.66-1.17-.03-3.2-1.98-3.47-1.65-.57.67,1.3,6.39-2.01,7,.56-2.71-.75-18.41,0-19ZM165.43,38.99c1.04.72,5.26.31,5.78-1.52,2.24-7.75-5.23-11.83-6.7-4.68-.28,1.38.09,5.62.92,6.2Z"/>
      <path class="cls-1" d="M189.33,42.08c-2.02,1.93-3.28-2.03-3.5-2.03-1.73-.05-3.06,1.99-4.99,2-3.09.02-5.47-3.24-4.06-5.97,1.63-3.15,7.89-2.56,8.55-4.5.58-1.7-1.87-2.7-3.52-2.54-2.4.24-2.78,4.88-4.48,3.04-2.75-2.97,6.9-8.24,9.51-3.01,1.24,2.48.05,5.88.48,8.52.24,1.44,2.82,3.71,2,4.49ZM185.33,35.09c-1.69-1.65-8.42,1.63-5.99,3.99,1.69,1.65,8.42-1.63,5.99-3.99Z"/>
      <path class="cls-1" d="M581.34,36.08c-.57.51-9.37-.53-10,0-.17.14,1.34,4.02,1.57,4.05,1.11.17,3.72.16,4.84-.02.2-.03,1.64-3.85,3.6-2.03.63.59-2.68,4.45-4.71,4.84-8.95,1.73-10.99-13.11-.54-14.7,4.17-.63,6.7,6.54,5.26,7.85ZM579.33,34.08c.85-.79-1.54-3.58-2.68-3.9-2.68-.74-6.06,2.36-4.32,3.9.26.23,6.74.24,7,0Z"/>
      <path class="cls-1" d="M526.34,36.08c-.51.47-8.54-.46-9,0-.6.59.06,3.42,1.6,3.9,3.42,1.05,6.65-2.62,7.4-1.9,1.58,1.53-5.9,8.22-10.48,2.98-2.42-2.78-2.04-8.8.91-11.05.84-.64,5.14-1.93,5.95-1.77,2.54.5,4.95,6.62,3.62,7.84ZM524.33,34.08c1.48-1.28-4.24-7.13-6.99-1.49-.96,1.97,1.62,1.47,2.49,1.49,1,.02,4.32.16,4.51,0Z"/>
      <path class="cls-1" d="M240.34,35.08c-.52.49-9.5-.48-10,0-1.34,1.3,1.47,4.71,3.5,4.71,1.43,0,4.96-4.06,6.49-2.7.67.59-2.67,4.37-4.7,4.81-9.92,2.17-10.31-15,.22-14.42,3.32.18,5.7,6.45,4.48,7.6ZM237.33,33.08c-.09-4.22-5.41-4.51-6.99-1.49-1.01,1.94,1.66,1.48,2.49,1.49,1.5.03,3.01-.02,4.51,0Z"/>
      <path class="cls-1" d="M330.34,36.08c-.57.52-9.34-.54-10,0-.18.15,1.5,3.53,2.62,3.87.97.29,2.79.34,3.8.17.2-.04,1.68-3.92,3.58-2.04,1.57,1.56-5.91,8.21-10.48,2.98-2.42-2.78-2.04-8.8.91-11.05.84-.64,5.14-1.93,5.95-1.77,2.54.5,4.95,6.62,3.62,7.84ZM328.33,34.08c.85-.79-1.54-3.58-2.68-3.9-2.68-.74-6.06,2.36-4.32,3.9.26.23,6.74.24,7,0Z"/>
      <path class="cls-1" d="M159.34,35.08c-.52.49-9.48-.49-10,0-.35.34.83,3.93,1.62,4.05,1.14.17,3.65.18,4.78-.01.2-.03,1.64-3.85,3.6-2.03.67.62-2.68,4.37-4.7,4.81-9.92,2.17-10.31-15,.22-14.42,3.32.18,5.7,6.45,4.48,7.6ZM156.31,30.13c-1.04-.85-4.05-.95-5.33-.1-.62.41-1.78,2.94-1.65,3.05.27.22,6.74.23,7,0,.11-.1.09-2.86-.02-2.96Z"/>
      <path class="cls-1" d="M72.33,22.09c1.12-1.32,1.92-.16,2,1.49.25,4.97-2.01,15.2,4.48,15.58,7.8.47,5.24-10.04,5.52-15.58.1-1.95-.12-1.57,2-1.49v15.5c0,.21-2.56,2.79-2.99,3.01-1.58.8-5.65.83-7.34.33-.76-.23-3.66-3.09-3.66-3.33,0-2.31-.5-14.91,0-15.5Z"/>
      <path class="cls-1" d="M472.53,39.95c.36.43,1.52-.02,1.8.14,4.45,2.52-3.97,1.26-4.31,1.28-3.38.12-9.9,2.42-8.25-4.34,1.04-4.27,7.76-1.84,8.56-4.45.39-1.29-1.19-2.47-2.51-2.56-2.23-.16-4.67,2.9-5.48,2.06-.36-.37-.14-2.86.97-3.53,1.43-.87,7.63-.96,8.59.47,1.47,2.2-.46,9.59.64,10.92ZM470.33,35.09c-.82-.86-8.44,2.6-5.99,5,.45.44,5.55-.61,5.89-1.1.27-.39.23-3.75.1-3.89Z"/>
      <path class="cls-1" d="M344.53,39.95c.36.43,1.52-.02,1.8.14.09.05.41,1.97-.5,2.01-1.54.06-2.75-.91-3.98-.92-2.3,0-6.11,2.7-8.02-1.07-3.35-6.6,6.79-5.48,8.52-7.03.58-.52-.48-2.57-1.6-2.91-2.95-.91-5.5,2.84-6.4,1.92-.36-.36-.14-2.86.97-3.53,1.23-.75,4.09-.72,5.53-.47,6.16,1.06,2.15,9.99,3.69,11.86ZM342.33,35.09c-.16-.16-3.71.72-4.5.98-1.37.44-2.38,1.21-2.48,2.52-.1,1.21,2.89,1.78,4.35,1.36,1.63-.48,3.64-3.83,2.64-4.86Z"/>
      <path class="cls-1" d="M436.33,42.09c-.36.33-2.01-.79-3.07-.52-2.24.57-3,2.62-6.28.57-2.07-1.28-2.12-13.51-1.64-14.06.1-.11,2.9-.11,3,0,1.11,1.26-2.25,12.04,2.52,12.03,4.2,0,3.36-7.83,3.48-10.54.09-1.95-.08-1.56,2-1.48-.38,2.11.51,13.52,0,14Z"/>
      <path class="cls-1" d="M514.12,99.87c-4.49,4.48-13.39-3.01-7.35-7.86,5.6-4.5,11.8,3.42,7.35,7.86Z"/>
      <path class="cls-1" d="M202.33,24.08c-.2,1.89.53,3.39,2.01,4.51,0,.95-1.84.02-2.05,1.09-.28,1.47-.24,7.23,0,8.81.1.62,4.06.91,2.04,2.59-.15.13-3.86.15-4,0-.35-.39.08-8.66,0-10.52-.13-2.91-2.76-1.31-4.36-.34-3.92,2.38-2.46,5.4-2.64,9.37-.08,1.65-.89,2.78-2,1.48-.42-.5-.47-12.55,0-13,.36-.34,1.84.65,2.52.58.38-.04,5.63-1.35,5.9-1.49,1.48-.76-.76-3.98,2.57-3.09Z"/>
      <path class="cls-1" d="M276.05,27.24c9.61-1.84,10.28,14.82.77,14.79-6.9-.02-7.78-13.45-.77-14.79ZM280.12,30.3c-6.14-6.1-11.2,10.08-2.27,8.82,3.5-.49,4.52-6.59,2.27-8.82Z"/>
      <path class="cls-1" d="M594.33,32.08c-1.92,1.83-3.39-2-3.6-2.03-.79-.13-4.24-.11-4.4.04-.12.1-.44,2.63.59,3.06,3.22,1.32,8.69,1.42,7.28,6.29-1.03,3.57-8.81,3.77-10.4.68-.39-.76-.81-2.64-.47-3.03,1.07-1.2,3.52,2.53,4.64,2.86,1.49.44,3.84.18,4.35-1.37,1.15-3.48-8.05-1.11-8.07-6.99-.03-7.41,12.73-2.05,10.07.49Z"/>
      <path class="cls-1" d="M253.14,28.28c1.38,1.05,1.62,12.33,1.19,12.81-.1.11-2.9.11-3,0-.81-.92,1.47-11.42-1.52-12.01-.76-.15-3.57,1.29-4.02,1.96-1.04,1.55-.35,6.3-.46,8.55-.08,1.64-.87,2.81-2,1.48-.42-.5-.47-12.55,0-13,.36-.35,1.79.63,2.52.6,1.67-.06,4.31-2.67,7.29-.41Z"/>
      <path class="cls-1" d="M476.33,28.09c.3-.31,2.27.76,3.31.72,2.28-.1,5.48-2.19,7.2,1.27.64,1.28.88,11.55.49,12.01-1.12,1.31-1.92.16-2-1.48-.09-1.83.4-10.42-1.59-10.57-4.02-.3-4.9,2.22-5.33,5.63-.31,2.38,1.28,7.28-2.07,6.43.36-2.1-.48-13.49,0-14Z"/>
      <path class="cls-1" d="M567.33,33.08c-1.66,1.89-2.39-2.58-3.56-2.93-7.81-2.34-5.49,13.79.44,9.79.36-.24.5-2.26,1.63-2.85,1.22-.64,1.77.28,1.48,1.48-1.09,4.64-10.13,5.44-10.93-1.02-.41-3.28-.42-7.29,2.93-8.96,4.59-2.29,10.02,2.2,8,4.5Z"/>
      <path class="cls-1" d="M542.34,39.08c1.31.28,1.19-1.03,1.49-1.99.86-2.76,1.8-5.55,2.51-8.34.36-1.38,1.99-.46,2.99-.65-1.13,1.92-4.32,13.83-5.5,14.01-1.06.16-2.19.48-2.49-.68-.59-2.3-4.79-12.41-4.01-13.33,2.16-2.53,5.79,9.62,5,10.99Z"/>
      <path class="cls-1" d="M260.33,24.08c.35.51-.54,3.03.17,3.9.42.51,1.83-.41,1.84.61s-1.85-.07-2.06,1.09c-.28,1.52-.23,7.21.01,8.81.1.62,4.06.91,2.04,2.59-.15.12-3.5.17-3.89-.1-1.39-.95-.98-7.5-1.08-9.43s-1.25-5.53,0-7.47c.08-.13,2.9-.13,2.98,0Z"/>
      <path class="cls-1" d="M529.33,28.09c.98.83,7.02-.33,7.01.51-.04,2.54-3.31,2.3-3.88,4.12-.63,2.01.37,8.82-.13,9.38-.1.11-3,.15-3,0v-14Z"/>
      <path class="cls-1" d="M291.33,22.09c1.11,1.02-1.73,2.88-1.98,3.52-.81,2.12,1.75,1.03,1.99,1.98.6,2.36-1.84.9-2.05,2.09-.48,2.66.19,6.88.04,9.92-.08,1.64-.88,2.81-2,1.48-.52-.61.42-9.3.04-11.4-.19-1.05-1.75-.43-2.03-.6-2.38-1.48,1.66-2.01,1.77-2.16.56-.72-.02-2.57.69-3.86.61-1.12,3.15-1.32,3.53-.97Z"/>
      <path class="cls-1" d="M356.33,24.08c-.76,4.98.65,3.23,1.99,4.01,2.51,1.47-1.67,1.98-1.79,2.13-.42.51-.4,6.15-.2,7.37.24,1.44,2.82,3.71,2,4.49-.38.36-2.86.13-3.53-.97-1.37-2.25.08-7.59-.43-10.44-.19-1.06-1.75-.43-2.03-.6-2.46-1.52,1.68-1.98,1.8-2.13,1.03-1.29-1.35-4.71,2.19-3.87Z"/>
      <path class="cls-1" d="M350.33,23.09v19c0,.1-2,.1-2,0v-19c0-.1,1.34.06,2,0Z"/>
      <path class="cls-1" d="M553.33,28.09v14c0,.1-2,.1-2,0v-14c0-.1,1.34.06,2,0Z"/>
      <path class="cls-1" d="M93.33,38.09c1.59,1.63-1.42,4.56-2.99,2.99-1.03-1.03,2-4.02,2.99-2.99Z"/>
      <path class="cls-1" d="M118.33,41.08c-1.57,1.57-4.58-1.37-2.99-2.99,1-1.02,4.03,1.96,2.99,2.99Z"/>
      <path class="cls-1" d="M553.33,23.09c.11.11.11,2.89,0,2.99-2.66,2.64-2.66-5.64,0-2.99Z"/>
    </g>
  </g>
</svg>