<?xml version="1.0" encoding="UTF-8"?>
<svg id="Layer_2" data-name="Layer 2" xmlns="http://www.w3.org/2000/svg" viewBox="0 0 421 145">
  <g id="Layer_1-2" data-name="Layer 1">
    <g>
      <path d="M325.99,114.01h7.01s0,27.49,0,27.49c0,1.53,4.57,1.76,6,1.5v-29h8.01s0-5,0-5h-21v5.01Z"/>
      <path d="M179,63.01c2.36,34.62,53.72,31.74,53.08-1.5-.44-22.94-21.84-20.76-33.04-30.05-9.36-7.76,2.61-19.18,13.7-14.7,3.1,1.25,4.89,5.79,5.41,6.1,1.52.9,9.61-3.32,10.41-4.86,1.37-2.64-5.99-9.35-8.24-10.83-15.91-10.49-40.58,1.6-37.09,22.1,3.25,19.06,31.69,16.47,34.85,30.23,4.5,19.58-27,22.51-25.09,1.5l-14,2.01Z"/>
      <rect x="170" y="21" width="1" height="113"/>
      <polygon points="362 31 421 91 421 5 408 5 408 60 349 0 349 86 362 86 362 31"/>
      <path d="M294.38,87.88c56.47-5.49,48.04-93.08-12.64-83.64-49.55,7.71-42.64,89.01,12.64,83.64ZM284.76,16.26c44.4-6.52,46.08,60.39,4.85,59.63-35.38-.65-38.46-54.7-4.85-59.63Z"/>
      <path d="M400,141.5c0,.11,1.39,1.5,1.5,1.5h18.5v-5h-14v-11.01s13.02-.57,13.02-.57v-4.43s-13.02.01-13.02.01v-8.01h14.01v-5h-20v32.5Z"/>
      <rect x="240" y="109" width="6" height="34"/>
      <path d="M341,74.5V17.5c0-.17-1.35-1.58-2-1.5v60c.65.08,2-1.33,2-1.5Z"/>
      <rect x="184" y="109" width="6" height="34"/>
      <path d="M224,131l-24-24v36c1.43.26,6,.03,6-1.5v-20.5l24,24v-36h-6v22Z"/>
      <path d="M90,143c1.43.26,6,.03,6-1.5v-32.5h-6v34Z"/>
      <path d="M253,109v5.01s7,0,7,0v27.5c0,1.53,4.57,1.76,6,1.5v-29h8.01s0-5,0-5h-21Z"/>
      <path d="M389.5,110c-3.34,4-4.47,17.27-9.48,21-.7-2.9-7.18-21.22-8.17-21.83-.53-.32-6.78-1.1-5.73,1.21l14.39,34.62,15.5-35.99c-2.04.13-5.06-.73-6.5.99Z"/>
      <path d="M353,141.5c0,1.53,4.57,1.76,6,1.5v-34h-6v32.5Z"/>
      <path d="M280,141.5c0,1.53,4.57,1.76,6,1.5v-34h-6v32.5Z"/>
      <path d="M292,142.99c8.01,3.09,6.95-6.45,9.15-7.83.62-.39,14.08-.43,14.7-.03,1.58,1.01.72,10.82,9.14,7.85l-16.99-35.99-16.01,35.99ZM313,128.99h-9l4.01-9.98,4.99,9.98Z"/>
      <path d="M241,74.5V17.5c0-.17-1.35-1.58-2-1.5v60c.65.08,2-1.33,2-1.5Z"/>
      <path d="M58,76V16c-.65-.08-2,1.33-2,1.5v57c0,.17,1.35,1.58,2,1.5Z"/>
      <path d="M156,5c-2.25.25-13-.95-13,1.5v79.5h13V5Z"/>
      <path d="M38.74,108.24c-26.43,4.28-13.81,46.24,11.32,33.32,18.17-9.34,8.24-36.49-11.32-33.32ZM46.03,137.53c-19.07,5.01-20.7-20.48-8.32-23.31,18.91-4.32,20.94,20,8.32,23.31Z"/>
      <path d="M82,53c8.59,10.23,16.22,21.49,23,33h16l-23.99-33.51c26.28-9.88,22.45-44.43-6.51-47.49-6.26-.66-14.46,0-21,0-.11,0-1.5,1.39-1.5,1.5v79.5h14v-33ZM82,17c8.64.06,20.02,1.48,20.02,12.5,0,10.83-11.18,13.46-20.02,12.5v-25Z"/>
      <path d="M6,143v-14c7.97,1.25,15.48-3.57,13.79-12.26-1.88-9.69-12.28-7.67-19.79-7.74v32.5c0,1.53,4.57,1.76,6,1.5ZM6,114c11.12-1.53,11.15,11.9,0,10.01v-10.01Z"/>
      <path d="M15,54c11.08.63,22.77-1.31,29.44-11.06,7.32-10.71,4-28.76-8.12-34.75-1.77-.87-8.32-3.18-9.82-3.18H3.5c-.11,0-1.5,1.39-1.5,1.5v79.5h13v-32ZM15,17c28.3-3.12,28.02,27.73,0,25v-25Z"/>
      <path d="M67.5,143h14.5v-5.01s-10,0-10,0v-29h-6v32.5c0,.11,1.39,1.5,1.5,1.5Z"/>
      <path d="M108.01,138.49c6.18,6.46,23.77,9.02,21.98-3.49-28.62,15.25-27.38-34.06,0-18-.32-1.73.62-5.69-.13-6.86-.31-.48-6.18-2.08-7.38-2.17-16.31-1.24-25.92,18.57-14.47,30.52Z"/>
      <path d="M130,74.5V17.5c0-.17-1.35-1.58-2-1.5v60c.65.08,2-1.33,2-1.5Z"/>
      <path d="M151,143v-14.5c0-1.26,11.9-18.83,11-19.49-8.65-2.1-9.67,7.82-13.5,13-4.04-4.66-5.11-15.88-13.51-12.5,1.56,5.07,8.62,12.73,9.77,17.23,1.61,6.3-3.69,18.11,6.24,16.26Z"/>
    </g>
  </g>
</svg>