<?xml version="1.0" encoding="UTF-8"?>
<svg id="Layer_2" data-name="Layer 2" xmlns="http://www.w3.org/2000/svg" viewBox="0 0 402 259.77">
  <defs>
    <style>
      .cls-1 {
        fill: #fcf8f8;
      }

      .cls-2 {
        fill: #a30915;
      }
    </style>
  </defs>
  <g id="Layer_1-2" data-name="Layer 1">
    <g>
      <path class="cls-2" d="M402,0v259.77H0V0h402ZM126.61,46.09c-11.2,2.59-7.29,21.93,5.33,19.51s10.31-23.13-5.33-19.51ZM229.21,45.84c-3.88,1.6-22.9,5.26-24.68,7.07-2.61,2.66,5.21,2.89,5.72,3.67,2.21,3.39-1.41,47.72.23,55.54-.53,1.92-7.98.02-5.95,5.43h29.39c1.63-4.97-4.38-4.05-4.78-5.42-.46-1.6-.34-25.71.1-28.05,1.08-5.65,13.88-8.22,15.22-1.17.48,2.53.61,27.39.1,29.22-.53,1.92-7.98.02-5.95,5.43h30.56c2.03-5.41-5.42-3.51-5.95-5.43-2.9-10.52,6.86-38.92-8.99-42.52-10.64-2.42-17.87,2.12-25.03,9.15v-32.91ZM82.87,54.07c-13.34-1.79-30.33,1.33-44.08,0-1.8,5.49,6.1,4.8,6.9,6.03,2.07,3.16-1.29,43.56.2,50.79-4,3.45-8.57-.67-7.1,6.66h35.26c1.3-5.61-4.86-4.27-7.09-6.42s-3.42-22.33,5.3-15.9l15.9,22.33h23.51c1.52-7.03-3.46-3.74-7.57-7.13-1.28-1.05-14.6-19.23-14.79-20.48l11.61-8.42c8.5-13.86-4.68-25.65-18.04-27.45ZM297.39,54.07c-1.78-.39-2.57.66-3.89,1.4-4.06,2.29-16.17,11.33-19.53,14.56-7.64,7.36,2.76,4.52,3.44,5.19,1.34,1.32-2.15,29.56,2.11,37.27,2.57,4.66,8.47,6.51,13.59,6.15,2.18-.15,14.47-3.92,14.88-5.21,1.85-5.76-10.02-.9-10.68-5.82-.43-3.22-1.08-31.25.07-32.39,1.05-1.05,12.47,2.76,10.58-4.69-1.31-.4-10.57.52-10.57,0v-16.46ZM177.49,193.95c1.25,1.24,30.65-.94,35.26,0,1.8-5.49-6.1-4.8-6.9-6.03-2.07-3.16,1.3-43.56-.21-50.8.47-1.98,9.01-1.12,7.11-6.65h-16.46c18.31-26.35-18.68-25.58-35.78-24.67-2.77-9.29,5.68-4.73,10.46-4.67,18.4.25,36.41-9.86,20.62-28.25,3.95-.86,13.87-2.26,9.49-7.74-4.61-5.77-9.84,4.91-13.67,5.41-5.77.76-14.59-2.4-22.93-.69-14.85,3.05-20.94,21.22-5.81,27.71.71,1-10.16,5.69-9.39,13.38,1.53,15.38,24.91,8.3,34.63,10.14,3.57.68,5.22,3.8,3.59,7.02-2,3.97-9.36,1.72-10.02,2.35-3.51,3.39,6.88,5.7,7.1,6.64-1.5,7.24,1.87,47.63-.21,50.8-.28.43-10.49,2.49-6.9,6.03ZM139.88,69.35c-4.08,1.78-23.38,6.08-24.67,8.83s4.91,1.82,5.71,3.08.71,28.19.22,30.91c-.23,1.29-7.76-.32-5.95,5.36h30.56c2.28-5.11-5.88-4.23-5.88-4.7v-43.49ZM321.27,114.82c8.35,9.15,27.87-2.49,18.99-14.88-8.12-11.34-30.19,2.61-18.99,14.88ZM354.77,101.37c-.32-.26-7.73,1.78-8.02,2.08-.5.51,3.28,11.14,0,14.08h9.4c.59-.49-4.93-13.98,2.94-12.92,1.41.19,1.08,11.31-1.76,12.92h10.58c-5.71-5.09,2.33-17.22-7.57-16.42-2.5.2-3.65,2-4.8,2.33-.7.2-.46-1.82-.78-2.08ZM97.56,188.66c1.15-3.8-.84-12.54,0-17.04-1.62.28-7.82-.42-8.22,0-.93.97,0,15.31-9.07,17.37-30.82,7-30.76-54.96-7.98-55,14.67-.03,4.19,16.46,13.46,19.49,13.06,4.28,14.83-14.22,2.06-20.9-17.87-9.36-47.81,1.87-52.03,22.51-6.42,31.44,24.98,44.74,51.26,38.33,2.02-.49,10.02-3.1,10.52-4.76ZM145.17,130.47c-13.19-1.87-30.43,1.39-44.08,0-1.5,7.35,3.08,3.53,6.38,5.74,2.13,1.43-.26,44.71.75,51.13-4.25,2.61-8.52-.25-7.12,6.6h34.09c2.75-6.89-6.54-4.46-7.12-6.6-.33-1.22-.17-13.74.24-14.98.64-1.93,2.27-2.05,3.97-2.04,2.52.01,17.27,23.62,18.78,23.62h22.92c.95-6.96-1.27-3.62-4.72-5.24-7.05-3.32-12.9-16.76-18.77-22.39,23.23-8.29,17.28-32.64-5.31-35.85ZM245.08,130.47h-27.62c-2.02,5.88,7.84,4.9,8.3,6.6,1.82,6.71-.85,26.05-1.3,33.91-.26,4.57.98,12.61.1,16.32-.56,2.35-10.26.61-8.28,6.65h24.68c3.71-6.57-9.4-5.07-9.4-5.88v-38.79c2.65,2.22,4.22,6.93,5.71,10.15,3.76,8.12,9.75,26.65,14.39,32.63,2.28,2.94,5.89,1.99,9.15,1.74l18.93-43.34,1.26,36.89c-4.72,3.37-11.24-1.07-9.47,6.6h37.03c.79,0,2.95-2.62.61-4.13-1.63-1.05-7.81-.45-8.3-2.52l-2.38-50.26c4.54-2.86,9.88.67,8.31-6.56h-26.45l-18.8,39.97-16.47-39.97ZM370.26,130.47h-57.6c-1.98,6.04,7.72,4.3,8.28,6.65l.02,50.23c-.39,1.45-6.19.99-7.75,3.03-1.25,1.63.65,3.57,1.22,3.57h55.83l2.35-19.98c-7.37-1.12-9.02,13.63-13.74,15.05-2.68.81-17.99,1.07-17.99-2.71v-21.75c2.59.54,10.01-.86,11.59.16,1.91,1.23.35,10.74,7.22,8.07v-21.16c-6.86-2.6-5.68,6.76-7.19,8.09-.97.85-9.36-.31-11.62.14v-24.68c7.24-.21,16.11-.83,21.66,4.79,3.49,3.54,1.37,8.51,7.73,6.97v-16.46ZM205.69,202.17c-2.21-2.57-4.24,7.36-5.9,8.79-2.25,1.94-5.4,1.9-8.19,1.8-1.12,3.72,5.73,4.02,5.97,5.41.43,2.58-3.11,6.77-2.44,9.86,1.21,1.33,7.04-5.33,9.02-5.62,2.59-.38,6.4,4.22,9.78,3.27.55-2.97-3.53-5.19-3.53-7.65-.01-3.22,6.25-5.06,5.89-8.79-15.02,4.17-7.71-3.73-10.58-7.06ZM183.37,213.93H62.3v2.35h121.07v-2.35ZM345.58,213.93h-121.07v2.35h121.07v-2.35Z"/>
      <path class="cls-1" d="M177.49,193.95c-3.58-3.54,6.62-5.6,6.9-6.03,2.07-3.16-1.3-43.56.21-50.8-.22-.94-10.61-3.25-7.1-6.64.65-.63,8.02,1.62,10.02-2.35,1.63-3.22-.02-6.35-3.59-7.02-9.72-1.84-33.1,5.23-34.63-10.14-.77-7.69,10.1-12.38,9.39-13.38-15.13-6.48-9.04-24.66,5.81-27.71,8.33-1.71,17.16,1.45,22.93.69,3.83-.5,9.06-11.19,13.67-5.41s-5.55,6.88-9.49,7.74c15.79,18.39-2.22,28.5-20.62,28.25-4.78-.07-13.23-4.62-10.46,4.67,17.1-.91,54.09-1.68,35.78,24.67h16.46c1.9,5.52-6.64,4.67-7.11,6.65,1.5,7.24-1.87,47.63.21,50.8.81,1.23,8.7.55,6.9,6.03-4.61-.94-34.01,1.24-35.26,0ZM169.53,74.33c-4.3,4.44-2.9,25.61,5.96,23.07,6.28-1.79,6.24-22.66,0-24.37-1.59-.44-4.84.15-5.95,1.29Z"/>
      <path class="cls-1" d="M245.08,130.47l16.47,39.97,18.8-39.97h26.45c1.58,7.23-3.77,3.7-8.31,6.56l2.38,50.26c.48,2.07,6.66,1.47,8.3,2.52,2.34,1.51.18,4.13-.61,4.13h-37.03c-1.76-7.67,4.75-3.23,9.47-6.6l-1.26-36.89-18.93,43.34c-3.25.24-6.87,1.2-9.15-1.74-4.63-5.98-10.63-24.51-14.39-32.63-1.49-3.22-3.07-7.93-5.71-10.15v38.79c0,.81,13.11-.69,9.4,5.88h-24.68c-1.98-6.04,7.73-4.3,8.28-6.65.88-3.71-.36-11.75-.1-16.32.45-7.86,3.12-27.2,1.3-33.91-.46-1.69-10.32-.71-8.3-6.6h27.62Z"/>
      <path class="cls-1" d="M82.87,54.07c13.36,1.8,26.54,13.58,18.04,27.45l-11.61,8.42c.19,1.25,13.52,19.43,14.79,20.48,4.11,3.39,9.09.1,7.57,7.13h-23.51l-15.9-22.33c-8.71-6.43-7.53,13.75-5.3,15.9s8.4.81,7.09,6.42h-35.26c-1.46-7.32,3.1-3.21,7.1-6.66-1.49-7.23,1.87-47.63-.2-50.79-.81-1.23-8.7-.55-6.9-6.03,13.75,1.33,30.74-1.79,44.08,0ZM65.82,90.51c23.62-.8,24.93-34.03,0-31.74v31.74Z"/>
      <path class="cls-1" d="M145.17,130.47c22.59,3.21,28.54,27.56,5.31,35.85,5.87,5.63,11.71,19.07,18.77,22.39,3.45,1.62,5.67-1.72,4.72,5.24h-22.92c-1.51,0-16.26-23.61-18.78-23.62-1.7,0-3.34.12-3.97,2.04-.41,1.24-.57,13.76-.24,14.98.59,2.14,9.87-.29,7.12,6.6h-34.09c-1.39-6.85,2.87-3.99,7.12-6.6-1.01-6.42,1.38-49.7-.75-51.13-3.29-2.21-7.87,1.61-6.38-5.74,13.65,1.39,30.88-1.87,44.08,0ZM128.12,165.74c23.72,1.3,24.11-33.19,0-30.56v30.56Z"/>
      <path class="cls-1" d="M229.21,45.84v32.91c7.16-7.03,14.38-11.57,25.03-9.15,15.85,3.6,6.09,31.99,8.99,42.52.53,1.92,7.98.02,5.95,5.43h-30.56c-2.03-5.41,5.42-3.51,5.95-5.43s.38-26.69-.1-29.22c-1.34-7.05-14.14-4.48-15.22,1.17-.45,2.34-.56,26.45-.1,28.05.39,1.38,6.41.46,4.78,5.42h-29.39c-2.03-5.41,5.42-3.51,5.95-5.43-1.64-7.81,1.99-52.15-.23-55.54-.51-.78-8.33-1.02-5.72-3.67,1.78-1.81,20.81-5.47,24.68-7.07Z"/>
      <path class="cls-1" d="M370.26,130.47v16.46c-6.36,1.55-4.24-3.43-7.73-6.97-5.54-5.62-14.42-4.99-21.66-4.79v24.68c2.27-.45,10.65.71,11.62-.14,1.51-1.32.33-10.69,7.19-8.09v21.16c-6.87,2.67-5.31-6.83-7.22-8.07-1.59-1.02-9,.38-11.59-.16v21.75c0,3.79,15.31,3.52,17.99,2.71,4.72-1.42,6.37-16.17,13.74-15.05l-2.35,19.98h-55.83c-.57,0-2.46-1.93-1.22-3.57,1.56-2.04,7.36-1.58,7.75-3.03l-.02-50.23c-.56-2.35-10.26-.61-8.28-6.65h57.6Z"/>
      <path class="cls-1" d="M97.56,188.66c-.5,1.65-8.5,4.26-10.52,4.76-26.28,6.41-57.68-6.89-51.26-38.33,4.22-20.64,34.15-31.86,52.03-22.51,12.77,6.68,11,25.18-2.06,20.9-9.27-3.04,1.21-19.52-13.46-19.49-22.78.04-22.84,62.01,7.98,55,9.07-2.06,8.14-16.4,9.07-17.37.41-.42,6.6.28,8.22,0-.84,4.5,1.15,13.25,0,17.04Z"/>
      <path class="cls-1" d="M297.39,54.07v16.46c0,.53,9.26-.39,10.57,0,1.89,7.45-9.53,3.64-10.58,4.69-1.14,1.15-.49,29.17-.07,32.39.65,4.92,12.53.06,10.68,5.82-.42,1.29-12.7,5.06-14.88,5.21-5.12.36-11.02-1.5-13.59-6.15-4.26-7.71-.77-35.95-2.11-37.27-.68-.67-11.08,2.17-3.44-5.19,3.35-3.23,15.47-12.27,19.53-14.56,1.32-.74,2.11-1.79,3.89-1.4Z"/>
      <path class="cls-1" d="M139.88,69.35v43.49c0,.47,8.15-.41,5.88,4.7h-30.56c-1.81-5.68,5.72-4.07,5.95-5.36.48-2.72.61-29.61-.22-30.91s-7.01-.32-5.71-3.08,20.59-7.05,24.67-8.83Z"/>
      <path class="cls-1" d="M126.61,46.09c15.64-3.61,18.3,17.03,5.33,19.51s-16.52-16.92-5.33-19.51Z"/>
      <rect class="cls-1" x="62.3" y="213.93" width="121.07" height="2.35"/>
      <rect class="cls-1" x="224.51" y="213.93" width="121.07" height="2.35"/>
      <path class="cls-1" d="M205.69,202.17c2.87,3.34-4.44,11.23,10.58,7.06.36,3.73-5.9,5.57-5.89,8.79,0,2.46,4.09,4.68,3.53,7.65-3.38.94-7.19-3.65-9.78-3.27-1.98.29-7.81,6.96-9.02,5.62-.67-3.09,2.87-7.28,2.44-9.86-.23-1.39-7.09-1.7-5.97-5.41,2.79.1,5.94.15,8.19-1.8,1.66-1.43,3.69-11.36,5.9-8.79Z"/>
      <path class="cls-1" d="M321.27,114.82c-11.2-12.27,10.87-26.22,18.99-14.88,8.88,12.4-10.64,24.03-18.99,14.88ZM333.67,98.9c-8.76-5.43-10.74,15.52-3.77,17.35s5.74-16.13,3.77-17.35Z"/>
      <path class="cls-1" d="M354.77,101.37c.31.26.08,2.28.78,2.08,1.15-.33,2.3-2.13,4.8-2.33,9.9-.8,1.86,11.33,7.57,16.42h-10.58c2.83-1.62,3.16-12.74,1.76-12.92-7.87-1.05-2.35,12.43-2.94,12.93h-9.4c3.27-2.95-.51-13.58,0-14.09.29-.29,7.7-2.34,8.02-2.08Z"/>
      <path class="cls-2" d="M169.53,74.33c1.11-1.14,4.36-1.73,5.95-1.29,6.25,1.71,6.28,22.58,0,24.37-8.86,2.53-10.26-18.64-5.96-23.07Z"/>
      <path class="cls-2" d="M65.82,90.51v-31.74c24.93-2.29,23.62,30.94,0,31.74Z"/>
      <path class="cls-2" d="M128.12,165.74v-30.56c24.11-2.63,23.72,31.86,0,30.56Z"/>
      <path class="cls-2" d="M333.67,98.9c1.97,1.22,3.1,19.16-3.77,17.35s-4.99-22.79,3.77-17.35Z"/>
    </g>
  </g>
</svg>