<?xml version="1.0" encoding="UTF-8"?>
<svg id="Layer_2" data-name="Layer 2" xmlns="http://www.w3.org/2000/svg" viewBox="0 0 468.96 159.34">
  <defs>
    <style>
      .cls-1 {
        fill: #1e384b;
      }
    </style>
  </defs>
  <g id="Layer_1-2" data-name="Layer 1">
    <g>
      <path class="cls-1" d="M227.46,89.34c-3.37-.7-3.64-3.6-3.57-6.51.35-13.89,6.12-32.64,7.78-47.29.12-1.04.92-4.17-.21-4.21l-32.48,55.53c-1.87,3.26-14.26,3.36-15.58,1.51l4.56-59.02-26.53,51.97c-1.29,2.91-.2,4.75,1.54,7.01-3.8,1.14-21.91,2.96-22-2.44L181.18,9.05c2.14-2.38-1.23-7.03.73-8.26,1.58-.99,22.35-1.77,23.88,2.2l-1.34,47.33,24.77-43.32c1.43-2.18-.45-3.71-1.26-5.66.94-1.29,19.57-1.39,22.43-.94,2.06.32,4.34,1.14,4.62,3.46l-10.97,80.05,2.91,4.41c-1.02-.3-2.15,1.01-2.5,1.01-4.51,0-13.21.79-17,0ZM232.46,29.34v1c.65-.33.65-.67,0-1Z"/>
      <path class="cls-1" d="M285.46,47.34c-2.62.81-12.6,31.5-15.13,35.98-.92,2.39,1.95,3.11,2.63,5.01-.99,1.33-16.7,1.31-19.4.92-2.38-.34-6.3-1.06-5.44-4.16l30.36-75.72c1.9-2.08-.76-7.68-.52-8.01,1.06-1.47,21.8-1.61,22.88.11,1.98,3.14-9.71,26.86-10.88,31.88h25.5c1.98,0,12.49-26,12.27-28.37-.06-.7-2.98-4.63-.27-4.63h20c1.32,0,2.04,3.91,1.29,5.26l-30.43,77.73c-.44,2.62,4.07,5.11-.87,6.01-3.27.6-20.45.66-21.44-2.61-.87-2.88,14.38-33.47,14.95-39.38h-25.5Z"/>
      <path class="cls-1" d="M118.96,67.34h-27.5c-1.63,3.5-11.96,14.07-12.37,16.69-.2,1.27,4.92,5.31,1.37,5.31h-19c-5.58,0-.56-7.43.67-9.33,15.23-23.37,37.86-45.43,53.05-68.95,2.17-3.36,5.32-6.36,1.78-9.71.94-1.29,22.31-1.43,25.43-.94,2.08.32,4.32,1.13,4.61,3.46l-8.54,85.47h-17c-6.9,0-1.22-17.87-2.5-22ZM120.96,53.34l3.99-32-22.99,32h19Z"/>
      <path class="cls-1" d="M384.46,89.34c-3.7-.49-4.65-2.18-2.57-5.58,5.84-10.51,59.24-73.52,59.06-78.94-.05-1.59-2.34-3-1.99-3.47.99-1.3,22.32-1.43,25.43-.94,2.06.32,4.31,1.11,4.57,3.43l-8.96,79.15c-1.03,1.94,3.4,4.76,2.96,5.34-1.02-.3-2.15,1.01-2.5,1.01h-16c-7.83,0-2.69-16.98-2.5-22h-29c-1.39,5.37-10.38,12.33-11.61,16.95-.38,1.44,1.34,2.16,2.12,3.05.98.55-.9,2-1.02,2-5.43,0-12.93.67-18,0ZM443.96,53.34l2.99-32-22.99,32h20Z"/>
      <path class="cls-1" d="M408.96.34c.93.81-5.18,13.51-7.61,14.89-8.37,4.75-35.12-6.21-33.47,12.62.57,6.59,17.05,8.99,22.42,12.66,7.32,5.01,5.6,10.74,3.6,18.25-4.28,16.07-14.21,28.64-31.55,30.45-4.78.5-37.75.66-39.79-.77-2.39-1.67,4.06-18.09,6.92-20.11.7-.32.9,4.07,3.16,4.83.61.21,11.34,1.15,12.84,1.16,2.99.02,13.98-.81,16.53-1.47,5.9-1.53,11.8-11.89,8.04-17.11-4.83-6.7-27.67-4.56-27.12-19.89.22-6.11,8.33-20.87,12.54-25.54,4.47-4.96,13.29-9.99,20.01-9.99h33.5Z"/>
      <path class="cls-1" d="M86.96.34c-1.35,3.37-3.9,13.1-7.02,14.48-1.26.56-10.15,1.34-12.49,1.51-7.54.54-18.35-2.73-21.01,6.98-3.36,12.29,12.95,11.36,20.88,16.17,7.36,4.47,7.01,9.58,5.35,17.06-3.7,16.65-14.51,30.82-32.32,32.67-4.78.5-37.76.66-39.79-.77-2.69-1.89,5.41-20.12,6.92-20.09,1.53.83,1.26,3.02,2.01,3.97,1.63,2.07,24.05,1.49,28.02,1.03,9.32-1.09,16.68-14.96,7.74-19.78-12.32-6.64-29.58-4.07-22.04-25.51C27.53,15.71,38.99.34,53.46.34h33.5Z"/>
      <path class="cls-1" d="M287.96,125.34h-3.99c1.44-3.61.35-20.48,2.11-21.88.38-.31,3.42-.3,3.79,0,.64.52,3.65,13.96,4.6,15.9,1.12.03,4.71-15.29,5.65-15.86.89-.54,2.69.01,3.85-.15l1,22.01h-2.99s-.13-6.39-.13-6.39l-1.87-7.61c-.3,1.96-3.48,13.54-4.09,13.93-.31.2-2.54.2-2.85,0l-5.08-14.94v15Z"/>
      <path class="cls-1" d="M256.95,158.34c-.26.24-3.02-.17-3.99,0,1.96-17.61-6.97-17.61-5.01,0-6.41,1.74-3.58-5.52-3.99-10.55-.15-1.84.87-2.51-1.51-2.48-6.14.08-2.62,9.17-3.5,13.03h-2.99s-1-16-1-16c2.78,1.35,6.22-.35,8.42-.02,1.47.22,2.44,1.7,3.28,1.84,1.43.25,3.46-3.31,7.32-1.35,3.26,1.66,3.77,14.77,2.98,15.52Z"/>
      <path class="cls-1" d="M372.96,103.34c6.35-1.6,3.1,8.11,4,9,.35.35,6.02-.27,7.43.01l.58-9.02h3v22.01h-3s-.58-10.02-.58-10.02h-7.43c-.74,4.88,2.7,11.65-3.99,10.02v-22Z"/>
      <path class="cls-1" d="M232.96,158.34c-3.67-1.76-5.33.43-7.73.83-9.59,1.61-8.7-22.76,3.72-15.83.29-1.48-.37-7.6.01-7.99.58-.6,3.99.44,3.99,1.5v21.5ZM223.2,155.11c5.73,6.22,9.57-13.75.75-9.29-2.74,1.39-2.57,7.31-.75,9.29Z"/>
      <path class="cls-1" d="M434.96,102.34c5.31-.74,3.95,4.28,4.01,8,9.37-6.99,10.55,13.51,8.99,15.01-.14.14-3.85.14-3.99,0-1.01-.97,2.48-14.88-3.5-13-3.04.96-.7,12.22-1.51,13-.14.14-4,.2-4,0v-23Z"/>
      <path class="cls-1" d="M129.96,142.34c3.03,1.24,8.68-1.11,11.05.46,1.73,1.15,2.94,13.89,5.05,8.14,1.44-3.91.49-10.99,5.91-8.09-1.59,2.07-4.48,14.87-5.11,15.38-5.28,4.28-7.18-13.88-8.42-13.91-7.6,1.51-5.23,8.13-5.49,14.02h-3v-16.01Z"/>
      <path class="cls-1" d="M275.96,102.34v23c-5.39-1.74-8.15,3.94-12.22-2.27-4.57-6.97.71-17.1,9.21-12.73v-8s3.01,0,3.01,0ZM271.71,122.08c2.55-2.65,1.56-10.79-3.06-9.64-5.66,1.41-2.12,15.04,3.06,9.64Z"/>
      <path class="cls-1" d="M171.96,102.34h3s.01,9,.01,9c9.86-8.02,14.91,8.95,7.38,13.9-3.83,2.51-6.18-1.67-10.39.1v-23ZM176.21,122.08c5.24,5.45,8.23-8.33,4.14-9.67-5.11-1.68-6.97,6.73-4.14,9.67Z"/>
      <path class="cls-1" d="M57.96,102.34h3s.01,9,.01,9c9.7-8.08,15.05,10.34,6.75,14.27-4.12,1.95-5.62-1.94-9.76-.27v-23ZM62.2,122.08c6.13,6.38,9.32-13.59.74-9.26-2.73,1.38-2.58,7.34-.74,9.26Z"/>
      <path class="cls-1" d="M211.86,136.44c.88.72,6.91,21.1,6.09,21.89-3.1,2.97-4.76-5.63-5.12-5.87-.54-.35-6.58-.32-6.82-.08-1,.97,1.19,7.95-5.05,5.94,3.28-4.88,4.01-17.39,6.9-21.39.67-.94,3.47-.93,4.01-.5ZM211.95,149.33c.33-.28-1.48-7.81-2.99-7.99l-2.01,7.98h5Z"/>
      <path class="cls-1" d="M163.82,103.48c.97.59,5.8,19.04,6.13,21.85-5.66,1.14-1.52-5.74-7.48-6.09-7.34-.43-2.51,7.03-8.51,6.09.79-2.84,5.21-21.17,6.09-21.89.39-.32,3.19-.31,3.76.04ZM162.95,109.33c-2.05-2.53-3.05,6.31-2.99,7h3.99l-1-7Z"/>
      <path class="cls-1" d="M321.96,109.34c1.17-1.14,3.27.58,3.49,2,9.14-9.62,11.44,12.16,9.51,14-.14.14-3.85.14-3.99,0-1.01-.97,2.48-14.88-3.5-13-3.04.96-.7,12.22-1.51,13-.14.14-4,.2-4,0,0-2.27-.57-15.44,0-16Z"/>
      <path class="cls-1" d="M200.96,125.34c-14.96,3.03-13.37-3.67-13-16.01h2.99c-1.81,18.22,8,18.64,6.01.01,1.12-.42,3.99.43,3.99,1.5v14.5Z"/>
      <path class="cls-1" d="M357.95,125.33c-3.11-1.65-5.11,1.1-7.39,1.02-6-.21-6.68-8.23-.61-10.56,2.88-1.11,4.75.97,4.01-3.46-15.12,1.42-2.05-6.84,2.48-.99,2.75,3.55,1.1,9.7,1.51,13.98ZM353.95,118.34c-3.82-2.17-6.67,4.14-3.48,4.99s3.91-2.57,3.48-4.99Z"/>
      <path class="cls-1" d="M244.95,125.33c-3.18-1.58-4.91.97-7.4,1-5.35.05-6.9-8.11-.6-10.53,2.88-1.11,4.76.97,4.01-3.46-15.12,1.42-2.05-6.84,2.48-.99,2.75,3.55,1.1,9.7,1.51,13.98ZM240.95,118.34c-3.82-2.17-6.67,4.14-3.48,4.99s3.91-2.57,3.48-4.99Z"/>
      <path class="cls-1" d="M183.96,151.33h-10c-.7,7.22,8.58,3.58,8.99,4.01,2.77,2.92-4.5,4.75-8.27,2.78-12.93-6.76,7.15-28.74,9.28-6.79ZM179.96,145.34c-3.6-.23-5.05-.78-6,2.99h6.01s0-2.99,0-2.99Z"/>
      <path class="cls-1" d="M104.95,125.33c-3.04-1.63-5.44.9-7.48.93-5.72.08-6.7-8.1-.52-10.47,2.88-1.11,4.75.97,4.01-3.46-15.12,1.42-2.05-6.84,2.48-.99,2.75,3.55,1.1,9.7,1.51,13.98ZM100.95,118.34c-6.6-1.65-6.06,6.37-1.51,4.98,1.66-.51,1.68-3.51,1.51-4.98Z"/>
      <path class="cls-1" d="M111.96,136.34v2.99c-2.94.31-7.91-1.5-7.61,2.52.36,4.72,11.96,4.91,8.08,13.47-2.74,6.05-14.96,3.58-11.47.02.4-.4,9.03,2.49,9.05-2.49.01-4.15-8.53-4.45-9.05-10.12-.6-6.54,5.95-6.99,11.01-6.39Z"/>
      <path class="cls-1" d="M38.95,107.33c-.26.35-6.18-3.16-7.78,1.48-.26,3.36,13.23,6.45,7.86,14.85-2.8,4.39-14.42,2.18-11.07-1.33.62-.65,9.03,3.13,9.02-2.51,0-4.37-9.42-4.49-9.01-10.93.53-8.31,14.39-6.11,10.97-1.57Z"/>
      <path class="cls-1" d="M125.7,143.6c1.01.95,3.02,6.95,2.26,7.73-2.48.15-5.04-.19-7.52,0-1.51.12-2.87-.78-2.49,1.51.99,6.07,8.08,1.53,9.01,2.49,2.79,2.91-4.6,4.51-8.23,2.77-9.64-4.62-.79-21.82,6.98-14.51ZM123.95,148.33c-.13-3.99-4.99-4.38-5.99-.49l5.99.49Z"/>
      <path class="cls-1" d="M357.7,143.6c6.27,5.87-.16,19.79-8.68,14.17s.79-21.56,8.68-14.17ZM355.7,155.07c2.25-2.63,1.1-11.31-4.09-9.62-5.59,1.82-1.09,15.66,4.09,9.62Z"/>
      <path class="cls-1" d="M265.96,142.34c13.95-1.24,13.55,3.49,13,16-.97-.17-3.74.24-3.99,0-.47-.45.34-11,0-13.01-8.1-2.05-5.56,7.36-6.01,13.01h-3v-16.01Z"/>
      <path class="cls-1" d="M361.96,142.34c7.52,1.27,12.08-2.83,13.05,7.45.43,4.53,1.35,10.27-4.04,8.55-.35-2.01.46-12.56,0-13.01-.33-.31-3.14,0-4,.5-2.93,1.7-1.8,9.49-2,12.51h-3v-16.01Z"/>
      <path class="cls-1" d="M319.96,118.33c-.39.4-8.32-.3-10,.01.16,7.6,8.61,3.55,8.99,3.99.21.24.34,2.36-.59,3.08-7.18,5.48-17.53-9.35-7.78-14.96,7.55-4.35,11.17,6.06,9.39,7.88ZM315.84,112.46c-1.3-1.06-5.64.25-4.88,2.87h5.99c-.48-.66-1-2.77-1.12-2.87Z"/>
      <path class="cls-1" d="M54.96,125.34c-4.1-1.84-7.49,2.89-10.98-.53-3.97-3.88-2.12-20.12,1.51-14.5,1.72,2.67-1.93,14.68,3.88,12.94,3.66-1.1,2.43-10.89,2.6-13.92h3v16.01Z"/>
      <path class="cls-1" d="M226.95,118.33h-9.99c-1.11,7.49,8.1,3.17,8.99,5.52,1.27,3.39-7.44,2.45-10.07.06-9.86-8.97,8.92-24.75,11.07-5.58ZM222.95,115.33c.18-4.2-6.17-4.2-5.99,0h5.99Z"/>
      <path class="cls-1" d="M146.96,118.34h-9c-.34,5.11,4.19,6.13,7.99,4-.52,8.12-12.03,2.82-12.05-4.5-.04-10.96,15.41-11.68,13.07.5ZM143.95,115.33c.18-4.2-6.17-4.2-5.99,0h5.99Z"/>
      <path class="cls-1" d="M414.72,110.57c2.7,2.69-.12,11.23,2.24,14.75-4.65-.55-10.82,3.58-12.6-2.96-.57-2.1.98-4.33,2.62-5.51,1.82-1.31,6.91-1.1,5.97-3-1.54-3.14-6.99.32-6.98-3,1.5-2.41,7.21-1.81,8.75-.28ZM412.95,118.34c-2.19-2.1-7.08,2.81-4.99,4.99,1.64,1.71,6.7-3.35,4.99-4.99Z"/>
      <path class="cls-1" d="M403.95,118.33h-9.99c-1.11,7.49,8.11,3.17,8.99,5.52,1.2,3.22-6.4,2.17-8.26,1.24-12.54-6.29,5.45-28.34,9.26-6.76ZM399.95,115.33c.18-4.2-6.17-4.2-5.99,0h5.99Z"/>
      <path class="cls-1" d="M327.96,158.34c-13.34,3.79-16.63-8.74-3.01-10.01.63-4.55-6.29-2.4-6.99-3-.4-4.35,8.07-3.94,9.5-1,1.57,3.22-.1,10.22.5,14.01ZM324.95,150.34c-.53-.58-3.99,1.16-4.49,2-3.67,6.16,5.94,4.91,4.49-2Z"/>
      <path class="cls-1" d="M118.72,110.58c2.34,2.34.8,11.32,1.23,14.76h-2.99c2.11-17.79-8.22-17.99-6.01,0h-2.99s-.53-15.01-.53-15.01c.75-1.12,9.86-1.18,11.28.25Z"/>
      <path class="cls-1" d="M247.96,109.34c3.14,1.81,6.47-.61,9.28.15,4.67,1.27,2.09,11.91,2.71,15.85h-2.99c-.8-4.06,2.53-13.14-3.52-13.08-3.82.04-2.14,10.51-2.49,13.08h-3v-16.01Z"/>
      <path class="cls-1" d="M429.95,105.33c.47.5-1.41,4.52,3.99,5.52.62,2.88-3.4.88-4,1.48-.37.37-.27,9.39-.06,10.46.23,1.2,2.72.23,3.07.55-.12,3.32-1.92,3.5-4.37,1.87-4.36-2.91-1.78-8.37-2.65-12.2-.18-.79-1.89-.75-2-1.18-.4-1.49,4.21-8.42,6.01-6.49Z"/>
      <path class="cls-1" d="M88.95,105.33c.35.37-.5,3.3.1,3.96.39.43,2.66-.19,2.91.05,2.55,2.51-2.97,3.21-3.06,3.54-.21.74-.2,8.9,0,9.91.23,1.2,2.72.23,3.07.55.72,3.75-4.84,3.06-6.09,1.35-1.94-2.65-.24-8.66-.93-11.69-.18-.79-1.89-.75-2-1.19-.39-1.48,4.18-8.41,6.01-6.49Z"/>
      <path class="cls-1" d="M341.95,105.33c.35.37-.5,3.3.1,3.96.39.43,2.66-.19,2.91.05,2.55,2.51-2.97,3.21-3.06,3.54-.21.74-.2,8.9,0,9.91.23,1.2,2.72.23,3.07.55-.12,3.32-1.92,3.5-4.37,1.87-4.36-2.91-1.78-8.37-2.65-12.2-.18-.79-1.89-.75-2-1.18-.39-1.48,4.18-8.41,6.01-6.49Z"/>
      <path class="cls-1" d="M133.95,112.33c-8.72-2.92-11.13,9.28-4.27,10.73,1.78.38,4.44-1.71,4.27,2.26-9.21,3.93-16-6.97-9.44-13.94,2.29-2.43,9.25-3.87,9.44.94Z"/>
      <path class="cls-1" d="M334.95,138.33c.35.36-.34,3.68,0,4.02s3.66-.36,4.02,0c.11.11.11,2.89,0,2.99-.36.35-3.66-.34-4.02,0-.39.37-.37,9.41.99,10.5.76.61,2.8-2.48,2.01,3.5-9.64.23-4.55-8.62-5.93-13.45-.09-.33-5.62-1.04-3.06-3.54.25-.24,2.51.38,2.91-.05.59-.65-.26-3.58.09-3.96.1-.11,2.89-.11,2.99,0Z"/>
      <path class="cls-1" d="M193.96,142.34v2.99c-2.55.16-6.2-1.19-5.03,2.51.4,1.26,8.29,2.18,5.32,8.24-2.48,5.06-12.11,2.62-9.29-.74.33-.39,7.27,3.23,6.75-1.53-.16-1.46-17.08-10.79,2.24-11.47Z"/>
      <path class="cls-1" d="M302.95,138.33c.35.36-.34,3.68,0,4.02s3.66-.36,4.02,0c.11.11.11,2.89,0,2.99-.36.35-3.66-.34-4.02,0-.34.32-.18,8.5.13,9.38.75,2.09,3.65,1.39,3.88,1.63.82.83-.82,2.96-2.46,2.99-7.06.16-3.67-9.49-4.56-13.33-.21-.93-2.77-.27-2-3.16.07-.27,3.46-1.1,2.02-4.52.81.13,2.81-.18,2.99,0Z"/>
      <path class="cls-1" d="M169.96,142.34v2.99c-5.51-1.48-9.94,2.64-7.5,7.97,2.15,4.69,7.03,1.55,7.49,2.04,3.43,3.63-8.74,6.2-10.78-.71-2.35-7.93,2.65-13.88,10.79-12.29Z"/>
      <path class="cls-1" d="M81.95,112.33c-13.47.39,1.58,4.18.87,9.27-.99,7.11-12.96,4.45-9.86.74.32-.38,9.33,3.57,5.78-2.8-.72-1.28-7.57-1.95-5.31-7.17,1.46-3.37,8.42-5.02,8.52-.05Z"/>
      <path class="cls-1" d="M290.95,145.34c-2.42,2.42,3.02,3.67,3.97,4.52,4.19,3.77,1.79,8.63-3.6,9.15-.83.08-5.05-.12-4.35-2.16.85-2.29,7.85,1.1,6.99-3-.35-1.65-7.33-3.82-6.55-7.6,1.11-5.31,9.55-4.54,9.53-2.41s-5.77,1.28-5.99,1.5Z"/>
      <path class="cls-1" d="M211.95,112.33c-14.21-.12-1.64,3.64-.49,6,3.28,6.68-6.7,9.62-8.43,6.9-3.2-5.02,5.17-1.12,5.91-1.91,1.91-5.56-4.83-3.97-5.86-7.71-1.66-6.04,7.64-9.38,8.86-3.29Z"/>
      <path class="cls-1" d="M307.96,143.84c.36-1.23,5.98-1.52,7.48-1.52,3.71.02-3.12,5.12-3.3,5.7-1.48,4.77,2.91,11.99-4.18,10.31v-14.5Z"/>
      <rect class="cls-1" x="360.96" y="103.34" width="3" height="22"/>
      <path class="cls-1" d="M343.96,142.34v16c0,.2-4,.2-4,0v-16c0-.2,3.28.13,4,0Z"/>
      <path class="cls-1" d="M156.96,158.34c-.14.14-4,.2-4,0v-16c1.16-.4,4,.44,4,1.5,0,2.1.52,14,0,14.5Z"/>
      <rect class="cls-1" x="281.96" y="142.34" width="3" height="16"/>
      <rect class="cls-1" x="259.96" y="142.34" width="3" height="16"/>
      <rect class="cls-1" x="419.96" y="103.34" width="2" height="22"/>
      <path class="cls-1" d="M343.95,140.33c-.43.43-5.27.96-3.98-2.48,1.43-3.85,5.63.84,3.98,2.48Z"/>
      <path class="cls-1" d="M262.95,140.33c-1.93,1.93-6.18-3.18-2.48-3.99,2.11-.46,3.21,3.26,2.48,3.99Z"/>
      <path class="cls-1" d="M152.96,140.33c-.73-.73.37-4.45,2.48-3.99,3.7.81-.55,5.92-2.48,3.99Z"/>
      <path class="cls-1" d="M284.95,140.33c-1.74,1.74-5.31-2.15-2.99-3.99,1.6-1.26,4.13,2.85,2.99,3.99Z"/>
    </g>
  </g>
</svg>