<?xml version="1.0" encoding="UTF-8"?>
<svg id="Layer_2" data-name="Layer 2" xmlns="http://www.w3.org/2000/svg" viewBox="0 0 394.23 126.95">
  <g id="Layer_1-2" data-name="Layer 1">
    <g>
      <path d="M86.5,0c2.2.62,7.97,25.85,9.99,25.98.56.04,9.1-5.63,9.42-6.09.6-.83-4.83-17.12-4.92-19.89h26v126H0v-30.5l36.01-26.01c.49-1.96-.69-1.31-1.28-1.76C23.95,59.47,10.82,52.91,0,44.5V0h86.5ZM74.01,41c1.5,1.09,12.66-8.09,14.86-9.48L75.99,1c-2.27,1.96-18.7,10.21-18.99,11.55-.44,2.02,16.35,23.82,17.01,28.45ZM66.95,47.93c.53-.75-.65-2.44-1.12-3.26-1.52-2.68-17.92-25.14-19.46-25.61-2.77-.86-27.99,17.16-33.37,17.96l32.5,25.82c5.79-4.52,11.8-8.78,17.76-13.07,1.04-.75,3.56-1.67,3.68-1.83ZM108.01,62c1.14-1.19,4.95-3.09,5.51-3.99,1.99-3.2-4.46-20.15-4.53-25.01-1.85,2-7.9,5.03-7.96,7.45-.11,4.4,7.35,15.85,6.98,21.55ZM94.99,45c-.81-.58-11.99,6.87-12.06,7.58-.09.91.23,1.6.59,2.39.73,1.57,10.02,17.09,11.04,17.09,1.17,0,8.47-5.18,8.53-5.69.47-4.42-7.81-16.01-8.09-21.37ZM57,72.99c3.85.25,18.27,15,19.5,15,.89,0,11.06-10.47,13.49-11.49l-12.96-17.04c-.43-.41-.94-.53-1.52-.52-1.75.03-16,11.94-18.51,14.05ZM116.01,84c.25.3,3.83-2.5,3.77-4.27s-3.14-14.75-4.28-14.71c-.37.01-4.47,4.08-4.35,5.3.07.72,4.4,13.12,4.86,13.68ZM106.1,90.89c1.79,1.2,5.8-2.24,5.86-4.34.11-3.6-4.93-9.42-4.97-13.55-3.05,1.48-4.41,5.55-7.99,6.01,2.05,1.54,6.21,11.28,7.11,11.88ZM20,100.99l29.48,8.04c1.17-.11,16.58-12.66,18.54-14.51.79-.75,2.27-1.78,1.98-2.99s-17.72-11.75-20.32-13.39l-29.67,22.85ZM95.98,84c-.95-.68-1.84.49-2.49.99-1.37,1.04-9.48,7.87-9.48,8.51,0,.68,10,8.24,10.66,8.39s8.03-5.66,8.21-6.51c.36-1.76-4.53-7.12-5.89-8.91-.73-.97-.9-2.38-1.01-2.45ZM122,87c-7.53.95-.59,9.5.5,13.99,3.69-3.8-1.59-9.34-.5-13.99ZM114.99,92c-1.12.5-4.73,3.78-4.77,4.48-.05.77,5.74,9.85,7.24,9.5.39-.09,2.25-1.98,2.28-2.47.1-1.26-4.89-9-4.75-11.51ZM63,112.99c3.66-.18,12.55,4.36,15.38,3.81.83-.16,12.6-10.45,12.61-11.3,0-.73-10.86-7.77-12.29-7.4-1.61.41-13.76,12.54-15.69,14.89ZM100,106.98c.08.11,1.53.21,2.47.99,1.08.89,6.56,5.99,7.02,6,.32,0,4.31-4.09,4.41-4.6.18-.84-5.92-9.22-6.48-9.35-1.19-.28-8.66,5.31-7.43,6.97ZM96.49,109.23c-.7.05-10.45,8.57-10.47,9.27-.03.88,13.24,4.64,14.29,4.37.63-.16,6.68-5.91,6.68-6.37,0-.7-9.75-7.32-10.5-7.27Z"/>
      <path d="M191,65c.29-.3,5.87-.11,7.02.48,2.22,1.15,5.52,8.87,8.49,10.51,1.36-1.74-.14-10.36.49-11,.35-.35,8-.33,8,1.5v23.5c-2.33-.29-6.03.72-8.01-.49-1.81-1.11-7.78-11.55-8.49-11.52-1.29.06.05,11.47-.5,12.01-.25.25-7,.35-7,0,0-3.43-.88-24.11,0-25Z"/>
      <path d="M341,66.5c.52-1.99,5.98-1.8,7.81-1.3l9.18,11.8c.33-1.88-.42-11.58,0-12,.25-.25,7-.35,7,0v25c-9.45,2.22-10.05-6.52-15.99-11-.32,1.78.41,10.59,0,11-.28.28-8,.4-8,0,0-5.33-1.04-19.5,0-23.5Z"/>
      <path d="M271,66.5c.52-1.99,5.98-1.8,7.81-1.3l9.18,11.8c.33-1.88-.42-11.58,0-12,.25-.25,7-.35,7,0v25c-9.15,2.25-10.04-6.65-15.99-11-.32,1.78.41,10.59,0,11-.28.28-8,.4-8,0,0-5.33-1.04-19.5,0-23.5Z"/>
      <path d="M180.5,101c5.96.92,8.95,6.22,7.05,12.06-.64,1.97-3.75,3.85-3.44,5.26.2.93,5.48,7.18,4.89,7.67-.32.27-7.34.19-8.35-.14-2.31-.76-3.24-6.8-6.14-6.86-1.3-.03.51,5.28-1.44,6.57-1.59,1.06-5.08.2-7.06.44v-25c4.51.48,10.17-.67,14.5,0ZM179.91,108.08c-.27-.2-5.7-.29-5.91-.08-.18.18-.16,4.82,0,5.01.48.55,4.34-.09,5.57-.96,1.48-1.04,1.05-3.43.33-3.97Z"/>
      <path d="M195.32,104.32c5.48-5.48,17.41-4.64,21.53,2.32,6.73,11.36-4.86,23.87-17.06,19.06-8.34-3.29-10.81-15.05-4.47-21.38ZM202.69,108.19c-3.83,1.15-4.04,8.4.05,10.59,10.01,5.34,11.62-14.08-.05-10.59Z"/>
      <path d="M389.98,74c-.86.64-3.1-1.71-4.51-1.98-8.97-1.7-10.34,8.81-5.24,11.25,1.26.6,6.19,1.23,6.77.73.11-.1.12-2.9,0-2.99-.46-.39-4.64.37-5.01,0-.21-.21-.21-5.8,0-6.01.42-.42,11.58-.42,12.01,0,.47.47.17,12.5-.62,13.1-6.25,4.76-19.3,3.49-22.63-4.35-5.62-13.22,10.15-24.44,20.6-16.6,3.07,2.31,1.09,2.64-.8,4.96-.52.64-.49,1.84-.57,1.9Z"/>
      <path d="M215,30c.21.21.22,5.79,0,6-.54.53-12.32-.58-13.01,0-.11.1-.11,2.9,0,2.99.64.54,10.51-.5,11.01,0,.21.21.21,5.8,0,6.01-.5.5-10.37-.54-11.01,0-.11.1-.11,2.9,0,2.99.69.58,12.47-.54,13.01,0,.25.25.35,7,0,7h-21v-25c2.91.56,20.26-.74,21,0Z"/>
      <path d="M184.5,65c1.81.47,2.27,5.44.56,6.56-2.17,1.42-11.19-.29-12.06.44-.11.1-.11,2.9,0,2.99.64.54,10.51-.5,11.01,0,.21.21.21,5.8,0,6.01-.5.5-10.37-.54-11.01,0-.11.1-.11,2.9,0,2.99.69.58,12.47-.54,13.01,0,.21.21.3,6,0,6h-21v-25c5.33.9,14.78-1.23,19.5,0Z"/>
      <path d="M263,101c.25.25.25,6.76,0,7-.52.52-11.34-.56-12.01,0-.11.1-.11,2.9,0,2.99.64.54,10.51-.5,11.01,0,.21.21.21,5.8,0,6.01-.5.5-10.37-.54-11.01,0-.11.1-.11,2.9,0,2.99.69.58,12.47-.54,13.01,0,.21.21.3,6,0,6h-21v-25c2.8.53,19.29-.71,20,0Z"/>
      <path d="M165,30c.28-.28,7.72-.29,8,0,.59.59-.89,8.81.56,9.02,1.09.16,7.18.25,7.44,0,.44-.44-.45-8.57,0-9.01.25-.25,7-.35,7,0v25c0,.35-6.76.25-7,0-.45-.46.46-9.55,0-10.01-.28-.28-7.73-.28-8.01,0-.45.46.46,9.55,0,10.01-.35.35-8,.33-8-1.5,0-3.27-.83-22.67,0-23.5Z"/>
      <path d="M266,65c.25.25.25,6.76,0,7-.54.53-12.32-.58-13.01,0-.11.1-.11,2.9,0,2.99.67.56,11.49-.52,12.01,0,.21.21.21,5.8,0,6.01-.52.52-11.34-.56-12.01,0-.11.1-.11,2.9,0,2.99.69.58,12.47-.54,13.01,0,.21.21.3,6,0,6h-20v-25c2.8.53,19.29-.71,20,0Z"/>
      <path d="M138,86.99c3.71-9.15,7.77-1.47,15-2.99-1.63-3.44-6.33-2.76-9.28-4.21-10-4.93-1.93-19,11.75-13.74,4.59,1.76,4.51,5.76.54,7.51-.89.39-9.14-4.12-8.99-1.04.14,2.88,14.61.5,12.94,11.94-1.37,9.35-16.26,6.71-21.95,2.55Z"/>
      <path d="M154.5,101c8.58,1.74,9.54,15.73-.22,17.78-1.64.34-6.07,0-6.29.21-.4.39.41,6.61,0,7.01-.28.28-8,.4-8,0v-25c4.31.59,10.49-.81,14.5,0ZM148,113c.88.98,6.49-.9,5.99-3.49-.33-1.73-5.69-1.88-5.99-1.52-.16.19-.16,4.82,0,5.01Z"/>
      <path d="M309.23,82.77c3.64,3.78,7.98-1.39,9.27-1.47,1.14-.07,5.49,3.63,5.49,4.2,0,.82-5.2,4.11-6.44,4.55-21.09,7.49-25.52-29.16-1.28-24.81,1.95.35,7.18,2.81,6.66,5.13-.09.43-3.47,3.97-3.92,4.18-1.78.82-3.59-3.61-8.06-2.13-4.19,1.38-4.26,7.72-1.73,10.35Z"/>
      <path d="M291,106.98c-.18.25-5.17,3.06-5.48,3.05-1.21-.03-2.44-1.63-4.06-2.01-7.16-1.66-8.62,8.62-3.19,11.24,4.83,2.33,7.49-5.62,12.27.71,2.56,3.39-8.13,7.11-10.96,6.98-12.68-.58-17.35-17.63-6.53-24.4,6.55-4.1,20.45.98,17.95,4.44Z"/>
      <path d="M241,65c.25.25.25,6.76,0,7-.33.33-5.64-.24-7,0v18c0,.4-8,.4-8,0v-18c-1.36-.23-6.67.34-7,0-.25-.25-.35-7,0-7,3.07,0,21.22-.78,22,0Z"/>
      <path d="M316,101c.25.25.25,6.76,0,7-.33.33-5.64-.24-7,0v18c0,.4-8,.4-8,0v-18c-1.36-.23-6.67.34-7,0-.25-.25-.35-7,0-7,3.07,0,21.22-.78,22,0Z"/>
      <path d="M161,30c.21.21.22,5.79,0,6-.33.33-5.64-.24-7,0v19c0,.4-8,.4-8,0v-19c-1.36-.23-6.67.34-7,0-.21-.21-.3-6,0-6,3.07,0,21.22-.78,22,0Z"/>
      <path d="M237,101v20.5c0,.32-3.84,4.06-4.69,4.31-3.18.94-11.13.47-12.87-2.79-1.15-2.16,2.54-4.66,4.22-4.84s4.37,2.54,5.33,1.82c.11-.08,1.01-2.37,1.01-2.5v-16.5c0-.35,6.03.25,7,0Z"/>
      <path d="M335,65v25c0,.35-7,.35-7,0v-25c0-.35,6.03.25,7,0Z"/>
    </g>
  </g>
</svg>