<?xml version="1.0" encoding="UTF-8"?>
<svg id="Layer_2" data-name="Layer 2" xmlns="http://www.w3.org/2000/svg" viewBox="0 0 825 880.9">
  <defs>
    <style>
      .cls-1 {
        fill: #205781;
      }

      .cls-2 {
        fill: #4d8dca;
      }
    </style>
  </defs>
  <g id="Layer_1-2" data-name="Layer 1">
    <g>
      <path class="cls-2" d="M0,0v300h825V0H0ZM186,262l-12.61-39.06-73.75.2-14.14,38.86h-45.5L118.5,39c.72-1.12,1.85-.91,2.95-1.05,5.77-.72,23.34-.72,29.11,0,1.1.14,2.23-.07,2.95,1.05l78.5,223h-46ZM295.29,200.21c11.22,35.17,63.6,28.1,67.71-8.21h45c-6.44,55.66-61.26,87.44-113.26,65.76-53.22-22.18-48.1-79.83-47.18-128.26.85-44.45,15.72-84.58,65.04-92.4,49.76-7.89,88.35,21.71,95.4,70.9h-45c-5.31-38-58.84-43.13-68.51-5.01-4.66,18.38-4.81,79.65.79,97.22ZM591,262h-142V38h44v183h98v41ZM771,195.5c0,3.19-2.41,12.08-3.49,15.51-24.91,78.84-150.47,69.02-156.5-21.52V38s43.99,0,43.99,0v150.5c0,11.07,8.93,26.21,19,31,24.94,11.86,54-4.8,54-33V38h43v157.5Z"/>
      <polygon class="cls-2" points="112 184 162 184 136.51 109.99 112 184"/>
    </g>
    <g>
      <g>
        <path class="cls-1" d="M41.45,473.37v-109.73h25.02l19.68,40.21c5.62,11.56,11.1,25.24,15.46,37.61h.28c-1.27-14.49-1.69-29.31-1.69-45.91v-31.91h19.68v109.73h-22.49l-20.24-42.33c-5.62-11.72-11.95-25.89-16.44-38.75h-.56c.7,14.65.98,30.12.98,48.03v33.05h-19.68Z"/>
        <path class="cls-1" d="M174.55,445.2l-6.75,28.17h-22.07l28.81-109.73h28.11l29.52,109.73h-23.19l-7.31-28.17h-27.13ZM198.59,426.64l-5.9-23.28c-1.69-6.51-3.37-14.65-4.78-21.17h-.28c-1.41,6.51-2.81,14.82-4.36,21.17l-5.62,23.28h20.94Z"/>
        <path class="cls-1" d="M265.49,384.48h-25.58v-20.84h72.81v20.84h-25.86v88.89h-21.36v-88.89Z"/>
        <path class="cls-1" d="M359.65,363.64v109.73h-21.36v-109.73h21.36Z"/>
        <path class="cls-1" d="M478.98,417.36c0,36.14-18.69,57.8-46.52,57.8s-44.56-24.58-44.56-56.01,18.27-57.47,46.1-57.47,44.98,25.24,44.98,55.68ZM410.53,418.67c0,21.65,8.71,36.79,23.05,36.79s22.77-15.96,22.77-37.28c0-19.86-8.01-36.79-22.77-36.79s-23.05,15.96-23.05,37.28Z"/>
        <path class="cls-1" d="M507.09,473.37v-109.73h25.02l19.68,40.21c5.62,11.56,11.1,25.24,15.46,37.61h.28c-1.27-14.49-1.69-29.31-1.69-45.91v-31.91h19.68v109.73h-22.49l-20.24-42.33c-5.62-11.72-11.95-25.89-16.44-38.75h-.56c.7,14.65.98,30.12.98,48.03v33.05h-19.68Z"/>
        <path class="cls-1" d="M640.19,445.2l-6.75,28.17h-22.07l28.81-109.73h28.11l29.52,109.73h-23.19l-7.31-28.17h-27.13ZM664.22,426.64l-5.9-23.28c-1.69-6.51-3.37-14.65-4.78-21.17h-.28c-1.41,6.51-2.81,14.82-4.36,21.17l-5.62,23.28h20.94Z"/>
        <path class="cls-1" d="M724.51,363.64h21.36v88.89h37.67v20.84h-59.03v-109.73Z"/>
      </g>
      <g>
        <path class="cls-1" d="M41.5,560.62c6.64-1.3,15.97-2.28,29.11-2.28s22.75,2.93,29.11,8.79c6.22,5.54,10.17,14.65,10.17,25.4s-2.97,20.03-8.76,26.05c-7.35,7.82-18.23,11.56-30.94,11.56-2.83,0-5.37-.16-7.35-.65v39.4h-21.34v-108.27ZM62.83,610.44c1.84.49,3.96.65,7.21.65,11.44,0,18.51-6.68,18.51-17.75,0-10.1-6.08-16.12-16.95-16.12-4.24,0-7.21.33-8.76.81v32.4Z"/>
        <path class="cls-1" d="M137.72,560.62c6.92-1.3,17.1-2.28,28.68-2.28,14.13,0,24.02,2.44,30.8,8.63,5.79,5.21,8.9,13.02,8.9,23.12,0,13.84-8.62,23.44-16.81,26.86v.49c6.64,3.09,10.31,10.26,12.72,20.35,2.97,12.54,5.79,26.86,7.63,31.1h-22.04c-1.41-3.26-3.82-12.05-6.5-25.56-2.68-13.84-6.78-17.42-15.68-17.58h-6.36v43.14h-21.34v-108.27ZM159.05,607.84h8.48c10.74,0,17.1-6.19,17.1-15.79s-5.93-15.14-15.82-15.14c-5.23,0-8.2.33-9.75.81v30.12Z"/>
        <path class="cls-1" d="M257.25,559.16v109.73h-21.48v-109.73h21.48Z"/>
        <path class="cls-1" d="M290.73,643.33c5.65,3.42,14.69,6.84,23.88,6.84,9.89,0,15.12-4.72,15.12-11.88s-4.52-10.75-15.97-15.31c-15.83-6.51-26.28-16.61-26.28-32.56,0-18.72,13.71-32.89,36.03-32.89,10.88,0,18.65,2.44,24.3,5.54l-4.8,19.86c-3.67-2.12-10.6-5.21-19.78-5.21s-13.85,5.05-13.85,10.58c0,7,5.23,10.09,17.66,15.47,16.82,7.16,24.59,17.26,24.59,32.72,0,18.4-12.15,34.03-38.29,34.03-10.88,0-21.62-3.42-26.99-6.84l4.38-20.35Z"/>
        <path class="cls-1" d="M467.63,612.88c0,36.14-18.79,57.8-46.77,57.8s-44.79-24.58-44.79-56,18.37-57.47,46.34-57.47,45.21,25.24,45.21,55.68ZM398.82,614.19c0,21.65,8.76,36.79,23.17,36.79s22.89-15.95,22.89-37.28c0-19.86-8.05-36.79-22.89-36.79s-23.17,15.96-23.17,37.28Z"/>
        <path class="cls-1" d="M495.88,668.89v-109.73h25.15l19.78,40.21c5.65,11.56,11.16,25.24,15.54,37.61h.28c-1.27-14.49-1.7-29.31-1.7-45.91v-31.91h19.78v109.73h-22.61l-20.35-42.33c-5.65-11.72-12.01-25.89-16.53-38.75h-.57c.71,14.65.99,30.12.99,48.03v33.05h-19.78Z"/>
      </g>
      <g>
        <path class="cls-1" d="M41.74,770.84c6.81-1.3,16.38-2.28,29.85-2.28s23.33,2.93,29.86,8.79c6.38,5.54,10.43,14.65,10.43,25.4s-3.04,20.03-8.99,26.05c-7.54,7.82-18.7,11.56-31.74,11.56-2.9,0-5.51-.16-7.54-.65v39.4h-21.88v-108.27ZM63.62,820.66c1.88.49,4.06.65,7.39.65,11.74,0,18.99-6.68,18.99-17.75,0-10.1-6.23-16.12-17.39-16.12-4.35,0-7.39.33-8.99.81v32.4Z"/>
        <path class="cls-1" d="M140.43,770.84c7.1-1.3,17.54-2.28,29.42-2.28,14.49,0,24.64,2.44,31.59,8.63,5.94,5.21,9.13,13.02,9.13,23.12,0,13.84-8.84,23.44-17.25,26.86v.49c6.81,3.09,10.58,10.26,13.04,20.35,3.04,12.54,5.94,26.86,7.83,31.1h-22.61c-1.45-3.26-3.91-12.05-6.67-25.56-2.75-13.84-6.96-17.42-16.09-17.58h-6.52v43.14h-21.88v-108.27ZM162.32,818.05h8.7c11.01,0,17.54-6.19,17.54-15.79s-6.09-15.14-16.23-15.14c-5.36,0-8.41.33-10,.81v30.12Z"/>
        <path class="cls-1" d="M329.71,823.1c0,36.14-19.28,57.8-47.97,57.8s-45.94-24.58-45.94-56,18.84-57.47,47.54-57.47,46.38,25.24,46.38,55.68ZM259.13,824.4c0,21.65,8.99,36.79,23.77,36.79s23.48-15.95,23.48-37.28c0-19.86-8.26-36.79-23.48-36.79s-23.77,15.96-23.77,37.28Z"/>
        <path class="cls-1" d="M377.83,769.37h22.03v69.36c0,31.26-13.33,42.17-34.64,42.17-5.22,0-11.88-.98-16.23-2.6l2.46-20.03c3.04,1.14,6.96,1.95,11.31,1.95,9.28,0,15.07-4.72,15.07-21.65v-69.19Z"/>
        <path class="cls-1" d="M490.87,832.71h-35.94v26.05h40.15v20.35h-62.17v-109.73h60.14v20.35h-38.12v22.79h35.94v20.19Z"/>
        <path class="cls-1" d="M596.23,876.18c-3.91,2.12-13.19,4.72-24.93,4.72-33.77,0-51.16-23.77-51.16-55.03,0-37.44,23.77-58.12,53.33-58.12,11.45,0,20.15,2.44,24.06,4.88l-4.64,19.54c-4.35-2.12-10.58-4.07-18.55-4.07-17.39,0-31.01,11.89-31.01,36.31,0,21.98,11.59,35.82,31.16,35.82,6.81,0,14.06-1.47,18.55-3.58l3.19,19.54Z"/>
        <path class="cls-1" d="M646.37,790.21h-26.38v-20.84h75.07v20.84h-26.67v88.89h-22.03v-88.89Z"/>
      </g>
    </g>
  </g>
</svg>