<?xml version="1.0" encoding="UTF-8"?>
<svg id="Layer_2" data-name="Layer 2" xmlns="http://www.w3.org/2000/svg" viewBox="0 0 818.48 328.3">
  <defs>
    <style>
      .cls-1 {
        fill: #f05724;
      }

      .cls-2 {
        fill: #f78f20;
      }

      .cls-3 {
        fill: #004654;
      }
    </style>
  </defs>
  <g id="Layer_1-2" data-name="Layer 1">
    <g>
      <path class="cls-3" d="M265.87,259.99c5.68-1.6,10.85-3.7,15.49-6.3,4.64-2.59,8.34-5.38,11.1-8.37l-6.46-10.93c-2.65,2.76-5.83,5.3-9.53,7.62s-7.84,4.17-12.42,5.55c-4.58,1.38-9.36,2.07-14.33,2.07-7.18,0-13.75-1.13-19.71-3.4-5.96-2.26-11.21-5.44-15.73-9.53-4.53-4.08-8.01-9.03-10.44-14.83-2.43-5.8-3.65-12.18-3.65-19.13s1.21-12.92,3.65-18.55c2.43-5.63,5.77-10.49,10.02-14.58,4.25-4.08,9.3-7.26,15.16-9.52,5.85-2.26,12.03-3.4,18.55-3.4,4.86,0,9.64.75,14.33,2.24,4.69,1.49,9.05,3.48,13.09,5.96,4.03,2.49,7.59,5.44,10.69,8.86l8.44-10.27c-3.09-3.64-7.1-6.93-12.01-9.86-4.92-2.93-10.3-5.27-16.16-7.04-5.85-1.76-11.82-2.65-17.89-2.65-8.73,0-16.79,1.44-24.19,4.31s-13.89,6.99-19.46,12.34c-5.58,5.36-9.91,11.57-13,18.64-3.09,7.07-4.64,14.91-4.64,23.52s1.55,16.57,4.64,23.85c3.09,7.29,7.43,13.61,13,18.97,5.58,5.36,12.12,9.5,19.63,12.42,7.51,2.93,15.68,4.39,24.52,4.39,5.85,0,11.62-.8,17.32-2.4v.02Z"/>
      <path class="cls-3" d="M342.04,229.43h59.28l13.23,31.31h14.25l-48.71-115.96h-15.57l-49.03,115.96h13.25l13.31-31.31h-.01ZM365.18,174.43c.99-2.43,1.96-4.8,2.9-7.12.94-2.32,1.85-4.72,2.73-7.21.32-.91.69-1.98,1.03-2.93.27.73.53,1.46.8,2.19.88,2.43,1.79,4.83,2.73,7.21s1.88,4.83,2.82,7.37,1.9,5.08,2.9,7.62l14.91,35.28h-48.61l14.64-34.46c1.1-2.87,2.15-5.52,3.15-7.95h0Z"/>
      <path class="cls-3" d="M544.74,197.87c3.09-5.47,4.64-11.68,4.64-18.64,0-6.52-1.52-12.4-4.56-17.64s-7.12-9.36-12.26-12.34-10.91-4.47-17.31-4.47h-53.67v115.96h12.92v-45.06h39.92c6.51,0,12.42-1.6,17.73-4.8,5.3-3.2,9.5-7.54,12.59-13h0ZM525.2,199.94c-3.21,2.1-6.79,3.15-10.77,3.15h-39.92v-45.72h39.92c3.98,0,7.56.97,10.77,2.9,3.2,1.93,5.77,4.5,7.7,7.7s2.9,6.9,2.9,11.1c0,4.64-.97,8.75-2.9,12.34-1.93,3.59-4.5,6.43-7.7,8.53h0Z"/>
      <path class="cls-3" d="M658.14,149.25c-5.14-2.98-10.91-4.47-17.31-4.47h-53.67v115.96h12.92v-45.06h39.92c6.51,0,12.42-1.6,17.72-4.8s9.5-7.54,12.59-13c3.09-5.47,4.64-11.68,4.64-18.64,0-6.52-1.52-12.4-4.56-17.64s-7.12-9.36-12.26-12.34h.01ZM658.47,191.41c-1.94,3.59-4.5,6.43-7.71,8.53-3.2,2.1-6.79,3.15-10.76,3.15h-39.92v-45.72h39.92c3.97,0,7.56.97,10.76,2.9s5.77,4.5,7.71,7.7c1.93,3.2,2.9,6.9,2.9,11.1,0,4.64-.97,8.75-2.9,12.34h0Z"/>
      <path class="cls-3" d="M773.87,229.43l13.23,31.31h14.25l-48.7-115.96h-15.57l-49.03,115.96h13.25l13.3-31.31h59.27ZM737.74,174.43c.99-2.43,1.96-4.8,2.9-7.12.94-2.32,1.85-4.72,2.73-7.21.32-.91.69-1.97,1.03-2.93.26.73.53,1.46.79,2.19.88,2.43,1.8,4.83,2.74,7.21s1.88,4.83,2.82,7.37c.93,2.54,1.9,5.08,2.9,7.62l14.91,35.28h-48.6l14.64-34.46c1.1-2.87,2.16-5.52,3.15-7.95h-.01Z"/>
    </g>
    <g>
      <g>
        <path class="cls-1" d="M62.72,157.38c15.44-4.16,28.76-4.55,29.75-.88s-10.73,10.02-26.16,14.18c-15.44,4.16-19.02-9.14-3.58-13.3h0Z"/>
        <path class="cls-1" d="M204.23,91.11c-11.29,11.32-22.63,18.32-25.32,15.64-2.69-2.69,4.28-14.04,15.57-25.36,11.29-11.32,21.04-1.59,9.75,9.73h0Z"/>
        <path class="cls-1" d="M83.05,193.21c11.29-11.32,22.63-18.32,25.32-15.64,2.69,2.69-4.28,14.04-15.57,25.36-11.29,11.32-21.04,1.59-9.75-9.73h0Z"/>
        <path class="cls-1" d="M170.32,65.22c-3.64,15.57-9.6,27.49-13.3,26.62-3.7-.87-3.75-14.19-.11-29.76s17.05-12.43,13.41,3.14Z"/>
        <path class="cls-1" d="M115.68,217.94c3.64-15.57,9.6-27.49,13.3-26.62,3.7.87,3.75,14.19.11,29.76-3.64,15.57-17.05,12.43-13.41-3.14Z"/>
        <path class="cls-1" d="M126.74,61.97c4.05,15.47,4.36,28.79.68,29.75-3.68.96-9.95-10.79-14-26.26s9.27-18.96,13.32-3.49Z"/>
        <path class="cls-1" d="M87.02,78.15c11.45,11.16,18.57,22.42,15.92,25.14s-14.09-4.12-25.53-15.28c-11.45-11.16-1.83-21.02,9.62-9.86h-.01Z"/>
        <path class="cls-1" d="M65.94,115.87c15.42,4.22,27.11,10.61,26.11,14.28s-14.32,3.23-29.74-.99-11.79-17.5,3.63-13.29Z"/>
      </g>
      <g>
        <g>
          <path class="cls-2" d="M147.35,107.17c-.05,10.38-2.09,18.79-4.56,18.78s-4.43-8.44-4.39-18.82c.05-10.38,8.99-10.34,8.94.04h0Z"/>
          <path class="cls-2" d="M165.77,16.3c2.04-4.14,4.97-6.86,6.54-6.09,1.58.78,1.2,4.76-.84,8.9s-7.74,1.33-5.7-2.81Z"/>
          <path class="cls-2" d="M148.28,7.99c.48-4.59,2.29-8.16,4.03-7.98s2.77,4.05,2.29,8.64c-.48,4.59-6.81,3.93-6.32-.66h0Z"/>
          <path class="cls-2" d="M120.51,16.42c-2.06-4.13-5.01-6.84-6.58-6.05-1.57.78-1.17,4.77.89,8.89s7.75,1.29,5.69-2.84Z"/>
          <path class="cls-2" d="M137.8,8.02c-.51-4.59-2.33-8.15-4.08-7.95s-2.75,4.07-2.24,8.65c.51,4.59,6.83,3.89,6.32-.7Z"/>
          <rect class="cls-2" x="107.59" y="73.09" width="70.56" height="4.36" transform="translate(66.92 217.79) rotate(-89.73)"/>
          <path class="cls-2" d="M143.54,42.19c-9.63.03-19.03-7.81-28.74-23.94l3.74-2.25c8.73,14.5,17.14,21.84,25,21.82h.26c7.73-.18,15.56-7.54,23.28-21.87l3.84,2.07c-8.64,16.03-17.48,23.94-27.02,24.17h-.37.01Z"/>
          <path class="cls-2" d="M143.15,41.37c-3.2,0-6.43-2.57-10.8-32.72l4.32-.63c3.06,21.11,5.45,26.94,6.48,28.55,1-1.62,3.27-7.48,5.93-28.55l4.33.55c-3.81,30.25-7.01,32.78-10.21,32.81h-.05Z"/>
        </g>
        <g>
          <path class="cls-2" d="M138.44,178.1c.05-10.92,2.2-19.76,4.79-19.74,2.6,0,4.66,8.87,4.61,19.79-.05,10.92-9.45,10.87-9.4-.04h0Z"/>
          <path class="cls-2" d="M119.07,273.65c-2.14,4.35-5.22,7.22-6.88,6.4s-1.26-5.01.88-9.36c2.14-4.35,8.14-1.4,6,2.96Z"/>
          <path class="cls-2" d="M137.46,282.39c-.51,4.82-2.4,8.58-4.24,8.39-1.84-.19-2.92-4.26-2.41-9.08.51-4.82,7.16-4.13,6.65.7h0Z"/>
          <path class="cls-2" d="M166.66,273.52c2.17,4.34,5.26,7.19,6.92,6.36s1.23-5.01-.93-9.35c-2.17-4.34-8.15-1.35-5.98,2.99h-.01Z"/>
          <path class="cls-2" d="M148.48,282.36c.53,4.82,2.45,8.57,4.29,8.36,1.84-.2,2.89-4.28,2.36-9.1s-7.18-4.09-6.65.73h0Z"/>
          <rect class="cls-2" x="106.04" y="209.32" width="74.19" height="4.59" transform="translate(-69.15 353.75) rotate(-89.73)"/>
          <path class="cls-2" d="M142.44,246.42c10.12-.03,20.01,8.21,30.22,25.17l-3.93,2.37c-9.18-15.25-18.02-22.97-26.29-22.95h-.28c-8.13.19-16.37,7.93-24.48,23l-4.04-2.18c9.08-16.86,18.38-25.17,28.41-25.41h.39,0Z"/>
          <path class="cls-2" d="M142.85,247.29c3.36,0,6.76,2.71,11.36,34.41l-4.54.66c-3.22-22.2-5.73-28.33-6.81-30.02-1.05,1.7-3.44,7.86-6.23,30.02l-4.55-.57c4.01-31.81,7.37-34.47,10.74-34.5h.04-.01Z"/>
        </g>
        <g>
          <path class="cls-2" d="M107.17,138.94c10.38.05,18.79,2.09,18.78,4.56s-8.44,4.43-18.82,4.39c-10.38-.05-10.34-8.99.04-8.94h0Z"/>
          <path class="cls-2" d="M16.31,120.52c-4.14-2.04-6.86-4.97-6.09-6.54.78-1.58,4.76-1.2,8.9.84s1.33,7.74-2.81,5.7Z"/>
          <path class="cls-2" d="M7.99,138.01c-4.59-.48-8.16-2.29-7.98-4.03.18-1.75,4.05-2.77,8.64-2.29,4.59.48,3.93,6.81-.66,6.32h0Z"/>
          <path class="cls-2" d="M16.43,165.77c-4.13,2.06-6.84,5.01-6.05,6.58s4.77,1.17,8.89-.89c4.13-2.06,1.29-7.75-2.84-5.69Z"/>
          <path class="cls-2" d="M8.02,148.49c-4.59.51-8.15,2.33-7.95,4.08.19,1.75,4.07,2.75,8.65,2.24,4.59-.51,3.89-6.83-.7-6.32Z"/>
          <rect class="cls-2" x="73.11" y="108.13" width="4.36" height="70.56" transform="translate(-68.48 218.03) rotate(-89.73)"/>
          <path class="cls-2" d="M42.2,142.74c.03,9.63-7.81,19.03-23.94,28.74l-2.25-3.74c14.5-8.73,21.84-17.14,21.82-25v-.26c-.18-7.73-7.54-15.56-21.87-23.28l2.07-3.84c16.03,8.64,23.94,17.48,24.17,27.02v.37h0Z"/>
          <path class="cls-2" d="M41.37,143.14c0,3.2-2.57,6.43-32.72,10.8l-.63-4.32c21.11-3.06,26.94-5.45,28.55-6.48-1.62-1-7.48-3.27-28.55-5.93l.55-4.33c30.25,3.81,32.78,7.01,32.81,10.21v.04h0Z"/>
        </g>
        <g>
          <path class="cls-2" d="M165.01,114.1c-5.2,8.99-11.15,15.27-13.28,14.03-2.14-1.24.34-9.52,5.54-18.51s12.94-4.51,7.74,4.48Z"/>
          <path class="cls-2" d="M226.13,44.39c3.83-2.58,7.72-3.49,8.7-2.03.98,1.46-1.32,4.73-5.15,7.31s-7.38-2.69-3.55-5.27h0Z"/>
          <path class="cls-2" d="M215.09,28.49c2.7-3.74,6.04-5.95,7.46-4.92,1.42,1.03.39,4.89-2.3,8.64s-7.86.03-5.16-3.72Z"/>
          <path class="cls-2" d="M186.8,22.01c.26-4.61-.95-8.42-2.7-8.52s-3.39,3.55-3.65,8.16,6.09,4.97,6.35.36h0Z"/>
          <path class="cls-2" d="M205.98,23.3c1.84-4.23,2.02-8.23.41-8.93s-4.41,2.16-6.25,6.39,3.99,6.77,5.83,2.53h0Z"/>
          <rect class="cls-2" x="141.69" y="82.03" width="70.56" height="4.36" transform="translate(15.44 195.2) rotate(-59.94)"/>
          <path class="cls-2" d="M193.98,55.82c-8.37-4.76-12.64-16.23-13.05-35.05l4.36-.1c.37,16.92,4.02,27.47,10.86,31.36.08.04.15.09.23.13,6.8,3.68,17.25,1.19,31.07-7.42l2.31,3.7c-15.46,9.63-27.06,12.09-35.46,7.55-.11-.06-.22-.12-.33-.18h.01Z"/>
          <path class="cls-2" d="M194.05,54.91c-2.78-1.58-4.31-5.43,6.88-33.77l4.06,1.6c-7.83,19.84-8.66,26.09-8.56,27.99,1.67-.91,6.55-4.86,19.33-21.83l3.49,2.62c-18.34,24.36-22.37,24.97-25.16,23.4l-.03-.02h0Z"/>
        </g>
        <g>
          <path class="cls-2" d="M119.94,171.74c5.47-9.45,11.72-16.06,13.97-14.75s-.36,10.01-5.83,19.46-13.61,4.74-8.14-4.71h0Z"/>
          <path class="cls-2" d="M55.66,245.04c-4.02,2.71-8.12,3.67-9.15,2.14s1.39-4.97,5.41-7.68,7.76,2.83,3.74,5.54Z"/>
          <path class="cls-2" d="M67.28,261.77c-2.84,3.94-6.35,6.25-7.85,5.17s-.41-5.14,2.42-9.08c2.84-3.94,8.26-.03,5.43,3.91h0Z"/>
          <path class="cls-2" d="M97.02,268.57c-.27,4.84,1,8.85,2.84,8.96s3.56-3.74,3.83-8.58-6.4-5.22-6.68-.38h0Z"/>
          <path class="cls-2" d="M76.85,267.21c-1.93,4.45-2.13,8.65-.43,9.39s4.63-2.27,6.57-6.72c1.93-4.45-4.2-7.11-6.13-2.67h-.01Z"/>
          <rect class="cls-2" x="70.28" y="200.88" width="74.19" height="4.59" transform="translate(-122.26 194.33) rotate(-59.94)"/>
          <path class="cls-2" d="M89.47,233.02c8.8,5,13.29,17.07,13.72,36.85l-4.59.1c-.39-17.8-4.23-28.89-11.42-32.98-.08-.05-.16-.09-.24-.13-7.15-3.87-18.14-1.25-32.67,7.8l-2.42-3.89c16.26-10.12,28.45-12.72,37.28-7.94.11.06.23.13.34.19h0Z"/>
          <path class="cls-2" d="M89.39,233.98c2.92,1.66,4.53,5.71-7.23,35.51l-4.27-1.69c8.24-20.86,9.1-27.43,9-29.43-1.75.96-6.89,5.11-20.32,22.96l-3.66-2.76c19.28-25.61,23.52-26.26,26.46-24.61l.04.02h-.02Z"/>
        </g>
        <g>
          <path class="cls-2" d="M176.74,128.97c-9.01,5.15-17.31,7.59-18.54,5.45-1.23-2.14,5.09-8.06,14.1-13.21,9.01-5.15,13.45,2.61,4.44,7.76h0Z"/>
          <path class="cls-2" d="M264.63,99.45c4.6-.31,8.43.87,8.55,2.62s-3.52,3.42-8.12,3.73c-4.6.31-5.02-6.04-.42-6.35h0Z"/>
          <path class="cls-2" d="M263.07,80.15c4.21-1.88,8.21-2.1,8.92-.5s-2.12,4.43-6.33,6.31-6.8-3.93-2.59-5.81h0Z"/>
          <path class="cls-2" d="M241.88,60.33c2.54-3.85,3.41-7.76,1.95-8.72-1.47-.97-4.71,1.37-7.26,5.22-2.54,3.85,2.77,7.35,5.31,3.5Z"/>
          <path class="cls-2" d="M257.8,71.09c3.72-2.73,5.89-6.1,4.85-7.51s-4.9-.35-8.61,2.39c-3.72,2.73.05,7.86,3.77,5.12h-.01Z"/>
          <rect class="cls-2" x="166.82" y="106.95" width="70.56" height="4.36" transform="translate(-27.52 114.71) rotate(-29.76)"/>
          <path class="cls-2" d="M231.09,93.17c-4.84-8.32-2.76-20.38,6.34-36.86l3.82,2.11c-8.19,14.82-10.34,25.77-6.38,32.57.04.08.09.15.14.23,4.03,6.6,14.32,9.7,30.59,9.21l.13,4.36c-18.2.55-29.47-3.15-34.44-11.3-.06-.11-.13-.21-.19-.32h-.01Z"/>
          <path class="cls-2" d="M231.6,92.41c-1.61-2.76-.99-6.86,22.93-25.73l2.7,3.43c-16.75,13.21-20.6,18.2-21.47,19.9,1.9.05,8.11-.91,27.69-9.16l1.69,4.02c-28.1,11.84-31.89,10.34-33.52,7.58l-.02-.03h0Z"/>
        </g>
        <g>
          <path class="cls-2" d="M109.85,157.6c9.01-5.15,17.31-7.59,18.54-5.45s-5.09,8.06-14.1,13.21c-9.01,5.15-13.45-2.61-4.44-7.76h0Z"/>
          <path class="cls-2" d="M21.96,187.12c-4.6.31-8.43-.87-8.55-2.62s3.52-3.42,8.12-3.73,5.02,6.04.42,6.35h.01Z"/>
          <path class="cls-2" d="M23.51,206.43c-4.21,1.88-8.21,2.1-8.92.5s2.12-4.43,6.33-6.31c4.21-1.88,6.8,3.93,2.59,5.81Z"/>
          <path class="cls-2" d="M44.71,226.24c-2.54,3.85-3.41,7.76-1.95,8.72,1.47.97,4.71-1.37,7.26-5.22,2.54-3.85-2.77-7.35-5.31-3.5Z"/>
          <path class="cls-2" d="M28.78,215.48c-3.72,2.73-5.89,6.1-4.85,7.51s4.9.35,8.61-2.39c3.72-2.73-.05-7.86-3.77-5.12h0Z"/>
          <rect class="cls-2" x="49.2" y="175.23" width="70.56" height="4.36" transform="translate(-76.92 65.33) rotate(-29.76)"/>
          <path class="cls-2" d="M55.5,193.41c4.84,8.32,2.76,20.38-6.34,36.86l-3.82-2.11c8.19-14.82,10.34-25.77,6.38-32.57-.04-.08-.09-.15-.14-.23-4.03-6.6-14.32-9.7-30.59-9.21l-.13-4.36c18.2-.55,29.47,3.15,34.44,11.3.06.11.13.21.19.32h0Z"/>
          <path class="cls-2" d="M54.98,194.16c1.61,2.76.99,6.86-22.93,25.73l-2.7-3.43c16.75-13.21,20.6-18.2,21.47-19.9-1.9-.05-8.11.91-27.69,9.16l-1.69-4.02c28.1-11.84,31.89-10.34,33.52-7.58l.02.03h0Z"/>
        </g>
        <g>
          <path class="cls-2" d="M114.01,121.62c8.97,5.23,15.23,11.2,13.99,13.33-1.24,2.13-9.52-.37-18.49-5.6-8.97-5.23-4.47-12.95,4.5-7.73Z"/>
          <path class="cls-2" d="M44.5,60.26c-2.57-3.83-3.46-7.73-2-8.71s4.72,1.34,7.29,5.17c2.57,3.83-2.72,7.37-5.28,3.54h-.01Z"/>
          <path class="cls-2" d="M28.56,71.26c-3.73-2.71-5.93-6.06-4.89-7.48s4.89-.38,8.63,2.33c3.73,2.71,0,7.86-3.73,5.15h0Z"/>
          <path class="cls-2" d="M22,99.52c-4.61-.28-8.42.92-8.53,2.67-.11,1.75,3.54,3.4,8.15,3.67,4.61.28,4.99-6.07.38-6.35h0Z"/>
          <path class="cls-2" d="M23.35,80.35c-4.22-1.85-8.22-2.05-8.93-.44s2.15,4.41,6.37,6.27c4.22,1.85,6.78-3.97,2.55-5.82h.01Z"/>
          <rect class="cls-2" x="81.98" y="74.29" width="4.36" height="70.56" transform="translate(-52.89 127.08) rotate(-59.75)"/>
          <path class="cls-2" d="M55.83,92.45c-4.79,8.35-16.27,12.58-35.09,12.93l-.08-4.36c16.93-.32,27.49-3.93,31.4-10.76.04-.08.09-.15.13-.23,3.7-6.79,1.24-17.25-7.31-31.1l3.71-2.29c9.57,15.49,12.01,27.1,7.43,35.48-.06.11-.12.22-.18.33h0Z"/>
          <path class="cls-2" d="M54.91,92.38c-1.59,2.77-5.44,4.29-33.75-6.99l1.62-4.05c19.82,7.9,26.06,8.74,27.96,8.65-.9-1.67-4.84-6.57-21.77-19.4l2.64-3.48c24.3,18.41,24.9,22.45,23.32,25.24,0,0-.02.03-.02.03Z"/>
        </g>
        <g>
          <path class="cls-2" d="M128.79,109.99c5.16,9.01,7.61,17.31,5.46,18.53-2.14,1.23-8.06-5.08-13.22-14.09-5.16-9.01,2.6-13.45,7.76-4.45h0Z"/>
          <path class="cls-2" d="M99.21,22.12c-.31-4.6.86-8.43,2.61-8.55,1.75-.12,3.42,3.52,3.73,8.12s-6.04,5.03-6.34.43Z"/>
          <path class="cls-2" d="M79.91,23.69c-1.88-4.21-2.11-8.21-.51-8.92,1.6-.72,4.43,2.12,6.31,6.33s-3.92,6.81-5.81,2.6h.01Z"/>
          <path class="cls-2" d="M60.11,44.9c-3.85-2.54-7.76-3.41-8.72-1.94-.97,1.47,1.37,4.71,5.22,7.25s7.35-2.77,3.5-5.31Z"/>
          <path class="cls-2" d="M70.86,28.96c-2.74-3.71-6.1-5.88-7.51-4.84s-.34,4.9,2.39,8.61c2.74,3.71,7.86-.06,5.12-3.77Z"/>
          <rect class="cls-2" x="106.76" y="49.34" width="4.36" height="70.56" transform="translate(-27.65 65.33) rotate(-29.8)"/>
          <path class="cls-2" d="M92.95,55.66c-8.32,4.85-20.38,2.78-36.86-6.32l2.11-3.82c14.82,8.18,25.78,10.32,32.57,6.36.08-.04.15-.09.23-.14,6.6-4.03,9.69-14.33,9.19-30.59l4.36-.13c.56,18.2-3.13,29.47-11.28,34.45-.11.06-.21.13-.32.19h0Z"/>
          <path class="cls-2" d="M92.19,55.15c-2.76,1.61-6.86,1-25.75-22.91l3.42-2.71c13.22,16.74,18.22,20.59,19.91,21.46.05-1.9-.91-8.11-9.17-27.68l4.02-1.7c11.86,28.09,10.36,31.88,7.6,33.51l-.03.02h0Z"/>
        </g>
      </g>
    </g>
    <g>
      <path class="cls-3" d="M190.76,319.36v-31.06h3.34v31.06h-3.34ZM192.97,291.32v-3.03h18.02v3.03h-18.02ZM192.97,304.91v-2.93h16.84v2.93h-16.84ZM192.97,319.36v-3.02h18.28v3.02h-18.28Z"/>
      <path class="cls-3" d="M227.92,319.81c-1.99,0-3.76-.48-5.33-1.44-1.57-.96-2.8-2.28-3.7-3.95-.9-1.67-1.35-3.54-1.35-5.62s.45-4,1.35-5.67,2.15-2.99,3.73-3.97c1.58-.98,3.35-1.47,5.3-1.47,1.57,0,3,.32,4.31.95s2.38,1.53,3.23,2.69,1.36,2.52,1.54,4.09v6.64c-.18,1.54-.68,2.88-1.51,4.04-.83,1.16-1.9,2.07-3.2,2.73-1.31.66-2.76.99-4.36.99h-.01ZM228.46,316.78c1.48,0,2.77-.35,3.88-1.04s1.98-1.64,2.6-2.85c.62-1.2.93-2.59.93-4.15s-.32-2.99-.95-4.2-1.51-2.15-2.62-2.82c-1.11-.68-2.41-1.02-3.88-1.02s-2.78.35-3.91,1.04-2.02,1.64-2.69,2.85c-.66,1.2-.99,2.59-.99,4.15s.32,2.96.97,4.18,1.55,2.17,2.71,2.85,2.48,1.02,3.95,1.02h0ZM238.89,319.36h-3.21v-5.69l.68-5.24-.68-5.1v-15.94h3.21v31.96h0Z"/>
      <path class="cls-3" d="M255.91,319.81c-1.71,0-3.26-.4-4.63-1.2-1.37-.8-2.43-1.89-3.18-3.29s-1.13-3.02-1.13-4.85v-12.32h3.21v12.19c0,1.3.23,2.42.7,3.39.46.96,1.13,1.72,2.01,2.26s1.88.81,3.02.81c1.78,0,3.18-.59,4.2-1.76,1.02-1.17,1.54-2.74,1.54-4.7v-12.19h3.21v12.32c0,1.84-.38,3.46-1.13,4.88s-1.8,2.51-3.14,3.3-2.9,1.17-4.67,1.17h0Z"/>
      <path class="cls-3" d="M282.64,319.81c-2.08,0-3.95-.49-5.62-1.47-1.67-.98-2.99-2.31-3.95-4s-1.44-3.57-1.44-5.64.48-3.95,1.44-5.62c.96-1.67,2.28-2.99,3.95-3.95,1.67-.96,3.54-1.45,5.62-1.45,1.63,0,3.13.3,4.51.9,1.39.6,2.56,1.45,3.52,2.53l-2.12,2.17c-.72-.81-1.59-1.44-2.59-1.87-1.01-.44-2.12-.65-3.32-.65-1.48,0-2.8.35-3.97,1.04s-2.09,1.63-2.75,2.82-.99,2.55-.99,4.09.33,2.91.99,4.13,1.58,2.18,2.75,2.87,2.5,1.04,3.97,1.04c1.2,0,2.32-.22,3.34-.65,1.02-.44,1.91-1.06,2.66-1.87l2.12,2.12c-.99,1.11-2.19,1.97-3.59,2.57s-2.91.9-4.54.9h.01Z"/>
      <path class="cls-3" d="M306.61,319.81c-1.99,0-3.78-.49-5.37-1.47s-2.86-2.3-3.79-3.95c-.93-1.66-1.4-3.52-1.4-5.6s.46-4,1.4-5.67c.93-1.67,2.19-2.99,3.77-3.97s3.36-1.47,5.35-1.47c1.63,0,3.08.32,4.36.97s2.32,1.55,3.14,2.71c.81,1.16,1.29,2.51,1.45,4.04v6.64c-.18,1.54-.67,2.89-1.47,4.06s-1.83,2.08-3.09,2.73-2.71.97-4.33.97h-.02ZM307.11,316.78c2.23,0,4-.74,5.33-2.21,1.32-1.47,1.99-3.42,1.99-5.82,0-1.6-.3-2.99-.9-4.2-.6-1.2-1.46-2.15-2.57-2.82-1.11-.68-2.41-1.02-3.88-1.02s-2.79.35-3.95,1.04-2.08,1.64-2.75,2.85c-.68,1.2-1.02,2.59-1.02,4.15s.34,2.95,1.02,4.15c.68,1.2,1.6,2.15,2.78,2.85s2.5,1.04,3.97,1.04h-.02ZM314.24,319.36v-5.69l.63-5.24-.63-5.1v-5.19h3.21v21.22h-3.21Z"/>
      <path class="cls-3" d="M323.81,301.03v-2.89h13.86v2.89h-13.86ZM329.14,319.36v-30.16h3.2v30.16h-3.2Z"/>
      <path class="cls-3" d="M345.84,293.58c-.6,0-1.11-.23-1.54-.68s-.63-.98-.63-1.58c0-.63.21-1.16.63-1.58s.93-.63,1.54-.63c.66,0,1.2.21,1.6.63.41.42.61.95.61,1.58s-.2,1.13-.61,1.58c-.41.45-.94.68-1.6.68ZM344.26,319.36v-21.22h3.21v21.22h-3.21Z"/>
      <path class="cls-3" d="M365.75,319.81c-2.08,0-3.94-.5-5.6-1.49s-2.97-2.33-3.95-4.02-1.47-3.57-1.47-5.64.49-3.9,1.47-5.55,2.3-2.97,3.95-3.95c1.66-.98,3.52-1.47,5.6-1.47s3.9.48,5.58,1.45c1.67.96,2.99,2.28,3.97,3.95s1.47,3.53,1.47,5.58-.49,4-1.47,5.67-2.3,3-3.97,4c-1.67.99-3.53,1.49-5.58,1.49v-.02ZM365.75,316.74c1.47,0,2.8-.35,3.97-1.04s2.09-1.66,2.75-2.89.99-2.62.99-4.15-.34-2.85-1.02-4.04-1.6-2.13-2.75-2.82-2.48-1.04-3.95-1.04-2.8.35-3.97,1.04-2.09,1.63-2.75,2.82-.99,2.54-.99,4.04.33,2.96.99,4.18,1.58,2.18,2.75,2.87,2.5,1.04,3.97,1.04h.01Z"/>
      <path class="cls-3" d="M383.99,319.36v-21.22h3.2v21.22h-3.2ZM399.48,319.36v-12.46c0-1.83-.56-3.33-1.67-4.49-1.11-1.16-2.57-1.74-4.38-1.74-1.2,0-2.27.26-3.21.79-.93.52-1.67,1.26-2.21,2.19-.54.93-.81,2-.81,3.2l-1.44-.81c0-1.6.38-3.02,1.13-4.29s1.77-2.26,3.07-2.98c1.29-.72,2.75-1.08,4.38-1.08s3.07.39,4.33,1.17,2.25,1.84,2.96,3.16,1.06,2.77,1.06,4.33v13h-3.21Z"/>
      <path class="cls-3" d="M414.2,319.81c-.75,0-1.37-.26-1.85-.77-.48-.51-.72-1.13-.72-1.85s.24-1.33.72-1.83c.48-.49,1.1-.74,1.85-.74s1.32.25,1.8.74c.48.5.72,1.11.72,1.83s-.24,1.34-.72,1.85-1.08.77-1.8.77Z"/>
      <path class="cls-3" d="M447.47,319.81c-2.44,0-4.53-.45-6.28-1.35-1.74-.9-3.27-2.2-4.56-3.88l2.3-2.26c1.05,1.48,2.28,2.57,3.68,3.3s3.06,1.08,4.99,1.08,3.59-.45,4.81-1.36c1.22-.9,1.83-2.15,1.83-3.75,0-1.23-.28-2.25-.84-3.05s-1.3-1.45-2.23-1.94c-.93-.49-1.95-.94-3.05-1.33-1.1-.39-2.21-.81-3.32-1.24-1.11-.44-2.13-.98-3.05-1.63-.92-.65-1.66-1.49-2.24-2.53-.57-1.04-.86-2.35-.86-3.95,0-1.69.41-3.13,1.22-4.33s1.93-2.13,3.37-2.78c1.43-.65,3.05-.97,4.85-.97,2.02,0,3.81.39,5.4,1.17,1.58.78,2.9,1.84,3.95,3.16l-2.3,2.3c-.96-1.17-2.02-2.05-3.16-2.64-1.14-.59-2.47-.88-3.97-.88-1.81,0-3.25.42-4.33,1.26s-1.63,2.02-1.63,3.52c0,1.14.28,2.08.84,2.8.55.72,1.3,1.32,2.23,1.8.93.48,1.95.91,3.05,1.29,1.1.38,2.21.79,3.32,1.24,1.11.45,2.13,1.02,3.05,1.72.92.69,1.66,1.57,2.24,2.64.57,1.07.86,2.43.86,4.09,0,2.68-.91,4.76-2.73,6.25s-4.3,2.24-7.43,2.24h0Z"/>
      <path class="cls-3" d="M473.79,319.81c-1.71,0-3.26-.4-4.63-1.2-1.37-.8-2.43-1.89-3.18-3.29s-1.13-3.02-1.13-4.85v-12.32h3.21v12.19c0,1.3.23,2.42.7,3.39.46.96,1.13,1.72,2.01,2.26s1.88.81,3.02.81c1.78,0,3.18-.59,4.2-1.76s1.54-2.74,1.54-4.7v-12.19h3.21v12.32c0,1.84-.38,3.46-1.13,4.88s-1.8,2.51-3.14,3.3-2.9,1.17-4.67,1.17h-.01Z"/>
      <path class="cls-3" d="M490.85,328.3v-30.16h3.2v5.42l-.63,5.19.63,5.19v14.36h-3.2ZM501.87,319.81c-1.63,0-3.08-.33-4.38-.99-1.29-.66-2.35-1.57-3.18-2.73s-1.33-2.5-1.51-4.04v-6.64c.18-1.57.69-2.93,1.54-4.09s1.92-2.06,3.23-2.69,2.75-.95,4.31-.95c1.96,0,3.72.49,5.28,1.47,1.57.98,2.81,2.3,3.72,3.97.92,1.67,1.38,3.56,1.38,5.67s-.45,3.94-1.35,5.6-2.15,2.97-3.72,3.95c-1.58.98-3.35,1.47-5.31,1.47h-.01ZM501.28,316.78c1.51,0,2.83-.34,3.97-1.02s2.05-1.63,2.71-2.85c.66-1.22.99-2.61.99-4.18s-.33-2.96-.99-4.18-1.56-2.17-2.69-2.85-2.43-1.02-3.9-1.02-2.78.34-3.91,1.02-2.01,1.63-2.64,2.85-.95,2.61-.95,4.18.32,2.96.95,4.18,1.5,2.17,2.62,2.85,2.39,1.02,3.84,1.02Z"/>
      <path class="cls-3" d="M519.48,328.3v-30.16h3.2v5.42l-.63,5.19.63,5.19v14.36h-3.2ZM530.49,319.81c-1.63,0-3.08-.33-4.38-.99-1.29-.66-2.35-1.57-3.18-2.73s-1.33-2.5-1.51-4.04v-6.64c.18-1.57.69-2.93,1.54-4.09s1.92-2.06,3.23-2.69,2.75-.95,4.31-.95c1.96,0,3.72.49,5.28,1.47,1.57.98,2.81,2.3,3.72,3.97.92,1.67,1.38,3.56,1.38,5.67s-.45,3.94-1.35,5.6-2.15,2.97-3.72,3.95c-1.58.98-3.35,1.47-5.31,1.47h-.01ZM529.91,316.78c1.51,0,2.83-.34,3.97-1.02s2.05-1.63,2.71-2.85c.66-1.22.99-2.61.99-4.18s-.33-2.96-.99-4.18-1.56-2.17-2.69-2.85-2.43-1.02-3.9-1.02-2.78.34-3.91,1.02-2.01,1.63-2.64,2.85-.95,2.61-.95,4.18.32,2.96.95,4.18,1.5,2.17,2.62,2.85,2.39,1.02,3.84,1.02Z"/>
      <path class="cls-3" d="M557.76,319.81c-2.08,0-3.94-.5-5.6-1.49s-2.97-2.33-3.95-4.02c-.98-1.69-1.47-3.57-1.47-5.64s.49-3.9,1.47-5.55,2.3-2.97,3.95-3.95c1.66-.98,3.52-1.47,5.6-1.47s3.9.48,5.58,1.45c1.67.96,2.99,2.28,3.97,3.95s1.47,3.53,1.47,5.58-.49,4-1.47,5.67-2.3,3-3.97,4c-1.67.99-3.53,1.49-5.58,1.49v-.02ZM557.76,316.74c1.47,0,2.8-.35,3.97-1.04s2.09-1.66,2.75-2.89.99-2.62.99-4.15-.34-2.85-1.02-4.04-1.6-2.13-2.75-2.82-2.48-1.04-3.95-1.04-2.8.35-3.97,1.04-2.09,1.63-2.75,2.82-.99,2.54-.99,4.04.33,2.96.99,4.18,1.58,2.18,2.75,2.87,2.5,1.04,3.97,1.04h.01Z"/>
      <path class="cls-3" d="M576,319.36v-21.22h3.2v21.22h-3.2ZM579.21,306.99l-1.31-.54c0-2.71.65-4.85,1.96-6.41s3.11-2.35,5.39-2.35c1.05,0,2.02.19,2.89.56.87.38,1.69.97,2.44,1.78l-2.12,2.21c-.48-.54-1.03-.93-1.65-1.17s-1.32-.36-2.1-.36c-1.63,0-2.95.53-3.97,1.58-1.02,1.05-1.54,2.62-1.54,4.7h0Z"/>
      <path class="cls-3" d="M593.92,301.03v-2.89h13.86v2.89h-13.86ZM599.25,319.36v-30.16h3.2v30.16h-3.2Z"/>
      <path class="cls-3" d="M617.72,319.81c-.75,0-1.37-.26-1.85-.77-.48-.51-.72-1.13-.72-1.85s.24-1.33.72-1.83c.48-.49,1.1-.74,1.85-.74s1.32.25,1.8.74c.48.5.72,1.11.72,1.83s-.24,1.34-.72,1.85-1.08.77-1.8.77Z"/>
      <path class="cls-3" d="M650.99,319.81c-2.44,0-4.53-.45-6.28-1.35-1.74-.9-3.27-2.2-4.56-3.88l2.3-2.26c1.05,1.48,2.28,2.57,3.68,3.3s3.06,1.08,4.99,1.08,3.59-.45,4.81-1.36c1.22-.9,1.83-2.15,1.83-3.75,0-1.23-.28-2.25-.84-3.05s-1.3-1.45-2.23-1.94-1.95-.94-3.05-1.33c-1.1-.39-2.21-.81-3.32-1.24-1.11-.44-2.13-.98-3.05-1.63s-1.66-1.49-2.24-2.53c-.57-1.04-.86-2.35-.86-3.95,0-1.69.41-3.13,1.22-4.33s1.93-2.13,3.37-2.78c1.43-.65,3.05-.97,4.85-.97,2.02,0,3.81.39,5.4,1.17,1.58.78,2.9,1.84,3.95,3.16l-2.3,2.3c-.96-1.17-2.02-2.05-3.16-2.64-1.14-.59-2.47-.88-3.97-.88-1.81,0-3.25.42-4.33,1.26s-1.63,2.02-1.63,3.52c0,1.14.28,2.08.84,2.8.55.72,1.3,1.32,2.23,1.8.93.48,1.95.91,3.05,1.29s2.21.79,3.32,1.24c1.11.45,2.13,1.02,3.05,1.72.92.69,1.66,1.57,2.24,2.64.57,1.07.86,2.43.86,4.09,0,2.68-.91,4.76-2.73,6.25s-4.3,2.24-7.43,2.24h-.01Z"/>
      <path class="cls-3" d="M677.31,319.81c-1.71,0-3.26-.4-4.63-1.2-1.37-.8-2.43-1.89-3.18-3.29s-1.13-3.02-1.13-4.85v-12.32h3.21v12.19c0,1.3.23,2.42.7,3.39.46.96,1.13,1.72,2.01,2.26s1.88.81,3.02.81c1.78,0,3.18-.59,4.2-1.76s1.54-2.74,1.54-4.7v-12.19h3.21v12.32c0,1.84-.38,3.46-1.13,4.88s-1.8,2.51-3.14,3.3-2.9,1.17-4.67,1.17h-.01Z"/>
      <path class="cls-3" d="M704.04,319.81c-2.08,0-3.95-.49-5.62-1.47s-2.99-2.31-3.95-4-1.44-3.57-1.44-5.64.48-3.95,1.44-5.62c.96-1.67,2.28-2.99,3.95-3.95,1.67-.96,3.54-1.45,5.62-1.45,1.63,0,3.13.3,4.51.9,1.39.6,2.56,1.45,3.52,2.53l-2.12,2.17c-.72-.81-1.59-1.44-2.59-1.87-1.01-.44-2.12-.65-3.32-.65-1.48,0-2.8.35-3.97,1.04s-2.09,1.63-2.75,2.82-.99,2.55-.99,4.09.33,2.91.99,4.13,1.58,2.18,2.75,2.87,2.5,1.04,3.97,1.04c1.2,0,2.32-.22,3.34-.65,1.02-.44,1.91-1.06,2.66-1.87l2.12,2.12c-.99,1.11-2.19,1.97-3.59,2.57s-2.91.9-4.54.9h.01Z"/>
      <path class="cls-3" d="M728.46,319.81c-2.08,0-3.95-.49-5.62-1.47s-2.99-2.31-3.95-4-1.44-3.57-1.44-5.64.48-3.95,1.44-5.62c.96-1.67,2.28-2.99,3.95-3.95,1.67-.96,3.54-1.45,5.62-1.45,1.63,0,3.13.3,4.51.9,1.39.6,2.56,1.45,3.52,2.53l-2.12,2.17c-.72-.81-1.59-1.44-2.59-1.87-1.01-.44-2.12-.65-3.32-.65-1.48,0-2.8.35-3.97,1.04s-2.09,1.63-2.75,2.82-.99,2.55-.99,4.09.33,2.91.99,4.13,1.58,2.18,2.75,2.87,2.5,1.04,3.97,1.04c1.2,0,2.32-.22,3.34-.65,1.02-.44,1.91-1.06,2.66-1.87l2.12,2.12c-.99,1.11-2.19,1.97-3.59,2.57s-2.91.9-4.54.9h.01Z"/>
      <path class="cls-3" d="M753.02,319.81c-2.11,0-4-.48-5.69-1.44s-3.02-2.29-4-3.97-1.47-3.58-1.47-5.69.47-3.95,1.42-5.62c.95-1.67,2.25-2.99,3.91-3.95,1.66-.96,3.51-1.45,5.55-1.45s3.68.44,5.17,1.31,2.66,2.08,3.52,3.63c.86,1.55,1.29,3.33,1.29,5.35,0,.24-.02.52-.05.83-.03.32-.09.69-.18,1.11h-18.37v-2.71h16.62l-1.13.99c.03-1.54-.23-2.87-.79-4s-1.35-2.01-2.39-2.64c-1.04-.63-2.28-.95-3.72-.95-1.54,0-2.88.34-4.02,1.02s-2.04,1.61-2.69,2.8-.97,2.58-.97,4.18.34,3.05,1.02,4.29c.68,1.24,1.63,2.2,2.84,2.89,1.22.69,2.63,1.04,4.22,1.04,1.26,0,2.44-.23,3.52-.7s2-1.17,2.75-2.1l2.08,2.08c-.99,1.2-2.23,2.12-3.7,2.75-1.48.63-3.05.95-4.74.95h0Z"/>
      <path class="cls-3" d="M776.32,319.81c-1.14,0-2.24-.16-3.3-.47s-2.01-.76-2.87-1.33c-.86-.57-1.62-1.25-2.28-2.03l2.08-2.08c.84,1.02,1.8,1.78,2.87,2.28s2.26.75,3.59.75,2.47-.27,3.27-.81c.8-.54,1.2-1.29,1.2-2.26,0-.9-.28-1.6-.84-2.1-.56-.49-1.29-.9-2.19-1.22s-1.85-.62-2.85-.9c-.99-.29-1.93-.65-2.82-1.08-.89-.44-1.62-1.04-2.19-1.81s-.86-1.8-.86-3.09c0-1.2.3-2.25.9-3.14.6-.89,1.44-1.58,2.53-2.08,1.08-.5,2.39-.75,3.93-.75s3.04.29,4.33.86c1.29.57,2.33,1.41,3.11,2.53l-2.08,2.08c-.6-.81-1.38-1.45-2.32-1.9s-2.01-.68-3.18-.68c-1.35,0-2.38.26-3.09.79s-1.06,1.21-1.06,2.06.29,1.45.86,1.92,1.3.84,2.19,1.13,1.83.57,2.82.86c.99.29,1.94.66,2.84,1.13.9.46,1.63,1.1,2.19,1.89.56.8.84,1.87.84,3.23,0,1.89-.68,3.41-2.05,4.54s-3.23,1.69-5.58,1.69h0Z"/>
      <path class="cls-3" d="M797.72,319.81c-1.14,0-2.24-.16-3.3-.47s-2.01-.76-2.87-1.33c-.86-.57-1.62-1.25-2.28-2.03l2.08-2.08c.84,1.02,1.8,1.78,2.87,2.28s2.26.75,3.59.75,2.47-.27,3.27-.81c.8-.54,1.2-1.29,1.2-2.26,0-.9-.28-1.6-.84-2.1-.56-.49-1.29-.9-2.19-1.22s-1.85-.62-2.85-.9c-.99-.29-1.93-.65-2.82-1.08-.89-.44-1.62-1.04-2.19-1.81s-.86-1.8-.86-3.09c0-1.2.3-2.25.9-3.14.6-.89,1.44-1.58,2.53-2.08,1.08-.5,2.39-.75,3.93-.75s3.04.29,4.33.86c1.29.57,2.33,1.41,3.11,2.53l-2.08,2.08c-.6-.81-1.38-1.45-2.32-1.9s-2.01-.68-3.18-.68c-1.35,0-2.38.26-3.09.79s-1.06,1.21-1.06,2.06.29,1.45.86,1.92,1.3.84,2.19,1.13,1.83.57,2.82.86c.99.29,1.94.66,2.84,1.13.9.46,1.63,1.1,2.19,1.89.56.8.84,1.87.84,3.23,0,1.89-.68,3.41-2.05,4.54s-3.23,1.69-5.58,1.69h0Z"/>
      <path class="cls-3" d="M815.96,319.81c-.75,0-1.37-.26-1.85-.77-.48-.51-.72-1.13-.72-1.85s.24-1.33.72-1.83c.48-.49,1.1-.74,1.85-.74s1.32.25,1.8.74c.48.5.72,1.11.72,1.83s-.24,1.34-.72,1.85-1.08.77-1.8.77Z"/>
    </g>
  </g>
</svg>