<?xml version="1.0" encoding="UTF-8"?>
<svg id="Layer_2" data-name="Layer 2" xmlns="http://www.w3.org/2000/svg" viewBox="0 0 392.11 108.36">
  <defs>
    <style>
      .cls-1 {
        fill: #5a2a82;
      }
    </style>
  </defs>
  <g id="Layer_1-2" data-name="Layer 1">
    <g>
      <path class="cls-1" d="M356.11,0l30.46,72.03,4.43,2.07.11,3.89h-22.5c-.3,0-1.88-1.64-1.5-2.49l5.98-2.53c1.3-1.01-4.61-15.88-5.59-16.03l-28.44.51c-2.21,5.48-9.54,15.19-.06,16.65l.11,3.89h-17.5c-1.48,0-1.3-2.86-.31-3.83.69-.67,3.15-1.06,4.85-2.64,1.55-1.44,2.26-3.01,3.15-4.84,6.29-12.85,13.73-31.81,18.58-45.42.75-2.1,2.28-5.76,2.29-7.78,0-2.62-2.5-5.89-1.97-7.84l6.9-5.66h1ZM366.11,52l-12.01-30-2.21,2.29-10.79,27.71h25Z"/>
      <path class="cls-1" d="M306.11,56V15.5c0-.93-1.84-5.25-1.93-6.87-1.01-1.7-6.36-1.23-5.07-5.63h19l-.11,3.89-5.89,3.61v67.5c-6.74.9-5.48-.6-8.14-4.36-13.27-18.74-25.01-40.34-38.65-58.35-.61-.81-.94-2.24-2.21-2.29v55.5c0,.33,1.33,2.22,1.18,3.31l5.38,2.12.44,4.06h-20l.43-4.07c5.3-1.55,6.21-4.12,6.61-9.39,1.32-17.37-1.03-36.44-.09-54l-1.08-3.42c-3.28-.04-5.44-.27-4.87-4.12h19.5l35.5,53Z"/>
      <path class="cls-1" d="M102.11,78c-1.04-5.31,6.47-3.07,6.05-8.45-1.77-18.53,2.23-40.97-.1-59.01-.15-1.17-.75-2.3-1.08-3.42-3.28-.04-5.44-.27-4.87-4.12h38.5c.9,0,8.04,2.87,9.42,3.58,22.56,11.54,22.61,50.65,2.43,65.27-2.38,1.73-11.33,6.15-13.85,6.15h-36.5ZM119.11,7v65.5c.68.95,1.3,1.36,2.48,1.52,4.95.7,16.42-.89,20.86-3.18,13.25-6.85,13.92-26.17,12.68-39.36-.78-8.36-6.37-19.29-14.31-22.69-.79-.34-4.93-1.79-5.21-1.79h-16.5Z"/>
      <path class="cls-1" d="M188.39,71.72c-19.12-18.09-15.01-58.16,10.45-68.5,40.7-16.52,63.62,45.19,31.2,70.2-11.84,9.13-30.69,8.67-41.66-1.71ZM205.82,5.22c-6.84,1.16-11.97,8.59-14.23,14.77-3.92,10.75-3.82,33.53.99,44.02,7.75,16.88,30.07,15.71,37.01-1.02,5.82-14.01,5.23-41.03-4.97-53.02-4.46-5.24-12.3-5.86-18.81-4.76Z"/>
      <path class="cls-1" d="M44.39,4.28c8.83-8.83,24.61,1.28,18.13,14.63-.82,1.69-9.1,13.07-9.92,13.07-5.64-7.09-17.1-18.83-8.22-27.71Z"/>
      <path class="cls-1" d="M46.11,60c6.62,2.55,17.61,3.63,21.45,10.05,6.19,10.33-8.53,22.91-18.41,13.41-.78-.75-3.04-5.38-3.04-5.96v-17.5Z"/>
      <path class="cls-1" d="M60.11,48.99c-.36-1.41.46-1.69.97-2.53,2.58-4.23,7.62-11.91,12.02-13.97,10.06-4.72,19.67,6.2,14.22,16.22s-18.9,2.15-27.21.28Z"/>
      <path class="cls-1" d="M12.79,17.19c11.93-2.67,15.16,8.88,21.3,16.31-.62.98-1.43,1.19-2.41,1.57-2.53.98-10.68,3.55-13.12,3.87-8.51,1.11-14.72-4.78-13.42-13.42.47-3.12,4.64-7.66,7.65-8.34Z"/>
      <path class="cls-1" d="M30.11,51v19.5c0,1.03-3.43,4.64-4.63,5.37-8.48,5.1-17.79-.56-17.43-10.39.38-10.41,14.29-11.62,22.06-14.48Z"/>
      <path class="cls-1" d="M44.11,60v16.5c0,.48-2.31,5.3-2.96,6.04-5.4,6.14-14.32,5.46-19.03-1.04,1.92-1.85,4.94-2.18,6.93-4.06,4.24-3.99,4.42-8.9,4.11-14.39l10.95-3.05Z"/>
      <path class="cls-1" d="M42.11,2.01c-.08,1.87-3.67,4.05-3.97,4.69-1.39,2.9-1.39,8.73,0,11.62.39.82,5.36,4.3,4.94,6.09l-6.46,7.59c-1.04-.97-2.03-1.96-2.93-3.06-2.29-2.79-8.12-11.31-8.51-14.49-1.19-9.71,8.05-15.9,16.95-12.44Z"/>
      <path class="cls-1" d="M29.11,48.99c-9.41,2.15-23.06,10.52-28.22-2.28-1.39-3.44-1.59-9.51,2.69-10.7,5.21,6.55,12.1,7.09,19.86,5.07l5.66,7.9Z"/>
      <path class="cls-1" d="M72.11,77c.56-8.54-4.58-14.02-12.57-15.93l-.43-10.07,17.35,6.15c7.67,5.32,5.69,19.34-4.35,19.85Z"/>
      <path class="cls-1" d="M84.11,29c-9.1-2.84-15.23.45-20.47,7.76l-8.52-3.26,10.23-14.25c8.46-5.6,19.45-.8,18.75,9.75Z"/>
      <path class="cls-1" d="M210.11,87l6.04.46,8.96,13.54v-14l5,1.5v19.5l-6.86-.15c-2.74-4.54-4.96-10.66-9.14-13.85v14h-4v-21Z"/>
      <polygon class="cls-1" points="338.11 101 338.11 87 342.11 87 342.11 108 336.07 107.54 327.11 94 327.11 108 323.11 108 323.11 87 329.15 87.46 338.11 101"/>
      <polygon class="cls-1" points="116.11 87 121.97 87.15 131.11 101 131.11 87 135.11 87 135.11 108 129.07 107.54 120.11 94 120.11 108 116.11 108 116.11 87"/>
      <path class="cls-1" d="M297.39,105.71c-3.6-3.67-3.82-9.03-1.5-13.43,6.36-12.02,27.28-3.07,19.43,11.42-3.02,5.58-14.01,5.99-17.93,2ZM303.81,91.18c-7.81,1.67-5.71,15.75,4.64,12.66,6.26-1.87,4.73-14.66-4.64-12.66Z"/>
      <path class="cls-1" d="M186.11,88.5c.76-2.88,13.08-1.48,15.07.93,1.97,3.49,1.68,9.15-3.07,9.58l5,8.99-5.9-.1-3.6-7.91-2.51.56v7.45s-4.99,0-4.99,0v-19.5ZM191.11,96c.36.12,2.69.84,4.84-.51,1.11-.7,1.69-1.65,1.95-2.16-.34-.5-.95-1.26-1.95-1.83-2.13-1.23-4.34-.65-4.84-.51v5.01Z"/>
      <path class="cls-1" d="M165.11,87c8.39.2,13.79.34,13.79.34h0v5h0s-3.83-.13-9.79-.33c0,1,0,2,0,3l9.01.55v4.46s-9.01,0-9.01,0v4h10.01s0,4,0,4h-14v-21Z"/>
      <path class="cls-1" d="M249,87.11l9.1,20.89c-5.5,1.54-5.11-2.24-6.96-3.53-1.12-.78-7.04-.82-8.11-.03l-1,3.5-5.93.07,9.1-20.89h3.79ZM249.11,100c-.74-2.22-1.47-4.44-2.21-6.66-.6,2.22-1.19,4.44-1.79,6.66h4Z"/>
      <path class="cls-1" d="M370.11,108l-4.91-.08-1.18-3.83-8.31-.14-1.69,3.96-4.91.08,9.58-20.95c1.3-.36,2.03.07,2.98.89.83.71,9.24,19.31,8.44,20.05ZM362.11,100l-2.99-5.99-2,5.99h5Z"/>
      <polygon class="cls-1" points="158.11 87 158.11 91 153.11 91 153.11 108 148.11 108 148.11 91 142.11 91 142.11 87 158.11 87"/>
      <polygon class="cls-1" points="276.11 87 276.11 91 271.11 91 271.11 108 266.11 108 266.11 91 260.11 91 260.11 87 276.11 87"/>
      <path class="cls-1" d="M382.11,104h10s0,4,0,4h-15v-19.5c0-1.88,5-1.88,5,0v15.5Z"/>
      <path class="cls-1" d="M107.11,108h-5v-19.5c0-1.88,5-1.88,5,0v19.5Z"/>
      <path class="cls-1" d="M288.11,108h-5v-19.5c0-1.88,5-1.88,5,0v19.5Z"/>
      <polygon class="cls-1" points="33.11 60 33.16 50.05 43.1 47 42.67 57.07 33.11 60"/>
      <path class="cls-1" d="M39.81,40.29c.6.73,2.88,4.18,2.3,4.71-3.32-.84-7.28,2.92-10,1.54-1.16-.59-5.81-6.83-5-7.53l8.53-2.86c.83,2,3.41,3.21,4.17,4.14Z"/>
      <path class="cls-1" d="M56.06,50.05l.05,9.95-9.56-2.93-.43-9.07c3.54-.47,6.46,1.95,9.95,2.05Z"/>
      <path class="cls-1" d="M46.1,27l4.9,7.5-6.38,7.5c-1.96-.97-3.61-7.36-6.5-7v-.99c4.17-.15,3.88-6.97,7.99-7.01Z"/>
      <polygon class="cls-1" points="62.11 39 58 46.88 48.11 45 53.57 36.16 62.11 39"/>
    </g>
  </g>
</svg>