<?xml version="1.0" encoding="UTF-8"?>
<svg id="Layer_2" data-name="Layer 2" xmlns="http://www.w3.org/2000/svg" viewBox="0 0 435.97 183">
  <defs>
    <style>
      .cls-1 {
        fill-rule: evenodd;
      }
    </style>
  </defs>
  <g id="Layer_1-2" data-name="Layer 1">
    <g id="Page-1">
      <g id="Mobilemenu-2">
        <g id="HEADER">
          <g id="LOGO">
            <path id="fwd." class="cls-1" d="M172.91,83.42v-1.72h5.94v-1.91c0-6.86,1.39-11.8,4.16-14.82,2.78-3.02,7-4.53,12.69-4.53,4.47,0,8.94.76,13.4,2.29l-5.36,12.87h-.19l-5.55-12.39c-.32-.57-.57-.92-.77-1.05s-.61-.19-1.24-.19c-3.38,0-5.07,3.37-5.07,10.1v9.63h12.92v1.72h-12.92v38.13c0,.64.08,1.06.24,1.29.16.22.56.49,1.2.81l7.95,4.58v.19h-28.05v-.19l5.65-4.1c.64-.38.96-1.08.96-2.1v-38.61h-5.94ZM274.2,81.89l-6.03,8.58c-.77,1.14-1.37,2.32-1.82,3.53l-12.16,34.41h-7.37l-9.96-27.74-10.05,27.74h-7.37l-13.69-38.23c-.45-1.4-.99-2.64-1.63-3.72l-2.97-4.58v-.19h21.25v.19l-4.02,4.77c-.51.57-.61,1.37-.29,2.38l10.34,29.65,7.47-20.59-2.78-7.91c-.51-1.59-1.05-2.83-1.63-3.72l-2.97-4.58v-.19h21.16v.19l-3.93,4.77c-.57.76-.7,1.56-.38,2.38l10.44,29.55,8.71-24.79c.45-1.14.32-2.22-.38-3.24l-5.55-8.67v-.19h15.61v.19ZM319,59.21v62.06c0,.95.32,1.68.96,2.19l5.74,4.77v.19h-18.76v-9.34c-2.68,6.74-7.31,10.1-13.88,10.1-5.3,0-9.61-2.16-12.92-6.48-3.32-4.32-4.98-10.1-4.98-17.35s1.85-13.2,5.55-17.68c3.7-4.48,8.33-6.72,13.88-6.72s9.86,2.67,12.35,8.01v-21.07c0-.95-.32-1.68-.96-2.19l-5.65-4.1v-.19l18.67-2.19ZM298.8,123.36c2.94,0,5.65-1.72,8.14-5.15v-28.31c-2.11-2.92-4.72-4.39-7.85-4.39s-5.82,1.56-7.9,4.67c-2.07,3.11-3.11,7.88-3.11,14.3s1.01,11.09,3.02,14.2,4.58,4.67,7.71,4.67ZM330.97,122.69c0-1.91.65-3.51,1.96-4.81s2.89-1.95,4.74-1.95,3.53.64,4.83,1.91,1.96,2.89,1.96,4.86c0,1.84-.65,3.38-1.96,4.62-1.31,1.24-2.92,1.86-4.83,1.86s-3.43-.62-4.74-1.86c-1.31-1.24-1.96-2.78-1.96-4.62Z"/>
            <path id="us" class="cls-1" d="M390.36,81.5v39.73c0,.96.31,1.69.94,2.2l5.57,4.79v.19h-18.51v-10.63c-2.64,7.59-7.3,11.39-13.98,11.39-9,0-13.5-6.48-13.5-19.43,0-3.83.06-10.85.19-21.06,0-.96-.31-1.72-.94-2.3l-5.67-4.69v-.19h18.51c0,.06-.02,2.04-.05,5.94-.03,3.89-.06,7.91-.09,12.06-.03,4.15-.05,6.61-.05,7.37,0,5.3.57,9.24,1.7,11.82s3.05,3.88,5.76,3.88c3.15,0,5.85-1.95,8.12-5.84v-28.05c0-.96-.31-1.69-.94-2.2l-5.57-4.79v-.19h18.51ZM435.97,114.05c0,4.79-1.81,8.5-5.43,11.15-3.62,2.65-8.23,3.97-13.83,3.97s-10.95-.99-16.05-2.97l4.53-13.98h.19l6.33,13.98c.31.64.88,1.02,1.7,1.15,1.07.19,2.14.29,3.21.29,2.9,0,5.16-.77,6.8-2.3,1.64-1.53,2.46-3.45,2.46-5.74,0-2.11-.68-3.75-2.03-4.93s-3.64-2.51-6.85-3.97l-6.04-2.78c-6.04-2.81-9.07-7.18-9.07-13.12,0-4.28,1.65-7.69,4.96-10.24,3.3-2.55,7.44-3.83,12.42-3.83,5.29,0,10.39.8,15.3,2.39l-4.34,13.02h-.19l-6.61-12.45c-.5-.96-1.48-1.44-2.93-1.44h-1.13c-2.33,0-4.26.67-5.81,2.01s-2.31,3.22-2.31,5.65c0,2.04.66,3.69,1.98,4.93,1.32,1.24,3.3,2.44,5.95,3.59l6.23,2.68c3.4,1.47,6.01,3.16,7.84,5.07,1.83,1.91,2.74,4.53,2.74,7.85Z"/>
            <g id="Mask">
              <path id="path-1" class="cls-1" d="M41.37,76.02H0V0h129.18v36.6H41.37v39.42ZM41.37,115.43v67.57H0v-67.57h41.37ZM41.52,76.02h62.84v39.42h-62.84v-39.42Z"/>
            </g>
          </g>
        </g>
      </g>
    </g>
  </g>
</svg>