<?xml version="1.0" encoding="UTF-8"?>
<svg id="Layer_2" data-name="Layer 2" xmlns="http://www.w3.org/2000/svg" viewBox="0 0 440 243">
  <defs>
    <style>
      .cls-1 {
        fill: #0f002c;
      }

      .cls-2 {
        fill: #ea4036;
      }
    </style>
  </defs>
  <g id="Layer_1-2" data-name="Layer 1">
    <rect class="cls-1" width="440" height="243"/>
    <g>
      <path class="cls-2" d="M165.29,71.43c.23.25.89,6.45.81,6.78-.55,2.21-6.94,1.19-7.95,3.87l-30.17,85.5-20.52,4.28-30.45-89.24c-2.27-3.91-7.93-2.51-8.42-2.98-.29-.28-.34-6.98.85-7.81,2.82-1.97,35.84.59,41.93-.3,2.87,9.69-.17,7.11-6.8,9-1.08.31-1.62-.6-1.21,1.27l20.66,62.39,2.03,1.15,20.02-62.59.06-2.19c-7.64-.62-10.35-.36-9.13-9.13,3.6.78,27.32-1.03,28.29,0Z"/>
      <path class="cls-2" d="M303.07,110.66c13.14-3.81,25.59-12.12,39.68-10.93,27.69,2.33,18.27,28.24,19.59,47.93.12,1.85.67,7.62,1.08,8.95.89,2.85,6.08.76,7.08,1.6.45.37,1.45,7.57.96,8.08-.92.97-22.95,3.3-26.17,5.35-3.28.14-3.93-8.93-6.2-10.79-1.49-.34-13.15,10.52-16.47,10.95-6.4.83-16.58-4.57-19.74-10.31-3.6-6.52-2.74-17.15,2.52-22.5s26.29-7.36,33.13-12.48c-.35-5.58,1.61-16.29-5.81-16.78-10.94-.72-6.78,7.64-8.66,15.54h-20.99v-14.6ZM338.65,134.39c-10.12,1.86-18.44,8.2-13.6,19.53,3.48,8.14,13.6,1.77,13.6.09v-19.62Z"/>
      <path class="cls-2" d="M221.86,136.21l-38.33-.91c.52,12.38,7.67,20.23,20.53,19.15,3.91-.33,13.35-4.81,14.52-4.62.46.08,4.15,5.91,1.93,8.28-4.08,4.36-21.64,13.37-27.41,13.75-28.05,1.86-43.1-31.51-29.1-53.82,9.92-15.81,39.26-26.66,52.76-9.12,1.33,1.72,5.1,8.77,5.1,10.41v16.88ZM199.06,127.09c2.16-24.69-18.21-22.13-15.52.91l15.52-.91Z"/>
      <path class="cls-2" d="M270.68,125.26c-.53.15-7.34,7.17-7.57,7.94-.6,2.02-.69,23.61-.24,26.2l15.57,2.36c-.39,1.34-.64,7.9-.93,8.2-1.52,1.6-38.75-1.24-44.14.06-.99-.27-2.03-7.43-1.38-8.18.24-.28,7.21-1.53,7.21-1.91v-46.53c-1.34-.22-7.01.31-7.3,0s-1.13-7.08.53-8.13c2.72-1.73,24.42-5.03,26.72-3.6,1.78,5.56,1.34,11.86,2.06,17.56.12.97.36,4.27,1.71,4.2l11.87-22.8h14.14c.64,0,1.23,1.52,1.37,2.28.58,3.17.45,15.73.05,19.21-.11.92-.42,3.15-1.42,3.15-4.01,0-15.41-.81-18.25,0Z"/>
    </g>
  </g>
</svg>